<svg width="32" height="32" viewBox="0 0 32 32" fill="none" xmlns="http://www.w3.org/2000/svg">
<circle cx="16" cy="16" r="15" stroke="#FBFDFF" stroke-width="1.2"/>
<path d="M16.3353 15.9093C15.706 14.6862 13.9932 12.4059 12.4006 11.2821C10.8746 10.2055 10.2933 10.391 9.91196 10.5646C9.47022 10.7626 9.38965 11.4412 9.38965 11.8391C9.38965 12.2385 9.60844 15.1099 9.75082 15.5898C10.2231 17.1734 11.8998 17.7082 13.4459 17.5367C11.1816 17.8721 9.16947 18.6966 11.8067 21.6332C14.7086 24.6372 15.7838 20.9894 16.3353 19.1397C16.8868 20.9894 17.5216 24.506 20.8111 21.6332C23.281 19.1397 21.4897 17.8721 19.2254 17.5367C20.7708 17.7082 22.4482 17.1734 22.9198 15.5898C23.0622 15.1106 23.281 12.2385 23.281 11.8398C23.281 11.4405 23.2004 10.7633 22.7587 10.5632C22.3773 10.391 21.796 10.2041 20.27 11.2807C18.6774 12.4066 16.9639 14.6869 16.3353 15.9093Z" fill="#FBFDFF"/>
</svg>
