<svg width="122" height="44" viewBox="0 0 122 44" fill="none" xmlns="http://www.w3.org/2000/svg">
<path d="M15.9601 10.8228C15.8133 11.1571 15.6747 11.4997 15.536 11.8504C15.479 11.9809 15.43 12.1195 15.3811 12.25C15.2832 12.5191 15.1854 12.7883 15.0956 13.0574C15.0304 13.245 14.9733 13.4326 14.9162 13.6283C14.8265 13.93 14.7286 14.24 14.6471 14.5417C14.6226 14.6314 14.5981 14.713 14.5818 14.8027C14.4758 15.2023 14.3779 15.6101 14.2964 16.0179H19.4018C19.4018 16.0179 19.41 15.9608 19.4181 15.9363C19.5323 15.1289 19.6709 14.3215 19.8259 13.5467C19.8422 13.4815 19.8504 13.4162 19.8585 13.351C19.8748 13.2858 19.8911 13.2205 19.9075 13.1553C20.0543 12.4702 20.2255 11.7933 20.405 11.1327C20.4294 11.0348 20.4539 10.9206 20.4784 10.8228H15.952H15.9601Z" fill="#EFF2F8"/>
<path d="M20.5601 10.5371C20.5846 10.4474 20.6254 10.3577 20.6498 10.2679C20.7314 9.99881 20.8129 9.72152 20.9026 9.45238C21.0168 9.118 21.1473 8.78362 21.2696 8.44924C21.2696 8.43293 21.2778 8.41662 21.286 8.40846C21.4817 7.91097 21.6856 7.42978 21.9058 6.96491C21.9955 6.76918 22.0852 6.5816 22.1749 6.39402C22.1749 6.39402 22.1749 6.37771 22.1831 6.37771C22.2646 6.19828 22.3625 6.02702 22.4522 5.85575C22.5093 5.74972 22.5664 5.65186 22.6235 5.55399C22.6561 5.48874 22.6969 5.41534 22.7295 5.3501H19.4754C19.1573 5.69263 18.8556 6.06779 18.562 6.45111C18.5375 6.48373 18.5049 6.51635 18.4804 6.55713C18.3826 6.67947 18.2928 6.81811 18.195 6.9486C17.8361 7.4461 17.5017 7.96806 17.1837 8.50633C17.0858 8.66944 16.9879 8.84071 16.8982 9.01198C16.6128 9.50947 16.3355 10.0151 16.0908 10.5452H20.5601V10.5371Z" fill="#EFF2F8"/>
<path d="M19.8997 17.0211C20.0057 16.7846 20.1199 16.548 20.2422 16.3278C20.2422 16.3278 20.2422 16.3197 20.2422 16.3115H19.6387C19.5653 16.8906 19.5245 17.4778 19.4756 18.065C19.5735 17.7632 19.6876 17.4696 19.8181 17.1842C19.8426 17.1271 19.8671 17.0782 19.8915 17.0292L19.8997 17.0211Z" fill="#EFF2F8"/>
<path d="M20.0956 26.7095C19.9977 26.5137 19.8998 26.3261 19.8101 26.1223C19.7041 25.8694 19.6062 25.6085 19.5084 25.3475C19.5084 25.323 19.492 25.2985 19.4839 25.2822C19.4839 25.2985 19.492 25.3067 19.492 25.323C19.541 25.8857 19.5818 26.4485 19.647 26.9868H20.2261C20.2261 26.9868 20.2261 26.9786 20.2261 26.9704C20.1771 26.8889 20.1445 26.7992 20.0956 26.7095Z" fill="#EFF2F8"/>
<path d="M19.1006 19.4107C19.1088 19.2476 19.1169 19.0926 19.1333 18.9376C19.1414 18.7827 19.1496 18.6277 19.1577 18.4728C19.2148 17.7469 19.2719 17.0211 19.3616 16.3115H14.2317C13.9055 17.9997 13.7342 19.7369 13.7261 21.5067H18.8804C18.8804 21.156 18.9049 20.8053 18.9375 20.4546C18.9783 20.1039 19.0272 19.7532 19.1006 19.4107Z" fill="#EFF2F8"/>
<path d="M18.8804 21.792H13.7261C13.7342 23.5699 13.9055 25.3152 14.2317 26.9871H19.3616C19.2719 26.2694 19.2067 25.5354 19.1577 24.8014C19.1333 24.516 19.1251 24.2305 19.1088 23.9451C18.962 23.2437 18.8886 22.526 18.8804 21.792Z" fill="#EFF2F8"/>
<path d="M20.4787 32.4756C20.4542 32.4022 20.4461 32.3206 20.4216 32.2554C20.2259 31.5784 20.0546 30.8689 19.8996 30.1512C19.8833 30.086 19.867 30.0207 19.8507 29.9473C19.8344 29.8821 19.8262 29.8087 19.8099 29.7434C19.655 28.9768 19.5163 28.1939 19.4103 27.3864C19.4103 27.3538 19.394 27.3212 19.394 27.2886H14.2886C14.362 27.6474 14.4517 27.9981 14.5332 28.3488C14.5822 28.5609 14.6393 28.7729 14.6964 28.9768C14.7534 29.197 14.8187 29.409 14.8839 29.6211C14.941 29.8331 15.0144 30.0533 15.0878 30.2654C15.1449 30.4448 15.2102 30.6242 15.2754 30.8037C15.3651 31.0646 15.463 31.3256 15.569 31.5784C15.6913 31.8802 15.8055 32.182 15.9442 32.4756H20.4705H20.4787Z" fill="#EFF2F8"/>
<path d="M20.5601 32.7695H16.0908C16.2539 33.1202 16.4252 33.4628 16.6046 33.7971C16.6046 33.8053 16.6128 33.8135 16.6209 33.8216C16.8656 34.2783 17.1266 34.7269 17.3957 35.1591C17.4691 35.2733 17.5344 35.3793 17.6078 35.4935C17.8851 35.9258 18.1705 36.3499 18.4886 36.7576C18.5864 36.8881 18.6925 37.0023 18.7903 37.1246C19.0187 37.4101 19.2389 37.6874 19.4836 37.9565H22.7377C22.7377 37.9565 22.7132 37.9076 22.6969 37.8831C22.6153 37.7445 22.5338 37.5977 22.4522 37.459C22.3625 37.2878 22.2728 37.1246 22.1912 36.9534C22.1912 36.9534 22.1912 36.9371 22.1831 36.9371C21.9629 36.4967 21.759 36.0399 21.5633 35.5751C21.5306 35.4935 21.498 35.412 21.4572 35.3304C21.2778 34.8982 21.1147 34.4577 20.9516 34.001C20.9353 33.9603 20.919 33.9195 20.9026 33.8787C20.8374 33.683 20.7722 33.4791 20.7151 33.2833C20.658 33.1121 20.6009 32.949 20.552 32.7777L20.5601 32.7695Z" fill="#EFF2F8"/>
<path d="M21.6206 34.8817C21.955 35.7299 22.322 36.5291 22.7134 37.2631C22.8358 37.4997 22.9581 37.7362 23.0886 37.9645H26.3672C26.3427 37.8422 26.3101 37.7199 26.2774 37.5975C26.253 37.4915 26.2204 37.3692 26.1877 37.255C26.1551 37.1327 26.1225 37.0185 26.098 36.888C26.0654 36.7656 26.0409 36.6352 26.0165 36.5128C25.9431 36.1866 25.8697 35.8685 25.7963 35.526C25.6168 34.6533 25.4619 33.7318 25.3151 32.7612H20.8784C21.0578 33.3566 21.2617 33.9112 21.4656 34.4658C21.5146 34.6044 21.5635 34.743 21.6206 34.8735V34.8817Z" fill="#EFF2F8"/>
<path d="M22.4526 29.8172C22.2568 29.6377 22.0692 29.4502 21.8817 29.2544C21.3271 28.6672 20.8377 28.0148 20.43 27.3134C20.43 27.3052 20.4136 27.2971 20.4136 27.2808H19.7041C19.8917 28.6998 20.1608 30.0537 20.4789 31.3341C20.5768 31.7256 20.6828 32.1007 20.7888 32.4759H25.2907C25.2581 32.2068 25.2255 31.9376 25.1928 31.6685C24.1979 31.1955 23.2926 30.5756 22.4933 29.8416C22.4852 29.8335 22.4689 29.8253 22.4607 29.8172H22.4526Z" fill="#EFF2F8"/>
<path d="M22.4606 13.5141C22.4606 13.5141 22.5013 13.4815 22.5177 13.4652C23.3087 12.7475 24.2059 12.1358 25.1764 11.6709C25.2172 11.3936 25.2416 11.1 25.2824 10.8228H20.7805C20.7479 10.9369 20.7234 11.0511 20.6908 11.1653C20.2667 12.6822 19.9242 14.3052 19.6958 16.0179H20.4298C20.4298 16.0179 20.438 16.0016 20.4461 16.0016C21.0007 15.08 21.6776 14.24 22.4606 13.5223V13.5141Z" fill="#EFF2F8"/>
<path d="M20.8784 10.5369H25.3232C25.4619 9.58273 25.625 8.67745 25.7963 7.81295C25.8941 7.32362 26.0002 6.85059 26.1062 6.40203C26.1551 6.21445 26.1959 6.04318 26.2448 5.87191C26.2611 5.81482 26.2693 5.76589 26.2856 5.7088C26.2856 5.7088 26.2856 5.70064 26.2856 5.69249C26.3182 5.57831 26.3508 5.44782 26.3753 5.3418H23.0967C22.8195 5.80667 22.5666 6.30416 22.3138 6.82612C22.0284 7.43779 21.7511 8.07393 21.4982 8.75085C21.278 9.3299 21.0742 9.91711 20.8784 10.5369Z" fill="#EFF2F8"/>
<path d="M25.2495 2.54448C24.5563 3.23771 23.9038 4.07774 23.3003 5.04826H26.4402C26.5381 4.72203 26.6278 4.42843 26.7257 4.13483C26.9459 3.47422 27.1824 2.88701 27.427 2.38136C27.5168 2.18563 27.6228 1.99805 27.7125 1.82678C27.7125 1.81863 27.7206 1.80231 27.7288 1.79416C27.7614 1.72891 27.8022 1.67182 27.8348 1.61473C27.9327 1.45162 28.0306 1.29667 28.1366 1.15802C28.1529 1.13355 28.1692 1.10909 28.1937 1.08462C28.2915 0.954129 28.3894 0.831794 28.4954 0.725771C28.5362 0.676837 28.5851 0.644215 28.6259 0.603437C28.6667 0.562658 28.6993 0.530036 28.7483 0.489258C28.3894 0.570814 28.0306 0.693149 27.688 0.848106C26.8317 1.21511 26.0243 1.786 25.2576 2.54448H25.2495Z" fill="#EFF2F8"/>
<path d="M23.6266 2.03099C23.545 2.07992 23.4635 2.12886 23.3819 2.17779C22.5093 2.68344 21.6774 3.29511 20.8945 3.9965C20.7966 4.08621 20.6987 4.16776 20.6009 4.25748C20.4867 4.35534 20.3888 4.46952 20.2746 4.57555C20.1115 4.7305 19.9484 4.88546 19.7935 5.05673H22.9008C23.2107 4.54292 23.5287 4.0699 23.855 3.63765C23.8713 3.61318 23.8876 3.59687 23.9039 3.5724C24.2464 3.11569 24.6134 2.71606 24.9804 2.34906C25.7144 1.61505 26.4811 1.036 27.2885 0.644531C27.1091 0.685309 26.9215 0.734243 26.7421 0.783177C26.7339 0.783177 26.7176 0.783177 26.7094 0.783177C25.9265 0.995223 25.1599 1.27251 24.4014 1.63136C24.1404 1.7537 23.8794 1.88419 23.6184 2.03099H23.6266Z" fill="#EFF2F8"/>
<path d="M19.5327 4.85261C19.8915 4.4693 20.2667 4.11045 20.65 3.76791C20.8457 3.59665 21.0496 3.42538 21.2454 3.26226C21.7265 2.87079 22.224 2.50379 22.7297 2.17757C22.9662 2.02261 23.2109 1.87581 23.4555 1.73716C23.5126 1.70454 23.5779 1.68007 23.635 1.64745C24.0998 1.39462 24.5647 1.18258 25.0296 0.994999C25.1682 0.937909 25.2987 0.872664 25.4455 0.82373C25.4373 0.82373 25.4292 0.82373 25.421 0.82373C24.9643 0.921598 24.5158 1.03578 24.0672 1.16627C23.2272 1.40278 22.3953 1.68823 21.5797 2.03892C19.8263 2.78108 18.2033 3.7516 16.7108 4.92601C16.6537 4.96679 16.5966 5.00757 16.5396 5.04835H19.3369C19.4022 4.9831 19.4674 4.91786 19.5245 4.85261H19.5327Z" fill="#EFF2F8"/>
<path d="M15.7645 10.5371C15.8135 10.4392 15.8624 10.3495 15.9113 10.2516C16.2783 9.47685 16.6861 8.73468 17.1265 8.01699C17.1999 7.89465 17.2815 7.77232 17.363 7.64999C17.6485 7.20143 17.9421 6.76918 18.2602 6.34508C18.5211 6.00255 18.7903 5.67632 19.0676 5.3501H16.1397C15.7564 5.66817 15.3975 6.0107 15.0387 6.3614C14.9653 6.4348 14.8756 6.50004 14.8022 6.57344C14.3536 7.022 13.9377 7.48687 13.538 7.96806C13.0732 8.52264 12.6328 9.09353 12.225 9.68889C12.0782 9.90094 11.9395 10.1211 11.8009 10.3413C11.7601 10.4066 11.7112 10.48 11.6704 10.5452H15.7727L15.7645 10.5371Z" fill="#EFF2F8"/>
<path d="M15.634 10.8472C15.634 10.8472 15.634 10.8309 15.6422 10.8228H11.4828C11.336 11.0756 11.1973 11.3447 11.0505 11.6057C10.8059 12.0706 10.5694 12.5436 10.3573 13.0248C10.341 13.0656 10.3247 13.0982 10.3084 13.1308C10.2757 13.2042 10.235 13.2776 10.2023 13.351C9.89243 14.085 9.63961 14.8272 9.41125 15.5775C9.39494 15.6264 9.37863 15.6754 9.37047 15.7161C9.33785 15.814 9.31338 15.9119 9.28076 16.0097H13.9947C14.3617 14.1992 14.9081 12.462 15.6258 10.8391L15.634 10.8472Z" fill="#EFF2F8"/>
<path d="M9.20782 16.3115C9.15889 16.5073 9.11811 16.703 9.07733 16.8906C9.03656 17.0863 8.97947 17.2902 8.94684 17.4859C8.8082 18.1873 8.71033 18.8969 8.64509 19.6146C8.588 20.2425 8.54722 20.8705 8.53906 21.5067H13.4488C13.4488 21.368 13.4569 21.2375 13.4569 21.0989C13.4651 20.6259 13.4895 20.161 13.5222 19.6961C13.5222 19.6064 13.5222 19.5085 13.5385 19.4188C13.5548 19.2557 13.5711 19.0926 13.5874 18.9295C13.669 18.0405 13.7831 17.1679 13.9462 16.3115H9.20782Z" fill="#EFF2F8"/>
<path d="M13.9464 26.9871C13.8812 26.6527 13.8323 26.3102 13.7752 25.9677C13.5631 24.6057 13.449 23.2111 13.4408 21.792H8.52295C8.52295 21.9143 8.52295 22.0367 8.53111 22.159C8.54742 22.6565 8.57188 23.154 8.62082 23.6596L11.6221 21.8083L12.6497 23.6189L9.64843 25.4783L8.89811 25.6496C8.93889 25.8617 8.99598 26.0737 9.03675 26.2857C9.08569 26.5223 9.12647 26.7588 9.19171 26.9871H13.9301H13.9464Z" fill="#EFF2F8"/>
<path d="M10.2105 29.9477C10.5775 30.8203 11.0098 31.6685 11.4828 32.4759H15.634C15.0305 31.1058 14.5575 29.6622 14.1986 28.1616C14.1252 27.868 14.0518 27.5744 13.9947 27.2808H9.28076C9.37047 27.6151 9.4765 27.9414 9.58252 28.2757C9.71301 28.6672 9.85166 29.0587 10.0066 29.442C10.0719 29.6133 10.1289 29.7764 10.2023 29.9477H10.2105Z" fill="#EFF2F8"/>
<path d="M14.8025 36.741C15.2266 37.1732 15.6752 37.581 16.1319 37.9643H19.0598C18.9048 37.7767 18.758 37.5892 18.6112 37.4016C18.6112 37.3934 18.5949 37.3853 18.5867 37.369C18.4726 37.2303 18.3584 37.0998 18.2523 36.9612C17.396 35.8357 16.6538 34.6042 16.0177 33.2993C15.9932 33.2585 15.9769 33.2177 15.9525 33.177C15.8872 33.0465 15.8138 32.916 15.7567 32.7773H11.6626C12.0459 33.4053 12.4782 34.017 12.9267 34.6042C13.5058 35.3545 14.1256 36.0722 14.8025 36.7491V36.741Z" fill="#EFF2F8"/>
<path d="M25.4537 42.4746C25.315 42.4257 25.1764 42.3604 25.0377 42.3033C24.7604 42.1892 24.4831 42.0587 24.2058 41.9282C24.1324 41.8956 24.059 41.8629 23.9856 41.8303C23.9122 41.7895 23.8307 41.7488 23.7573 41.7161C23.6594 41.6672 23.5534 41.6183 23.4555 41.5612C22.4687 41.0066 21.5308 40.3215 20.65 39.5386C20.1933 39.139 19.7529 38.7149 19.3288 38.25H16.5396C16.5396 38.25 16.6048 38.2989 16.6374 38.3234C16.9473 38.5681 17.2654 38.8046 17.5835 39.0329C17.6976 39.1145 17.82 39.1961 17.9423 39.2776C18.2033 39.457 18.4724 39.6283 18.7416 39.7914C18.8557 39.8648 18.9699 39.9301 19.0841 40.0035C19.4022 40.191 19.7284 40.3705 20.0546 40.5417C20.1199 40.5744 20.177 40.607 20.2422 40.6396C20.389 40.713 20.5358 40.7782 20.6826 40.8435C20.9762 40.9821 21.278 41.1289 21.5797 41.2594C22.8357 41.7895 24.1243 42.1973 25.4455 42.4746H25.4537Z" fill="#EFF2F8"/>
<path d="M26.2202 42.0097C25.5841 41.553 24.9724 40.9903 24.3934 40.3052C24.3281 40.2318 24.2629 40.1666 24.1976 40.085C24.1895 40.0769 24.1813 40.0605 24.165 40.0442C23.9774 39.8159 23.7899 39.5712 23.6104 39.3102C23.5533 39.2287 23.4963 39.1553 23.4473 39.0737C23.3739 38.9677 23.2924 38.8617 23.219 38.7475C23.1537 38.6415 23.0885 38.5273 23.0151 38.4131C22.9825 38.356 22.9417 38.3071 22.9091 38.25H19.8018C19.9404 38.3968 20.079 38.5354 20.2259 38.6741C20.5439 38.9922 20.8701 39.2939 21.2127 39.5794C21.6694 39.9627 22.1343 40.3297 22.6236 40.6559C22.9498 40.8761 23.2924 41.08 23.6349 41.2676C23.8877 41.4144 24.1487 41.5449 24.4097 41.6672C24.6707 41.7895 24.9398 41.9037 25.2008 42.0097C25.266 42.0342 25.3231 42.0505 25.3884 42.075C25.6575 42.181 25.9348 42.2789 26.2039 42.3686C26.261 42.3849 26.31 42.4012 26.367 42.4175C26.677 42.5072 26.9869 42.597 27.2968 42.6622C26.9298 42.4828 26.5791 42.2626 26.2284 42.0097H26.2202Z" fill="#EFF2F8"/>
<path d="M28.7483 42.809C28.7483 42.809 28.6749 42.7356 28.6341 42.703C28.4954 42.5725 28.3568 42.4094 28.2263 42.2381C28.1203 42.1076 28.0224 41.9527 27.9164 41.7977C27.8511 41.6998 27.794 41.602 27.7288 41.4959C27.7288 41.4959 27.7288 41.4878 27.7206 41.4796C27.5412 41.1697 27.3781 40.8027 27.2068 40.4194C26.9377 39.7833 26.6767 39.0656 26.4402 38.25H23.3003C23.4716 38.5273 23.6428 38.7883 23.8223 39.0411C23.8467 39.0737 23.8712 39.1063 23.8957 39.139C24.4095 39.8567 24.9559 40.4928 25.5349 41.0229C25.7796 41.2431 26.0243 41.447 26.2771 41.6264C26.8643 42.0587 27.4678 42.3931 28.0958 42.6133C28.0958 42.6133 28.0958 42.6133 28.104 42.6133C28.316 42.6867 28.5281 42.7519 28.7401 42.8008L28.7483 42.809Z" fill="#EFF2F8"/>
<path d="M29.719 42.915V38.25H26.7993C27.6393 41.0963 28.6751 42.7601 29.719 42.915Z" fill="#EFF2F8"/>
<path d="M25.7389 33.6257C25.8204 34.1232 25.902 34.6044 25.9999 35.0774C26.0162 35.159 26.0325 35.2324 26.0488 35.3058C26.1548 35.8196 26.2609 36.3252 26.375 36.8064C26.4647 37.2061 26.5708 37.5812 26.6686 37.9482C26.6686 37.9482 26.6686 37.9482 26.6686 37.9564H29.7188V32.7612H25.6084C25.6492 33.0548 25.69 33.3321 25.7389 33.6176V33.6257Z" fill="#EFF2F8"/>
<path d="M27.4765 32.4759C26.7833 32.3128 26.1145 32.0926 25.4702 31.8071C25.5028 32.0273 25.5191 32.2557 25.5518 32.4759H27.4765Z" fill="#EFF2F8"/>
<path d="M26.5386 11.1164C26.8567 11.0103 27.1829 10.9288 27.5091 10.8554C27.5499 10.8472 27.5825 10.8309 27.6233 10.8228H25.5518C25.5191 11.0511 25.4947 11.2958 25.4702 11.5323C25.7964 11.3855 26.1308 11.255 26.4652 11.1408C26.4897 11.1408 26.506 11.1245 26.5304 11.1164H26.5386Z" fill="#EFF2F8"/>
<path d="M29.719 5.3418H26.6688C26.6443 5.43151 26.6198 5.52938 26.5954 5.62724C26.522 5.90454 26.4404 6.18998 26.3752 6.48359C26.2121 7.17681 26.0571 7.91898 25.9185 8.68561C25.8124 9.28912 25.7064 9.9008 25.6167 10.5369H29.7271V5.3418H29.719Z" fill="#EFF2F8"/>
<path d="M27.5579 2.94417C27.297 3.54769 27.0441 4.24907 26.8076 5.04832H29.7192V0.383301C29.6458 0.391456 29.5642 0.424079 29.4908 0.456701C29.4419 0.481168 29.393 0.49748 29.344 0.530102C29.2788 0.57088 29.2054 0.603503 29.1401 0.652437C28.5937 1.0276 28.0554 1.81869 27.5661 2.95232L27.5579 2.94417Z" fill="#EFF2F8"/>
<path d="M49.57 13.351C49.203 12.4783 48.7707 11.6302 48.2977 10.8228H44.1465C44.856 12.4539 45.4188 14.1992 45.7858 16.0179H50.4997C50.3855 15.602 50.2551 15.1942 50.1164 14.7864C50.1001 14.7375 50.0838 14.6804 50.0593 14.6314C50.0349 14.5662 50.0104 14.5009 49.9859 14.4357C49.8554 14.0687 49.7168 13.7098 49.57 13.351Z" fill="#EFF2F8"/>
<path d="M39.6851 16.3115C39.7421 16.4175 39.7911 16.5236 39.8482 16.6296C39.9297 16.7845 40.0031 16.9477 40.0847 17.1108C40.1418 17.2331 40.1907 17.3473 40.2396 17.4696C40.2233 17.282 40.207 17.0863 40.1907 16.8906C40.1744 16.6948 40.1581 16.4991 40.1336 16.3115H39.6851Z" fill="#EFF2F8"/>
<path d="M39.7095 26.9871H40.1336C40.1743 26.6446 40.1988 26.2857 40.2314 25.9269C40.2314 25.9106 40.2396 25.8942 40.2396 25.8779C40.2396 25.8779 40.2396 25.8942 40.2314 25.8942C40.0683 26.2694 39.9052 26.6282 39.7095 26.9871Z" fill="#EFF2F8"/>
<path d="M39.3018 10.8228C39.367 11.043 39.4241 11.2795 39.4812 11.5078C39.522 11.6628 39.5627 11.8177 39.5954 11.9809C39.6443 12.1766 39.6851 12.3642 39.734 12.5599C39.8727 13.1634 39.995 13.7751 40.1092 14.3949C40.1336 14.5499 40.1663 14.7048 40.1907 14.8598C40.2478 15.186 40.3049 15.5122 40.3538 15.8466C40.362 15.9037 40.3701 15.9608 40.3783 16.0179H45.4837C45.394 15.5938 45.2961 15.1697 45.1901 14.7538C45.1738 14.6967 45.1575 14.6396 45.1493 14.5825C45.0596 14.2481 44.9618 13.9137 44.8557 13.5794C44.8068 13.4162 44.7579 13.2613 44.7008 13.0982C44.6029 12.8046 44.5051 12.5191 44.399 12.2337C44.3256 12.0216 44.2441 11.8177 44.1544 11.6057C44.0483 11.3447 43.9423 11.0756 43.8281 10.8228H39.3018Z" fill="#EFF2F8"/>
<path d="M43.6818 10.5372C43.6573 10.4801 43.6247 10.4312 43.6002 10.3823C43.3556 9.86031 43.0864 9.3465 42.8091 8.85716C42.5482 8.40045 42.2709 7.96004 41.9773 7.5278C41.7571 7.20157 41.5287 6.87535 41.2922 6.55728C41.2596 6.50834 41.227 6.46756 41.1862 6.42679C41.1617 6.39416 41.1372 6.3697 41.1209 6.34523C40.8518 6.00269 40.5827 5.66831 40.3054 5.3584H37.0513C37.2144 5.64385 37.3693 5.93745 37.5243 6.23921C37.5406 6.27183 37.5569 6.30445 37.5732 6.32892C37.5814 6.34523 37.5977 6.36154 37.6059 6.38601C37.6059 6.38601 37.6059 6.38601 37.6059 6.39416C37.6059 6.39416 37.6059 6.41047 37.614 6.41047C37.6874 6.54912 37.7527 6.70408 37.8179 6.85088C38.0544 7.34837 38.2828 7.86218 38.4867 8.40045C38.4867 8.41676 38.4948 8.43307 38.503 8.44938C38.764 9.1263 39.0086 9.82768 39.2288 10.5535H43.69L43.6818 10.5372Z" fill="#EFF2F8"/>
<path d="M38.5435 9.45258C38.4782 9.25684 38.4048 9.06111 38.3314 8.86537C38.2336 8.60439 38.1357 8.35972 38.0378 8.1069C37.9726 7.94379 37.9073 7.77252 37.8339 7.60941C37.7197 7.34843 37.5974 7.08745 37.4751 6.83462C37.4098 6.69598 37.3446 6.55733 37.2793 6.41868C37.157 6.16586 37.0184 5.92935 36.8879 5.69283C36.8226 5.5705 36.7574 5.44816 36.6921 5.33398H33.4136C33.4544 5.48894 33.4951 5.65205 33.5278 5.80701C33.5522 5.91303 33.5767 6.0109 33.6093 6.11693C33.6256 6.16586 33.6338 6.21479 33.6501 6.26373C33.6582 6.3045 33.6746 6.34528 33.6827 6.38606C33.699 6.45946 33.7153 6.54102 33.7316 6.61442C33.748 6.68782 33.7643 6.76122 33.7806 6.83462C33.9763 7.68281 34.1476 8.59624 34.3025 9.53414C34.3596 9.86036 34.4167 10.1784 34.4657 10.5128H38.9023C38.7881 10.1377 38.6658 9.78696 38.5435 9.42811V9.45258Z" fill="#EFF2F8"/>
<path d="M37.4098 13.4489C38.2335 14.191 38.943 15.0637 39.5139 16.0179H40.093C40.0277 15.553 39.9625 15.1045 39.8891 14.6559C39.6526 13.3184 39.3589 12.0298 39.0083 10.8228H34.5063C34.539 11.0674 34.5634 11.3366 34.5961 11.5894C35.6237 12.0624 36.5616 12.6822 37.3934 13.4244C37.3934 13.4244 37.4098 13.4407 37.4179 13.4489H37.4098Z" fill="#EFF2F8"/>
<path d="M37.4422 29.8579C37.4422 29.8579 37.4015 29.8987 37.377 29.915C36.5451 30.6572 35.6072 31.277 34.5878 31.75C34.5551 31.9947 34.5307 32.2394 34.498 32.4759H39C39.3506 31.2689 39.6443 29.9884 39.8808 28.6428C39.9542 28.1942 40.0194 27.7375 40.0847 27.2808H39.5382C39.5382 27.2808 39.4893 27.3623 39.4648 27.3949C38.9102 28.3084 38.2333 29.1402 37.4422 29.8579Z" fill="#EFF2F8"/>
<path d="M37.2876 36.8633C37.3447 36.7573 37.3937 36.635 37.4508 36.5289C37.5812 36.2516 37.7117 35.9744 37.8422 35.6889C37.9075 35.5421 37.9646 35.3953 38.0298 35.2403C38.144 34.9712 38.25 34.6939 38.356 34.4085C38.4131 34.2535 38.4702 34.0986 38.5191 33.9436C38.6496 33.5603 38.7883 33.177 38.9106 32.7773H34.4739C34.4005 33.283 34.319 33.7723 34.2293 34.2535C34.1069 34.9304 33.9846 35.591 33.846 36.2109C33.797 36.4474 33.7399 36.6757 33.691 36.9041C33.6829 36.953 33.6665 37.002 33.6502 37.0509C33.6258 37.1488 33.5931 37.2466 33.5768 37.3445C33.5197 37.5565 33.4708 37.7686 33.4219 37.9725H36.7004C36.9043 37.6218 37.1001 37.2548 37.2958 36.8715L37.2876 36.8633Z" fill="#EFF2F8"/>
<path d="M37.043 37.9645H40.3052C40.4357 37.8177 40.558 37.6546 40.6885 37.5078C40.8924 37.2631 41.1045 37.0266 41.3002 36.7656C41.3573 36.684 41.4144 36.6025 41.4715 36.5209C41.6835 36.2355 41.8874 35.95 42.075 35.6564C42.1566 35.5341 42.23 35.4118 42.3034 35.2976C42.5154 34.9632 42.7274 34.6207 42.9232 34.27C42.9558 34.2129 42.9803 34.1558 43.0047 34.1069C43.2413 33.6746 43.4696 33.2424 43.6817 32.7856H39.2205C39.1227 33.1037 39.0248 33.4136 38.9188 33.7235C38.9025 33.7806 38.8861 33.8377 38.8698 33.8867C38.8698 33.903 38.8535 33.9193 38.8454 33.9437C38.6823 34.4086 38.511 34.8572 38.3316 35.3057C38.2908 35.4118 38.2418 35.5178 38.2011 35.6238C38.0135 36.0642 37.8259 36.4883 37.622 36.8961C37.6139 36.9124 37.6057 36.9287 37.5976 36.945C37.5731 36.9939 37.5486 37.0429 37.516 37.0918C37.3774 37.3691 37.2305 37.6382 37.0837 37.8992C37.0674 37.9237 37.0593 37.9482 37.043 37.9726V37.9645Z" fill="#EFF2F8"/>
<path d="M43.82 32.4759C43.9831 32.1007 44.138 31.7256 44.2848 31.3423C44.3338 31.2036 44.3827 31.0731 44.4317 30.9345C44.5214 30.698 44.6029 30.4615 44.6845 30.2168C44.7497 30.0374 44.8068 29.8498 44.8557 29.6704C44.9291 29.4257 45.0025 29.1729 45.0759 28.92C45.1249 28.7488 45.1738 28.5694 45.2146 28.3899C45.3043 28.0229 45.394 27.6559 45.4756 27.2808H40.3701V27.2971C40.2478 28.186 40.101 29.0587 39.9297 29.9069C39.9297 29.9069 39.9297 29.9069 39.9297 29.915C39.9297 29.9232 39.9297 29.9313 39.9297 29.9395C39.9216 29.9803 39.9053 30.0211 39.8971 30.0618C39.734 30.8285 39.5546 31.5788 39.3425 32.3128C39.3262 32.3617 39.3181 32.4188 39.3018 32.4677H43.8281L43.82 32.4759Z" fill="#EFF2F8"/>
<path d="M40.9657 23.1373C40.9494 23.2678 40.9249 23.3983 40.9086 23.5288C40.8678 23.7572 40.827 23.9855 40.7699 24.2057C40.7291 24.3851 40.6884 24.5646 40.6394 24.744C40.6313 24.8989 40.6068 25.0457 40.5987 25.2007C40.566 25.6411 40.5253 26.0815 40.4763 26.5219C40.46 26.6769 40.4519 26.84 40.4355 26.9949H45.5573C45.8264 25.6248 45.9814 24.2057 46.0466 22.7622C46.0548 22.4441 46.0711 22.126 46.0711 21.7998H41.0798C41.0798 22.0689 41.0635 22.3381 41.0391 22.6072C41.0228 22.7866 40.9983 22.9661 40.9738 23.1455L40.9657 23.1373Z" fill="#EFF2F8"/>
<path d="M40.9006 19.794C40.9251 19.9408 40.9496 20.0876 40.9659 20.2344C40.9822 20.3893 41.0066 20.5443 41.023 20.6993C41.0474 20.9684 41.0637 21.2294 41.0637 21.5067H46.055C46.055 21.1886 46.0387 20.8705 46.0305 20.5525C45.9653 19.1008 45.8103 17.6898 45.5412 16.3115H40.4194C40.5091 17.0292 40.5744 17.7795 40.6233 18.5299C40.6233 18.5543 40.6233 18.5869 40.6233 18.6114C40.7375 19.0029 40.8191 19.3944 40.8925 19.794H40.9006Z" fill="#EFF2F8"/>
<path d="M41.2106 5.96197C41.3166 6.09246 41.4145 6.19848 41.5123 6.32897C42.018 6.98958 42.4666 7.70727 42.8906 8.43312C43.013 8.64517 43.1435 8.84906 43.2658 9.06926C43.38 9.28131 43.4942 9.49336 43.6002 9.7054C43.6981 9.90114 43.7878 10.0887 43.8856 10.2845C43.9264 10.366 43.9672 10.4476 44.008 10.521H48.1102C47.8003 10.0153 47.4578 9.52598 47.1071 9.05295C46.4628 8.17214 45.7533 7.33211 44.9703 6.55733C44.9132 6.50024 44.8561 6.45131 44.7991 6.40237C44.4239 6.03537 44.0406 5.66837 43.6328 5.33398H40.6968C40.868 5.52972 41.0312 5.74177 41.2024 5.95381L41.2106 5.96197Z" fill="#EFF2F8"/>
<path d="M34.5881 0.929754C34.5881 0.929754 34.6289 0.946065 34.6452 0.954221C34.7676 1.00315 34.898 1.06024 35.0204 1.10918C35.2161 1.19073 35.4118 1.28045 35.6076 1.37831C35.632 1.39462 35.6647 1.40278 35.6891 1.41909C35.9012 1.51696 36.1051 1.62298 36.3171 1.73716C36.3987 1.7861 36.4802 1.83503 36.5536 1.88396C36.6107 1.92474 36.6678 1.95736 36.7331 1.98999C36.8146 2.03892 36.8962 2.09601 36.9777 2.1531C37.2061 2.29174 37.4263 2.43855 37.6465 2.5935C37.7525 2.6669 37.8585 2.74846 37.9646 2.83002C38.1685 2.97682 38.3642 3.12362 38.5599 3.28673C38.6659 3.37644 38.772 3.46616 38.8861 3.56402C39.0574 3.71082 39.2287 3.85763 39.3918 4.01258C39.5468 4.15938 39.7017 4.30619 39.8567 4.46114C39.9056 4.51008 39.9545 4.55085 40.0035 4.59979C40.0524 4.64872 40.1013 4.70581 40.1421 4.75474C40.24 4.85261 40.3378 4.95048 40.4357 5.04835H43.2249C43.1679 5.00757 43.1108 4.96679 43.0537 4.92601C42.0668 4.15123 41.0148 3.46616 39.9056 2.87079C39.3429 2.56904 38.7801 2.29174 38.1848 2.03892C37.3284 1.68007 36.4558 1.37831 35.5668 1.13364C35.159 1.01947 34.7431 0.913442 34.3271 0.82373C34.4087 0.856353 34.4903 0.888976 34.58 0.929754H34.5881Z" fill="#EFF2F8"/>
<path d="M33.6588 1.34577C33.7485 1.41102 33.8382 1.49257 33.9279 1.55782C34.1807 1.75355 34.4254 1.98191 34.6701 2.21842C34.7109 2.2592 34.7516 2.29182 34.7924 2.3326C34.8984 2.43863 35.0045 2.5528 35.1105 2.66698C35.1594 2.72407 35.2084 2.77301 35.2573 2.82194C35.3633 2.93612 35.4612 3.05845 35.559 3.18079C35.5917 3.22157 35.6324 3.26234 35.6651 3.30312C35.6814 3.32759 35.6977 3.3439 35.714 3.36837C35.8282 3.51517 35.9505 3.67013 36.0647 3.83324C36.081 3.85771 36.1055 3.88217 36.1218 3.9148C36.1381 3.93926 36.1544 3.95557 36.1626 3.98004C36.3094 4.20024 36.4643 4.4286 36.6193 4.65696C36.6519 4.71405 36.6927 4.77114 36.7253 4.82823C36.7742 4.90163 36.8232 4.97503 36.8721 5.04843H39.9794C39.9142 4.97503 39.8408 4.90978 39.7674 4.84454C39.6613 4.73851 39.5472 4.62434 39.4411 4.51831C38.9355 4.02082 38.4054 3.5641 37.8589 3.14817C37.3533 2.76485 36.8395 2.42231 36.3012 2.12056C36.2523 2.09609 36.2033 2.06347 36.1544 2.03084C36.1218 2.01453 36.081 1.99822 36.0484 1.98191C35.7385 1.81064 35.4204 1.65568 35.1105 1.50888C34.9637 1.44364 34.8087 1.3947 34.6619 1.32946C33.9442 1.03586 33.2265 0.791187 32.4844 0.63623C32.6964 0.734098 32.9085 0.856433 33.1124 0.978767C33.2999 1.09295 33.4794 1.20712 33.6588 1.33761V1.34577Z" fill="#EFF2F8"/>
<path d="M31.236 0.684848C31.236 0.684848 31.2686 0.71747 31.2849 0.733782C31.4072 0.864272 31.5214 1.01107 31.6438 1.17419C31.6601 1.19865 31.6845 1.23128 31.7008 1.25574C31.815 1.41885 31.921 1.58197 32.0352 1.7777C32.0352 1.78586 32.0434 1.79401 32.0515 1.80217C32.0515 1.80217 32.0597 1.81848 32.0678 1.82664C32.2881 2.21811 32.5001 2.67482 32.704 3.18047C32.704 3.19678 32.7203 3.22125 32.7285 3.23756C32.9405 3.76768 33.1362 4.36304 33.3238 5.00733V5.02364C33.3238 5.02364 33.3238 5.02364 33.3238 5.0318H36.4637C36.3088 4.78713 36.1538 4.55062 35.9989 4.33042C35.8113 4.06128 35.6237 3.80846 35.428 3.56379C35.4035 3.53116 35.3709 3.49854 35.3464 3.46592C34.6043 2.55249 33.805 1.81848 32.9568 1.29652C32.5246 1.02738 32.076 0.807182 31.6193 0.652225C31.497 0.603292 31.3746 0.578825 31.2523 0.546202C31.1789 0.521735 31.0973 0.497268 31.0239 0.480957C31.0892 0.546202 31.1544 0.611447 31.2197 0.676692L31.236 0.684848Z" fill="#EFF2F8"/>
<path d="M32.9326 5.04832C32.8265 4.68947 32.7124 4.35509 32.6063 4.03702C32.5982 4.0044 32.5819 3.97178 32.5737 3.93916C32.4269 3.53137 32.2801 3.15622 32.1252 2.81368C31.5787 1.59033 30.9834 0.791082 30.3798 0.49748C30.2575 0.44039 30.1433 0.399612 30.021 0.383301V5.04832H32.9407H32.9326Z" fill="#EFF2F8"/>
<path d="M34.1231 10.5371C34.1231 10.4881 34.1068 10.4392 34.0987 10.3903V10.374V10.325C34.0987 10.325 34.0824 10.2435 34.0742 10.2027C33.9845 9.62365 33.8866 9.05275 33.7806 8.50633C33.7317 8.22904 33.6746 7.96806 33.6175 7.70708C33.5359 7.29929 33.4462 6.88336 33.3565 6.49189C33.2668 6.09226 33.1689 5.70895 33.0629 5.3501H30.0127V10.5452H34.1313L34.1231 10.5371Z" fill="#EFF2F8"/>
<path d="M34.1557 11.3936C34.1557 11.3936 34.2128 11.41 34.2454 11.4263C34.2209 11.2305 34.2046 11.0185 34.172 10.8228H32.3125C32.3125 10.8228 32.3777 10.8391 32.4104 10.8472C33.0139 10.9859 33.6011 11.1653 34.1557 11.3936Z" fill="#EFF2F8"/>
<path d="M32.4922 32.4675C32.4922 32.4675 32.4759 32.4675 32.4678 32.4675H34.1723C34.2049 32.2881 34.2212 32.0924 34.2457 31.9048C34.0907 31.97 33.9276 32.019 33.7727 32.0761C33.3567 32.2229 32.9326 32.3615 32.4922 32.4594V32.4675Z" fill="#EFF2F8"/>
<path d="M30.0127 37.9647H33.0629C33.1689 37.5977 33.2668 37.2225 33.3565 36.8229C33.3565 36.8229 33.3565 36.8147 33.3565 36.8066C33.5278 36.097 33.6827 35.3386 33.8295 34.5475C33.8377 34.4904 33.8458 34.4333 33.8622 34.3762C33.96 33.8542 34.0497 33.316 34.1313 32.7695H30.0208C30.0208 32.7695 30.0372 32.7695 30.0453 32.7695H30.0208V37.9647H30.0127Z" fill="#EFF2F8"/>
<path d="M32.2963 40.085C32.5165 39.5467 32.7285 38.9351 32.9324 38.25H30.0127V42.915C30.2981 42.8742 30.5917 42.7111 30.869 42.442C30.8772 42.4338 30.8853 42.4257 30.8935 42.4175C30.9098 42.4012 30.918 42.3849 30.9343 42.3767C31.2442 42.0668 31.5378 41.6264 31.8314 41.0718C31.9864 40.7701 32.1413 40.452 32.2881 40.085H32.2963Z" fill="#EFF2F8"/>
<path d="M32.7857 42.0995C34.0172 41.3818 35.159 40.2318 36.1621 38.723C36.2355 38.617 36.3089 38.5028 36.3905 38.3886C36.4231 38.3397 36.4557 38.2989 36.4802 38.25H33.3403C33.2669 38.511 33.1853 38.7475 33.1038 38.9922C32.7775 39.9871 32.4268 40.8353 32.0517 41.5041C32.0272 41.553 31.9946 41.5938 31.9701 41.6346C31.962 41.6509 31.9457 41.6672 31.9375 41.6917C31.913 41.7325 31.8886 41.7569 31.8723 41.7895C31.6684 42.1158 31.4563 42.3849 31.2361 42.6051C31.1709 42.6704 31.1138 42.7519 31.0485 42.8008C31.0485 42.8008 31.0404 42.809 31.0322 42.8172C31.1546 42.7927 31.2769 42.7519 31.3992 42.7193C31.4319 42.7111 31.4563 42.703 31.4889 42.6948C31.5705 42.6704 31.6521 42.6377 31.7255 42.6133C31.7989 42.5888 31.8723 42.5643 31.9375 42.5317C32.2229 42.4175 32.5084 42.2707 32.7857 42.1076V42.0995Z" fill="#EFF2F8"/>
<path d="M34.8489 41.9037C35.0283 41.8222 35.2159 41.7406 35.3953 41.6591C35.5013 41.6101 35.5992 41.553 35.7052 41.5041C35.852 41.4307 36.007 41.3573 36.1538 41.2676C36.2516 41.2186 36.3414 41.1534 36.4311 41.0963C36.5779 41.0066 36.7247 40.9169 36.8715 40.8272L38.0214 40.0116C38.0214 40.0116 38.054 39.9871 38.0785 39.9708C38.2498 39.8403 38.4129 39.7099 38.576 39.5712C38.7717 39.4081 38.9675 39.2368 39.1632 39.0574C39.1877 39.0329 39.2121 39.0085 39.2448 38.984C39.4976 38.7475 39.7423 38.5028 39.9788 38.25H36.8715C36.8307 38.3234 36.7818 38.3805 36.741 38.4539C36.6839 38.5518 36.6186 38.6496 36.5616 38.7393C36.4718 38.878 36.3821 39.0085 36.3006 39.1308C36.2843 39.1553 36.268 39.1797 36.2516 39.2042C36.2109 39.2695 36.1619 39.3184 36.1212 39.3755C35.9743 39.5875 35.8194 39.7914 35.6644 39.979C35.64 40.0035 35.6237 40.0361 35.5992 40.0687C35.5747 40.1013 35.5421 40.1339 35.5176 40.1666C35.3464 40.3705 35.1833 40.558 35.0038 40.7456C34.9631 40.7864 34.9223 40.8353 34.8815 40.8761C34.6694 41.0963 34.4492 41.3084 34.229 41.4959C34.1638 41.553 34.0904 41.5938 34.0252 41.6509C33.6663 41.9445 33.2911 42.1973 32.916 42.4094C32.7692 42.4909 32.6224 42.5888 32.4756 42.6622C33.283 42.4909 34.0741 42.2299 34.8489 41.8956V41.9037Z" fill="#EFF2F8"/>
<path d="M40.4357 38.25C40.2481 38.4539 40.0524 38.6496 39.8567 38.8372C39.7996 38.8943 39.7506 38.9514 39.6936 39.0085C39.0493 39.6365 38.3723 40.1992 37.6546 40.7048C37.2142 41.0148 36.7738 41.3084 36.3171 41.5612C36.0888 41.6835 35.8604 41.7977 35.632 41.9037C35.4771 41.9771 35.314 42.0505 35.159 42.1158C35.0775 42.1565 34.9878 42.1973 34.9062 42.2299C34.8246 42.2626 34.7512 42.2952 34.6697 42.3278C34.5555 42.3767 34.4413 42.4257 34.3271 42.4746C35.6484 42.1973 36.9369 41.7895 38.1929 41.2594C38.6659 41.0555 39.1308 40.8272 39.5875 40.5988C39.718 40.5336 39.8485 40.4683 39.979 40.3949C40.4194 40.1584 40.8517 39.9056 41.2757 39.6365C41.3084 39.612 41.3491 39.5957 41.3818 39.5712C41.5857 39.4407 41.7814 39.3021 41.9853 39.1716C42.4094 38.878 42.8335 38.5762 43.2413 38.25H40.4439H40.4357Z" fill="#EFF2F8"/>
<path d="M44.0163 32.7694C43.6656 33.5197 43.2904 34.2456 42.8745 34.9469C42.5646 35.4607 42.2383 35.9582 41.8876 36.4394C41.7653 36.6107 41.643 36.7901 41.5206 36.9532C41.4146 37.0919 41.3004 37.2224 41.1863 37.361C41.0231 37.5567 40.8682 37.7606 40.7051 37.9564H43.6411C44.0978 37.5731 44.5464 37.1653 44.9705 36.733C45.2478 36.4557 45.5169 36.1621 45.786 35.8685C45.8023 35.8441 45.8268 35.8278 45.8431 35.8033C45.8676 35.7707 45.8921 35.7462 45.9165 35.7136C45.9491 35.6728 45.9818 35.632 46.0144 35.5912C46.3406 35.2161 46.6424 34.8328 46.9441 34.4413C47.042 34.3108 47.1399 34.1722 47.2377 34.0335C47.5395 33.6176 47.8331 33.1935 48.1022 32.7612H44.0081L44.0163 32.7694Z" fill="#EFF2F8"/>
<path d="M45.753 27.3949C45.6144 28.0555 45.4431 28.7162 45.2555 29.3523C45.0435 30.07 44.8151 30.7714 44.546 31.4646C44.4155 31.8071 44.285 32.1415 44.1382 32.4759H48.2894C48.7624 31.6685 49.1947 30.8203 49.5617 29.9477C49.6922 29.6459 49.8063 29.3278 49.9205 29.0179C50.1326 28.447 50.3283 27.868 50.4914 27.2808H45.7775C45.7775 27.2808 45.7612 27.3542 45.753 27.3949Z" fill="#EFF2F8"/>
<path d="M46.3403 21.792C46.3403 22.3955 46.3076 22.999 46.2669 23.5944C46.2506 23.7901 46.2342 23.9777 46.2179 24.1734C46.169 24.7199 46.1119 25.2663 46.0385 25.8046C45.9814 26.2042 45.9162 26.5957 45.8428 26.9871H50.5812C50.7688 26.2531 50.9156 25.511 51.0216 24.7606C51.1602 23.782 51.25 22.7951 51.2581 21.8001H46.3484L46.3403 21.792Z" fill="#EFF2F8"/>
<path d="M46.3401 21.5067H51.2498C51.2498 20.7971 51.1927 20.0957 51.1193 19.4025C51.0051 18.3586 50.8339 17.331 50.5729 16.3115H45.8345C45.8345 16.3115 45.8345 16.336 45.8345 16.3441C45.8916 16.6622 45.9487 16.9884 45.9976 17.3147C46.2096 18.6848 46.3238 20.0876 46.332 21.5148L46.3401 21.5067Z" fill="#EFF2F8"/>
<path d="M51.5521 21.6124C51.5358 19.7611 51.3074 17.9505 50.8425 16.1889C50.8425 16.1889 50.8344 16.1155 50.8262 16.0911C50.5652 15.1287 50.239 14.1745 49.8475 13.2366C49.4724 12.3476 49.0238 11.4831 48.5426 10.6513C48.5345 10.6186 48.5182 10.586 48.4855 10.5615C47.5803 9.03644 46.4793 7.62552 45.1988 6.36139C44.7666 5.91283 44.318 5.50505 43.8531 5.11358C43.8368 5.08096 43.8042 5.05649 43.7716 5.04018C42.1242 3.67003 40.3055 2.55271 38.3155 1.71268C35.7709 0.636139 33.0632 0.0652451 30.2659 0.00815563H30.0375C29.9886 0 29.9396 0 29.8907 0C29.8336 0 29.7928 0 29.7439 0.00815563H29.5155C26.7263 0.0652451 24.0105 0.636139 21.4578 1.71268C19.476 2.55271 17.6573 3.67003 16.0098 5.04018C15.9772 5.05649 15.9446 5.08096 15.9283 5.11358C15.4634 5.50505 15.0148 5.91283 14.5826 6.36139C13.3022 7.62552 12.2011 9.03644 11.2959 10.5615C11.2632 10.586 11.2469 10.6186 11.2388 10.6513C10.7413 11.4831 10.309 12.3476 9.93387 13.2366C9.5424 14.1745 9.21618 15.1287 8.9552 16.0911C8.93889 16.1155 8.92258 16.14 8.92258 16.1808C8.46586 17.9505 8.2375 19.7611 8.2375 21.6124C8.22119 21.6369 8.22119 21.6532 8.22119 21.6695C8.22119 21.6858 8.22119 21.7021 8.2375 21.7266C8.2375 22.3954 8.26197 23.056 8.32721 23.7247L8.60451 23.6676H8.61266L8.62897 23.6595C8.58004 23.162 8.55557 22.6645 8.53926 22.1589C8.53926 22.0365 8.53111 21.9142 8.53111 21.7918H13.449C13.449 23.2109 13.5713 24.6137 13.7752 25.9675C13.8241 26.3101 13.8812 26.6526 13.9464 26.987H9.20802C9.14278 26.7586 9.102 26.5221 9.05307 26.2856C9.00413 26.0736 8.94704 25.8615 8.90626 25.6495H8.8818L8.60451 25.7229C8.69422 26.1959 8.80024 26.6771 8.92258 27.1501C8.92258 27.199 8.93889 27.2235 8.9552 27.248C9.21618 28.2103 9.5424 29.1645 9.93387 30.1024C10.309 30.9914 10.7413 31.8559 11.2388 32.6878C11.2469 32.7204 11.2632 32.753 11.2959 32.7775C12.2011 34.2944 13.3022 35.7135 14.5826 36.9776C15.0148 37.418 15.4634 37.834 15.9283 38.2254C15.9446 38.2581 15.9772 38.2825 16.0098 38.2907C17.6573 39.669 19.476 40.7863 21.4578 41.6263C24.0105 42.7029 26.71 43.2738 29.5074 43.3227H29.7439C29.7928 43.339 29.8336 43.339 29.8907 43.339C29.9396 43.339 29.9886 43.339 30.0375 43.3227H30.274C33.0632 43.2738 35.7709 42.7029 38.3155 41.6263C40.3055 40.7863 42.1242 39.669 43.7716 38.2907C43.8042 38.2825 43.8368 38.2581 43.8531 38.2254C44.318 37.834 44.7666 37.418 45.1988 36.9776C46.4793 35.7135 47.5803 34.2944 48.4855 32.7775C48.5182 32.753 48.5345 32.7204 48.5426 32.6878C49.0238 31.8559 49.4724 30.9914 49.8475 30.1024C50.239 29.1645 50.5652 28.2103 50.8262 27.248C50.8344 27.2235 50.8425 27.199 50.8425 27.1583C51.3074 25.3885 51.5358 23.5779 51.5521 21.7266C51.5602 21.7021 51.5602 21.6858 51.5602 21.6695C51.5602 21.6532 51.5602 21.6369 51.5521 21.6124ZM48.9749 12.0622C49.1869 12.4863 49.3827 12.9104 49.5702 13.3508C49.7171 13.7096 49.8557 14.0685 49.9862 14.4355C50.0107 14.5007 50.0351 14.566 50.0514 14.6312C50.0677 14.6801 50.0841 14.7372 50.1085 14.7862C50.2472 15.1939 50.3777 15.6017 50.4918 16.0177H45.7779C45.4109 14.199 44.8481 12.4537 44.1386 10.8225H48.298C48.5345 11.2303 48.7628 11.6381 48.9749 12.0622ZM38.4949 8.43292C38.4949 8.43292 38.4867 8.4003 38.4786 8.38399C38.2747 7.84572 38.0463 7.33191 37.8098 6.83442C37.7364 6.68762 37.6712 6.53266 37.5978 6.39402C37.5978 6.39402 37.5978 6.38586 37.5978 6.3777C37.5978 6.3777 37.5978 6.3777 37.5978 6.36955C37.5896 6.35324 37.5815 6.33693 37.5652 6.31246C37.5488 6.27984 37.5325 6.24721 37.5162 6.22275C37.3613 5.92099 37.2063 5.61923 37.0432 5.34194H40.3054C40.5827 5.65185 40.8519 5.98623 41.121 6.32877C41.1455 6.36139 41.1699 6.38586 41.1863 6.41033C41.227 6.45111 41.2597 6.49188 41.2923 6.54082C41.5288 6.85889 41.7572 7.17696 41.9774 7.51134C42.2628 7.94359 42.5482 8.38399 42.8092 8.84071C43.0865 9.3382 43.3557 9.852 43.6003 10.374C43.6248 10.4229 43.6574 10.4718 43.6819 10.5289H39.2126C39.0005 9.80307 38.7559 9.10169 38.4949 8.42477V8.43292ZM38.9108 10.5371H34.466C34.4171 10.2027 34.36 9.88463 34.3029 9.5584C34.1479 8.61235 33.9767 7.70707 33.7809 6.85889C33.7646 6.78549 33.7483 6.71209 33.732 6.63869C33.7157 6.56528 33.6994 6.48373 33.6831 6.41033C33.6749 6.36139 33.6586 6.32877 33.6505 6.28799C33.6341 6.23906 33.626 6.19013 33.6097 6.14935C33.5852 6.04332 33.5607 5.9373 33.5281 5.83128C33.4873 5.66816 33.4466 5.50505 33.4139 5.35825H36.6925C36.7577 5.47243 36.823 5.60292 36.8882 5.7171C37.0187 5.95361 37.1492 6.19013 37.2797 6.44295C37.345 6.57344 37.4102 6.72024 37.4754 6.85889C37.5978 7.11171 37.7201 7.36454 37.8343 7.63367C37.9077 7.79678 37.9729 7.9599 38.0382 8.13117C38.1361 8.37584 38.2421 8.62866 38.3318 8.88964C38.4052 9.08537 38.4704 9.28111 38.5438 9.47684C38.5846 9.59918 38.6335 9.71336 38.6743 9.83569C38.7559 10.0722 38.8374 10.3169 38.9108 10.5615V10.5371ZM43.8287 10.8225C43.9184 11.0264 44.0081 11.2303 44.0815 11.4424C44.106 11.4994 44.1223 11.5565 44.1468 11.6055C44.2365 11.8094 44.318 12.0214 44.3914 12.2334C44.3996 12.2579 44.4077 12.2824 44.4159 12.3069C44.5138 12.5434 44.5953 12.788 44.6687 13.0327C44.6687 13.0572 44.685 13.0816 44.6932 13.0979C44.7503 13.2611 44.7992 13.416 44.8481 13.5791C44.8644 13.6281 44.8808 13.6688 44.8889 13.7178C44.9623 13.9298 45.0194 14.1419 45.0765 14.3539C45.101 14.4273 45.1173 14.5089 45.1336 14.5823C45.1499 14.6394 45.1662 14.6964 45.1744 14.7535C45.1988 14.8514 45.2233 14.9411 45.2478 15.039C45.2967 15.2266 45.3456 15.4141 45.3783 15.6017C45.419 15.7404 45.4435 15.879 45.4761 16.0177H40.3625C40.3625 15.9606 40.3462 15.9035 40.3381 15.8464C40.2891 15.512 40.232 15.1858 40.175 14.8596C40.1505 14.7046 40.1179 14.5496 40.0934 14.3947C39.9874 13.7749 39.8569 13.1632 39.7182 12.5597C39.6775 12.3639 39.6285 12.1764 39.5878 11.9806C39.5551 11.8257 39.5144 11.6707 39.4736 11.5076C39.4165 11.2792 39.3594 11.0427 39.286 10.8225H43.8205H43.8287ZM44.8074 6.41033C44.8644 6.46742 44.9297 6.51635 44.9786 6.56528C45.7616 7.34823 46.4711 8.18825 47.1154 9.06091C47.4661 9.54209 47.8086 10.0314 48.1185 10.5371H44.0163C43.9755 10.4555 43.9347 10.374 43.8939 10.3006C43.7961 10.1048 43.7063 9.90909 43.6085 9.72151C43.5025 9.50947 43.3883 9.29742 43.2741 9.08537C43.1599 8.86517 43.0213 8.66128 42.8989 8.44924C42.4748 7.71523 42.0263 7.00569 41.5206 6.34508C41.4228 6.21459 41.3249 6.10857 41.2189 5.97808C41.0476 5.76603 40.8845 5.56214 40.7132 5.35825H43.6493C44.057 5.69263 44.4404 6.05148 44.8155 6.42664L44.8074 6.41033ZM34.3355 0.823719C34.7515 0.913431 35.1674 1.01945 35.5752 1.13363C36.4641 1.3783 37.3368 1.68006 38.1931 2.03891C38.7803 2.29173 39.3512 2.56902 39.914 2.87078C41.0231 3.45799 42.0752 4.14306 43.0621 4.926C43.1191 4.96678 43.1762 5.00756 43.2333 5.04834H40.4278C40.3381 4.94231 40.2402 4.84445 40.1423 4.74658C40.0934 4.69764 40.0526 4.64056 40.0037 4.59162C39.9548 4.54269 39.9058 4.50191 39.8569 4.45298C39.7019 4.29802 39.547 4.15122 39.392 4.00442C39.2289 3.84946 39.0576 3.70266 38.8864 3.55586C38.7803 3.46614 38.6743 3.36828 38.5601 3.27856C38.3644 3.12361 38.1687 2.96865 37.9648 2.82185C37.8588 2.74029 37.7527 2.66689 37.6467 2.58534C37.4265 2.43038 37.1982 2.29173 36.978 2.14493C36.8964 2.096 36.8148 2.03891 36.7333 1.98997C36.6762 1.9492 36.6191 1.91657 36.5539 1.8758C36.4723 1.82686 36.3907 1.76977 36.3173 1.72899C36.1135 1.61482 35.9014 1.50879 35.6894 1.41092C35.6649 1.39461 35.6323 1.38646 35.6078 1.37015C35.4121 1.28043 35.2163 1.19072 35.0206 1.10101C34.8983 1.05208 34.7678 0.994987 34.6454 0.946053C34.621 0.937898 34.6047 0.929742 34.5884 0.921586C34.4986 0.880808 34.4089 0.848186 34.3111 0.815563H34.3355V0.823719ZM32.4842 0.636139C33.2264 0.791096 33.9522 1.03577 34.6618 1.32937C34.8086 1.38646 34.9635 1.43539 35.1103 1.50879C35.4284 1.64744 35.7383 1.81055 36.0482 1.98182C36.0808 1.99813 36.1216 2.01444 36.1542 2.03075C36.2032 2.05522 36.2521 2.08784 36.301 2.12046C36.8393 2.43038 37.3613 2.76476 37.8588 3.14807C38.4052 3.56401 38.9353 4.02073 39.441 4.51822C39.547 4.62424 39.6612 4.73027 39.7672 4.84445C39.8406 4.90969 39.9058 4.97494 39.9792 5.04834L36.8638 5.05649C36.8148 4.97494 36.7741 4.90154 36.7251 4.82813C36.6925 4.77104 36.6517 4.71396 36.6191 4.65687C36.4723 4.42851 36.3173 4.20015 36.1624 3.97995C36.1461 3.95548 36.1298 3.93917 36.1216 3.9147C36.1053 3.89024 36.0808 3.86577 36.0645 3.83315C35.9503 3.67819 35.8362 3.52323 35.7138 3.36828C35.6975 3.34381 35.6812 3.3275 35.6649 3.30303C35.6323 3.26225 35.5915 3.22147 35.5589 3.1807C35.461 3.05836 35.355 2.93603 35.2571 2.82185C35.2082 2.76476 35.1592 2.71583 35.1103 2.66689C35.0043 2.55271 34.8983 2.43853 34.7922 2.33251C34.7515 2.29173 34.7107 2.25911 34.6699 2.21833C34.4252 1.98182 34.1806 1.75346 33.9277 1.55773C33.838 1.48433 33.7483 1.41092 33.6586 1.34568C33.4792 1.21519 33.2916 1.09285 33.1122 0.986832C32.9001 0.856341 32.6881 0.742163 32.4679 0.636139C32.4679 0.636139 32.476 0.636139 32.4842 0.636139ZM31.269 0.562739C31.3913 0.595361 31.5137 0.627984 31.636 0.668762C32.0927 0.823719 32.5413 1.04392 32.9735 1.31306C33.8217 1.83502 34.621 2.56902 35.3631 3.48246C35.3876 3.51508 35.4202 3.5477 35.4447 3.58032C35.6404 3.82499 35.828 4.07782 36.0156 4.34695C36.1705 4.57531 36.3337 4.80367 36.4805 5.04834L33.3405 5.05649V5.04018C33.3405 5.04018 33.3405 5.03203 33.3324 5.02387C33.1448 4.37142 32.9491 3.77606 32.737 3.24594C32.737 3.22147 32.7207 3.20516 32.7126 3.18885C32.5087 2.6832 32.2966 2.22649 32.0764 1.83502C32.0764 1.82686 32.0601 1.81871 32.0601 1.81055C32.0601 1.80239 32.0519 1.79424 32.0438 1.78608C31.9378 1.5985 31.8236 1.42724 31.7094 1.26412C31.6931 1.23966 31.6686 1.20703 31.6523 1.18257C31.5381 1.01945 31.4158 0.872653 31.2935 0.742163C31.2772 0.725851 31.2609 0.70954 31.2445 0.693229C31.1793 0.627984 31.1059 0.562739 31.0488 0.497494C31.1304 0.513805 31.2038 0.546427 31.2853 0.570894L31.269 0.562739ZM30.0049 0.383315H30.013C30.1354 0.399626 30.2496 0.440404 30.3719 0.497494C30.9754 0.799252 31.5708 1.59035 32.1172 2.81369C32.2722 3.15623 32.419 3.53139 32.5658 3.93917C32.5821 3.97179 32.5902 4.00442 32.5984 4.03704C32.7126 4.35511 32.8267 4.68133 32.9328 5.04834L30.0049 5.05649V0.383315ZM30.0049 5.34194H33.0632C33.1693 5.70079 33.2671 6.0841 33.3569 6.48373C33.4466 6.86704 33.5281 7.28298 33.6178 7.69892C33.6749 7.96805 33.732 8.22903 33.7809 8.49817C33.887 9.05275 33.9848 9.61549 34.0745 10.1945L34.0909 10.3169V10.3658L34.099 10.3821C34.1153 10.4311 34.1235 10.48 34.1316 10.5371H30.0049V5.34194ZM29.279 0.554583C29.279 0.554583 29.3198 0.538272 29.3361 0.52196C29.3851 0.497494 29.434 0.473027 29.4829 0.44856C29.5074 0.440404 29.54 0.415937 29.5645 0.407782C29.6134 0.39147 29.6623 0.383315 29.7113 0.375159V5.04018H26.7916C27.0281 4.24093 27.2809 3.53954 27.5419 2.93603C28.0394 1.80239 28.5695 1.0113 29.1159 0.636139C29.1649 0.603517 29.2138 0.570894 29.2627 0.546427L29.279 0.554583ZM16.0914 10.5371C16.2382 10.219 16.4013 9.90094 16.5644 9.59102C16.6704 9.38713 16.7928 9.19955 16.8988 8.99566C16.9967 8.82439 17.0864 8.65313 17.1842 8.49001C17.5023 7.95174 17.8367 7.42978 18.1955 6.93229C18.2934 6.8018 18.3831 6.66315 18.481 6.54082C18.5054 6.5082 18.5381 6.47557 18.5625 6.43479C18.8561 6.05148 19.1579 5.67632 19.476 5.33378H22.7382C22.6974 5.39903 22.6648 5.46427 22.624 5.53767C22.5669 5.63554 22.5099 5.74157 22.4528 5.83943C22.3631 6.0107 22.2652 6.18197 22.1836 6.36139C22.1836 6.36139 22.1836 6.3777 22.1755 6.3777C22.0776 6.55713 21.9961 6.75286 21.9063 6.95675C21.6861 7.42163 21.4823 7.90281 21.2865 8.4003C21.2865 8.41661 21.2784 8.42477 21.2702 8.44108C21.1479 8.76731 21.0174 9.10984 20.9032 9.44422C20.8135 9.71336 20.7319 9.98249 20.6504 10.2598C20.6259 10.3495 20.5933 10.4392 20.5607 10.5289H16.0832L16.0914 10.5371ZM20.4873 10.8225C20.4546 10.9204 20.4302 11.0264 20.4057 11.1324C20.2181 11.793 20.055 12.4618 19.9082 13.155C19.8919 13.2203 19.8756 13.2855 19.8593 13.3508C19.843 13.416 19.8348 13.4813 19.8267 13.5465C19.6717 14.3294 19.5331 15.1287 19.4189 15.9361C19.4189 15.9606 19.4107 15.9932 19.4026 16.0177H14.289C14.3216 15.879 14.3461 15.7404 14.3868 15.6017C14.4195 15.4141 14.4684 15.2266 14.5173 15.039C14.5337 14.9574 14.5581 14.8759 14.5826 14.8025C14.6071 14.7128 14.6234 14.6312 14.6478 14.5415C14.6641 14.4762 14.6805 14.4192 14.6968 14.3539C14.7539 14.1419 14.8109 13.9298 14.8843 13.7178C14.8925 13.6852 14.9088 13.6525 14.917 13.6199C14.9741 13.4323 15.0311 13.2447 15.0964 13.049C15.0964 13.049 15.0964 13.0327 15.0964 13.0245C15.1698 12.7799 15.2513 12.5352 15.3492 12.2987C15.3492 12.2824 15.3655 12.2579 15.3737 12.2416C15.4145 12.1111 15.4715 11.9725 15.5286 11.842C15.5368 11.8175 15.5449 11.793 15.5531 11.7686C15.6184 11.5728 15.6999 11.3771 15.7978 11.1814C15.8386 11.059 15.8875 10.9367 15.9446 10.8144H20.4791L20.4873 10.8225ZM21.4904 8.74284C21.7432 8.06592 22.0205 7.42978 22.306 6.82626C22.5506 6.3043 22.8116 5.80681 23.0889 5.34194H26.3675C26.343 5.44796 26.3104 5.57845 26.2778 5.69263C26.2778 5.69263 26.2778 5.70079 26.2778 5.70894C26.2614 5.76603 26.2533 5.81497 26.237 5.87206C26.1962 6.04332 26.1473 6.21459 26.0983 6.40217C25.9923 6.85073 25.8863 7.32376 25.7884 7.8131C25.6172 8.67759 25.454 9.58287 25.3154 10.5371H20.8706C21.0663 9.91725 21.2702 9.32189 21.4904 8.74284ZM25.609 10.5371C25.6987 9.90094 25.8047 9.28927 25.9108 8.68575C26.0494 7.91912 26.2044 7.17696 26.3675 6.48373C26.4409 6.18197 26.5224 5.90468 26.5958 5.62739C26.6203 5.53767 26.6448 5.43165 26.6692 5.34194H29.7194V10.5371H25.609ZM28.7489 0.489338C28.7081 0.530116 28.6674 0.570894 28.6266 0.603517C28.5858 0.644295 28.5369 0.685073 28.4961 0.725851C28.3901 0.831874 28.2922 0.954209 28.1943 1.0847C28.178 1.10917 28.1617 1.13363 28.1372 1.1581C28.0394 1.29675 27.9334 1.44355 27.8436 1.61482C27.8029 1.6719 27.7702 1.72899 27.7295 1.79424C27.7295 1.80239 27.7213 1.81055 27.7132 1.81871C27.6153 1.98997 27.5174 2.17755 27.4277 2.37329C27.183 2.87894 26.9465 3.46614 26.7263 4.12675C26.6285 4.42035 26.5387 4.71396 26.4409 5.04018L23.301 5.04834C23.9045 4.06966 24.5569 3.22963 25.2502 2.5364C26.0168 1.77793 26.8323 1.20703 27.6805 0.84003C28.0312 0.685073 28.3901 0.562739 28.7489 0.481182V0.489338ZM26.7182 0.782941C26.7182 0.782941 26.7345 0.782941 26.7508 0.782941C26.9302 0.734007 27.1178 0.685073 27.2972 0.644295C26.498 1.02761 25.7232 1.61482 24.981 2.34882C24.614 2.71583 24.247 3.11545 23.9045 3.57217C23.8882 3.59663 23.8719 3.61295 23.8555 3.63741C23.5293 4.07782 23.2112 4.55084 22.9095 5.06465H19.794C19.949 4.89338 20.1121 4.73842 20.2752 4.57531C20.3812 4.46929 20.4873 4.35511 20.6014 4.25724C20.6993 4.16753 20.7972 4.08597 20.895 3.99626C21.678 3.29488 22.5017 2.69136 23.3825 2.17755C23.4641 2.12862 23.5456 2.07969 23.6272 2.03075C23.8882 1.88395 24.1491 1.75346 24.4101 1.63113C25.1686 1.27228 25.9352 0.994987 26.7182 0.782941ZM16.5481 5.04834C16.6052 5.00756 16.6623 4.96678 16.7194 4.926C18.2118 3.75159 19.8348 2.78107 21.5883 2.03891C22.4038 1.69637 23.2357 1.41092 24.0757 1.16626C24.5243 1.03577 24.9729 0.921586 25.4296 0.823719C25.4377 0.823719 25.4459 0.823719 25.454 0.823719C25.3072 0.872653 25.1768 0.937898 25.0381 0.994987C24.5732 1.18257 24.1084 1.39461 23.6435 1.64744C23.5864 1.68006 23.5212 1.70453 23.4641 1.73715C23.2194 1.8758 22.9747 2.0226 22.7382 2.17755C22.2326 2.50378 21.7351 2.87078 21.2539 3.26225C21.05 3.42537 20.8543 3.59663 20.6585 3.7679C20.2752 4.11044 19.9001 4.46929 19.5412 4.8526C19.476 4.91785 19.4107 4.98309 19.3536 5.04834H19.3455L16.5481 5.05649V5.04834ZM11.8015 10.3332C11.9402 10.113 12.0788 9.89278 12.2256 9.68074C12.6334 9.08537 13.0738 8.51448 13.5387 7.9599C13.9383 7.47872 14.3542 7.01384 14.8028 6.56528C14.8762 6.49188 14.9577 6.42664 15.0393 6.35324C15.3981 6.00255 15.757 5.66001 16.1403 5.34194H19.0682C18.7909 5.66816 18.5218 5.99439 18.2608 6.33693C17.9427 6.76102 17.6491 7.20142 17.3637 7.64183C17.2821 7.76416 17.2087 7.8865 17.1271 8.00883C16.6867 8.72653 16.279 9.47684 15.912 10.2516C15.863 10.3495 15.8141 10.4392 15.7652 10.5371H11.6629C11.7036 10.4637 11.7526 10.3984 11.8015 10.3332ZM9.28958 16.0177C9.31405 15.9198 9.34667 15.8219 9.37929 15.7241C9.3956 15.6751 9.41191 15.6262 9.42007 15.5854C9.64843 14.8269 9.90125 14.0848 10.2112 13.3508C10.2438 13.2774 10.2846 13.204 10.3172 13.1306C10.3335 13.0979 10.3498 13.0653 10.3661 13.0245C10.5782 12.5434 10.8147 12.0703 11.0594 11.6055C11.198 11.3445 11.3366 11.0753 11.4834 10.8225H15.6428C15.6428 10.8225 15.6347 10.8388 15.6347 10.847C14.917 12.47 14.3705 14.2071 14.0035 16.0177H9.28958ZM13.5387 19.4186C13.5387 19.5083 13.5387 19.6061 13.5224 19.6959C13.4897 20.1607 13.4571 20.6256 13.4571 21.0986C13.4571 21.2373 13.4571 21.3678 13.4571 21.5064H8.53926C8.54742 20.8703 8.5882 20.2423 8.64528 19.6143C8.71869 18.8966 8.8084 18.1871 8.94704 17.4857C8.98782 17.2899 9.03676 17.086 9.08569 16.8903C9.12647 16.6946 9.16724 16.507 9.21618 16.3113L13.9546 16.3031C13.7915 17.1676 13.6773 18.0484 13.5958 18.9292C13.5794 19.0923 13.555 19.2554 13.5468 19.4186H13.5387ZM10.8065 31.2361C10.5945 30.812 10.3987 30.3797 10.2112 29.9475C10.1459 29.7844 10.0888 29.6131 10.0154 29.4418C9.86047 29.0585 9.72183 28.667 9.59134 28.2756C9.48531 27.9494 9.37929 27.615 9.28958 27.2806H14.0035C14.0606 27.5742 14.134 27.8678 14.2074 28.1614C14.5663 29.662 15.0393 31.1056 15.6428 32.4757L11.4834 32.4839C11.2388 32.0679 11.0186 31.652 10.8065 31.2361ZM20.9195 33.8703C20.9358 33.9111 20.9521 33.9519 20.9684 33.9927C21.1316 34.4412 21.2947 34.8898 21.4741 35.322C21.5067 35.4036 21.5393 35.4852 21.5801 35.5667C21.7759 36.0316 21.9797 36.4883 22.1999 36.9287C22.1999 36.9287 22.1999 36.945 22.2081 36.9532C22.2897 37.1244 22.3794 37.2876 22.4691 37.4588C22.5425 37.6056 22.624 37.7443 22.7138 37.8829C22.7301 37.9074 22.7464 37.9318 22.7545 37.9645H19.4923C19.2476 37.6953 19.0274 37.4099 18.799 37.1244C18.7012 37.0021 18.5952 36.8879 18.4973 36.7574C18.1874 36.3497 17.9019 35.9256 17.6165 35.4933C17.5431 35.3873 17.4778 35.2731 17.4044 35.1589C17.1353 34.7185 16.8743 34.2781 16.6296 33.8214C16.6296 33.8133 16.6215 33.8051 16.6133 33.7969C16.4339 33.4626 16.2626 33.12 16.0995 32.7693H20.577C20.6259 32.9406 20.683 33.1037 20.7401 33.275C20.8053 33.4789 20.8624 33.6828 20.9277 33.8703H20.9195ZM20.8706 32.7693H25.3154C25.4622 33.7399 25.6172 34.6614 25.7966 35.5341C25.87 35.8685 25.9434 36.1947 26.0168 36.5209C26.0412 36.6433 26.0739 36.7737 26.0983 36.8879C26.131 37.0184 26.1636 37.1326 26.188 37.2549C26.2125 37.3691 26.2451 37.4833 26.2778 37.5975C26.3104 37.7198 26.343 37.8421 26.3675 37.9645H23.0889C22.9584 37.7361 22.8361 37.4996 22.7138 37.2631C22.3223 36.5291 21.9553 35.7298 21.6209 34.8816C21.5638 34.743 21.5149 34.6043 21.4659 34.4739C21.3844 34.2618 21.3028 34.0579 21.2294 33.8459C21.1071 33.4952 20.9848 33.1363 20.8706 32.7693ZM15.9527 32.4839C15.8793 32.3126 15.7978 32.1332 15.7407 31.9619C15.6999 31.8885 15.6673 31.8233 15.651 31.7499C15.6265 31.6928 15.6102 31.6357 15.5857 31.5786C15.4797 31.3176 15.3818 31.0648 15.2921 30.8038C15.284 30.7794 15.2677 30.7467 15.2595 30.7223C15.2187 30.6407 15.1943 30.5592 15.1698 30.4776C15.1453 30.4124 15.129 30.339 15.1045 30.2737C15.0311 30.0617 14.9577 29.8496 14.9007 29.6294C14.8843 29.5805 14.868 29.5315 14.8517 29.4826C14.8109 29.3603 14.7702 29.2379 14.7457 29.1156C14.7294 29.0748 14.7212 29.0259 14.7131 28.977C14.6478 28.7731 14.5989 28.561 14.55 28.349C14.5337 28.2837 14.5173 28.2266 14.501 28.1614C14.4603 28.0228 14.4276 27.8841 14.4032 27.7373C14.3624 27.5905 14.3298 27.4437 14.2971 27.2887H19.4107C19.4107 27.2887 19.4189 27.354 19.427 27.3866C19.5412 28.194 19.6717 28.977 19.8267 29.7436C19.843 29.8088 19.8511 29.8822 19.8674 29.9475C19.8837 30.0127 19.9001 30.078 19.9164 30.1514C20.0713 30.8691 20.2426 31.5705 20.4383 32.2555C20.4628 32.3289 20.4791 32.4105 20.5036 32.4839H15.969H15.9527ZM14.8028 36.7411C14.1259 36.0642 13.506 35.3465 12.927 34.5962C12.4784 34.0008 12.0543 33.3973 11.6629 32.7693H15.7652C15.8304 32.908 15.8956 33.0385 15.9609 33.169C15.9854 33.2097 16.0017 33.2505 16.0261 33.2913C16.6623 34.5962 17.4044 35.8277 18.2608 36.9532C18.3668 37.1 18.481 37.2305 18.5952 37.3691C18.5952 37.3773 18.6115 37.3854 18.6196 37.3936C18.7664 37.5812 18.9132 37.7769 19.0682 37.9563H16.1322C15.6754 37.5648 15.2269 37.1652 14.8028 36.733V36.7411ZM21.5883 41.2675C21.2784 41.137 20.9848 40.9902 20.6912 40.8434C20.5444 40.77 20.3976 40.7129 20.2507 40.6395C20.1855 40.6069 20.1284 40.5743 20.0632 40.5416C19.7369 40.3704 19.4107 40.191 19.0926 40.0034C18.9785 39.9381 18.8643 39.8647 18.7501 39.7913C18.481 39.6282 18.2118 39.4488 17.9509 39.2775C17.8285 39.196 17.7143 39.1144 17.592 39.0329C17.2739 38.8045 16.9559 38.568 16.646 38.3233C16.6133 38.2989 16.5807 38.2744 16.5481 38.2499H19.3373C19.7614 38.7148 20.2018 39.1389 20.6585 39.5385C21.5393 40.3214 22.4772 41.0065 23.4641 41.5611C23.5619 41.6182 23.668 41.6671 23.7658 41.7161C23.8392 41.7568 23.9208 41.7895 23.9942 41.8302C24.0676 41.8629 24.141 41.8955 24.2144 41.9281C24.4917 42.0586 24.7608 42.1972 25.0463 42.3033C25.1849 42.3604 25.3154 42.4256 25.454 42.4745H25.4622C24.141 42.2054 22.8442 41.7976 21.5883 41.2675ZM26.3919 42.4256C26.3919 42.4256 26.3675 42.4256 26.3593 42.4174C26.3022 42.4093 26.2533 42.3848 26.1962 42.3685C26.1636 42.3604 26.131 42.3522 26.1065 42.344C25.8618 42.2625 25.6172 42.1728 25.3806 42.0749C25.3154 42.0504 25.2583 42.0341 25.1931 42.0097C24.9239 41.9036 24.6629 41.7895 24.402 41.6671C24.141 41.5448 23.8882 41.4143 23.6272 41.2675C23.2846 41.0799 22.9503 40.8679 22.6159 40.6558C22.1347 40.3296 21.6617 39.9626 21.205 39.5711C20.8706 39.2857 20.5444 38.9839 20.2263 38.674C20.0876 38.5354 19.9408 38.3967 19.8022 38.2499H22.9176C22.9503 38.307 22.9829 38.3641 23.0155 38.413C23.0808 38.5272 23.1542 38.6332 23.2194 38.7474C23.2928 38.8616 23.3744 38.9676 23.4478 39.0736C23.5048 39.1552 23.5619 39.2367 23.6109 39.3101C23.7903 39.563 23.9779 39.8076 24.1655 40.0442C24.1736 40.0605 24.1818 40.0686 24.1981 40.0849C24.2633 40.1665 24.3286 40.2317 24.3938 40.3051C24.9729 40.9902 25.5845 41.5529 26.2207 42.0097C26.5714 42.2625 26.9302 42.4908 27.2972 42.6621H27.3054C27.0036 42.605 26.6937 42.5235 26.3919 42.4256ZM28.5124 42.7518C28.3738 42.711 28.2433 42.6703 28.1128 42.6213C28.1128 42.6213 28.1128 42.6213 28.1046 42.6213C27.4766 42.4011 26.865 42.0668 26.2859 41.6345C26.0331 41.4469 25.7803 41.2512 25.5438 41.031C24.9647 40.5009 24.4183 39.8647 23.9045 39.147C23.88 39.1144 23.8555 39.0818 23.8311 39.0492C23.6516 38.7963 23.4804 38.5272 23.3091 38.2581H26.449C26.6855 39.0818 26.9465 39.7995 27.2157 40.4275C27.3788 40.8108 27.55 41.1778 27.7295 41.4877C27.7295 41.4959 27.7295 41.504 27.7295 41.504C27.7866 41.61 27.8518 41.7079 27.917 41.8058C28.0149 41.9607 28.1209 42.1157 28.227 42.2462C28.3656 42.4174 28.5042 42.5806 28.6347 42.711C28.6755 42.7437 28.7081 42.7844 28.7489 42.8171V42.8252C28.6674 42.8089 28.5858 42.7844 28.5042 42.76L28.5124 42.7518ZM29.7194 42.9149C28.6755 42.76 27.6398 41.0962 26.7997 38.2499H29.7194V42.9149ZM29.7194 37.9645H26.6692C26.6692 37.9645 26.6692 37.9645 26.6692 37.9563C26.5714 37.5812 26.4572 37.2142 26.3675 36.8064C26.2533 36.3333 26.1473 35.8195 26.0494 35.3057C26.0331 35.2242 26.0168 35.1508 26.0005 35.0774C25.9026 34.6043 25.821 34.1232 25.7395 33.6257C25.6906 33.3402 25.6498 33.0629 25.609 32.7693H29.7194V37.9645ZM29.8255 32.7612C29.4585 32.7612 29.0996 32.7367 28.7408 32.6959C28.6918 32.6959 28.6429 32.6796 28.594 32.6715C28.2351 32.6225 27.8844 32.5654 27.5337 32.492C27.5174 32.492 27.5093 32.492 27.493 32.492H25.5519C25.5193 32.2637 25.503 32.0353 25.4704 31.8151C25.3725 31.7743 25.2828 31.7254 25.1849 31.6765C25.2175 31.9456 25.2502 32.2147 25.2828 32.4839L20.7809 32.492C20.6748 32.1087 20.5688 31.7336 20.471 31.3421C20.1529 30.0617 19.8837 28.7078 19.6962 27.2887H20.4057C20.3486 27.1909 20.2834 27.093 20.2263 26.9951H19.6472C19.582 26.4569 19.5412 25.8941 19.4923 25.3314C19.4923 25.3151 19.4841 25.3069 19.4841 25.2906C19.4841 25.2825 19.4841 25.2743 19.476 25.2661C19.4189 25.0949 19.3618 24.9236 19.3129 24.7442C19.2476 24.524 19.1905 24.3038 19.1416 24.0754C19.1334 24.0346 19.1171 23.9939 19.109 23.9531C19.1253 24.2385 19.1334 24.524 19.1579 24.8094C19.2068 25.5434 19.2721 26.2774 19.3618 26.9951H14.2319C13.9057 25.3232 13.7344 23.5779 13.7262 21.8H18.8806C18.8806 21.8 18.8724 21.7184 18.8724 21.6777C18.8724 21.6206 18.8806 21.5716 18.8806 21.5146H13.7262C13.7344 19.7448 13.9057 18.0076 14.2319 16.3194L19.3618 16.3113C19.2721 17.029 19.215 17.7548 19.1579 18.4807C19.1497 18.6356 19.1416 18.7906 19.1334 18.9455C19.1334 19.0923 19.109 19.2391 19.109 19.3941V19.4104C19.1253 19.3288 19.1497 19.2473 19.1661 19.1657C19.2068 18.9863 19.2558 18.8069 19.3047 18.6275C19.3618 18.4399 19.4189 18.2523 19.4841 18.0729C19.5331 17.4857 19.5738 16.8985 19.6472 16.3194L20.2589 16.3113C20.2915 16.246 20.3323 16.1889 20.3731 16.1237C20.3976 16.0911 20.4139 16.0584 20.4302 16.0258H19.6962C19.9245 14.3131 20.2671 12.6902 20.6912 11.1732C20.7238 11.059 20.7482 10.9449 20.7809 10.8307H25.2828C25.242 11.0998 25.2175 11.4016 25.1849 11.6789C25.2746 11.6299 25.3725 11.581 25.4704 11.5402C25.4948 11.3037 25.5193 11.059 25.5519 10.8307H27.6316C27.9741 10.7573 28.3167 10.7002 28.6674 10.6594C28.7081 10.6594 28.7489 10.6431 28.7897 10.6431C29.1322 10.6023 29.4748 10.5942 29.8255 10.586C29.8744 10.586 29.9233 10.586 29.9723 10.586C30.0294 10.586 30.0864 10.5942 30.1435 10.5942C30.4861 10.5942 30.8204 10.6105 31.1548 10.6513C31.1793 10.6513 31.2119 10.6594 31.2364 10.6676C31.5952 10.7083 31.9622 10.7654 32.3129 10.8388H34.1724C34.205 11.0346 34.2213 11.2466 34.2458 11.4424C34.3681 11.4913 34.4742 11.5484 34.5884 11.6055C34.5557 11.3526 34.5313 11.0835 34.4986 10.8388H39.0005C39.3512 12.0459 39.6448 13.3345 39.8814 14.672C39.9629 15.1205 40.0282 15.5773 40.0934 16.034H39.5062C39.547 16.0992 39.5878 16.1645 39.6285 16.2379C39.6448 16.2623 39.6612 16.295 39.6856 16.3194H40.1342C40.1586 16.5152 40.175 16.7109 40.1913 16.9066C40.2157 17.1024 40.2321 17.2981 40.2484 17.4938C40.2647 17.5428 40.281 17.5917 40.2973 17.6406C40.4196 17.9669 40.542 18.2931 40.6317 18.6275C40.6317 18.603 40.6317 18.5704 40.6317 18.5459C40.5746 17.7956 40.5175 17.0534 40.4196 16.3194H45.5495C45.8187 17.7059 45.9736 19.1168 46.0389 20.5685C46.047 20.8866 46.0633 21.2046 46.0633 21.5227H41.0721C41.0721 21.5798 41.0802 21.6287 41.0802 21.6858C41.0802 21.7266 41.0721 21.7674 41.0721 21.8082H46.0633C46.0633 22.1344 46.047 22.4525 46.0389 22.7705C45.9736 24.2141 45.8187 25.6332 45.5495 27.0033H40.4196C40.4441 26.8483 40.4523 26.6934 40.4686 26.5303C40.5175 26.0899 40.5583 25.6576 40.5909 25.2091C40.5991 25.0623 40.6154 24.9236 40.6235 24.7768C40.6235 24.7768 40.6235 24.7687 40.6235 24.7605C40.5175 25.1438 40.387 25.519 40.2402 25.8778C40.2402 25.8778 40.232 25.9186 40.232 25.9349C40.1994 26.2938 40.1831 26.6526 40.1342 26.9951H39.7101C39.6856 27.0359 39.6612 27.0767 39.6367 27.1175C39.6041 27.1746 39.5714 27.2317 39.5388 27.2887H40.0934C40.0282 27.7455 39.9629 28.2022 39.8814 28.6507C39.6448 29.9964 39.3512 31.2769 39.0005 32.4839L34.4986 32.492C34.5313 32.2474 34.5557 32.0027 34.5884 31.758C34.4742 31.8151 34.3682 31.8722 34.254 31.9211C34.254 31.9211 34.254 31.9211 34.2458 31.9211C34.2213 32.1087 34.205 32.3045 34.1724 32.4839L32.4516 32.492C32.4353 32.492 32.419 32.492 32.4026 32.5002C32.109 32.5654 31.8073 32.6144 31.4974 32.6552C31.3913 32.6715 31.2935 32.6878 31.1875 32.7041C30.9102 32.7367 30.6329 32.7449 30.3556 32.753C30.2496 32.753 30.1435 32.7693 30.0375 32.7693C30.0294 32.7693 30.0212 32.7693 30.013 32.7693H34.1316L33.9848 33.6746C33.9441 33.9111 33.9033 34.1476 33.8625 34.376C33.8543 34.4331 33.8462 34.4902 33.8299 34.5473C33.6831 35.3384 33.5281 36.0968 33.3569 36.8064C33.3569 36.8064 33.3569 36.8145 33.3569 36.8227C33.2671 37.2223 33.1693 37.5975 33.0632 37.9645H30.0049V32.7693H29.9723C29.9233 32.7693 29.8744 32.7612 29.8173 32.7612H29.8255ZM37.0758 37.8829C37.2308 37.6219 37.3694 37.3528 37.5081 37.0755C37.5325 37.0266 37.557 36.9776 37.5896 36.9287C37.5978 36.9124 37.6059 36.8961 37.6141 36.8798C37.818 36.472 38.0056 36.0397 38.1931 35.6075C38.2339 35.5015 38.2829 35.3954 38.3236 35.2894C38.5031 34.849 38.6743 34.3923 38.8374 33.9274C38.8374 33.9111 38.8537 33.8948 38.8619 33.8703C38.8782 33.8133 38.8945 33.7562 38.9108 33.7072C39.0169 33.3973 39.1147 33.0874 39.2126 32.7693H43.6819C43.4698 33.2179 43.2415 33.6501 43.005 34.0905C42.9723 34.1476 42.9479 34.2047 42.9234 34.2537C42.8011 34.4739 42.6787 34.6859 42.5482 34.898C42.4667 35.0284 42.3851 35.1508 42.3036 35.2813C42.2302 35.4036 42.1568 35.5259 42.0752 35.6401C41.8795 35.9337 41.6756 36.2273 41.4717 36.5046C41.4146 36.5862 41.3575 36.6677 41.3004 36.7411C41.1047 37.0103 40.8927 37.2468 40.6888 37.4914C40.5583 37.6464 40.4359 37.8095 40.3054 37.9563H37.0432C37.0432 37.9563 37.0758 37.8992 37.084 37.8748L37.0758 37.8829ZM36.6925 37.9645H33.4139C33.4629 37.7606 33.5118 37.5485 33.5689 37.3365C33.5934 37.2386 33.6178 37.1407 33.6423 37.0429C33.6586 36.9939 33.6668 36.945 33.6831 36.8879C33.732 36.6677 33.7891 36.4312 33.838 36.2029C33.9767 35.5749 34.099 34.9224 34.2213 34.2455C34.3029 33.7643 34.3926 33.275 34.466 32.7693H38.9108C38.8374 33.014 38.7559 33.2587 38.6743 33.4952C38.6254 33.642 38.5683 33.7888 38.5194 33.9356C38.4623 34.0905 38.4052 34.2455 38.3563 34.4005C38.2502 34.6859 38.1442 34.9632 38.03 35.2323C37.9648 35.3791 37.9077 35.5341 37.8424 35.6809C37.7201 35.9663 37.5896 36.2518 37.451 36.5209C37.3939 36.6351 37.345 36.7493 37.2879 36.8553C37.0921 37.2386 36.8964 37.6056 36.6925 37.9563V37.9645ZM39.2941 32.4839C39.3105 32.4268 39.3268 32.3779 39.3349 32.3208C39.547 31.5868 39.7264 30.8364 39.8895 30.0698C39.8977 30.029 39.9058 29.9883 39.914 29.9475C39.9221 29.9475 39.9221 29.9312 39.9221 29.9149C40.1016 29.0667 40.2484 28.194 40.3625 27.3051V27.2887H45.4761C45.4435 27.4437 45.4109 27.5905 45.3701 27.7373C45.3456 27.8841 45.313 28.0228 45.2722 28.1614C45.2559 28.243 45.2314 28.3164 45.207 28.3979C45.1662 28.5773 45.1173 28.7568 45.0683 28.928C45.052 28.9933 45.0357 29.0585 45.0194 29.1156C44.9949 29.2379 44.9542 29.3603 44.9134 29.4826C44.8971 29.5479 44.8726 29.6131 44.8481 29.6783C44.7992 29.8578 44.734 30.0454 44.6769 30.2248C44.6442 30.3063 44.6279 30.396 44.5953 30.4776C44.5708 30.5592 44.5464 30.6407 44.5056 30.7223C44.4811 30.7957 44.4485 30.8691 44.424 30.9425C44.3751 31.0811 44.3262 31.2198 44.2772 31.3502C44.1304 31.7336 43.9755 32.1169 43.8124 32.492H39.2778L39.2941 32.4839ZM30.8938 42.4174C30.8938 42.4174 30.8775 42.4338 30.8694 42.4419C30.5839 42.711 30.2985 42.8742 30.013 42.9149H30.0049V38.2499H32.9328C32.7289 38.935 32.5168 39.5467 32.2966 40.0849C32.1417 40.4519 31.9867 40.7782 31.8317 41.0718C31.5381 41.6263 31.2364 42.0668 30.9346 42.3767C30.9183 42.393 30.9102 42.4093 30.8938 42.4174ZM31.7176 42.605C31.636 42.6376 31.5626 42.6621 31.4811 42.6866C31.4566 42.6947 31.424 42.7029 31.3913 42.711C31.269 42.7518 31.1467 42.7844 31.0243 42.8171C31.0243 42.8171 31.0325 42.8008 31.0407 42.8008C31.1059 42.7437 31.163 42.6703 31.2282 42.605C31.4403 42.3848 31.6523 42.1157 31.8644 41.7895C31.8888 41.7568 31.9133 41.7242 31.9296 41.6916C31.9378 41.6753 31.9541 41.659 31.9622 41.6345C31.9867 41.5937 32.0112 41.5448 32.0438 41.504C32.419 40.8434 32.7696 39.9952 33.0959 39.0002C33.1774 38.7637 33.2508 38.5191 33.3324 38.2581H36.4723C36.4397 38.307 36.4071 38.3478 36.3826 38.3967C36.3092 38.5109 36.2358 38.6251 36.1542 38.7311C35.1511 40.2399 34.0093 41.3898 32.7778 42.1075C32.5005 42.2706 32.2151 42.4174 31.9296 42.5316C31.8562 42.5561 31.7828 42.5806 31.7094 42.6132L31.7176 42.605ZM32.476 42.6621C32.6228 42.5887 32.7696 42.499 32.9164 42.4093C33.2916 42.1972 33.6668 41.9444 34.0256 41.6508C34.0909 41.5937 34.1643 41.5529 34.2295 41.4959C34.4497 41.3083 34.6699 41.0962 34.882 40.8679C34.9227 40.8271 34.9635 40.7863 35.0043 40.7374C35.1756 40.5498 35.3468 40.3622 35.5181 40.1583C35.5426 40.1257 35.5752 40.0931 35.5996 40.0605C35.6241 40.036 35.6404 40.0034 35.6649 39.9708C35.8199 39.775 35.9748 39.5711 36.1216 39.3672C36.1624 39.3101 36.2113 39.2612 36.2521 39.196C36.2684 39.1715 36.2847 39.147 36.301 39.1226C36.3826 39.0002 36.4723 38.8697 36.562 38.7311C36.6191 38.6414 36.6762 38.5435 36.7414 38.4457C36.7822 38.3804 36.823 38.3152 36.8638 38.2418H39.9792C39.7427 38.4946 39.498 38.7393 39.2452 38.9758C39.2208 39.0002 39.1963 39.0247 39.1637 39.0492C38.9679 39.2286 38.7803 39.3999 38.5765 39.563C38.4133 39.7016 38.2421 39.8321 38.079 39.9626C38.0627 39.9708 38.0545 39.9871 38.0382 39.9952H38.0219L36.8719 40.8189C36.7251 40.9087 36.5783 40.9984 36.4315 41.0881C36.3418 41.1452 36.2439 41.2023 36.1542 41.2593C36.0074 41.3409 35.8525 41.4143 35.7057 41.4877C35.5997 41.5366 35.5018 41.5937 35.3958 41.6427C35.2163 41.7242 35.0288 41.8139 34.8493 41.8955C34.0745 42.2299 33.2753 42.4908 32.4679 42.6621H32.476ZM41.9774 39.1715C41.7735 39.3101 41.5777 39.4488 41.3738 39.5711C41.3412 39.5956 41.3004 39.6119 41.2678 39.6364C40.8437 39.9055 40.4115 40.1583 39.9711 40.3948C39.8406 40.4682 39.7101 40.5335 39.5796 40.5987C39.392 40.6966 39.2044 40.8026 39.0169 40.8923C38.7477 41.0228 38.4704 41.1452 38.1931 41.2675C36.9372 41.7976 35.6404 42.2054 34.3192 42.4827H34.3274C34.4416 42.4338 34.5557 42.3848 34.6699 42.3359C34.7515 42.3033 34.8249 42.2706 34.9064 42.238C34.9961 42.1972 35.0777 42.1565 35.1592 42.1238C35.3142 42.0504 35.4773 41.9852 35.6323 41.9036C35.8606 41.7976 36.089 41.6834 36.3173 41.5611C36.7741 41.3001 37.2226 41.0147 37.6549 40.7048C38.3644 40.1991 39.0495 39.6445 39.6938 39.0084C39.7509 38.9513 39.7998 38.8942 39.8569 38.8371C40.0526 38.6414 40.2402 38.4538 40.4278 38.2499H43.2333C42.8255 38.5761 42.4014 38.8779 41.9774 39.1715ZM47.6211 33.536C47.4987 33.7072 47.3764 33.8785 47.2541 34.0416C47.1562 34.1803 47.0583 34.3189 46.9604 34.4494C46.6668 34.8409 46.3569 35.2242 46.0307 35.5993C45.9981 35.6401 45.9655 35.6809 45.9328 35.7217C45.9084 35.7543 45.8839 35.7788 45.8594 35.8114C45.8431 35.8358 45.8187 35.8522 45.8023 35.8766C45.5332 36.1702 45.2641 36.4557 44.9868 36.7411C44.5627 37.1734 44.1141 37.573 43.6574 37.9645H40.7132C40.8763 37.7687 41.0313 37.5648 41.1944 37.3691C41.3086 37.2305 41.4228 37.1 41.5288 36.9532C41.6593 36.7901 41.7735 36.6106 41.8958 36.4394C42.2383 35.9582 42.5727 35.4607 42.8826 34.9469C43.2986 34.2455 43.6737 33.5197 44.0244 32.7693H48.1267C47.9636 33.0303 47.8005 33.2831 47.6292 33.536H47.6211ZM49.9209 29.0177C49.8068 29.3277 49.6926 29.6376 49.5702 29.9475C49.3827 30.3797 49.1869 30.812 48.9749 31.2361C48.7628 31.652 48.5426 32.0679 48.298 32.4757L44.1386 32.4839C44.2854 32.1413 44.4159 31.807 44.5464 31.4644C44.8155 30.7794 45.052 30.0698 45.2559 29.3521C45.4435 28.7078 45.6066 28.0554 45.7534 27.3948C45.7616 27.354 45.7697 27.3214 45.7779 27.2806H50.4918C50.3287 27.8678 50.133 28.4468 49.9209 29.0177ZM51.0138 24.7605C50.8996 25.5108 50.761 26.2611 50.5734 26.987H45.835C45.9084 26.5955 45.9736 26.204 46.0307 25.8044C46.1123 25.2661 46.1694 24.7197 46.2183 24.1733C46.2346 23.9776 46.2509 23.79 46.2672 23.5942C46.308 22.9989 46.3325 22.3954 46.3325 21.7918H51.2503C51.2422 22.795 51.1606 23.7818 51.0138 24.7605ZM46.3325 21.5064C46.3325 20.0792 46.2101 18.6764 45.9981 17.3063C45.9491 16.98 45.9002 16.662 45.8431 16.3439C45.8431 16.3357 45.8431 16.3276 45.8431 16.3113L50.5815 16.3031C50.8425 17.3307 51.0138 18.3583 51.128 19.4023C51.2014 20.0955 51.2503 20.7969 51.2585 21.5064H46.3406H46.3325Z" fill="#C4C7CB"/>
<path d="M30.0044 22.9746C30.7161 22.9746 31.293 22.3977 31.293 21.6861C31.293 20.9744 30.7161 20.3975 30.0044 20.3975C29.2927 20.3975 28.7158 20.9744 28.7158 21.6861C28.7158 22.3977 29.2927 22.9746 30.0044 22.9746Z" fill="#EFF2F8"/>
<path d="M63.2387 20.4786C62.1133 20.4786 61.053 20.2829 60.058 19.8832C59.0712 19.4836 58.1986 18.929 57.4401 18.2277C56.6816 17.5181 56.0944 16.6944 55.6703 15.7565C55.2462 14.8186 55.0342 13.8155 55.0342 12.7389C55.0342 11.6624 55.2462 10.6511 55.6703 9.71318C56.1026 8.76712 56.6898 7.9434 57.4401 7.24202C58.1986 6.53248 59.0631 5.96974 60.0499 5.57827C61.0367 5.17865 62.097 4.98291 63.2224 4.98291C64.144 4.98291 65.0167 5.1134 65.8404 5.37438C66.6723 5.63536 67.39 5.9779 67.9772 6.40199L66.7049 8.88946C66.2971 8.57139 65.8078 8.31856 65.2287 8.13914C64.6497 7.95972 64.038 7.87 63.41 7.87C62.6678 7.87 61.9746 7.99234 61.3466 8.24516C60.7187 8.48983 60.1722 8.84052 59.6992 9.28093C59.2343 9.72133 58.8755 10.2351 58.6145 10.8305C58.3535 11.4259 58.223 12.062 58.223 12.7471C58.223 13.4321 58.3535 14.0764 58.6145 14.6636C58.8755 15.259 59.2343 15.7728 59.6992 16.2132C60.1722 16.6536 60.7187 16.9962 61.3466 17.249C61.9828 17.4936 62.6678 17.6241 63.41 17.6241C64.0461 17.6241 64.6497 17.5344 65.2287 17.355C65.8078 17.1756 66.2971 16.9228 66.7049 16.6047L67.9772 19.0922C67.4063 19.4999 66.713 19.8425 65.8812 20.1035C65.0574 20.3726 64.1685 20.5031 63.2387 20.5031V20.4786ZM77.3561 20.4786C76.3122 20.4786 75.3335 20.2829 74.4201 19.8832C73.5067 19.4836 72.7074 18.929 72.0224 18.2277C71.3373 17.5181 70.7909 16.6944 70.3994 15.7565C70.0161 14.8104 69.8203 13.8073 69.8203 12.7308C69.8203 11.6542 70.0161 10.6511 70.3994 9.71318C70.7909 8.76712 71.3291 7.9434 72.0224 7.24202C72.7074 6.53248 73.5148 5.96974 74.4201 5.57827C75.3335 5.17865 76.3122 4.98291 77.3561 4.98291C78.4001 4.98291 79.3787 5.17865 80.2922 5.57827C81.2056 5.9779 82.0048 6.53248 82.6899 7.24202C83.375 7.95156 83.9133 8.77528 84.3047 9.71318C84.6962 10.6511 84.8919 11.6542 84.8919 12.7308C84.8919 13.8073 84.6962 14.8104 84.3047 15.7565C83.9214 16.6944 83.3832 17.5181 82.6899 18.2277C82.0048 18.9372 81.1974 19.4836 80.2922 19.8832C79.3787 20.2829 78.4001 20.4786 77.3561 20.4786ZM77.348 17.6486C77.9841 17.6486 78.5713 17.5263 79.1014 17.2898C79.6316 17.0451 80.0964 16.7107 80.4879 16.2621C80.8794 15.8217 81.1893 15.2998 81.4013 14.7044C81.6215 14.1009 81.7276 13.4403 81.7276 12.7226C81.7276 12.0049 81.6215 11.3443 81.4013 10.7489C81.1811 10.1454 80.8794 9.62346 80.4879 9.18306C80.0964 8.74266 79.6316 8.40012 79.1014 8.15545C78.5713 7.91078 77.9841 7.7966 77.348 7.7966C76.7118 7.7966 76.141 7.91894 75.6027 8.15545C75.0726 8.40012 74.6077 8.7345 74.2162 9.18306C73.8248 9.62346 73.5148 10.1454 73.3028 10.7489C73.0907 11.3443 72.9847 12.0049 72.9847 12.7226C72.9847 13.4403 73.0907 14.1009 73.3028 14.7044C73.523 15.2998 73.8248 15.8217 74.2162 16.2621C74.6077 16.7026 75.0726 17.0451 75.6027 17.2898C76.141 17.5344 76.72 17.6486 77.348 17.6486ZM88.4723 20.2176V5.20311H91.5225L97.8594 15.3079V5.20311H100.746V20.2176H97.6963L91.3594 10.1128V20.2176H88.4723ZM63.2387 38.527C62.1133 38.527 61.053 38.3313 60.058 37.9317C59.0712 37.532 58.1986 36.9775 57.4401 36.2761C56.6816 35.5665 56.0944 34.7428 55.6703 33.8049C55.2462 32.867 55.0342 31.8639 55.0342 30.7873C55.0342 29.7108 55.2462 28.6995 55.6703 27.7616C56.1026 26.8155 56.6898 25.9918 57.4401 25.2904C58.1986 24.5809 59.0631 24.0182 60.0499 23.6267C61.0367 23.2271 62.097 23.0313 63.2224 23.0313C64.144 23.0313 65.0167 23.1618 65.8404 23.4228C66.6723 23.6838 67.39 24.0263 67.9772 24.4504L66.7049 26.9379C66.2971 26.6198 65.8078 26.367 65.2287 26.1876C64.6497 26.0081 64.038 25.9184 63.41 25.9184C62.6678 25.9184 61.9746 26.0408 61.3466 26.2936C60.7187 26.5382 60.1722 26.8889 59.6992 27.3293C59.2343 27.7697 58.8755 28.2836 58.6145 28.8789C58.3535 29.4743 58.223 30.1104 58.223 30.7955C58.223 31.4806 58.3535 32.1249 58.6145 32.7121C58.8755 33.3074 59.2343 33.8212 59.6992 34.2616C60.1722 34.702 60.7187 35.0446 61.3466 35.2974C61.9828 35.5421 62.6678 35.6726 63.41 35.6726C64.0461 35.6726 64.6497 35.5828 65.2287 35.4034C65.8078 35.224 66.2971 34.9712 66.7049 34.6531L67.9772 37.1406C67.4063 37.5483 66.713 37.8909 65.8812 38.1519C65.0574 38.421 64.1685 38.5515 63.2387 38.5515V38.527ZM70.8643 38.266V23.2515H79.2401V25.8532H73.8982V29.4661H79.0933V32.0678H73.8982V35.6807H79.2401V38.2824H70.8643V38.266ZM83.4239 38.266V23.2515H88.5375C89.5651 23.2515 90.4541 23.4309 91.2044 23.798C91.9629 24.1568 92.5501 24.6706 92.9579 25.3557C93.3738 26.0326 93.5858 26.84 93.5858 27.7942C93.5858 28.5445 93.4554 29.2296 93.1862 29.8331C92.9171 30.4366 92.5338 30.9423 92.0363 31.3501C91.5388 31.766 90.9353 32.0678 90.2257 32.2717L95.1436 38.266H91.237L86.9961 32.6387H86.311V38.266H83.4239ZM86.311 30.1838H87.5507C88.1542 30.1838 88.668 30.0941 89.0839 29.9228C89.4999 29.7516 89.8261 29.4987 90.0463 29.1644C90.2747 28.8218 90.3888 28.414 90.3888 27.941C90.3888 27.2233 90.1442 26.6769 89.6467 26.2936C89.1573 25.9021 88.456 25.7145 87.5588 25.7145H86.3192V30.192L86.311 30.1838ZM99.0175 38.266V25.8532H95.1191V23.2515H105.656V25.8532H101.905V38.266H99.0175ZM114.464 38.527C113.42 38.527 112.442 38.3313 111.528 37.9317C110.615 37.532 109.816 36.9775 109.13 36.2761C108.445 35.5665 107.899 34.7428 107.508 33.8049C107.124 32.8589 106.928 31.8557 106.928 30.7792C106.928 29.7026 107.124 28.6995 107.508 27.7616C107.899 26.8155 108.437 25.9918 109.13 25.2904C109.816 24.5809 110.623 24.0182 111.528 23.6267C112.434 23.2352 113.42 23.0313 114.464 23.0313C115.508 23.0313 116.487 23.2271 117.4 23.6267C118.314 24.0263 119.113 24.5809 119.798 25.2904C120.483 26 121.021 26.8237 121.413 27.7616C121.804 28.6995 122 29.7026 122 30.7792C122 31.8557 121.804 32.8589 121.413 33.8049C121.03 34.7428 120.491 35.5665 119.798 36.2761C119.113 36.9856 118.306 37.532 117.4 37.9317C116.487 38.3313 115.508 38.527 114.464 38.527ZM114.456 35.697C115.092 35.697 115.679 35.5747 116.21 35.3382C116.74 35.0935 117.205 34.7591 117.596 34.3106C117.987 33.8702 118.297 33.3482 118.509 32.7528C118.73 32.1493 118.836 31.4887 118.836 30.771C118.836 30.0533 118.73 29.3927 118.509 28.7974C118.289 28.1938 117.987 27.6719 117.596 27.2315C117.205 26.7911 116.74 26.4485 116.21 26.2039C115.679 25.9592 115.092 25.845 114.456 25.845C113.82 25.845 113.249 25.9674 112.711 26.2039C112.181 26.4485 111.716 26.7829 111.324 27.2315C110.933 27.6719 110.623 28.1938 110.411 28.7974C110.199 29.3927 110.093 30.0533 110.093 30.771C110.093 31.4887 110.199 32.1493 110.411 32.7528C110.631 33.3482 110.933 33.8702 111.324 34.3106C111.716 34.751 112.181 35.0935 112.711 35.3382C113.249 35.5828 113.828 35.697 114.456 35.697Z" fill="#EFF2F8"/>
<path d="M0.00815563 26.8891C-0.00815563 26.7097 0.089712 26.5302 0.244669 26.4487L1.25597 25.9186C1.25597 25.9186 1.31306 25.8941 1.33752 25.8859L8.58788 24.2956C8.84071 24.2385 9.07722 24.1406 9.29742 23.9938L11.1243 22.7705C11.3282 22.6318 11.6136 22.6808 11.7523 22.8847C11.8991 23.0967 11.842 23.3822 11.6299 23.529L9.68889 24.8257C9.47685 24.9725 9.23218 25.0704 8.97935 25.1275L1.76977 26.7097C1.68006 26.726 1.59035 26.7586 1.50064 26.8075L0.652451 27.2479C0.367004 27.3947 0.0326225 27.2071 0 26.8891H0.00815563Z" fill="#EFF2F8"/>
<path fill-rule="evenodd" clip-rule="evenodd" d="M16.8495 18.4238C16.8169 18.8398 16.7598 19.2394 16.6782 19.6472C16.5885 20.0957 16.4254 20.7808 16.0584 21.523C16.0095 21.6127 15.9687 21.7105 15.9034 21.8084C15.7566 22.0776 15.5772 22.3467 15.3652 22.6158C14.8269 23.2927 14.3131 23.619 13.8156 23.725C13.7177 23.7495 13.628 23.7576 13.5383 23.7739C13.3263 23.7902 13.1061 23.7739 12.9022 23.725C12.7962 23.7087 12.7064 23.6679 12.6249 23.6353C12.2987 23.4722 12.1437 23.1786 12.0458 22.9176H12.054L12.0214 22.8442C11.9724 22.73 11.9153 22.6566 11.8419 22.5669C11.7196 22.3956 11.5728 22.208 11.5565 21.8573C11.5483 21.8492 11.5483 21.8329 11.5483 21.8084C11.5483 21.7269 11.5565 21.6371 11.5647 21.5393V21.523C11.6788 20.7156 12.1926 20.0386 13.2202 19.3536C13.3263 19.2802 13.4486 19.2149 13.5791 19.166C13.6688 19.1089 13.7667 19.0763 13.8645 19.0437C14.6393 18.7664 15.6506 18.6196 16.2786 18.5299C16.5967 18.4972 16.8087 18.4565 16.8577 18.432L16.8495 18.4238Z" fill="#00B89C"/>
<path d="M30.0128 11.3853C24.3446 11.3853 19.7285 16.0013 19.7285 21.6695C19.7285 27.3377 24.3446 31.9538 30.0128 31.9538C35.6809 31.9538 40.297 27.3377 40.297 21.6695C40.297 16.0013 35.6809 11.3853 30.0128 11.3853ZM30.0454 30.5755C25.1357 30.5755 21.1558 26.5955 21.1558 21.6858C21.1558 16.7761 25.1357 12.7962 30.0454 12.7962C34.9551 12.7962 38.935 16.7761 38.935 21.6858C38.935 26.5955 34.9551 30.5755 30.0454 30.5755Z" fill="#EFF2F8"/>
</svg>
