<svg width="229" height="82" viewBox="0 0 229 82" fill="none" xmlns="http://www.w3.org/2000/svg">
<path d="M29.8864 20.2656C29.6115 20.8918 29.3519 21.5332 29.0923 22.1899C28.9854 22.4342 28.8938 22.6938 28.8021 22.9382C28.6189 23.4421 28.4356 23.9461 28.2676 24.4501C28.1455 24.8013 28.0386 25.1526 27.9316 25.5191C27.7637 26.0842 27.5804 26.6645 27.4277 27.2295C27.3819 27.3975 27.3361 27.5503 27.3055 27.7182C27.107 28.4666 26.9237 29.2301 26.771 29.9937H36.3311C36.3311 29.9937 36.3464 29.8868 36.3617 29.841C36.5755 28.3291 36.8351 26.8172 37.1252 25.3664C37.1558 25.2442 37.1711 25.122 37.1863 24.9999C37.2169 24.8777 37.2474 24.7555 37.278 24.6333C37.5529 23.3505 37.8736 22.083 38.2095 20.846C38.2554 20.6627 38.3012 20.4489 38.347 20.2656H29.8712H29.8864Z" fill="#EFF2F8"/>
<path d="M38.4998 19.7304C38.5456 19.5624 38.622 19.3944 38.6678 19.2264C38.8205 18.7225 38.9732 18.2032 39.1412 17.6993C39.355 17.0731 39.5993 16.447 39.8284 15.8208C39.8284 15.7903 39.8437 15.7598 39.859 15.7445C40.2255 14.8129 40.6073 13.9119 41.0196 13.0414C41.1876 12.6749 41.3556 12.3236 41.5236 11.9724C41.5236 11.9724 41.5236 11.9418 41.5389 11.9418C41.6916 11.6058 41.8748 11.2851 42.0428 10.9644C42.1497 10.7659 42.2566 10.5826 42.3635 10.3994C42.4246 10.2772 42.501 10.1398 42.5621 10.0176H36.4686C35.873 10.659 35.308 11.3615 34.7582 12.0793C34.7124 12.1404 34.6513 12.2014 34.6055 12.2778C34.4222 12.5069 34.2542 12.7665 34.071 13.0108C33.399 13.9424 32.7729 14.9198 32.1773 15.9277C31.994 16.2332 31.8108 16.5539 31.6428 16.8746C31.1083 17.8062 30.589 18.753 30.1309 19.7457H38.4998V19.7304Z" fill="#EFF2F8"/>
<path d="M37.2629 31.8736C37.4614 31.4307 37.6752 30.9878 37.9043 30.5755C37.9043 30.5755 37.9043 30.5602 37.9043 30.5449H36.7742C36.6367 31.6292 36.5604 32.7288 36.4688 33.8283C36.652 33.2633 36.8658 32.7135 37.1102 32.179C37.156 32.0721 37.2018 31.9805 37.2476 31.8888L37.2629 31.8736Z" fill="#EFF2F8"/>
<path d="M37.6298 50.0144C37.4465 49.6478 37.2632 49.2966 37.0952 48.9148C36.8967 48.4414 36.7135 47.9527 36.5302 47.464C36.5302 47.4182 36.4996 47.3723 36.4844 47.3418C36.4844 47.3723 36.4996 47.3876 36.4996 47.4182C36.5913 48.4719 36.6676 49.5257 36.7898 50.5336H37.8741C37.8741 50.5336 37.8741 50.5183 37.8741 50.5031C37.7825 50.3503 37.7214 50.1823 37.6298 50.0144Z" fill="#EFF2F8"/>
<path d="M35.7662 36.3482C35.7815 36.0428 35.7968 35.7526 35.8273 35.4624C35.8426 35.1723 35.8579 34.8821 35.8731 34.5919C35.98 33.2328 36.0869 31.8736 36.2549 30.5449H26.649C26.0381 33.7062 25.7174 36.9591 25.7021 40.273H35.3539C35.3539 39.6163 35.3997 38.9597 35.4608 38.303C35.5372 37.6463 35.6288 36.9896 35.7662 36.3482Z" fill="#EFF2F8"/>
<path d="M35.3539 40.8066H25.7021C25.7174 44.1359 26.0381 47.404 26.649 50.5348H36.2549C36.0869 49.1908 35.9648 47.8164 35.8731 46.4419C35.8273 45.9074 35.8121 45.3729 35.7815 44.8384C35.5066 43.525 35.3692 42.1811 35.3539 40.8066Z" fill="#EFF2F8"/>
<path d="M38.3471 60.8124C38.3013 60.675 38.286 60.5223 38.2402 60.4001C37.8737 59.1326 37.553 57.8039 37.2628 56.46C37.2323 56.3378 37.2017 56.2157 37.1712 56.0782C37.1407 55.956 37.1254 55.8186 37.0948 55.6964C36.8047 54.2609 36.5451 52.7948 36.3465 51.2829C36.3465 51.2218 36.316 51.1607 36.316 51.0996H26.7559C26.8933 51.7716 27.0613 52.4283 27.214 53.0849C27.3056 53.482 27.4125 53.8791 27.5194 54.2609C27.6263 54.6732 27.7485 55.0703 27.8707 55.4673C27.9776 55.8644 28.115 56.2767 28.2525 56.6738C28.3594 57.0098 28.4816 57.3458 28.6037 57.6817C28.7717 58.1704 28.955 58.6591 29.1535 59.1326C29.3826 59.6976 29.5964 60.2627 29.856 60.8124H38.3319H38.3471Z" fill="#EFF2F8"/>
<path d="M38.4998 61.3633H30.1309C30.4363 62.02 30.757 62.6614 31.093 63.2875C31.093 63.3028 31.1083 63.3181 31.1235 63.3333C31.5817 64.1886 32.0704 65.0285 32.5743 65.8379C32.7118 66.0517 32.834 66.2502 32.9714 66.464C33.4906 67.2735 34.0252 68.0676 34.6208 68.8312C34.804 69.0755 35.0026 69.2893 35.1858 69.5184C35.6134 70.0529 36.0258 70.5722 36.4839 71.0761H42.5773C42.5773 71.0761 42.5315 70.9845 42.501 70.9387C42.3483 70.6791 42.1955 70.4042 42.0428 70.1445C41.8748 69.8238 41.7069 69.5184 41.5541 69.1977C41.5541 69.1977 41.5541 69.1671 41.5389 69.1671C41.1265 68.3425 40.7447 67.4873 40.3782 66.6168C40.3171 66.464 40.256 66.3113 40.1797 66.1586C39.8437 65.3492 39.5383 64.5245 39.2328 63.6693C39.2023 63.593 39.1717 63.5166 39.1412 63.4402C39.019 63.0737 38.8968 62.6919 38.7899 62.3254C38.683 62.0047 38.5761 61.6993 38.4845 61.3786L38.4998 61.3633Z" fill="#EFF2F8"/>
<path d="M40.4854 65.3183C41.1116 66.9066 41.7988 68.4032 42.5318 69.7777C42.7609 70.2205 42.99 70.6634 43.2343 71.091H49.3736C49.3278 70.862 49.2667 70.6329 49.2056 70.4038C49.1598 70.2053 49.0987 69.9762 49.0376 69.7624C48.9765 69.5333 48.9154 69.3195 48.8696 69.0752C48.8085 68.8461 48.7627 68.6017 48.7169 68.3727C48.5795 67.7618 48.442 67.1662 48.3046 66.5248C47.9686 64.8907 47.6784 63.165 47.4035 61.3477H39.0957C39.4317 62.4625 39.8135 63.501 40.1953 64.5395C40.2869 64.7991 40.3785 65.0587 40.4854 65.303V65.3183Z" fill="#EFF2F8"/>
<path d="M42.0436 55.8335C41.677 55.4975 41.3258 55.1463 40.9745 54.7797C39.9361 53.6802 39.0197 52.4584 38.2562 51.1451C38.2562 51.1298 38.2256 51.1145 38.2256 51.084H36.897C37.2482 53.7413 37.7522 56.2764 38.3478 58.674C38.5311 59.4071 38.7296 60.1096 38.9281 60.8121H47.3581C47.297 60.3081 47.236 59.8042 47.1749 59.3002C45.3117 58.4144 43.6165 57.2538 42.1199 55.8793C42.1046 55.864 42.0741 55.8488 42.0588 55.8335H42.0436Z" fill="#EFF2F8"/>
<path d="M42.058 25.3053C42.058 25.3053 42.1343 25.2442 42.1649 25.2137C43.6462 23.8698 45.3261 22.7244 47.1435 21.8539C47.2198 21.3346 47.2657 20.7849 47.342 20.2656H38.912C38.8509 20.4794 38.8051 20.6932 38.744 20.907C37.9499 23.7476 37.3085 26.7867 36.8809 29.9937H38.2553C38.2553 29.9937 38.2706 29.9632 38.2859 29.9632C39.3243 28.2375 40.5919 26.6645 42.058 25.3206V25.3053Z" fill="#EFF2F8"/>
<path d="M39.0957 19.7301H47.4188C47.6784 17.9433 47.9839 16.2481 48.3046 14.6293C48.4878 13.713 48.6864 12.8272 48.8849 11.9873C48.9765 11.636 49.0529 11.3153 49.1445 10.9946C49.1751 10.8877 49.1903 10.7961 49.2209 10.6892C49.2209 10.6892 49.2209 10.6739 49.2209 10.6586C49.282 10.4448 49.3431 10.2005 49.3889 10.002H43.2496C42.7304 10.8724 42.257 11.804 41.7835 12.7814C41.249 13.9268 40.7298 15.118 40.2564 16.3855C39.844 17.4698 39.4622 18.5694 39.0957 19.7301Z" fill="#EFF2F8"/>
<path d="M47.2813 4.7645C45.9832 6.0626 44.7615 7.63559 43.6313 9.45293H49.511C49.6942 8.84206 49.8622 8.29227 50.0455 7.74249C50.4578 6.50548 50.9007 5.40591 51.3589 4.45906C51.5268 4.09254 51.7254 3.74129 51.8934 3.42058C51.8934 3.40531 51.9086 3.37477 51.9239 3.3595C51.985 3.23732 52.0614 3.13042 52.1224 3.02352C52.3057 2.71808 52.489 2.42792 52.6875 2.1683C52.718 2.12248 52.7486 2.07667 52.7944 2.03085C52.9777 1.78651 53.1609 1.55743 53.3595 1.3589C53.4358 1.26727 53.5274 1.20618 53.6038 1.12982C53.6802 1.05346 53.7413 0.992374 53.8329 0.916016C53.1609 1.06873 52.489 1.29781 51.8476 1.58797C50.244 2.2752 48.7321 3.34422 47.2966 4.7645H47.2813Z" fill="#EFF2F8"/>
<path d="M44.2422 3.80323C44.0895 3.89486 43.9367 3.98649 43.784 4.07812C42.1499 5.02497 40.5922 6.17035 39.1261 7.48372C38.9429 7.65171 38.7596 7.80443 38.5764 7.97242C38.3626 8.15568 38.1793 8.36949 37.9655 8.56802C37.6601 8.85818 37.3546 9.14834 37.0645 9.46905H42.883C43.4633 8.50693 44.0589 7.62117 44.6698 6.81177C44.7003 6.76595 44.7309 6.73541 44.7614 6.68959C45.4028 5.83437 46.0901 5.08606 46.7773 4.39883C48.1517 3.02437 49.5873 1.94008 51.0992 1.20703C50.7632 1.28339 50.412 1.37502 50.076 1.46665C50.0607 1.46665 50.0302 1.46665 50.0149 1.46665C48.5488 1.86372 47.1133 2.38296 45.693 3.05491C45.2043 3.28399 44.7156 3.52834 44.2269 3.80323H44.2422Z" fill="#EFF2F8"/>
<path d="M36.5754 9.08722C37.2474 8.36944 37.9499 7.69749 38.6677 7.05607C39.0342 6.73537 39.416 6.41466 39.7825 6.10922C40.6835 5.37618 41.6151 4.68895 42.562 4.07808C43.0048 3.78792 43.463 3.51303 43.9212 3.25341C44.0281 3.19232 44.1502 3.1465 44.2571 3.08542C45.1276 2.61199 45.9981 2.21493 46.8686 1.86368C47.1282 1.75677 47.3726 1.6346 47.6475 1.54297C47.6322 1.54297 47.6169 1.54297 47.6016 1.54297C46.7464 1.72623 45.9065 1.94003 45.0665 2.18438C43.4935 2.62726 41.9358 3.16177 40.4086 3.81846C37.1252 5.20819 34.0861 7.02553 31.2914 9.22466C31.1845 9.30102 31.0776 9.37738 30.9707 9.45374H36.2089C36.3311 9.33156 36.4533 9.20939 36.5602 9.08722H36.5754Z" fill="#EFF2F8"/>
<path d="M29.5199 19.7304C29.6116 19.5472 29.7032 19.3792 29.7948 19.1959C30.4821 17.7451 31.2456 16.3554 32.0703 15.0114C32.2078 14.7824 32.3605 14.5533 32.5132 14.3242C33.0477 13.4843 33.5975 12.6749 34.1931 11.8807C34.6818 11.2393 35.1858 10.6284 35.705 10.0176H30.2224C29.5047 10.6132 28.8327 11.2546 28.1608 11.9113C28.0233 12.0487 27.8553 12.1709 27.7179 12.3083C26.8779 13.1483 26.0991 14.0188 25.3507 14.9198C24.4803 15.9583 23.6556 17.0273 22.892 18.1422C22.6171 18.5392 22.3575 18.9516 22.0979 19.3639C22.0215 19.4861 21.9299 19.6235 21.8535 19.7457H29.5352L29.5199 19.7304Z" fill="#EFF2F8"/>
<path d="M29.2756 20.3114C29.2756 20.3114 29.2756 20.2809 29.2909 20.2656H21.5023C21.2274 20.739 20.9678 21.243 20.6929 21.7317C20.2347 22.6022 19.7918 23.488 19.3948 24.389C19.3642 24.4654 19.3337 24.5264 19.3031 24.5875C19.2421 24.725 19.1657 24.8624 19.1046 24.9999C18.5243 26.3743 18.0509 27.7641 17.6233 29.1691C17.5927 29.2607 17.5622 29.3523 17.5469 29.4287C17.4858 29.6119 17.44 29.7952 17.3789 29.9785H26.206C26.8932 26.5881 27.9164 23.3352 29.2603 20.2962L29.2756 20.3114Z" fill="#EFF2F8"/>
<path d="M17.242 30.5449C17.1504 30.9114 17.074 31.278 16.9977 31.6292C16.9213 31.9957 16.8144 32.3775 16.7533 32.7441C16.4937 34.0574 16.3105 35.3861 16.1883 36.73C16.0814 37.9059 16.005 39.0818 15.9897 40.273H25.1833C25.1833 40.0134 25.1986 39.7691 25.1986 39.5094C25.2139 38.6237 25.2597 37.7532 25.3208 36.8827C25.3208 36.7147 25.3208 36.5314 25.3513 36.3635C25.3819 36.058 25.4124 35.7526 25.443 35.4472C25.5957 33.7825 25.8095 32.1485 26.1149 30.5449H17.242Z" fill="#EFF2F8"/>
<path d="M26.1152 50.5348C25.993 49.9086 25.9014 49.2672 25.7945 48.6258C25.3974 46.0754 25.1836 43.4639 25.1683 40.8066H15.9595C15.9595 41.0357 15.9595 41.2648 15.9747 41.4939C16.0053 42.4254 16.0511 43.357 16.1427 44.3039L21.7627 40.8372L23.687 44.2275L18.067 47.7095L16.662 48.0302C16.7383 48.4272 16.8452 48.8243 16.9216 49.2214C17.0132 49.6643 17.0896 50.1071 17.2118 50.5348H26.0846H26.1152Z" fill="#EFF2F8"/>
<path d="M19.1199 56.0778C19.8071 57.7119 20.6165 59.3002 21.5023 60.8121H29.2756C28.1455 58.2464 27.2597 55.5433 26.5878 52.7333C26.4503 52.1835 26.3129 51.6338 26.206 51.084H17.3789C17.5469 51.7101 17.7454 52.321 17.944 52.9471C18.1883 53.6802 18.4479 54.4132 18.7381 55.131C18.8603 55.4517 18.9672 55.7571 19.1046 56.0778H19.1199Z" fill="#EFF2F8"/>
<path d="M27.718 68.799C28.5121 69.6084 29.3521 70.372 30.2073 71.0898H35.6899C35.3997 70.7385 35.1248 70.3873 34.8499 70.036C34.8499 70.0208 34.8194 70.0055 34.8041 69.975C34.5903 69.7153 34.3765 69.471 34.178 69.2114C32.5744 67.1039 31.1847 64.7978 29.9935 62.3544C29.9477 62.278 29.9171 62.2016 29.8713 62.1253C29.7491 61.8809 29.6117 61.6366 29.5048 61.377H21.8384C22.5562 62.5529 23.3656 63.6983 24.2055 64.7978C25.2898 66.2028 26.4504 67.5467 27.718 68.8143V68.799Z" fill="#EFF2F8"/>
<path d="M47.6627 79.5358C47.4031 79.4441 47.1435 79.322 46.8839 79.2151C46.3646 79.0013 45.8454 78.7569 45.3262 78.5126C45.1887 78.4515 45.0513 78.3904 44.9138 78.3293C44.7764 78.2529 44.6237 78.1766 44.4862 78.1155C44.3029 78.0239 44.1044 77.9322 43.9212 77.8253C42.0733 76.7868 40.317 75.504 38.6677 74.0379C37.8124 73.2896 36.9878 72.4955 36.1936 71.625H30.9707C30.9707 71.625 31.0929 71.7166 31.154 71.7624C31.7343 72.2206 32.3299 72.6635 32.9255 73.0911C33.1393 73.2438 33.3684 73.3965 33.5974 73.5492C34.0861 73.8852 34.5901 74.2059 35.0941 74.5114C35.3079 74.6488 35.5217 74.771 35.7355 74.9084C36.3311 75.2597 36.942 75.5957 37.5528 75.9164C37.675 75.9774 37.7819 76.0385 37.9041 76.0996C38.179 76.2371 38.4539 76.3592 38.7288 76.4814C39.2785 76.741 39.8436 77.0159 40.4086 77.2603C42.7605 78.2529 45.1734 79.0165 47.6475 79.5358H47.6627Z" fill="#EFF2F8"/>
<path d="M49.0985 78.6653C47.9073 77.8101 46.7619 76.7563 45.6776 75.4735C45.5554 75.336 45.4332 75.2139 45.3111 75.0611C45.2958 75.0459 45.2805 75.0153 45.25 74.9848C44.8987 74.5572 44.5475 74.099 44.2115 73.6103C44.1046 73.4576 43.9977 73.3202 43.9061 73.1674C43.7686 72.9689 43.6159 72.7704 43.4785 72.5566C43.3563 72.358 43.2341 72.1442 43.0967 71.9304C43.0356 71.8235 42.9592 71.7319 42.8981 71.625H37.0796C37.3392 71.8999 37.5988 72.1595 37.8737 72.4191C38.4693 73.0147 39.0802 73.5798 39.7216 74.1143C40.5768 74.8321 41.4473 75.5193 42.3636 76.1302C42.9745 76.5425 43.6159 76.9243 44.2573 77.2755C44.7307 77.5504 45.2194 77.7948 45.7081 78.0239C46.1968 78.2529 46.7008 78.4667 47.1895 78.6653C47.3117 78.7111 47.4186 78.7416 47.5407 78.7875C48.0447 78.986 48.5639 79.1692 49.0679 79.3372C49.1748 79.3678 49.2664 79.3983 49.3734 79.4289C49.9537 79.5969 50.534 79.7648 51.1143 79.887C50.4271 79.551 49.7704 79.1387 49.1137 78.6653H49.0985Z" fill="#EFF2F8"/>
<path d="M53.8329 80.1619C53.8329 80.1619 53.6954 80.0245 53.6191 79.9634C53.3595 79.719 53.0998 79.4136 52.8555 79.0929C52.657 78.8485 52.4737 78.5584 52.2752 78.2682C52.153 78.0849 52.0461 77.9017 51.9239 77.7032C51.9239 77.7032 51.9239 77.6879 51.9086 77.6726C51.5727 77.0923 51.2672 76.4051 50.9465 75.6873C50.4425 74.4961 49.9539 73.1522 49.511 71.625H43.6313C43.9521 72.1442 44.2728 72.6329 44.6087 73.1064C44.6546 73.1674 44.7004 73.2285 44.7462 73.2896C45.7083 74.6335 46.7315 75.8247 47.8158 76.8174C48.274 77.2297 48.7321 77.6115 49.2055 77.9475C50.3051 78.7569 51.4352 79.383 52.6111 79.7954C52.6111 79.7954 52.6111 79.7954 52.6264 79.7954C53.0235 79.9328 53.4205 80.055 53.8176 80.1466L53.8329 80.1619Z" fill="#EFF2F8"/>
<path d="M55.6499 80.3604V71.625H50.1826C51.7556 76.9548 53.6951 80.0703 55.6499 80.3604Z" fill="#EFF2F8"/>
<path d="M48.1975 62.9665C48.3502 63.898 48.5029 64.7991 48.6862 65.6848C48.7167 65.8376 48.7473 65.975 48.7778 66.1124C48.9763 67.0746 49.1749 68.0214 49.3887 68.9225C49.5567 69.6708 49.7552 70.3733 49.9385 71.0605C49.9385 71.0605 49.9385 71.0605 49.9385 71.0758H55.6501V61.3477H47.9531C48.0295 61.8974 48.1058 62.4167 48.1975 62.9512V62.9665Z" fill="#EFF2F8"/>
<path d="M51.4507 60.8128C50.1526 60.5074 48.9003 60.0951 47.6938 59.5605C47.7549 59.9729 47.7855 60.4005 47.8466 60.8128H51.4507Z" fill="#EFF2F8"/>
<path d="M49.6944 20.8154C50.29 20.6169 50.9009 20.4642 51.5118 20.3267C51.5881 20.3114 51.6492 20.2809 51.7256 20.2656H47.8466C47.7855 20.6932 47.7397 21.1514 47.6938 21.5943C48.3047 21.3194 48.9309 21.075 49.557 20.8612C49.6028 20.8612 49.6334 20.8307 49.6792 20.8154H49.6944Z" fill="#EFF2F8"/>
<path d="M55.65 10.002H49.9383C49.8925 10.1699 49.8467 10.3532 49.8009 10.5365C49.6634 11.0557 49.5107 11.5902 49.3885 12.14C49.0831 13.4381 48.7929 14.8278 48.5333 16.2634C48.3348 17.3935 48.1363 18.5389 47.9683 19.7301H55.6652V10.002H55.65Z" fill="#EFF2F8"/>
<path d="M51.6032 5.51408C51.1145 6.64419 50.6411 7.95756 50.1982 9.45419H55.6503V0.71875C55.5128 0.734022 55.3601 0.795109 55.2227 0.856196C55.131 0.902011 55.0394 0.932555 54.9478 0.993642C54.8256 1.07 54.6881 1.13109 54.566 1.22272C53.5428 1.92522 52.5348 3.40658 51.6185 5.52935L51.6032 5.51408Z" fill="#EFF2F8"/>
<path d="M92.8212 24.9999C92.134 23.3658 91.3246 21.7775 90.4389 20.2656H82.6655C83.9942 23.32 85.0479 26.5881 85.7352 29.9937H94.5622C94.3484 29.2149 94.1041 28.4513 93.8445 27.6877C93.8139 27.5961 93.7834 27.4892 93.7376 27.3975C93.6917 27.2754 93.6459 27.1532 93.6001 27.031C93.3558 26.3438 93.0961 25.6718 92.8212 24.9999Z" fill="#EFF2F8"/>
<path d="M74.312 30.5449C74.4189 30.7435 74.5105 30.942 74.6174 31.1405C74.7702 31.4307 74.9076 31.7361 75.0603 32.0416C75.1672 32.2706 75.2589 32.4844 75.3505 32.7135C75.3199 32.3623 75.2894 31.9957 75.2589 31.6292C75.2283 31.2627 75.1978 30.8962 75.152 30.5449H74.312Z" fill="#EFF2F8"/>
<path d="M74.3579 50.534H75.152C75.2284 49.8926 75.2742 49.2206 75.3353 48.5487C75.3353 48.5181 75.3506 48.4876 75.3506 48.457C75.3506 48.457 75.3506 48.4876 75.3353 48.4876C75.0299 49.1901 74.7244 49.862 74.3579 50.534Z" fill="#EFF2F8"/>
<path d="M73.5947 20.2656C73.7169 20.678 73.8238 21.1208 73.9307 21.5485C74.0071 21.8386 74.0834 22.1288 74.1445 22.4342C74.2361 22.8007 74.3125 23.152 74.4041 23.5185C74.6637 24.6486 74.8928 25.794 75.1066 26.9547C75.1524 27.2448 75.2135 27.535 75.2593 27.8251C75.3663 28.436 75.4732 29.0469 75.5648 29.673C75.5801 29.7799 75.5953 29.8868 75.6106 29.9937H85.1707C85.0027 29.1996 84.8195 28.4055 84.6209 27.6266C84.5904 27.5197 84.5598 27.4128 84.5446 27.3059C84.3766 26.6798 84.1933 26.0536 83.9948 25.4275C83.9032 25.122 83.8115 24.8319 83.7046 24.5264C83.5214 23.9767 83.3381 23.4421 83.1396 22.9076C83.0021 22.5106 82.8494 22.1288 82.6814 21.7317C82.4829 21.243 82.2844 20.739 82.0706 20.2656H73.5947Z" fill="#EFF2F8"/>
<path d="M81.7958 19.7308C81.75 19.6239 81.6889 19.5322 81.6431 19.4406C81.185 18.4632 80.681 17.5011 80.1617 16.5848C79.673 15.7296 79.1538 14.9049 78.604 14.0955C78.1917 13.4846 77.7641 12.8737 77.3212 12.2782C77.2601 12.1865 77.199 12.1102 77.1227 12.0338C77.0769 11.9727 77.031 11.9269 77.0005 11.8811C76.4965 11.2397 75.9926 10.6135 75.4733 10.0332H69.3799C69.6853 10.5677 69.9755 11.1175 70.2656 11.6826C70.2962 11.7436 70.3267 11.8047 70.3573 11.8505C70.3726 11.8811 70.4031 11.9116 70.4184 11.9574C70.4184 11.9574 70.4184 11.9574 70.4184 11.9727C70.4184 11.9727 70.4184 12.0033 70.4336 12.0033C70.5711 12.2629 70.6933 12.553 70.8154 12.8279C71.2583 13.7595 71.6859 14.7216 72.0677 15.7296C72.0677 15.7601 72.083 15.7907 72.0983 15.8212C72.587 17.0888 73.0451 18.4021 73.4574 19.7613H81.8111L81.7958 19.7308Z" fill="#EFF2F8"/>
<path d="M72.1748 17.7005C72.0526 17.334 71.9152 16.9675 71.7777 16.601C71.5945 16.1123 71.4112 15.6541 71.2279 15.1807C71.1058 14.8752 70.9836 14.5545 70.8461 14.2491C70.6323 13.7604 70.4033 13.2717 70.1742 12.7983C70.052 12.5387 69.9298 12.279 69.8077 12.0194C69.5786 11.546 69.319 11.1031 69.0746 10.6602C68.9524 10.4312 68.8303 10.2021 68.7081 9.98828H62.5688C62.6452 10.2784 62.7216 10.5839 62.7827 10.874C62.8285 11.0726 62.8743 11.2558 62.9354 11.4544C62.9659 11.546 62.9812 11.6376 63.0117 11.7293C63.027 11.8056 63.0575 11.882 63.0728 11.9583C63.1034 12.0958 63.1339 12.2485 63.1644 12.3859C63.195 12.5234 63.2255 12.6608 63.2561 12.7983C63.6226 14.3865 63.9433 16.097 64.2335 17.8532C64.3404 18.4641 64.4473 19.0597 64.5389 19.6858H72.8467C72.6329 18.9833 72.4039 18.3267 72.1748 17.6547V17.7005Z" fill="#EFF2F8"/>
<path d="M70.0515 25.1831C71.5939 26.5729 72.9226 28.2069 73.9916 29.9937H75.0759C74.9537 29.1232 74.8316 28.2833 74.6941 27.4433C74.2512 24.9388 73.7014 22.5258 73.0448 20.2656H64.6147C64.6758 20.7238 64.7216 21.2277 64.7827 21.7012C66.707 22.5869 68.4632 23.7476 70.0209 25.1373C70.0209 25.1373 70.0515 25.1679 70.0668 25.1831H70.0515Z" fill="#EFF2F8"/>
<path d="M70.1117 55.9099C70.1117 55.9099 70.0354 55.9862 69.9896 56.0168C68.4318 57.4065 66.6756 58.5671 64.7666 59.4529C64.7055 59.9111 64.6597 60.3692 64.5986 60.8121H73.0286C73.6853 58.5519 74.2351 56.1542 74.678 53.6344C74.8154 52.7944 74.9376 51.9392 75.0598 51.084H74.0366C74.0366 51.084 73.9449 51.2367 73.8991 51.2978C72.8607 53.0082 71.5931 54.5659 70.1117 55.9099Z" fill="#EFF2F8"/>
<path d="M69.8223 69.0281C69.9292 68.8296 70.0208 68.6005 70.1277 68.402C70.3721 67.8827 70.6164 67.3635 70.8608 66.829C70.983 66.5541 71.0899 66.2792 71.212 65.989C71.4258 65.4851 71.6244 64.9658 71.8229 64.4313C71.9298 64.1411 72.0367 63.851 72.1283 63.5608C72.3727 62.843 72.6323 62.1253 72.8614 61.377H64.5535C64.4161 62.3238 64.2634 63.2401 64.0954 64.1411C63.8663 65.4087 63.6372 66.6457 63.3776 67.8064C63.286 68.2492 63.1791 68.6769 63.0875 69.1045C63.0722 69.1961 63.0416 69.2877 63.0111 69.3794C62.9653 69.5626 62.9042 69.7459 62.8737 69.9291C62.7668 70.3262 62.6751 70.7233 62.5835 71.1051H68.7227C69.1045 70.4484 69.4711 69.7611 69.8376 69.0434L69.8223 69.0281Z" fill="#EFF2F8"/>
<path d="M69.3643 71.0901H75.473C75.7173 70.8152 75.9464 70.5098 76.1907 70.2349C76.5725 69.7768 76.9696 69.3339 77.3361 68.8452C77.443 68.6925 77.5499 68.5398 77.6568 68.387C78.0539 67.8525 78.4357 67.318 78.7869 66.7682C78.9397 66.5392 79.0771 66.3101 79.2145 66.0963C79.6116 65.4701 80.0087 64.8287 80.3752 64.172C80.4363 64.0651 80.4821 63.9582 80.5279 63.8666C80.9708 63.0572 81.3984 62.2478 81.7955 61.3926H73.4418C73.2586 61.9882 73.0753 62.5685 72.8768 63.1488C72.8462 63.2557 72.8157 63.3626 72.7851 63.4543C72.7851 63.4848 72.7546 63.5153 72.7393 63.5612C72.4339 64.4317 72.1132 65.2716 71.7772 66.1116C71.7008 66.3101 71.6092 66.5086 71.5329 66.7071C71.1816 67.5318 70.8303 68.326 70.4486 69.0895C70.4333 69.1201 70.418 69.1506 70.4027 69.1812C70.3569 69.2728 70.3111 69.3644 70.25 69.4561C69.9904 69.9753 69.7155 70.4793 69.4406 70.968C69.4101 71.0138 69.3948 71.0596 69.3643 71.1054V71.0901Z" fill="#EFF2F8"/>
<path d="M82.0553 60.8121C82.3607 60.1096 82.6509 59.4071 82.9258 58.6893C83.0174 58.4297 83.109 58.1853 83.2007 57.9257C83.3687 57.4828 83.5214 57.04 83.6741 56.5818C83.7963 56.2458 83.9032 55.8946 83.9948 55.5586C84.1322 55.1005 84.2697 54.627 84.4071 54.1536C84.4988 53.8329 84.5904 53.4969 84.6667 53.1609C84.8347 52.4737 85.0027 51.7865 85.1554 51.084H75.5953V51.1145C75.3663 52.7791 75.0914 54.4132 74.7707 56.0015C74.7707 56.0015 74.7707 56.0015 74.7707 56.0168C74.7707 56.032 74.7707 56.0473 74.7707 56.0626C74.7554 56.1389 74.7248 56.2153 74.7096 56.2917C74.4041 57.7272 74.0681 59.1322 73.6711 60.5067C73.6405 60.5983 73.6253 60.7052 73.5947 60.7968H82.0705L82.0553 60.8121Z" fill="#EFF2F8"/>
<path d="M76.71 43.3249C76.6794 43.5692 76.6336 43.8136 76.603 44.0579C76.5267 44.4855 76.4503 44.9131 76.3434 45.3255C76.2671 45.6615 76.1907 45.9974 76.0991 46.3334C76.0838 46.6236 76.038 46.8985 76.0227 47.1886C75.9616 48.0133 75.8853 48.838 75.7936 49.6627C75.7631 49.9528 75.7478 50.2583 75.7173 50.5484H85.3079C85.8119 47.9828 86.1021 45.3255 86.2243 42.6224C86.2395 42.0268 86.2701 41.4312 86.2701 40.8203H76.9238C76.9238 41.3243 76.8932 41.8282 76.8474 42.3322C76.8169 42.6682 76.771 43.0042 76.7252 43.3402L76.71 43.3249Z" fill="#EFF2F8"/>
<path d="M76.588 37.066C76.6339 37.3409 76.6797 37.6157 76.7102 37.8906C76.7408 38.1808 76.7866 38.471 76.8171 38.7611C76.8629 39.2651 76.8935 39.7538 76.8935 40.273H86.2398C86.2398 39.6774 86.2093 39.0818 86.194 38.4862C86.0718 35.7679 85.7816 33.1258 85.2777 30.5449H75.687C75.855 31.8888 75.9772 33.2938 76.0688 34.6988C76.0688 34.7447 76.0688 34.8057 76.0688 34.8516C76.2826 35.5846 76.4353 36.3176 76.5728 37.066H76.588Z" fill="#EFF2F8"/>
<path d="M77.1682 11.1642C77.3667 11.4086 77.55 11.6071 77.7332 11.8514C78.6801 13.0884 79.52 14.4324 80.3142 15.7915C80.5432 16.1886 80.7876 16.5704 81.0167 16.9827C81.2305 17.3798 81.4443 17.7769 81.6428 18.1739C81.8261 18.5405 81.9941 18.8917 82.1773 19.2582C82.2537 19.411 82.33 19.5637 82.4064 19.7011H90.0881C89.5078 18.7543 88.8663 17.838 88.2097 16.9522C87.0032 15.3029 85.6745 13.7299 84.2085 12.279C84.1016 12.1721 83.9946 12.0805 83.8877 11.9889C83.1852 11.3017 82.4675 10.6144 81.7039 9.98828H76.2061C76.5268 10.3548 76.8322 10.7519 77.1529 11.1489L77.1682 11.1642Z" fill="#EFF2F8"/>
<path d="M64.7675 1.7415C64.7675 1.7415 64.8439 1.77205 64.8744 1.78732C65.1035 1.87895 65.3478 1.98585 65.5769 2.07748C65.9434 2.2302 66.31 2.39819 66.6765 2.58145C66.7223 2.61199 66.7834 2.62726 66.8292 2.65781C67.2263 2.84107 67.608 3.0396 68.0051 3.25341C68.1578 3.34504 68.3106 3.43667 68.448 3.5283C68.5549 3.60466 68.6618 3.66574 68.784 3.72683C68.9367 3.81846 69.0894 3.92536 69.2421 4.03227C69.6697 4.29188 70.0821 4.56678 70.4944 4.85694C70.6929 4.99439 70.8915 5.1471 71.09 5.29982C71.4718 5.57471 71.8383 5.8496 72.2048 6.15504C72.4034 6.32303 72.6019 6.49102 72.8157 6.67428C73.1364 6.94917 73.4571 7.22406 73.7626 7.51423C74.0527 7.78912 74.3429 8.06401 74.6331 8.35417C74.7247 8.4458 74.8163 8.52216 74.9079 8.61379C74.9996 8.70542 75.0912 8.81232 75.1676 8.90395C75.3508 9.08722 75.5341 9.27048 75.7174 9.45374H80.9403C80.8334 9.37738 80.7265 9.30102 80.6196 9.22466C78.7717 7.77384 76.8016 6.49102 74.7247 5.37618C73.6709 4.81112 72.6172 4.29188 71.5023 3.81846C69.8988 3.1465 68.2647 2.58145 66.6001 2.1233C65.8365 1.90949 65.0577 1.71096 64.2788 1.54297C64.4315 1.60406 64.5842 1.66514 64.7522 1.7415H64.7675Z" fill="#EFF2F8"/>
<path d="M63.0268 2.52005C63.1948 2.64222 63.3627 2.79494 63.5307 2.91711C64.0042 3.28364 64.4623 3.71125 64.9205 4.15413C64.9968 4.23049 65.0732 4.29157 65.1495 4.36793C65.3481 4.56646 65.5466 4.78027 65.7451 4.99407C65.8368 5.10098 65.9284 5.19261 66.02 5.28424C66.2186 5.49804 66.4018 5.72712 66.5851 5.95619C66.6462 6.03255 66.7225 6.10891 66.7836 6.18527C66.8142 6.23109 66.8447 6.26163 66.8753 6.30744C67.0891 6.58234 67.3181 6.8725 67.5319 7.17793C67.5625 7.22375 67.6083 7.26957 67.6388 7.33065C67.6694 7.37647 67.6999 7.40701 67.7152 7.45283C67.9901 7.86516 68.2803 8.29277 68.5704 8.72038C68.6315 8.82729 68.7079 8.93419 68.769 9.04109C68.8606 9.17854 68.9522 9.31598 69.0438 9.45343H74.8624C74.7402 9.31598 74.6028 9.19381 74.4653 9.07163C74.2668 8.8731 74.053 8.6593 73.8544 8.46076C72.9076 7.52919 71.9149 6.67397 70.8917 5.89511C69.9449 5.17733 68.9828 4.53592 67.9748 3.97087C67.8832 3.92505 67.7916 3.86396 67.6999 3.80288C67.6388 3.77233 67.5625 3.74179 67.5014 3.71125C66.9211 3.39054 66.3255 3.10038 65.7451 2.82548C65.4703 2.70331 65.1801 2.61168 64.9052 2.48951C63.5613 1.93972 62.2174 1.48157 60.8276 1.19141C61.2247 1.37467 61.6218 1.60374 62.0036 1.83282C62.3548 2.04662 62.6908 2.26043 63.0268 2.50478V2.52005Z" fill="#EFF2F8"/>
<path d="M58.4908 1.28218C58.4908 1.28218 58.5519 1.34327 58.5824 1.37382C58.8115 1.61816 59.0253 1.89306 59.2544 2.19849C59.285 2.24431 59.3308 2.30539 59.3613 2.35121C59.5751 2.65664 59.7736 2.96208 59.9875 3.3286C59.9875 3.34387 60.0027 3.35914 60.018 3.37442C60.018 3.37442 60.0333 3.40496 60.0485 3.42023C60.4609 4.15328 60.8579 5.00849 61.2397 5.95534C61.2397 5.98589 61.2703 6.0317 61.2855 6.06224C61.6826 7.05491 62.0491 8.16975 62.4004 9.37622V9.40676C62.4004 9.40676 62.4004 9.40676 62.4004 9.42203H68.28C67.9899 8.96388 67.6997 8.521 67.4095 8.10866C67.0583 7.60469 66.707 7.13127 66.3405 6.67312C66.2947 6.61203 66.2336 6.55094 66.1878 6.48985C64.7981 4.77942 63.3014 3.40496 61.7132 2.42757C60.9038 1.9236 60.0638 1.51126 59.2086 1.2211C58.9795 1.12947 58.7504 1.08365 58.5214 1.02256C58.3839 0.976749 58.2312 0.930934 58.0938 0.900391C58.2159 1.02256 58.3381 1.14474 58.4603 1.26691L58.4908 1.28218Z" fill="#EFF2F8"/>
<path d="M61.6673 9.45419C61.4688 8.78224 61.255 8.15609 61.0565 7.5605C61.0412 7.49941 61.0107 7.43832 60.9954 7.37723C60.7205 6.61365 60.4456 5.91115 60.1554 5.26973C59.1322 2.97897 58.0174 1.48234 56.8873 0.932555C56.6582 0.825652 56.4444 0.749294 56.2153 0.71875V9.45419H61.6826H61.6673Z" fill="#EFF2F8"/>
<path d="M63.8967 19.7304C63.8967 19.6388 63.8661 19.5472 63.8509 19.4555V19.425V19.3333C63.8509 19.3333 63.8203 19.1806 63.805 19.1043C63.6371 18.02 63.4538 16.951 63.2553 15.9277C63.1636 15.4085 63.0567 14.9198 62.9498 14.4311C62.7971 13.6675 62.6291 12.8887 62.4611 12.1556C62.2931 11.4073 62.1099 10.6895 61.9113 10.0176H56.1997V19.7457H63.9119L63.8967 19.7304Z" fill="#EFF2F8"/>
<path d="M63.9583 21.3346C63.9583 21.3346 64.0652 21.3652 64.1262 21.3957C64.0804 21.0292 64.0499 20.6321 63.9888 20.2656H60.5068C60.5068 20.2656 60.629 20.2962 60.6901 20.3114C61.8202 20.5711 62.9198 20.907 63.9583 21.3346Z" fill="#EFF2F8"/>
<path d="M60.8427 60.7979C60.8427 60.7979 60.8121 60.7979 60.7969 60.7979H63.9887C64.0498 60.4619 64.0803 60.0954 64.1261 59.7441C63.836 59.8663 63.5305 59.9579 63.2404 60.0649C62.4615 60.3397 61.6674 60.5994 60.8427 60.7826V60.7979Z" fill="#EFF2F8"/>
<path d="M56.1997 71.0914H61.9113C62.1099 70.4042 62.2931 69.7017 62.4611 68.9533C62.4611 68.9533 62.4611 68.9381 62.4611 68.9228C62.7818 67.5942 63.072 66.1739 63.3469 64.6925C63.3622 64.5856 63.3774 64.4787 63.408 64.3718C63.5912 63.3944 63.7592 62.3865 63.9119 61.3633H56.215C56.215 61.3633 56.2455 61.3633 56.2608 61.3633H56.215V71.0914H56.1997Z" fill="#EFF2F8"/>
<path d="M60.4758 75.0611C60.8881 74.0532 61.2852 72.9078 61.667 71.625H56.1997V80.3604C56.7342 80.2841 57.284 79.9786 57.8032 79.4747C57.8185 79.4594 57.8338 79.4441 57.8491 79.4289C57.8796 79.3983 57.8949 79.3678 57.9254 79.3525C58.5057 78.7722 59.0555 77.9475 59.6053 76.909C59.8955 76.344 60.1856 75.7484 60.4605 75.0611H60.4758Z" fill="#EFF2F8"/>
<path d="M61.3923 78.8333C63.6983 77.4894 65.8364 75.336 67.7148 72.5108C67.8523 72.3122 67.9897 72.0984 68.1424 71.8846C68.2035 71.793 68.2646 71.7166 68.3104 71.625H62.4308C62.2933 72.1137 62.1406 72.5566 61.9879 73.0147C61.377 74.8779 60.7204 76.4661 60.0179 77.7184C59.972 77.8101 59.911 77.8864 59.8651 77.9628C59.8499 77.9933 59.8193 78.0239 59.8041 78.0697C59.7582 78.146 59.7124 78.1919 59.6819 78.2529C59.3001 78.8638 58.903 79.3678 58.4907 79.7801C58.3685 79.9023 58.2616 80.055 58.1394 80.1466C58.1394 80.1466 58.1242 80.1619 58.1089 80.1772C58.338 80.1314 58.567 80.055 58.7961 79.9939C58.8572 79.9787 58.903 79.9634 58.9641 79.9481C59.1168 79.9023 59.2695 79.8412 59.407 79.7954C59.5444 79.7496 59.6819 79.7038 59.8041 79.6427C60.3386 79.4289 60.8731 79.154 61.3923 78.8485V78.8333Z" fill="#EFF2F8"/>
<path d="M65.2561 78.4667C65.5921 78.314 65.9433 78.1613 66.2793 78.0086C66.4778 77.917 66.6611 77.8101 66.8596 77.7184C67.1345 77.581 67.4247 77.4435 67.6996 77.2755C67.8828 77.1839 68.0508 77.0617 68.2188 76.9548C68.4937 76.7869 68.7686 76.6189 69.0435 76.4509L71.1968 74.9237C71.1968 74.9237 71.2579 74.8779 71.3037 74.8473C71.6244 74.603 71.9298 74.3586 72.2353 74.099C72.6018 73.7936 72.9683 73.4729 73.3348 73.1369C73.3807 73.0911 73.4265 73.0453 73.4876 72.9995C73.961 72.5566 74.4191 72.0984 74.862 71.625H69.0435C68.9671 71.7624 68.8755 71.8693 68.7991 72.0068C68.6922 72.1901 68.5701 72.3733 68.4632 72.5413C68.2952 72.8009 68.1272 73.0453 67.9745 73.2743C67.9439 73.3202 67.9134 73.366 67.8828 73.4118C67.8065 73.534 67.7148 73.6256 67.6385 73.7325C67.3636 74.1296 67.0734 74.5114 66.7833 74.8626C66.7375 74.9084 66.7069 74.9695 66.6611 75.0306C66.6153 75.0917 66.5542 75.1528 66.5084 75.2139C66.1877 75.5957 65.8822 75.9469 65.5463 76.2982C65.4699 76.3745 65.3935 76.4661 65.3172 76.5425C64.9201 76.9548 64.5078 77.3519 64.0954 77.7032C63.9733 77.8101 63.8358 77.8864 63.7136 77.9933C63.0417 78.5431 62.3392 79.0165 61.6367 79.4136C61.3618 79.5663 61.0869 79.7496 60.812 79.887C62.3239 79.5663 63.8053 79.0776 65.2561 78.4515V78.4667Z" fill="#EFF2F8"/>
<path d="M75.7174 71.625C75.3661 72.0068 74.9996 72.3733 74.6331 72.7246C74.5262 72.8315 74.4345 72.9384 74.3276 73.0453C73.1212 74.2212 71.8536 75.2749 70.5097 76.2218C69.685 76.8021 68.8603 77.3519 68.0051 77.8253C67.5775 78.0544 67.1499 78.2682 66.7223 78.4667C66.4321 78.6042 66.1267 78.7416 65.8365 78.8638C65.6838 78.9402 65.5158 79.0165 65.3631 79.0776C65.2104 79.1387 65.0729 79.1998 64.9202 79.2609C64.7064 79.3525 64.4926 79.4441 64.2788 79.5358C66.7528 79.0165 69.1658 78.2529 71.5176 77.2603C72.4034 76.8785 73.2739 76.4509 74.1291 76.0233C74.3734 75.9011 74.6178 75.7789 74.8621 75.6415C75.6868 75.1986 76.4962 74.7252 77.2903 74.2212C77.3514 74.1754 77.4278 74.1448 77.4889 74.099C77.8707 73.8547 78.2372 73.5951 78.619 73.3507C79.4131 72.8009 80.2072 72.2359 80.9708 71.625H75.7326H75.7174Z" fill="#EFF2F8"/>
<path d="M82.422 61.3629C81.7653 62.7679 81.0628 64.1271 80.284 65.4405C79.7036 66.4026 79.0928 67.3342 78.4361 68.2352C78.207 68.5559 77.9779 68.8919 77.7489 69.1973C77.5503 69.457 77.3365 69.7013 77.1227 69.9609C76.8173 70.3275 76.5271 70.7092 76.2217 71.0758H81.7195C82.5747 70.358 83.4147 69.5944 84.2088 68.785C84.728 68.2658 85.232 67.716 85.736 67.1662C85.7665 67.1204 85.8123 67.0898 85.8429 67.044C85.8887 66.9829 85.9345 66.9371 85.9803 66.876C86.0414 66.7997 86.1025 66.7233 86.1636 66.647C86.7745 65.9445 87.3395 65.2267 87.9046 64.4936C88.0878 64.2493 88.2711 63.9897 88.4544 63.7301C89.0194 62.9512 89.5692 62.1571 90.0732 61.3477H82.4067L82.422 61.3629Z" fill="#EFF2F8"/>
<path d="M85.6747 51.2978C85.4151 52.5348 85.0944 53.7718 84.7431 54.963C84.346 56.3069 83.9184 57.6203 83.4145 58.9184C83.1701 59.5598 82.9258 60.1859 82.6509 60.8121H90.4242C91.31 59.3002 92.1194 57.7119 92.8066 56.0778C93.0509 55.5128 93.2648 54.9172 93.4786 54.3369C93.8756 53.2678 94.2421 52.1836 94.5476 51.084H85.7205C85.7205 51.084 85.69 51.2214 85.6747 51.2978Z" fill="#EFF2F8"/>
<path d="M86.7744 40.8066C86.7744 41.9368 86.7133 43.0669 86.6369 44.1817C86.6064 44.5482 86.5758 44.8995 86.5453 45.266C86.4536 46.2892 86.3467 47.3124 86.2093 48.3203C86.1024 49.0687 85.9802 49.8017 85.8428 50.5348H94.7157C95.0669 49.1603 95.3418 47.7706 95.5403 46.3656C95.8 44.533 95.9679 42.6851 95.9832 40.8219H86.7896L86.7744 40.8066Z" fill="#EFF2F8"/>
<path d="M86.774 40.273H95.9676C95.9676 38.9444 95.8607 37.631 95.7232 36.3329C95.5094 34.3781 95.1887 32.4539 94.7 30.5449H85.8271C85.8271 30.5449 85.8271 30.5907 85.8271 30.606C85.9341 31.2016 86.041 31.8125 86.1326 32.4233C86.5297 34.989 86.7435 37.6157 86.7587 40.2883L86.774 40.273Z" fill="#EFF2F8"/>
<path d="M96.5329 40.4702C96.5023 37.0035 96.0747 33.6131 95.2042 30.3144C95.2042 30.3144 95.189 30.177 95.1737 30.1312C94.685 28.3291 94.0741 26.5423 93.3411 24.7861C92.6386 23.1214 91.7986 21.5026 90.8976 19.9449C90.8823 19.8838 90.8518 19.8227 90.7907 19.7769C89.0955 16.9211 87.0339 14.2791 84.6362 11.912C83.8268 11.072 82.9868 10.3084 82.1163 9.57539C82.0858 9.5143 82.0247 9.46849 81.9636 9.43795C78.8787 6.87229 75.4731 4.78006 71.7468 3.20707C66.982 1.1912 61.9118 0.122174 56.6736 0.0152718H56.246C56.1544 0 56.0627 0 55.9711 0C55.8642 0 55.7878 0 55.6962 0.0152718H55.2686C50.0457 0.122174 44.9602 1.1912 40.1801 3.20707C36.4691 4.78006 33.0635 6.87229 29.9786 9.43795C29.9175 9.46849 29.8564 9.5143 29.8259 9.57539C28.9554 10.3084 28.1154 11.072 27.306 11.912C24.9083 14.2791 22.8467 16.9211 21.1515 19.7769C21.0904 19.8227 21.0599 19.8838 21.0446 19.9449C20.113 21.5026 19.3036 23.1214 18.6011 24.7861C17.8681 26.5423 17.2572 28.3291 16.7685 30.1312C16.738 30.177 16.7074 30.2228 16.7074 30.2992C15.8522 33.6131 15.4246 37.0035 15.4246 40.4702C15.394 40.516 15.394 40.5465 15.394 40.5771C15.394 40.6076 15.394 40.6381 15.4246 40.684C15.4246 41.9362 15.4704 43.1733 15.5926 44.4255L16.1118 44.3186H16.1271L16.1576 44.3034C16.066 43.3718 16.0202 42.4402 15.9896 41.4934C15.9896 41.2643 15.9744 41.0352 15.9744 40.8061H25.1832C25.1832 43.4634 25.4123 46.0902 25.7941 48.6253C25.8857 49.2667 25.9926 49.9081 26.1148 50.5342H17.2419C17.1198 50.1066 17.0434 49.6638 16.9518 49.2209C16.8601 48.8238 16.7532 48.4267 16.6769 48.0297H16.6311L16.1118 48.1671C16.2798 49.0529 16.4783 49.9539 16.7074 50.8397C16.7074 50.9313 16.738 50.9771 16.7685 51.0229C17.2572 52.825 17.8681 54.6118 18.6011 56.3681C19.3036 58.0327 20.113 59.6515 21.0446 61.2092C21.0599 61.2703 21.0904 61.3314 21.1515 61.3772C22.8467 64.2177 24.9083 66.875 27.306 69.2421C28.1154 70.0668 28.9554 70.8457 29.8259 71.5787C29.8564 71.6398 29.9175 71.6856 29.9786 71.7009C33.0635 74.2818 36.4691 76.3741 40.1801 77.947C44.9602 79.9629 50.0151 81.0319 55.2533 81.1236H55.6962C55.7878 81.1541 55.8642 81.1541 55.9711 81.1541C56.0627 81.1541 56.1544 81.1541 56.246 81.1236H56.6889C61.9118 81.0319 66.982 79.9629 71.7468 77.947C75.4731 76.3741 78.8787 74.2818 81.9636 71.7009C82.0247 71.6856 82.0858 71.6398 82.1163 71.5787C82.9868 70.8457 83.8268 70.0668 84.6362 69.2421C87.0339 66.875 89.0955 64.2177 90.7907 61.3772C90.8518 61.3314 90.8823 61.2703 90.8976 61.2092C91.7986 59.6515 92.6386 58.0327 93.3411 56.3681C94.0741 54.6118 94.685 52.825 95.1737 51.0229C95.189 50.9771 95.2042 50.9313 95.2042 50.8549C96.0747 47.541 96.5023 44.1506 96.5329 40.684C96.5482 40.6381 96.5482 40.6076 96.5482 40.5771C96.5482 40.5465 96.5482 40.516 96.5329 40.4702ZM91.707 22.5869C92.1041 23.3811 92.4706 24.1752 92.8218 24.9999C93.0967 25.6718 93.3564 26.3438 93.6007 27.031C93.6465 27.1532 93.6923 27.2754 93.7229 27.3975C93.7534 27.4892 93.784 27.5961 93.8298 27.6877C94.0894 28.4513 94.3338 29.2149 94.5476 29.9937H85.7205C85.0332 26.5881 83.9795 23.32 82.6509 20.2656H90.4395C90.8823 21.0292 91.3099 21.7928 91.707 22.5869ZM72.0828 15.791C72.0828 15.791 72.0675 15.7299 72.0523 15.6994C71.6705 14.6914 71.2429 13.7293 70.8 12.7977C70.6625 12.5228 70.5404 12.2327 70.4029 11.9731C70.4029 11.9731 70.4029 11.9578 70.4029 11.9425C70.4029 11.9425 70.4029 11.9425 70.4029 11.9272C70.3876 11.8967 70.3724 11.8662 70.3418 11.8203C70.3113 11.7593 70.2807 11.6982 70.2502 11.6524C69.96 11.0873 69.6699 10.5222 69.3644 10.003H75.4731C75.9924 10.5833 76.4963 11.2095 77.0003 11.8509C77.0461 11.912 77.0919 11.9578 77.1225 12.0036C77.1988 12.08 77.2599 12.1563 77.321 12.2479C77.7639 12.8435 78.1915 13.4391 78.6038 14.0653C79.1384 14.8747 79.6729 15.6994 80.1616 16.5546C80.6808 17.4862 81.1848 18.4483 81.6429 19.4257C81.6887 19.5173 81.7498 19.6089 81.7956 19.7158H73.4267C73.0297 18.3567 72.5715 17.0433 72.0828 15.7757V15.791ZM72.8617 19.7311H64.5386C64.4469 19.105 64.34 18.5094 64.2331 17.8985C63.943 16.127 63.6222 14.4318 63.2557 12.8435C63.2252 12.7061 63.1946 12.5687 63.1641 12.4312C63.1335 12.2938 63.103 12.141 63.0725 12.0036C63.0572 11.912 63.0267 11.8509 63.0114 11.7745C62.9808 11.6829 62.9656 11.5913 62.935 11.5149C62.8892 11.3164 62.8434 11.1178 62.7823 10.9193C62.7059 10.6139 62.6296 10.3084 62.5685 10.0335H68.7077C68.8299 10.2473 68.9521 10.4917 69.0743 10.7055C69.3186 11.1484 69.563 11.5913 69.8073 12.0647C69.9295 12.309 70.0517 12.5839 70.1738 12.8435C70.4029 13.317 70.632 13.7904 70.8458 14.2944C70.9832 14.5998 71.1054 14.9052 71.2276 15.2259C71.4108 15.6841 71.6094 16.1575 71.7774 16.6462C71.9148 17.0127 72.037 17.3793 72.1744 17.7458C72.2508 17.9749 72.3424 18.1887 72.4188 18.4177C72.5715 18.8606 72.7242 19.3188 72.8617 19.7769V19.7311ZM82.0705 20.2656C82.2385 20.6474 82.4065 21.0292 82.544 21.4263C82.5898 21.5332 82.6203 21.6401 82.6661 21.7317C82.8341 22.1135 82.9868 22.5106 83.1243 22.9076C83.1396 22.9534 83.1548 22.9993 83.1701 23.0451C83.3534 23.488 83.5061 23.9461 83.6435 24.4043C83.6435 24.4501 83.6741 24.4959 83.6893 24.5264C83.7962 24.8319 83.8879 25.122 83.9795 25.4275C84.01 25.5191 84.0406 25.5955 84.0559 25.6871C84.1933 26.0842 84.3002 26.4812 84.4071 26.8783C84.4529 27.0157 84.4835 27.1685 84.514 27.3059C84.5446 27.4128 84.5751 27.5197 84.5904 27.6266C84.6362 27.8099 84.682 27.9779 84.7278 28.1611C84.8195 28.5124 84.9111 28.8636 84.9722 29.2149C85.0485 29.4745 85.0943 29.7341 85.1554 29.9937H75.58C75.58 29.8868 75.5495 29.7799 75.5342 29.673C75.4426 29.0469 75.3357 28.436 75.2288 27.8251C75.183 27.535 75.1219 27.2448 75.0761 26.9547C74.8775 25.794 74.6332 24.6486 74.3736 23.5185C74.2972 23.152 74.2056 22.8007 74.1292 22.4342C74.0681 22.144 73.9918 21.8539 73.9154 21.5484C73.8085 21.1208 73.7016 20.678 73.5642 20.2656H82.0553H82.0705ZM83.9031 12.0036C84.01 12.1105 84.1322 12.2021 84.2238 12.2938C85.6899 13.7599 87.0186 15.3328 88.225 16.9669C88.8817 17.868 89.5232 18.7843 90.1035 19.7311H82.4218C82.3454 19.5784 82.2691 19.4257 82.1927 19.2882C82.0094 18.9217 81.8415 18.5552 81.6582 18.2039C81.4597 17.8069 81.2459 17.4098 81.032 17.0127C80.8182 16.6004 80.5586 16.2186 80.3296 15.8215C79.5354 14.4471 78.6955 13.1184 77.7486 11.8814C77.5654 11.6371 77.3821 11.4385 77.1836 11.1942C76.8629 10.7971 76.5574 10.4153 76.2367 10.0335H81.7346C82.4981 10.6597 83.2159 11.3316 83.9184 12.0341L83.9031 12.0036ZM64.2942 1.54245C65.0731 1.71044 65.8519 1.90897 66.6155 2.12277C68.2801 2.58093 69.9142 3.14598 71.5177 3.81794C72.6173 4.29136 73.6863 4.8106 74.7401 5.37566C76.817 6.47522 78.7871 7.75805 80.635 9.22414C80.7419 9.3005 80.8488 9.37686 80.9557 9.45322H75.7022C75.5342 9.25468 75.351 9.07142 75.1677 8.88816C75.0761 8.79653 74.9997 8.68963 74.9081 8.598C74.8164 8.50637 74.7248 8.43001 74.6332 8.33838C74.343 8.04822 74.0529 7.77332 73.7627 7.49843C73.4573 7.20827 73.1366 6.93338 72.8158 6.65849C72.6173 6.4905 72.4188 6.30724 72.205 6.13925C71.8385 5.84908 71.4719 5.55892 71.0901 5.28403C70.8916 5.13131 70.6931 4.99386 70.4945 4.84115C70.0822 4.55098 69.6546 4.29136 69.2423 4.01647C69.0895 3.92484 68.9368 3.81794 68.7841 3.72631C68.6772 3.64995 68.5703 3.58886 68.4481 3.5125C68.2954 3.42087 68.1427 3.31397 68.0052 3.23761C67.6235 3.02381 67.2264 2.82527 66.8293 2.64201C66.7835 2.61147 66.7224 2.5962 66.6766 2.56566C66.3101 2.39767 65.9436 2.22968 65.577 2.06169C65.348 1.97006 65.1036 1.86315 64.8745 1.77152C64.8287 1.75625 64.7982 1.74098 64.7676 1.72571C64.5996 1.64935 64.4317 1.58826 64.2484 1.52718H64.2942V1.54245ZM60.8275 1.1912C62.2172 1.48136 63.5764 1.93951 64.9051 2.4893C65.18 2.5962 65.4701 2.68783 65.745 2.82527C66.3406 3.08489 66.9209 3.39033 67.5013 3.71104C67.5624 3.74158 67.6387 3.77212 67.6998 3.80267C67.7914 3.84848 67.8831 3.90957 67.9747 3.97066C68.9826 4.55098 69.96 5.17713 70.8916 5.8949C71.9148 6.67376 72.9075 7.52898 73.8543 8.46055C74.0529 8.65909 74.2667 8.85762 74.4652 9.07142C74.6026 9.1936 74.7248 9.31577 74.8623 9.45322L69.0284 9.46849C68.9368 9.31577 68.8605 9.17833 68.7688 9.04088C68.7077 8.93398 68.6314 8.82707 68.5703 8.72017C68.2954 8.29256 68.0052 7.86495 67.7151 7.45262C67.6845 7.4068 67.654 7.37626 67.6387 7.33044C67.6082 7.28463 67.5624 7.23881 67.5318 7.17773C67.318 6.88756 67.1042 6.5974 66.8751 6.30724C66.8446 6.26142 66.814 6.23088 66.7835 6.18506C66.7224 6.1087 66.6461 6.03234 66.585 5.95598C66.4017 5.72691 66.2032 5.49783 66.0199 5.28403C65.9283 5.17713 65.8367 5.08549 65.745 4.99386C65.5465 4.78006 65.348 4.56625 65.1494 4.36772C65.0731 4.29136 64.9967 4.23028 64.9204 4.15392C64.4622 3.71104 64.004 3.28343 63.5306 2.91691C63.3626 2.77946 63.1946 2.64201 63.0266 2.51984C62.6907 2.27549 62.3394 2.04642 62.0034 1.84788C61.6064 1.60353 61.2093 1.38973 60.797 1.1912C60.797 1.1912 60.8122 1.1912 60.8275 1.1912ZM58.552 1.05375C58.7811 1.11484 59.0102 1.17593 59.2393 1.25228C60.0945 1.54245 60.9344 1.95478 61.7438 2.45875C63.3321 3.43615 64.8287 4.8106 66.2184 6.52104C66.2643 6.58213 66.3254 6.64321 66.3712 6.7043C66.7377 7.16245 67.0889 7.63588 67.4402 8.13985C67.7304 8.56746 68.0358 8.99506 68.3107 9.45322L62.4311 9.46849V9.43795C62.4311 9.43795 62.4311 9.42267 62.4158 9.4074C62.0645 8.18566 61.698 7.07082 61.3009 6.07816C61.3009 6.03234 61.2704 6.0018 61.2551 5.97126C60.8733 5.02441 60.4763 4.16919 60.0639 3.43615C60.0639 3.42087 60.0334 3.4056 60.0334 3.39033C60.0334 3.37506 60.0181 3.35979 60.0028 3.34451C59.8043 2.99326 59.5905 2.67256 59.3767 2.36712C59.3462 2.32131 59.3003 2.26022 59.2698 2.2144C59.056 1.90897 58.8269 1.63408 58.5978 1.38973C58.5673 1.35919 58.5368 1.32864 58.5062 1.2981C58.384 1.17593 58.2466 1.05375 58.1397 0.931577C58.2924 0.962121 58.4298 1.02321 58.5826 1.06902L58.552 1.05375ZM56.1849 0.717773H56.2002C56.4293 0.748316 56.6431 0.824675 56.8721 0.931577C58.0022 1.49663 59.1171 2.97799 60.1403 5.26876C60.4305 5.91017 60.7053 6.61267 60.9802 7.37626C61.0108 7.43735 61.026 7.49843 61.0413 7.55952C61.2551 8.15512 61.4689 8.76599 61.6675 9.45322L56.1849 9.46849V0.717773ZM56.1849 10.003H61.9118C62.1103 10.675 62.2936 11.3927 62.4616 12.141C62.6296 12.8588 62.7823 13.6377 62.9503 14.4165C63.0572 14.9205 63.1641 15.4092 63.2557 15.9132C63.4543 16.9517 63.6375 18.0054 63.8055 19.0897L63.8361 19.3188V19.4104L63.8513 19.4409C63.8819 19.5326 63.8971 19.6242 63.9124 19.7311H56.1849V10.003ZM54.8257 1.03848C54.8257 1.03848 54.9021 1.00794 54.9326 0.977392C55.0242 0.931577 55.1159 0.885762 55.2075 0.839947C55.2533 0.824675 55.3144 0.77886 55.3602 0.763588C55.4519 0.733044 55.5435 0.717773 55.6351 0.702501V9.43795H50.1678C50.6107 7.94131 51.0841 6.62794 51.5728 5.49783C52.5044 3.37506 53.4971 1.8937 54.5203 1.1912C54.6119 1.13011 54.7035 1.06902 54.7952 1.02321L54.8257 1.03848ZM30.1313 19.7311C30.4062 19.1355 30.7116 18.5399 31.017 17.9596C31.2156 17.5778 31.4447 17.2265 31.6432 16.8447C31.8265 16.524 31.9944 16.2033 32.1777 15.8979C32.7733 14.89 33.3994 13.9126 34.0714 12.981C34.2547 12.7366 34.4227 12.477 34.6059 12.2479C34.6517 12.1869 34.7128 12.1258 34.7586 12.0494C35.3084 11.3316 35.8735 10.6291 36.4691 9.98773H42.5778C42.5014 10.1099 42.4403 10.2321 42.364 10.3695C42.2571 10.5528 42.1502 10.7513 42.0433 10.9346C41.8753 11.2553 41.692 11.576 41.5393 11.912C41.5393 11.912 41.5393 11.9425 41.524 11.9425C41.3408 12.2785 41.188 12.645 41.0201 13.0268C40.6077 13.8973 40.2259 14.7983 39.8594 15.7299C39.8594 15.7605 39.8441 15.7757 39.8289 15.8063C39.5998 16.4171 39.3554 17.0586 39.1416 17.6847C38.9736 18.1887 38.8209 18.6926 38.6682 19.2119C38.6224 19.3799 38.5613 19.5478 38.5002 19.7158H30.116L30.1313 19.7311ZM38.3628 20.2656C38.3017 20.4489 38.2559 20.6474 38.21 20.8459C37.8588 22.083 37.5534 23.3352 37.2785 24.6333C37.2479 24.7555 37.2174 24.8777 37.1868 24.9999C37.1563 25.122 37.141 25.2442 37.1258 25.3664C36.8356 26.8325 36.576 28.3291 36.3622 29.841C36.3622 29.8868 36.3469 29.9479 36.3316 29.9937H26.7562C26.8173 29.7341 26.8631 29.4745 26.9395 29.2149C27.0006 28.8636 27.0922 28.5124 27.1838 28.1611C27.2144 28.0084 27.2602 27.8557 27.306 27.7182C27.3518 27.5502 27.3824 27.3975 27.4282 27.2295C27.4587 27.1074 27.4893 27.0005 27.5198 26.8783C27.6267 26.4812 27.7336 26.0842 27.8711 25.6871C27.8863 25.626 27.9169 25.5649 27.9322 25.5038C28.0391 25.1526 28.146 24.8013 28.2681 24.4348C28.2681 24.4348 28.2681 24.4043 28.2681 24.389C28.4056 23.9308 28.5583 23.4727 28.7416 23.0298C28.7416 22.9993 28.7721 22.9535 28.7874 22.9229C28.8637 22.6786 28.9706 22.4189 29.0775 22.1746C29.0928 22.1288 29.1081 22.083 29.1234 22.0371C29.2455 21.6706 29.3982 21.3041 29.5815 20.9376C29.6579 20.7085 29.7495 20.4794 29.8564 20.2503H38.3475L38.3628 20.2656ZM40.2412 16.3713C40.7146 15.1038 41.2339 13.9126 41.7684 12.7825C42.2265 11.8051 42.7152 10.8735 43.2345 10.003H49.3737C49.3279 10.2015 49.2668 10.4459 49.2057 10.6597C49.2057 10.6597 49.2057 10.675 49.2057 10.6902C49.1752 10.7971 49.1599 10.8888 49.1294 10.9957C49.053 11.3164 48.9614 11.6371 48.8697 11.9883C48.6712 12.8283 48.4727 13.714 48.2894 14.6303C47.9687 16.2491 47.6633 17.9443 47.4036 19.7311H39.0805C39.4471 18.5705 39.8289 17.4556 40.2412 16.3713ZM47.9534 19.7311C48.1214 18.5399 48.3199 17.3945 48.5185 16.2644C48.7781 14.8289 49.0683 13.4391 49.3737 12.141C49.5111 11.576 49.6639 11.0568 49.8013 10.5375C49.8471 10.3695 49.8929 10.171 49.9388 10.003H55.6504V19.7311H47.9534ZM53.8331 0.916305C53.7567 0.992664 53.6803 1.06902 53.604 1.13011C53.5276 1.20647 53.436 1.28283 53.3596 1.35919C53.1611 1.55772 52.9778 1.7868 52.7946 2.03114C52.764 2.07696 52.7335 2.12277 52.6877 2.16859C52.5044 2.42821 52.3059 2.7031 52.1379 3.02381C52.0615 3.13071 52.0004 3.23761 51.9241 3.35979C51.9241 3.37506 51.9088 3.39033 51.8935 3.4056C51.7103 3.72631 51.527 4.07756 51.359 4.44408C50.9009 5.39093 50.458 6.4905 50.0457 7.72751C49.8624 8.27729 49.6944 8.82707 49.5111 9.43795L43.6315 9.45322C44.7616 7.62061 45.9834 6.04762 47.2815 4.74952C48.717 3.32924 50.2442 2.26022 51.8325 1.57299C52.4891 1.28283 53.1611 1.05375 53.8331 0.901034V0.916305ZM50.0304 1.46609C50.0304 1.46609 50.0609 1.46609 50.0915 1.46609C50.4275 1.37446 50.7787 1.28283 51.1147 1.20647C49.618 1.92424 48.1672 3.02381 46.7775 4.39827C46.0903 5.08549 45.403 5.83381 44.7616 6.68903C44.7311 6.73484 44.7005 6.76539 44.67 6.8112C44.0591 7.63588 43.4635 8.52164 42.8985 9.48376H37.0647C37.3548 9.16305 37.6603 8.87289 37.9657 8.56746C38.1642 8.36892 38.3628 8.15512 38.5766 7.97186C38.7598 7.80387 38.9431 7.65115 39.1264 7.48316C40.5924 6.16979 42.1349 5.03968 43.7842 4.07756C43.937 3.98593 44.0897 3.8943 44.2424 3.80267C44.7311 3.52778 45.2198 3.28343 45.7085 3.05435C47.1288 2.38239 48.5643 1.86315 50.0304 1.46609ZM30.9865 9.45322C31.0934 9.37686 31.2003 9.3005 31.3072 9.22414C34.1019 7.02501 37.141 5.20767 40.4245 3.81794C41.9516 3.17653 43.5093 2.64201 45.0823 2.18386C45.9223 1.93951 46.7622 1.72571 47.6174 1.54245C47.6327 1.54245 47.648 1.54245 47.6633 1.54245C47.3884 1.63408 47.144 1.75625 46.8844 1.86315C46.0139 2.2144 45.1434 2.61147 44.2729 3.08489C44.166 3.14598 44.0439 3.1918 43.937 3.25288C43.4788 3.5125 43.0207 3.7874 42.5778 4.07756C41.6309 4.68843 40.6993 5.37566 39.7983 6.1087C39.4165 6.41414 39.05 6.73484 38.6835 7.05555C37.9657 7.69696 37.2632 8.36892 36.5912 9.08669C36.4691 9.20887 36.3469 9.33104 36.24 9.45322H36.2247L30.9865 9.46849V9.45322ZM22.0983 19.3493C22.358 18.937 22.6176 18.5246 22.8925 18.1276C23.6561 17.0127 24.4807 15.9437 25.3512 14.9052C26.0995 14.0042 26.8784 13.1337 27.7184 12.2938C27.8558 12.1563 28.0085 12.0341 28.1612 11.8967C28.8332 11.24 29.5051 10.5986 30.2229 10.003H35.7055C35.1862 10.6139 34.6823 11.2247 34.1936 11.8662C33.598 12.6603 33.0482 13.485 32.5137 14.3096C32.361 14.5387 32.2235 14.7678 32.0708 14.9969C31.2461 16.3408 30.4825 17.7458 29.7953 19.1966C29.7037 19.3799 29.612 19.5478 29.5204 19.7311H21.8387C21.9151 19.5937 22.0067 19.4715 22.0983 19.3493ZM17.3946 29.9937C17.4405 29.8105 17.5015 29.6272 17.5626 29.4439C17.5932 29.3523 17.6237 29.2607 17.639 29.1843C18.0666 27.7641 18.54 26.3743 19.1204 24.9999C19.1814 24.8624 19.2578 24.725 19.3189 24.5875C19.3494 24.5264 19.38 24.4654 19.4105 24.389C19.8076 23.488 20.2505 22.6022 20.7086 21.7317C20.9682 21.243 21.2279 20.739 21.5027 20.2656H29.2913C29.2913 20.2656 29.2761 20.2962 29.2761 20.3114C27.9322 23.3505 26.9089 26.6034 26.2217 29.9937H17.3946ZM25.3512 36.3621C25.3512 36.53 25.3512 36.7133 25.3207 36.8813C25.2596 37.7518 25.1985 38.6223 25.1985 39.508C25.1985 39.7677 25.1985 40.012 25.1985 40.2716H15.9896C16.0049 39.0804 16.0813 37.9045 16.1882 36.7286C16.3256 35.3847 16.4936 34.056 16.7532 32.7426C16.8296 32.3761 16.9212 31.9943 17.0128 31.6278C17.0892 31.2613 17.1656 30.91 17.2572 30.5435L26.1301 30.5282C25.8247 32.147 25.6108 33.7964 25.4581 35.4457C25.4276 35.7512 25.3818 36.0566 25.3665 36.3621H25.3512ZM20.2352 58.4908C19.8381 57.6967 19.4716 56.8873 19.1204 56.0779C18.9982 55.7725 18.8913 55.4517 18.7538 55.131C18.4637 54.4133 18.204 53.6802 17.9597 52.9472C17.7612 52.3363 17.5626 51.7102 17.3946 51.084H26.2217C26.3286 51.6338 26.4661 52.1836 26.6035 52.7334C27.2755 55.5434 28.1612 58.2465 29.2913 60.8121L21.5027 60.8274C21.0446 60.0485 20.6323 59.2697 20.2352 58.4908ZM39.1722 63.4236C39.2027 63.5 39.2333 63.5763 39.2638 63.6527C39.5692 64.4926 39.8747 65.3326 40.2106 66.142C40.2717 66.2947 40.3328 66.4474 40.4092 66.6001C40.7757 67.4706 41.1575 68.3258 41.5698 69.1505C41.5698 69.1505 41.5698 69.1811 41.5851 69.1963C41.7378 69.517 41.9058 69.8225 42.0738 70.1432C42.2112 70.4181 42.364 70.6777 42.532 70.9373C42.5625 70.9831 42.593 71.0289 42.6083 71.09H36.4996C36.0415 70.5861 35.6291 70.0515 35.2015 69.517C35.0183 69.288 34.8197 69.0742 34.6365 68.8298C34.0561 68.0662 33.5216 67.2721 32.9871 66.4627C32.8497 66.2642 32.7275 66.0503 32.59 65.8365C32.0861 65.0119 31.5974 64.1872 31.1392 63.332C31.1392 63.3167 31.124 63.3014 31.1087 63.2862C30.7727 62.66 30.452 62.0186 30.1466 61.3619H38.5308C38.6224 61.6826 38.7293 61.9881 38.8362 62.3088C38.9584 62.6906 39.0653 63.0724 39.1874 63.4236H39.1722ZM39.0805 61.3619H47.4036C47.6785 63.1793 47.9687 64.905 48.3047 66.539C48.4421 67.1652 48.5796 67.7761 48.717 68.3869C48.7628 68.616 48.8239 68.8603 48.8697 69.0742C48.9308 69.3185 48.9919 69.5323 49.0377 69.7614C49.0835 69.9752 49.1446 70.189 49.2057 70.4028C49.2668 70.6319 49.3279 70.861 49.3737 71.09H43.2345C42.9901 70.6624 42.761 70.2195 42.532 69.7766C41.7989 68.4022 41.1117 66.9056 40.4855 65.3173C40.3786 65.0577 40.287 64.7981 40.1954 64.5537C40.0427 64.1566 39.8899 63.7749 39.7525 63.3778C39.5234 62.7211 39.2943 62.0491 39.0805 61.3619ZM29.8717 60.8274C29.7342 60.5067 29.5815 60.1707 29.4746 59.85C29.3982 59.7126 29.3372 59.5904 29.3066 59.4529C29.2608 59.346 29.2303 59.2391 29.1844 59.1322C28.9859 58.6435 28.8026 58.1701 28.6347 57.6814C28.6194 57.6356 28.5888 57.5745 28.5736 57.5287C28.4972 57.376 28.4514 57.2233 28.4056 57.0706C28.3598 56.9484 28.3292 56.8109 28.2834 56.6888C28.146 56.2917 28.0085 55.8946 27.9016 55.4823C27.8711 55.3907 27.8405 55.299 27.81 55.2074C27.7336 54.9783 27.6573 54.7492 27.6114 54.5202C27.5809 54.4438 27.5656 54.3522 27.5504 54.2605C27.4282 53.8788 27.3366 53.4817 27.2449 53.0846C27.2144 52.9624 27.1838 52.8555 27.1533 52.7334C27.0769 52.4738 27.0158 52.2141 26.97 51.9392C26.8937 51.6643 26.8326 51.3895 26.7715 51.0993H36.3469C36.3469 51.0993 36.3622 51.2215 36.3774 51.2826C36.5912 52.7945 36.8356 54.2606 37.1258 55.6961C37.1563 55.8183 37.1716 55.9557 37.2021 56.0779C37.2327 56.2001 37.2632 56.3222 37.2937 56.4597C37.5839 57.8036 37.9046 59.117 38.2711 60.3998C38.3169 60.5372 38.3475 60.69 38.3933 60.8274H29.9022H29.8717ZM27.7184 68.7993C26.4508 67.5317 25.2901 66.1878 24.2058 64.7828C23.3659 63.668 22.5718 62.5378 21.8387 61.3619H29.5204C29.6426 61.6215 29.7648 61.8659 29.8869 62.1102C29.9328 62.1866 29.9633 62.263 30.0091 62.3393C31.2003 64.7828 32.59 67.0888 34.1936 69.1963C34.3921 69.4712 34.6059 69.7156 34.8197 69.9752C34.8197 69.9905 34.8503 70.0057 34.8655 70.021C35.1404 70.3722 35.4153 70.7388 35.7055 71.0748H30.2076C29.3524 70.3417 28.5125 69.5934 27.7184 68.784V68.7993ZM40.4245 77.2751C39.8441 77.0307 39.2943 76.7559 38.7446 76.481C38.4697 76.3435 38.1948 76.2366 37.9199 76.0992C37.7977 76.0381 37.6908 75.977 37.5686 75.9159C36.9578 75.5952 36.3469 75.2592 35.7513 74.908C35.5375 74.7858 35.3237 74.6483 35.1099 74.5109C34.6059 74.2055 34.1019 73.8695 33.6132 73.5488C33.3842 73.3961 33.1704 73.2433 32.9413 73.0906C32.3457 72.663 31.7501 72.2201 31.1698 71.762C31.1087 71.7162 31.0476 71.6704 30.9865 71.6245H36.2094C37.0036 72.495 37.8283 73.2892 38.6835 74.0375C40.3328 75.5036 42.0891 76.7864 43.937 77.8249C44.1202 77.9318 44.3187 78.0234 44.502 78.115C44.6395 78.1914 44.7922 78.2525 44.9296 78.3288C45.0671 78.3899 45.2045 78.451 45.342 78.5121C45.8612 78.7564 46.3652 79.0161 46.8997 79.2146C47.1593 79.3215 47.4036 79.4437 47.6633 79.5353H47.6785C45.2045 79.0313 42.7763 78.2677 40.4245 77.2751ZM49.4195 79.4437C49.4195 79.4437 49.3737 79.4437 49.3584 79.4284C49.2515 79.4131 49.1599 79.3673 49.053 79.3368C48.9919 79.3215 48.9308 79.3062 48.885 79.291C48.4269 79.1382 47.9687 78.9703 47.5258 78.787C47.4036 78.7412 47.2967 78.7106 47.1746 78.6648C46.6706 78.4663 46.1819 78.2525 45.6932 78.0234C45.2045 77.7943 44.7311 77.55 44.2424 77.2751C43.601 76.9238 42.9748 76.5268 42.3487 76.1297C41.4477 75.5188 40.5619 74.8316 39.7067 74.0986C39.0805 73.5641 38.4697 72.999 37.8741 72.4187C37.6145 72.159 37.3396 71.8994 37.0799 71.6245H42.9137C42.9748 71.7314 43.0359 71.8383 43.097 71.93C43.2192 72.1438 43.3566 72.3423 43.4788 72.5561C43.6162 72.7699 43.769 72.9685 43.9064 73.167C44.0133 73.3197 44.1202 73.4724 44.2118 73.6099C44.5478 74.0833 44.8991 74.5414 45.2503 74.9843C45.2656 75.0149 45.2809 75.0301 45.3114 75.0607C45.4336 75.2134 45.5558 75.3356 45.6779 75.473C46.7622 76.7558 47.9076 77.8096 49.0988 78.6648C49.7555 79.1382 50.4275 79.5659 51.1147 79.8866H51.13C50.5649 79.7797 49.9846 79.6269 49.4195 79.4437ZM53.3902 80.0545C53.1306 79.9782 52.8862 79.9018 52.6419 79.8102C52.6419 79.8102 52.6419 79.8102 52.6266 79.8102C51.4507 79.3979 50.3053 78.7717 49.221 77.9623C48.7476 77.6111 48.2741 77.2445 47.8313 76.8322C46.747 75.8395 45.7238 74.6483 44.7616 73.3044C44.7158 73.2433 44.67 73.1823 44.6242 73.1212C44.2882 72.6477 43.9675 72.1438 43.6468 71.6398H49.5264C49.9693 73.1823 50.458 74.5262 50.962 75.7021C51.2674 76.4199 51.5881 77.1071 51.9241 77.6874C51.9241 77.7027 51.9241 77.718 51.9241 77.718C52.031 77.9165 52.1532 78.0998 52.2753 78.283C52.4586 78.5732 52.6571 78.8633 52.8557 79.1077C53.1153 79.4284 53.3749 79.7338 53.6192 79.9782C53.6956 80.0393 53.7567 80.1156 53.8331 80.1767V80.192C53.6803 80.1614 53.5276 80.1156 53.3749 80.0698L53.3902 80.0545ZM55.6504 80.36C53.6956 80.0698 51.7561 76.9544 50.1831 71.6245H55.6504V80.36ZM55.6504 71.09H49.9388C49.9388 71.09 49.9388 71.09 49.9388 71.0748C49.7555 70.3723 49.5417 69.685 49.3737 68.9214C49.1599 68.0357 48.9614 67.0736 48.7781 66.1114C48.7476 65.9587 48.717 65.8213 48.6865 65.6838C48.5032 64.7981 48.3505 63.897 48.1978 62.9655C48.1061 62.4309 48.0298 61.9117 47.9534 61.3619H55.6504V71.09ZM55.8489 61.3466C55.1617 61.3466 54.4897 61.3008 53.8178 61.2245C53.7262 61.2245 53.6345 61.1939 53.5429 61.1787C52.8709 61.087 52.2142 60.9801 51.5576 60.8427C51.527 60.8427 51.5117 60.8427 51.4812 60.8427H47.8465C47.7854 60.4151 47.7549 59.9875 47.6938 59.5751C47.5105 59.4988 47.3426 59.4071 47.1593 59.3155C47.2204 59.8195 47.2815 60.3234 47.3426 60.8274L38.9125 60.8427C38.714 60.1249 38.5155 59.4224 38.3322 58.6894C37.7366 56.2917 37.2327 53.7566 36.8814 51.0993H38.21C38.1031 50.916 37.981 50.7328 37.8741 50.5495H36.7898C36.6676 49.5416 36.5912 48.4878 36.4996 47.4341C36.4996 47.4035 36.4843 47.3883 36.4843 47.3577C36.4843 47.3424 36.4843 47.3272 36.4691 47.3119C36.3622 46.9912 36.2553 46.6705 36.1636 46.3345C36.0415 45.9222 35.9346 45.5098 35.8429 45.0822C35.8277 45.0059 35.7971 44.9295 35.7818 44.8531C35.8124 45.3877 35.8277 45.9222 35.8735 46.4567C35.9651 47.8311 36.0873 49.2056 36.2553 50.5495H26.6493C26.0385 47.4188 25.7178 44.1506 25.7025 40.8214H35.3542C35.3542 40.8214 35.339 40.6687 35.339 40.5923C35.339 40.4854 35.3542 40.3938 35.3542 40.2869H25.7025C25.7178 36.9729 26.0385 33.72 26.6493 30.5588L36.2553 30.5435C36.0873 31.8874 35.9804 33.2466 35.8735 34.6058C35.8582 34.896 35.8429 35.1861 35.8277 35.4763C35.8277 35.7512 35.7818 36.0261 35.7818 36.3162V36.3468C35.8124 36.1941 35.8582 36.0413 35.8887 35.8886C35.9651 35.5526 36.0567 35.2167 36.1484 34.8807C36.2553 34.5294 36.3622 34.1782 36.4843 33.8422C36.576 32.7426 36.6523 31.6431 36.7898 30.5588L37.9352 30.5435C37.9962 30.4213 38.0726 30.3144 38.149 30.1923C38.1948 30.1312 38.2253 30.0701 38.2559 30.009H36.8814C37.309 26.8019 37.9504 23.7629 38.7446 20.9223C38.8056 20.7085 38.8515 20.4947 38.9125 20.2809H47.3426C47.2662 20.7849 47.2204 21.3499 47.1593 21.8692C47.3273 21.7775 47.5105 21.6859 47.6938 21.6095C47.7396 21.1667 47.7854 20.7085 47.8465 20.2809H51.7408C52.3822 20.1434 53.0236 20.0365 53.6803 19.9602C53.7567 19.9602 53.8331 19.9296 53.9094 19.9296C54.5508 19.8533 55.1922 19.838 55.8489 19.8227C55.9406 19.8227 56.0322 19.8227 56.1238 19.8227C56.2307 19.8227 56.3376 19.838 56.4445 19.838C57.0859 19.838 57.7121 19.8686 58.3382 19.9449C58.384 19.9449 58.4451 19.9602 58.4909 19.9755C59.1629 20.0518 59.8501 20.1587 60.5068 20.2962H63.9888C64.0499 20.6627 64.0804 21.0598 64.1262 21.4263C64.3553 21.5179 64.5538 21.6248 64.7676 21.7317C64.7065 21.2583 64.6607 20.7543 64.5996 20.2962H73.0297C73.6863 22.5564 74.2361 24.9693 74.679 27.4739C74.8317 28.3138 74.9539 29.1691 75.0761 30.0243H73.9765C74.0529 30.1464 74.1292 30.2686 74.2056 30.4061C74.2361 30.4519 74.2667 30.513 74.3125 30.5588H75.1524C75.1982 30.9253 75.2288 31.2918 75.2593 31.6583C75.3051 32.0249 75.3357 32.3914 75.3662 32.7579C75.3968 32.8495 75.4273 32.9412 75.4579 33.0328C75.6869 33.6437 75.916 34.2545 76.084 34.8807C76.084 34.8349 76.084 34.7738 76.084 34.728C75.9771 33.323 75.8702 31.9332 75.6869 30.5588H85.2929C85.7968 33.155 86.087 35.797 86.2092 38.5154C86.2244 39.111 86.255 39.7066 86.255 40.3022H76.9087C76.9087 40.4091 76.924 40.5007 76.924 40.6076C76.924 40.684 76.9087 40.7603 76.9087 40.8367H86.255C86.255 41.4475 86.2244 42.0431 86.2092 42.6387C86.087 45.3418 85.7968 47.9991 85.2929 50.5648H75.6869C75.7328 50.2746 75.748 49.9845 75.7786 49.679C75.8702 48.8543 75.9466 48.0449 76.0076 47.205C76.0229 46.9301 76.0535 46.6705 76.0687 46.3956C76.0687 46.3956 76.0687 46.3803 76.0687 46.3651C75.8702 47.0828 75.6259 47.7853 75.351 48.4573C75.351 48.4573 75.3357 48.5336 75.3357 48.5642C75.2746 49.2361 75.2441 49.9081 75.1524 50.5495H74.3583C74.3125 50.6259 74.2667 50.7022 74.2208 50.7786C74.1598 50.8855 74.0987 50.9924 74.0376 51.0993H75.0761C74.9539 51.9545 74.8317 52.8097 74.679 53.6497C74.2361 56.1695 73.6863 58.5672 73.0297 60.8274L64.5996 60.8427C64.6607 60.3845 64.7065 59.9264 64.7676 59.4682C64.5538 59.5751 64.3553 59.682 64.1415 59.7737C64.1415 59.7737 64.1415 59.7737 64.1262 59.7737C64.0804 60.1249 64.0499 60.4914 63.9888 60.8274L60.7664 60.8427C60.7359 60.8427 60.7053 60.8427 60.6748 60.8579C60.125 60.9801 59.56 61.0718 58.9796 61.1481C58.7811 61.1787 58.5978 61.2092 58.3993 61.2397C57.8801 61.3008 57.3608 61.3161 56.8416 61.3314C56.6431 61.3314 56.4445 61.3619 56.246 61.3619C56.2307 61.3619 56.2154 61.3619 56.2002 61.3619H63.9124L63.6375 63.0571C63.5612 63.5 63.4848 63.9428 63.4084 64.3705C63.3932 64.4774 63.3779 64.5843 63.3474 64.6912C63.0725 66.1725 62.7823 67.5928 62.4616 68.9214C62.4616 68.9214 62.4616 68.9367 62.4616 68.952C62.2936 69.7003 62.1103 70.4028 61.9118 71.09H56.1849V61.3619H56.1238C56.0322 61.3619 55.9406 61.3466 55.8337 61.3466H55.8489ZM69.4255 70.9373C69.7157 70.4486 69.9753 69.9446 70.2349 69.4254C70.2807 69.3338 70.3266 69.2421 70.3876 69.1505C70.4029 69.12 70.4182 69.0894 70.4335 69.0589C70.8152 68.2953 71.1665 67.4859 71.5177 66.6765C71.5941 66.478 71.6857 66.2794 71.7621 66.0809C72.0981 65.2562 72.4188 64.401 72.7242 63.5305C72.7242 63.5 72.7548 63.4694 72.77 63.4236C72.8006 63.3167 72.8311 63.2098 72.8617 63.1182C73.0602 62.5378 73.2435 61.9575 73.4267 61.3619H81.7956C81.3986 62.2019 80.971 63.0113 80.5281 63.8359C80.467 63.9428 80.4212 64.0497 80.3754 64.1414C80.1463 64.5537 79.9172 64.9508 79.6729 65.3478C79.5201 65.5922 79.3674 65.8213 79.2147 66.0656C79.0773 66.2947 78.9398 66.5238 78.7871 66.7376C78.4206 67.2874 78.0388 67.8371 77.657 68.3564C77.5501 68.5091 77.4432 68.6618 77.3363 68.7993C76.9698 69.3032 76.5727 69.7461 76.1909 70.2043C75.9466 70.4944 75.7175 70.7999 75.4731 71.0748H69.3644C69.3644 71.0748 69.4255 70.9679 69.4408 70.922L69.4255 70.9373ZM68.7077 71.09H62.5685C62.6601 70.7082 62.7518 70.3112 62.8587 69.9141C62.9045 69.7308 62.9503 69.5476 62.9961 69.3643C63.0267 69.2727 63.0419 69.1811 63.0725 69.0742C63.1641 68.6618 63.271 68.2189 63.3626 67.7913C63.6223 66.6154 63.8513 65.3937 64.0804 64.1261C64.2331 63.2251 64.4011 62.3088 64.5386 61.3619H72.8617C72.7242 61.8201 72.5715 62.2782 72.4188 62.7211C72.3272 62.996 72.2203 63.2709 72.1286 63.5458C72.0217 63.8359 71.9148 64.1261 71.8232 64.4163C71.6247 64.9508 71.4261 65.47 71.2123 65.974C71.0901 66.2489 70.9832 66.539 70.8611 66.8139C70.632 67.3484 70.3876 67.883 70.128 68.3869C70.0211 68.6007 69.9295 68.8145 69.8226 69.0131C69.4561 69.7308 69.0895 70.4181 68.7077 71.0748V71.09ZM73.5794 60.8274C73.61 60.7205 73.6405 60.6289 73.6558 60.522C74.0529 59.1475 74.3888 57.7425 74.6943 56.307C74.7095 56.2306 74.7248 56.1542 74.7401 56.0779C74.7554 56.0779 74.7554 56.0473 74.7554 56.0168C75.0913 54.4285 75.3662 52.7945 75.58 51.1298V51.0993H85.1554C85.0943 51.3895 85.0332 51.6643 84.9569 51.9392C84.9111 52.2141 84.85 52.4738 84.7736 52.7334C84.7431 52.8861 84.6973 53.0235 84.6515 53.1763C84.5751 53.5122 84.4835 53.8482 84.3918 54.1689C84.3613 54.2911 84.3308 54.4133 84.3002 54.5202C84.2544 54.7492 84.178 54.9783 84.1017 55.2074C84.0711 55.3296 84.0253 55.4517 83.9795 55.5739C83.8879 55.9099 83.7657 56.2612 83.6588 56.5971C83.5977 56.7498 83.5672 56.9178 83.5061 57.0706C83.4603 57.2233 83.4144 57.376 83.3381 57.5287C83.2923 57.6661 83.2312 57.8036 83.1854 57.941C83.0937 58.2007 83.0021 58.4603 82.9105 58.7046C82.6356 59.4224 82.3454 60.1402 82.04 60.8427H73.5489L73.5794 60.8274ZM57.8495 79.4284C57.8495 79.4284 57.819 79.459 57.8037 79.4742C57.2692 79.9782 56.7347 80.2836 56.2002 80.36H56.1849V71.6245H61.6675C61.2857 72.9074 60.8886 74.0527 60.4763 75.0607C60.1861 75.7479 59.8959 76.3588 59.6058 76.9086C59.056 77.947 58.4909 78.7717 57.9259 79.352C57.8953 79.3826 57.8801 79.4131 57.8495 79.4284ZM59.392 79.7797C59.2393 79.8407 59.1018 79.8866 58.9491 79.9324C58.9033 79.9476 58.8422 79.9629 58.7811 79.9782C58.552 80.0545 58.3229 80.1156 58.0939 80.1767C58.0939 80.1767 58.1091 80.1462 58.1244 80.1462C58.2466 80.0393 58.3535 79.9018 58.4757 79.7797C58.8727 79.3673 59.2698 78.8634 59.6669 78.2525C59.7127 78.1914 59.7585 78.1303 59.789 78.0692C59.8043 78.0387 59.8349 78.0081 59.8501 77.9623C59.8959 77.886 59.9418 77.7943 60.0028 77.718C60.7053 76.481 61.362 74.8927 61.9729 73.0295C62.1256 72.5867 62.2631 72.1285 62.4158 71.6398H68.2954C68.2343 71.7314 68.1732 71.8078 68.1274 71.8994C67.99 72.1132 67.8525 72.327 67.6998 72.5256C65.8214 75.3508 63.6833 77.5042 61.3773 78.8481C60.8581 79.1535 60.3235 79.4284 59.789 79.6422C59.6516 79.688 59.5141 79.7338 59.3767 79.7949L59.392 79.7797ZM60.8122 79.8866C61.0871 79.7491 61.362 79.5811 61.6369 79.4131C62.3394 79.0161 63.0419 78.5426 63.7139 77.9929C63.8361 77.886 63.9735 77.8096 64.0957 77.7027C64.508 77.3514 64.9203 76.9544 65.3174 76.5268C65.3938 76.4504 65.4701 76.3741 65.5465 76.2824C65.8672 75.9312 66.1879 75.5799 66.5086 75.1981C66.5544 75.137 66.6155 75.076 66.6613 75.0149C66.7071 74.969 66.7377 74.908 66.7835 74.8469C67.0737 74.4804 67.3638 74.0986 67.6387 73.7168C67.7151 73.6099 67.8067 73.5182 67.8831 73.3961C67.9136 73.3502 67.9442 73.3044 67.9747 73.2586C68.1274 73.0295 68.2954 72.7852 68.4634 72.5256C68.5703 72.3576 68.6772 72.1743 68.7994 71.9911C68.8757 71.8689 68.9521 71.7467 69.0284 71.6093H74.8623C74.4194 72.0827 73.9612 72.5408 73.4878 72.9837C73.442 73.0295 73.3962 73.0754 73.3351 73.1212C72.9686 73.4571 72.6173 73.7778 72.2355 74.0833C71.9301 74.3429 71.6094 74.5873 71.3039 74.8316C71.2734 74.8469 71.2581 74.8774 71.2276 74.8927H71.197L69.0437 76.4351C68.7688 76.6031 68.4939 76.7711 68.219 76.9391C68.0511 77.046 67.8678 77.1529 67.6998 77.2598C67.4249 77.4125 67.1348 77.55 66.8599 77.6874C66.6613 77.7791 66.4781 77.886 66.2795 77.9776C65.9436 78.1303 65.5923 78.2983 65.2563 78.451C63.8055 79.0772 62.3089 79.5659 60.797 79.8866H60.8122ZM78.6038 73.3502C78.222 73.6099 77.8555 73.8695 77.4737 74.0986C77.4126 74.1444 77.3363 74.1749 77.2752 74.2207C76.4811 74.7247 75.6717 75.1981 74.847 75.641C74.6026 75.7785 74.3583 75.9006 74.1139 76.0228C73.7627 76.2061 73.4114 76.4046 73.0602 76.5726C72.5562 76.8169 72.037 77.046 71.5177 77.2751C69.1659 78.2677 66.7377 79.0313 64.2637 79.5506H64.2789C64.4927 79.4589 64.7065 79.3673 64.9204 79.2757C65.0731 79.2146 65.2105 79.1535 65.3632 79.0924C65.5312 79.0161 65.6839 78.9397 65.8367 78.8786C66.1268 78.7412 66.4323 78.619 66.7224 78.4663C67.15 78.2678 67.5776 78.0539 68.0052 77.8249C68.8605 77.3362 69.7004 76.8017 70.5098 76.2213C71.8385 75.2745 73.1213 74.236 74.3278 73.0448C74.4347 72.9379 74.5263 72.831 74.6332 72.7241C74.9997 72.3576 75.351 72.0063 75.7022 71.6245H80.9557C80.1921 72.2354 79.398 72.8005 78.6038 73.3502ZM89.1719 62.7975C88.9428 63.1182 88.7137 63.4389 88.4847 63.7443C88.3014 64.0039 88.1181 64.2636 87.9349 64.5079C87.3851 65.2409 86.8048 65.9587 86.1939 66.6612C86.1328 66.7376 86.0717 66.8139 86.0106 66.8903C85.9648 66.9514 85.919 66.9972 85.8732 67.0583C85.8427 67.1041 85.7968 67.1346 85.7663 67.1805C85.2623 67.7302 84.7584 68.2647 84.2391 68.7993C83.445 69.6087 82.605 70.357 81.7498 71.09H76.2367C76.5422 70.7235 76.8323 70.3417 77.1378 69.9752C77.3516 69.7156 77.5654 69.4712 77.7639 69.1963C78.0082 68.8909 78.222 68.5549 78.4511 68.2342C79.0925 67.3332 79.7187 66.4016 80.299 65.4395C81.0779 64.1261 81.7804 62.7669 82.4371 61.3619H90.1187C89.8133 61.8506 89.5079 62.324 89.1872 62.7975H89.1719ZM93.4785 54.3369C93.2647 54.9172 93.0509 55.4976 92.8218 56.0779C92.4706 56.8873 92.1041 57.6967 91.707 58.4908C91.3099 59.2697 90.8976 60.0485 90.4395 60.8121L82.6509 60.8274C82.9257 60.186 83.1701 59.5599 83.4144 58.9184C83.9184 57.6356 84.3613 56.307 84.7431 54.9631C85.0943 53.7566 85.3998 52.5348 85.6747 51.2978C85.6899 51.2215 85.7052 51.1604 85.7205 51.084H94.5476C94.2421 52.1836 93.8756 53.2679 93.4785 54.3369ZM95.5249 46.3651C95.3111 47.7701 95.0515 49.1751 94.7003 50.5342H85.8274C85.9648 49.8012 86.087 49.0682 86.1939 48.3198C86.3466 47.3119 86.4535 46.2887 86.5452 45.2655C86.5757 44.899 86.6062 44.5477 86.6368 44.1812C86.7131 43.0664 86.759 41.9362 86.759 40.8061H95.9678C95.9526 42.6846 95.7998 44.5324 95.5249 46.3651ZM86.759 40.2716C86.759 37.5991 86.5299 34.9723 86.1328 32.4067C86.0412 31.7958 85.9496 31.2002 85.8427 30.6046C85.8427 30.5893 85.8427 30.5741 85.8427 30.5435L94.7155 30.5282C95.2042 32.4525 95.525 34.3767 95.7388 36.3315C95.8762 37.6296 95.9678 38.943 95.9831 40.2716H86.7742H86.759Z" fill="#C4C7CB"/>
<path d="M56.1849 43.0212C57.5175 43.0212 58.5978 41.9409 58.5978 40.6083C58.5978 39.2756 57.5175 38.1953 56.1849 38.1953C54.8523 38.1953 53.772 39.2756 53.772 40.6083C53.772 41.9409 54.8523 43.0212 56.1849 43.0212Z" fill="#EFF2F8"/>
<path d="M118.417 38.3464C116.31 38.3464 114.324 37.9799 112.461 37.2316C110.613 36.4833 108.979 35.4448 107.559 34.1314C106.139 32.8028 105.039 31.2603 104.245 29.5041C103.451 27.7478 103.054 25.8694 103.054 23.8535C103.054 21.8376 103.451 19.9439 104.245 18.1877C105.054 16.4162 106.154 14.8737 107.559 13.5604C108.979 12.2317 110.598 11.178 112.446 10.4449C114.294 9.6966 116.279 9.33008 118.387 9.33008C120.112 9.33008 121.746 9.57443 123.289 10.0631C124.847 10.5518 126.19 11.1932 127.29 11.9874L124.908 16.6452C124.144 16.0496 123.228 15.5762 122.143 15.2402C121.059 14.9043 119.914 14.7363 118.738 14.7363C117.348 14.7363 116.05 14.9654 114.874 15.4388C113.698 15.8969 112.675 16.5536 111.789 17.3783C110.919 18.203 110.247 19.1651 109.758 20.2799C109.269 21.3948 109.025 22.586 109.025 23.8688C109.025 25.1516 109.269 26.3581 109.758 27.4577C110.247 28.5725 110.919 29.5346 111.789 30.3593C112.675 31.184 113.698 31.8254 114.874 32.2988C116.065 32.7569 117.348 33.0013 118.738 33.0013C119.929 33.0013 121.059 32.8333 122.143 32.4973C123.228 32.1614 124.144 31.6879 124.908 31.0923L127.29 35.7502C126.221 36.5138 124.923 37.1552 123.365 37.6439C121.823 38.1479 120.158 38.3922 118.417 38.3922V38.3464ZM144.852 38.3464C142.898 38.3464 141.065 37.9799 139.355 37.2316C137.644 36.4833 136.148 35.4448 134.865 34.1314C133.582 32.8028 132.559 31.2603 131.826 29.5041C131.108 27.7325 130.741 25.8541 130.741 23.8382C130.741 21.8224 131.108 19.9439 131.826 18.1877C132.559 16.4162 133.567 14.8737 134.865 13.5604C136.148 12.2317 137.66 11.178 139.355 10.4449C141.065 9.6966 142.898 9.33008 144.852 9.33008C146.807 9.33008 148.64 9.6966 150.35 10.4449C152.061 11.1932 153.557 12.2317 154.84 13.5604C156.123 14.889 157.131 16.4314 157.864 18.1877C158.597 19.9439 158.964 21.8224 158.964 23.8382C158.964 25.8541 158.597 27.7325 157.864 29.5041C157.146 31.2603 156.138 32.8028 154.84 34.1314C153.557 35.4601 152.046 36.4833 150.35 37.2316C148.64 37.9799 146.807 38.3464 144.852 38.3464ZM144.837 33.0471C146.028 33.0471 147.128 32.818 148.121 32.3752C149.113 31.917 149.984 31.2909 150.717 30.4509C151.45 29.6262 152.03 28.6488 152.427 27.534C152.84 26.4039 153.038 25.1669 153.038 23.823C153.038 22.4791 152.84 21.242 152.427 20.1272C152.015 18.9971 151.45 18.0197 150.717 17.195C149.984 16.3704 149.113 15.7289 148.121 15.2708C147.128 14.8126 146.028 14.5988 144.837 14.5988C143.646 14.5988 142.577 14.8279 141.569 15.2708C140.576 15.7289 139.706 16.3551 138.973 17.195C138.24 18.0197 137.66 18.9971 137.262 20.1272C136.865 21.242 136.667 22.4791 136.667 23.823C136.667 25.1669 136.865 26.4039 137.262 27.534C137.675 28.6488 138.24 29.6262 138.973 30.4509C139.706 31.2756 140.576 31.917 141.569 32.3752C142.577 32.8333 143.661 33.0471 144.837 33.0471ZM165.668 37.8577V9.74242H171.38L183.246 28.6641V9.74242H188.652V37.8577H182.94L171.074 18.936V37.8577H165.668ZM118.417 72.1428C116.31 72.1428 114.324 71.7763 112.461 71.028C110.613 70.2797 108.979 69.2412 107.559 67.9278C106.139 66.5992 105.039 65.0567 104.245 63.3005C103.451 61.5442 103.054 59.6658 103.054 57.6499C103.054 55.634 103.451 53.7403 104.245 51.9841C105.054 50.2126 106.154 48.6701 107.559 47.3567C108.979 46.0281 110.598 44.9744 112.446 44.2413C114.294 43.493 116.279 43.1265 118.387 43.1265C120.112 43.1265 121.746 43.3708 123.289 43.8595C124.847 44.3482 126.19 44.9896 127.29 45.7838L124.908 50.4416C124.144 49.846 123.228 49.3726 122.143 49.0366C121.059 48.7007 119.914 48.5327 118.738 48.5327C117.348 48.5327 116.05 48.7618 114.874 49.2352C113.698 49.6933 112.675 50.35 111.789 51.1747C110.919 51.9994 110.247 52.9615 109.758 54.0763C109.269 55.1912 109.025 56.3824 109.025 57.6652C109.025 58.948 109.269 60.1545 109.758 61.254C110.247 62.3689 110.919 63.331 111.789 64.1557C112.675 64.9804 113.698 65.6218 114.874 66.0952C116.065 66.5533 117.348 66.7977 118.738 66.7977C119.929 66.7977 121.059 66.6297 122.143 66.2937C123.228 65.9577 124.144 65.4843 124.908 64.8887L127.29 69.5466C126.221 70.3102 124.923 70.9516 123.365 71.4403C121.823 71.9443 120.158 72.1886 118.417 72.1886V72.1428ZM132.696 71.6541V43.5388H148.38V48.4105H138.377V55.1759H148.105V60.0476H138.377V66.813H148.38V71.6847H132.696V71.6541ZM156.215 71.6541V43.5388H165.79C167.714 43.5388 169.379 43.8748 170.784 44.562C172.204 45.234 173.304 46.1961 174.067 47.4789C174.846 48.7465 175.243 50.2584 175.243 52.0452C175.243 53.4502 174.999 54.733 174.495 55.8631C173.991 56.9932 173.273 57.9401 172.342 58.7037C171.41 59.4825 170.28 60.0476 168.951 60.4294L178.16 71.6541H170.845L162.904 61.1166H161.621V71.6541H156.215ZM161.621 56.5198H163.942C165.072 56.5198 166.034 56.3518 166.813 56.0311C167.592 55.7104 168.203 55.237 168.615 54.6108C169.043 53.9694 169.257 53.2058 169.257 52.3201C169.257 50.9762 168.799 49.9529 167.867 49.2352C166.951 48.5021 165.637 48.1509 163.957 48.1509H161.636V56.5351L161.621 56.5198ZM185.414 71.6541V48.4105H178.114V43.5388H197.845V48.4105H190.82V71.6541H185.414ZM214.339 72.1428C212.384 72.1428 210.552 71.7763 208.841 71.028C207.131 70.2797 205.634 69.2412 204.351 67.9278C203.068 66.5992 202.045 65.0567 201.312 63.3005C200.594 61.5289 200.228 59.6505 200.228 57.6346C200.228 55.6188 200.594 53.7403 201.312 51.9841C202.045 50.2126 203.053 48.6701 204.351 47.3567C205.634 46.0281 207.146 44.9744 208.841 44.2413C210.536 43.5083 212.384 43.1265 214.339 43.1265C216.294 43.1265 218.126 43.493 219.837 44.2413C221.547 44.9896 223.044 46.0281 224.327 47.3567C225.61 48.6854 226.617 50.2278 227.351 51.9841C228.084 53.7403 228.45 55.6188 228.45 57.6346C228.45 59.6505 228.084 61.5289 227.351 63.3005C226.633 65.0567 225.625 66.5992 224.327 67.9278C223.044 69.2564 221.532 70.2797 219.837 71.028C218.126 71.7763 216.294 72.1428 214.339 72.1428ZM214.324 66.8435C215.515 66.8435 216.614 66.6144 217.607 66.1716C218.6 65.7134 219.47 65.0873 220.203 64.2473C220.936 63.4226 221.517 62.4452 221.914 61.3304C222.326 60.2003 222.525 58.9633 222.525 57.6194C222.525 56.2755 222.326 55.0384 221.914 53.9236C221.501 52.7935 220.936 51.8161 220.203 50.9914C219.47 50.1668 218.6 49.5253 217.607 49.0672C216.614 48.609 215.515 48.3952 214.324 48.3952C213.133 48.3952 212.063 48.6243 211.056 49.0672C210.063 49.5253 209.192 50.1515 208.459 50.9914C207.726 51.8161 207.146 52.7935 206.749 53.9236C206.352 55.0384 206.153 56.2755 206.153 57.6194C206.153 58.9633 206.352 60.2003 206.749 61.3304C207.161 62.4452 207.726 63.4226 208.459 64.2473C209.192 65.072 210.063 65.7134 211.056 66.1716C212.063 66.6297 213.148 66.8435 214.324 66.8435Z" fill="#EFF2F8"/>
<path d="M0.0152718 50.3516C-0.0152718 50.0156 0.167989 49.6796 0.458153 49.5269L2.35185 48.5342C2.35185 48.5342 2.45875 48.4884 2.50457 48.4732L16.0812 45.4952C16.5546 45.3883 16.9975 45.205 17.4098 44.9301L20.8307 42.6393C21.2125 42.3797 21.747 42.4714 22.0066 42.8532C22.2815 43.2502 22.1746 43.7847 21.7775 44.0596L18.1428 46.4878C17.7458 46.7627 17.2876 46.946 16.8142 47.0529L3.31397 50.0156C3.14598 50.0462 2.97799 50.1072 2.81 50.1989L1.22174 51.0235C0.687229 51.2984 0.061087 50.9472 0 50.3516H0.0152718Z" fill="#EFF2F8"/>
<path fill-rule="evenodd" clip-rule="evenodd" d="M31.5516 34.5C31.4906 35.2789 31.3837 36.0272 31.2309 36.7908C31.0629 37.6307 30.7575 38.9135 30.0703 40.3033C29.9787 40.4713 29.9023 40.6545 29.7801 40.8378C29.5052 41.3417 29.1692 41.8457 28.7722 42.3497C27.7642 43.6172 26.8021 44.2281 25.8705 44.4266C25.6873 44.4725 25.5193 44.4877 25.3513 44.5183C24.9542 44.5488 24.5419 44.5183 24.1601 44.4266C23.9616 44.3961 23.7936 44.3197 23.6409 44.2587C23.03 43.9532 22.7398 43.4034 22.5566 42.9147H22.5719L22.5108 42.7773C22.4191 42.5635 22.3122 42.426 22.1748 42.2581C21.9457 41.9373 21.6708 41.5861 21.6403 40.9294C21.625 40.9141 21.625 40.8836 21.625 40.8378C21.625 40.6851 21.6403 40.5171 21.6555 40.3338V40.3033C21.8693 38.7914 22.8315 37.5238 24.7557 36.241C24.9542 36.1035 25.1833 35.9814 25.4277 35.8897C25.5957 35.7828 25.7789 35.7217 25.9622 35.6607C27.413 35.1414 29.3067 34.8665 30.4826 34.6985C31.0782 34.6374 31.4753 34.5611 31.5669 34.5153L31.5516 34.5Z" fill="#00B89C"/>
<path d="M56.2001 21.3203C45.5862 21.3203 36.9424 29.9641 36.9424 40.578C36.9424 51.1919 45.5862 59.8357 56.2001 59.8357C66.8139 59.8357 75.4578 51.1919 75.4578 40.578C75.4578 29.9641 66.8139 21.3203 56.2001 21.3203ZM56.2612 57.2548C47.0676 57.2548 39.6149 49.8021 39.6149 40.6085C39.6149 31.4149 47.0676 23.9623 56.2612 23.9623C65.4548 23.9623 72.9074 31.4149 72.9074 40.6085C72.9074 49.8021 65.4548 57.2548 56.2612 57.2548Z" fill="#EFF2F8"/>
</svg>
