<svg width="432" height="154" viewBox="0 0 432 154" fill="none" xmlns="http://www.w3.org/2000/svg">
<path d="M56.5163 38.3232C55.9965 39.5073 55.5055 40.7202 55.0146 41.962C54.8125 42.4241 54.6392 42.915 54.4659 43.3771C54.1194 44.3301 53.7728 45.2831 53.4551 46.2361C53.2241 46.9003 53.022 47.5645 52.8198 48.2576C52.5021 49.3261 52.1556 50.4235 51.8668 51.492C51.7802 51.8097 51.6935 52.0985 51.6358 52.4162C51.2603 53.8312 50.9138 55.2752 50.625 56.7191H68.7032C68.7032 56.7191 68.7321 56.517 68.761 56.4303C69.1653 53.5713 69.6562 50.7123 70.2049 47.9688C70.2627 47.7378 70.2916 47.5068 70.3205 47.2757C70.3782 47.0447 70.436 46.8137 70.4937 46.5826C71.0135 44.1568 71.62 41.7598 72.2553 39.4206C72.342 39.0741 72.4286 38.6698 72.5153 38.3232H56.4874H56.5163Z" fill="#EFF2F8"/>
<path d="M72.8042 37.3123C72.8908 36.9947 73.0352 36.677 73.1219 36.3593C73.4106 35.4063 73.6994 34.4244 74.0171 33.4714C74.4214 32.2874 74.8835 31.1034 75.3167 29.9193C75.3167 29.8616 75.3455 29.8038 75.3744 29.7749C76.0675 28.0133 76.7895 26.3094 77.5692 24.6633C77.8869 23.9703 78.2046 23.306 78.5222 22.6418C78.5222 22.6418 78.5222 22.5841 78.5511 22.5841C78.8399 21.9487 79.1864 21.3423 79.5041 20.7358C79.7063 20.3604 79.9084 20.0138 80.1106 19.6673C80.2261 19.4363 80.3705 19.1763 80.486 18.9453H68.9633C67.837 20.1582 66.7685 21.4867 65.7288 22.844C65.6422 22.9595 65.5267 23.075 65.4401 23.2194C65.0935 23.6526 64.7758 24.1435 64.4293 24.6056C63.1586 26.3672 61.9746 28.2155 60.8483 30.1215C60.5017 30.6991 60.1552 31.3055 59.8375 31.912C58.8268 33.6736 57.8449 35.4641 56.9785 37.3412H72.8042V37.3123Z" fill="#EFF2F8"/>
<path d="M70.4646 60.2713C70.84 59.4338 71.2443 58.5963 71.6775 57.8165C71.6775 57.8165 71.6775 57.7877 71.6775 57.7588H69.5405C69.2806 59.8092 69.1362 61.8885 68.9629 63.9678C69.3094 62.8992 69.7137 61.8596 70.1758 60.8488C70.2624 60.6467 70.3491 60.4734 70.4357 60.3001L70.4646 60.2713Z" fill="#EFF2F8"/>
<path d="M71.1581 94.5782C70.8116 93.8851 70.465 93.2209 70.1474 92.4989C69.7719 91.6037 69.4254 90.6796 69.0788 89.7554C69.0788 89.6688 69.0211 89.5822 68.9922 89.5244C68.9922 89.5822 69.0211 89.611 69.0211 89.6688C69.1943 91.6615 69.3387 93.6541 69.5698 95.5601H71.6202C71.6202 95.5601 71.6202 95.5312 71.6202 95.5024C71.4469 95.2136 71.3314 94.8959 71.1581 94.5782Z" fill="#EFF2F8"/>
<path d="M67.6367 68.7328C67.6656 68.1552 67.6945 67.6065 67.7522 67.0578C67.7811 66.5091 67.81 65.9604 67.8389 65.4117C68.041 62.8415 68.2432 60.2713 68.5608 57.7588H50.396C49.2408 63.7367 48.6343 69.888 48.6055 76.1547H66.857C66.857 74.9129 66.9436 73.6711 67.0591 72.4293C67.2035 71.1875 67.3768 69.9457 67.6367 68.7328Z" fill="#EFF2F8"/>
<path d="M66.857 77.1655H48.6055C48.6343 83.4611 49.2408 89.6412 50.396 95.5614H68.5608C68.2432 93.0201 68.0121 90.421 67.8389 87.8219C67.7522 86.8111 67.7233 85.8003 67.6656 84.7896C67.1458 82.306 66.8859 79.7646 66.857 77.1655Z" fill="#EFF2F8"/>
<path d="M72.5148 114.995C72.4282 114.736 72.3993 114.447 72.3127 114.216C71.6196 111.819 71.0131 109.306 70.4644 106.765C70.4067 106.534 70.3489 106.303 70.2912 106.043C70.2334 105.812 70.2045 105.552 70.1468 105.321C69.5981 102.606 69.1071 99.834 68.7317 96.975C68.7317 96.8595 68.6739 96.7439 68.6739 96.6284H50.5957C50.8556 97.8991 51.1733 99.1409 51.4621 100.383C51.6353 101.134 51.8375 101.884 52.0397 102.606C52.2418 103.386 52.4728 104.137 52.7039 104.888C52.906 105.639 53.1659 106.418 53.4258 107.169C53.628 107.805 53.859 108.44 54.0901 109.075C54.4077 109.999 54.7543 110.924 55.1297 111.819C55.5629 112.887 55.9672 113.956 56.4581 114.995H72.486H72.5148Z" fill="#EFF2F8"/>
<path d="M72.8042 116.036H56.9785C57.5561 117.278 58.1626 118.491 58.7979 119.675C58.7979 119.704 58.8268 119.733 58.8557 119.762C59.722 121.379 60.6461 122.967 61.5992 124.498C61.8591 124.902 62.0901 125.277 62.35 125.682C63.3319 127.212 64.3427 128.714 65.4689 130.158C65.8155 130.62 66.1909 131.024 66.5375 131.457C67.3461 132.468 68.1258 133.45 68.9922 134.403H80.5149C80.5149 134.403 80.4282 134.23 80.3705 134.143C80.0817 133.652 79.7929 133.132 79.5041 132.642C79.1864 132.035 78.8688 131.457 78.58 130.851C78.58 130.851 78.58 130.793 78.5511 130.793C77.7714 129.234 77.0494 127.617 76.3563 125.97C76.2408 125.682 76.1253 125.393 75.9809 125.104C75.3455 123.574 74.768 122.014 74.1904 120.397C74.1326 120.252 74.0749 120.108 74.0171 119.964C73.7861 119.271 73.555 118.549 73.3529 117.856C73.1507 117.249 72.9486 116.671 72.7753 116.065L72.8042 116.036Z" fill="#EFF2F8"/>
<path d="M76.5577 123.515C77.7417 126.519 79.0413 129.349 80.4275 131.948C80.8606 132.786 81.2938 133.623 81.7559 134.432H93.3652C93.2786 133.998 93.1631 133.565 93.0476 133.132C92.9609 132.757 92.8454 132.323 92.7299 131.919C92.6144 131.486 92.4989 131.082 92.4122 130.62C92.2967 130.186 92.2101 129.724 92.1234 129.291C91.8635 128.136 91.6036 127.01 91.3437 125.797C90.7084 122.707 90.1597 119.443 89.6398 116.007H73.9297C74.565 118.115 75.287 120.079 76.009 122.043C76.1822 122.533 76.3555 123.024 76.5577 123.486V123.515Z" fill="#EFF2F8"/>
<path d="M79.5037 105.582C78.8106 104.947 78.1464 104.283 77.4822 103.59C75.5184 101.51 73.7857 99.2002 72.3417 96.7166C72.3417 96.6877 72.284 96.6588 72.284 96.6011H69.7715C70.4357 101.626 71.3887 106.42 72.515 110.954C72.8615 112.34 73.237 113.669 73.6124 114.997H89.5536C89.4381 114.044 89.3225 113.091 89.207 112.138C85.6838 110.463 82.4782 108.268 79.6481 105.669C79.6192 105.64 79.5615 105.611 79.5326 105.582H79.5037Z" fill="#EFF2F8"/>
<path d="M79.5322 47.8533C79.5322 47.8533 79.6766 47.7378 79.7343 47.68C82.5356 45.1387 85.7123 42.9728 89.1489 41.3267C89.2932 40.3448 89.3799 39.3051 89.5243 38.3232H73.5831C73.4676 38.7275 73.3809 39.1319 73.2654 39.5362C71.7637 44.9076 70.5508 50.6546 69.7422 56.7191H72.3413C72.3413 56.7191 72.3702 56.6614 72.3991 56.6614C74.3628 53.3981 76.7598 50.4235 79.5322 47.8822V47.8533Z" fill="#EFF2F8"/>
<path d="M73.9297 37.3114H89.6687C90.1597 33.9326 90.7372 30.727 91.3437 27.6659C91.6903 25.9331 92.0657 24.2581 92.4411 22.6698C92.6144 22.0056 92.7588 21.3991 92.932 20.7927C92.9898 20.5905 93.0187 20.4172 93.0764 20.2151C93.0764 20.2151 93.0764 20.1862 93.0764 20.1573C93.192 19.753 93.3075 19.291 93.3941 18.9155H81.7848C80.8029 20.5616 79.9076 22.3232 79.0124 24.1715C78.0016 26.3374 77.0197 28.59 76.1245 30.9869C75.3448 33.0373 74.6228 35.1166 73.9297 37.3114Z" fill="#EFF2F8"/>
<path d="M89.4079 9.01041C86.9532 11.4651 84.6429 14.4397 82.5059 17.8762H93.6243C93.9708 16.7211 94.2885 15.6814 94.635 14.6418C95.4148 12.3026 96.2522 10.2233 97.1186 8.43283C97.4363 7.73973 97.8117 7.07552 98.1294 6.46906C98.1294 6.44018 98.1583 6.38242 98.1871 6.35354C98.3027 6.12251 98.447 5.92036 98.5626 5.71821C98.9091 5.14063 99.2557 4.59193 99.6311 4.10098C99.6888 4.01435 99.7466 3.92771 99.8332 3.84107C100.18 3.37901 100.526 2.94583 100.902 2.5704C101.046 2.39713 101.219 2.28161 101.364 2.13722C101.508 1.99282 101.624 1.8773 101.797 1.73291C100.526 2.0217 99.2557 2.45488 98.0427 3.00358C95.0104 4.30314 92.1514 6.32466 89.4368 9.01041H89.4079Z" fill="#EFF2F8"/>
<path d="M83.6629 7.19165C83.3742 7.36492 83.0854 7.5382 82.7966 7.71147C79.7065 9.50197 76.7609 11.6679 73.9885 14.1515C73.642 14.4691 73.2954 14.7579 72.9489 15.0756C72.5446 15.4222 72.198 15.8265 71.7937 16.2019C71.2161 16.7506 70.6385 17.2993 70.0898 17.9057H81.0927C82.1901 16.0864 83.3164 14.4114 84.4716 12.8808C84.5293 12.7942 84.5871 12.7364 84.6448 12.6498C85.8577 11.0326 87.1573 9.61748 88.4569 8.31793C91.056 5.71882 93.7706 3.66842 96.6296 2.28223C95.9943 2.42662 95.33 2.5999 94.6947 2.77317C94.6658 2.77317 94.6081 2.77317 94.5792 2.77317C91.8068 3.52402 89.0922 4.50591 86.4065 5.77658C85.4823 6.20977 84.5582 6.67183 83.6341 7.19165H83.6629Z" fill="#EFF2F8"/>
<path d="M69.165 17.1832C70.4357 15.8259 71.7641 14.5552 73.1214 13.3423C73.8145 12.7358 74.5365 12.1294 75.2296 11.5518C76.9334 10.1656 78.695 8.86606 80.4855 7.7109C81.323 7.1622 82.1894 6.64238 83.0558 6.15144C83.2579 6.03592 83.4889 5.94928 83.6911 5.83377C85.3372 4.93852 86.9833 4.18767 88.6294 3.52345C89.1203 3.3213 89.5824 3.09027 90.1022 2.91699C90.0734 2.91699 90.0445 2.91699 90.0156 2.91699C88.3984 3.26354 86.81 3.66785 85.2217 4.12991C82.2472 4.9674 79.3015 5.97816 76.4136 7.21996C70.2046 9.84794 64.4577 13.2845 59.1729 17.4431C58.9707 17.5875 58.7686 17.7319 58.5664 17.8763H68.4719C68.7029 17.6453 68.934 17.4142 69.1361 17.1832H69.165Z" fill="#EFF2F8"/>
<path d="M55.8215 37.3123C55.9947 36.9658 56.168 36.6481 56.3413 36.3016C57.6408 33.5581 59.0848 30.9301 60.6442 28.3887C60.9042 27.9555 61.1929 27.5224 61.4817 27.0892C62.4925 25.5008 63.5321 23.9703 64.6584 22.4685C65.5825 21.2556 66.5356 20.1005 67.5174 18.9453H57.1499C55.7926 20.0716 54.5219 21.2845 53.2512 22.5263C52.9913 22.7862 52.6736 23.0172 52.4137 23.2772C50.8254 24.8655 49.3526 26.5116 47.9375 28.2155C46.2914 30.1792 44.7319 32.2008 43.288 34.3089C42.7682 35.0598 42.2772 35.8395 41.7863 36.6192C41.6419 36.8503 41.4686 37.1102 41.3242 37.3412H55.8503L55.8215 37.3123Z" fill="#EFF2F8"/>
<path d="M55.36 38.4099C55.36 38.4099 55.36 38.3521 55.3889 38.3232H40.6606C40.1408 39.2185 39.6498 40.1715 39.13 41.0956C38.2636 42.7417 37.4262 44.4167 36.6753 46.1206C36.6175 46.265 36.5598 46.3805 36.502 46.496C36.3865 46.7559 36.2421 47.0158 36.1266 47.2757C35.0292 49.8748 34.134 52.5028 33.3253 55.1597C33.2676 55.3329 33.2098 55.5062 33.1809 55.6506C33.0654 55.9972 32.9788 56.3437 32.8633 56.6903H49.5553C50.8549 50.2791 52.7898 44.1279 55.3311 38.381L55.36 38.4099Z" fill="#EFF2F8"/>
<path d="M32.6064 57.7588C32.4331 58.4519 32.2887 59.145 32.1443 59.8092C31.9999 60.5023 31.7977 61.2243 31.6822 61.9174C31.1913 64.401 30.8447 66.9134 30.6137 69.4548C30.4116 71.6784 30.2672 73.9021 30.2383 76.1547H47.6234C47.6234 75.6637 47.6523 75.2017 47.6523 74.7107C47.6812 73.0358 47.7678 71.3897 47.8833 69.7436C47.8833 69.4259 47.8833 69.0793 47.9411 68.7617C47.9988 68.1841 48.0566 67.6065 48.1144 67.0289C48.4031 63.8811 48.8075 60.7911 49.385 57.7588H32.6064Z" fill="#EFF2F8"/>
<path d="M49.3822 95.5614C49.1512 94.3774 48.9779 93.1645 48.7758 91.9516C48.0249 87.1288 47.6206 82.1905 47.5917 77.1655H30.1777C30.1777 77.5987 30.1777 78.0319 30.2066 78.4651C30.2644 80.2267 30.351 81.9883 30.5243 83.7788L41.1517 77.2233L44.7905 83.6344L34.163 90.2188L31.5062 90.8253C31.6506 91.5761 31.8527 92.327 31.9971 93.0778C32.1704 93.9153 32.3148 94.7528 32.5458 95.5614H49.3245H49.3822Z" fill="#EFF2F8"/>
<path d="M36.1555 106.044C37.455 109.135 38.9856 112.138 40.6606 114.997H55.36C53.2229 110.145 51.548 105.034 50.2773 99.72C50.0174 98.6804 49.7575 97.6407 49.5553 96.6011H32.8633C33.1809 97.7851 33.5564 98.9403 33.9318 100.124C34.3939 101.51 34.8848 102.897 35.4335 104.254C35.6645 104.86 35.8667 105.438 36.1266 106.044H36.1555Z" fill="#EFF2F8"/>
<path d="M52.4133 130.099C53.915 131.63 55.5034 133.074 57.1206 134.431H67.4881C66.9394 133.767 66.4196 133.103 65.8998 132.438C65.8998 132.409 65.842 132.381 65.8132 132.323C65.4089 131.832 65.0045 131.37 64.6291 130.879C61.5968 126.894 58.9688 122.533 56.7163 117.912C56.6296 117.768 56.5719 117.623 56.4853 117.479C56.2542 117.017 55.9943 116.555 55.7922 116.064H41.2949C42.6522 118.288 44.1828 120.454 45.7712 122.533C47.8216 125.19 50.0164 127.731 52.4133 130.128V130.099Z" fill="#EFF2F8"/>
<path d="M90.1311 150.403C89.6402 150.229 89.1492 149.998 88.6583 149.796C87.6764 149.392 86.6945 148.93 85.7126 148.468C85.4527 148.352 85.1928 148.237 84.9329 148.121C84.673 147.977 84.3842 147.832 84.1243 147.717C83.7777 147.544 83.4023 147.37 83.0558 147.168C79.5614 145.204 76.2403 142.779 73.1214 140.006C71.5042 138.591 69.9447 137.089 68.443 135.443H58.5664C58.5664 135.443 58.7974 135.617 58.913 135.703C60.0104 136.57 61.1366 137.407 62.2629 138.216C62.6672 138.505 63.1004 138.793 63.5336 139.082C64.4577 139.717 65.4107 140.324 66.3637 140.901C66.768 141.161 67.1723 141.392 67.5766 141.652C68.7029 142.317 69.8581 142.952 71.0132 143.558C71.2443 143.674 71.4464 143.789 71.6775 143.905C72.1973 144.165 72.7171 144.396 73.2369 144.627C74.2766 145.118 75.3451 145.638 76.4136 146.1C80.861 147.977 85.4238 149.421 90.1022 150.403H90.1311Z" fill="#EFF2F8"/>
<path d="M92.8469 148.757C90.5943 147.139 88.4284 145.147 86.378 142.721C86.147 142.461 85.9159 142.23 85.6849 141.941C85.656 141.912 85.6271 141.854 85.5694 141.797C84.9052 140.988 84.241 140.122 83.6056 139.198C83.4035 138.909 83.2013 138.649 83.028 138.36C82.7681 137.985 82.4793 137.609 82.2194 137.205C81.9884 136.83 81.7574 136.425 81.4974 136.021C81.3819 135.819 81.2375 135.646 81.122 135.443H70.1191C70.6101 135.963 71.101 136.454 71.6208 136.945C72.7471 138.071 73.9023 139.14 75.1152 140.151C76.7324 141.508 78.3785 142.807 80.1113 143.963C81.2664 144.742 82.4793 145.464 83.6922 146.129C84.5875 146.648 85.5116 147.11 86.4357 147.544C87.3599 147.977 88.3129 148.381 89.237 148.757C89.468 148.843 89.6702 148.901 89.9012 148.988C90.8542 149.363 91.8361 149.71 92.7891 150.027C92.9913 150.085 93.1645 150.143 93.3667 150.2C94.4641 150.518 95.5615 150.836 96.6589 151.067C95.3593 150.432 94.1176 149.652 92.8758 148.757H92.8469Z" fill="#EFF2F8"/>
<path d="M101.797 151.587C101.797 151.587 101.537 151.327 101.393 151.211C100.902 150.749 100.411 150.172 99.9488 149.565C99.5733 149.103 99.2268 148.554 98.8514 148.006C98.6203 147.659 98.4182 147.313 98.1871 146.937C98.1871 146.937 98.1871 146.908 98.1583 146.879C97.5229 145.782 96.9453 144.482 96.3389 143.125C95.3859 140.873 94.4618 138.331 93.6243 135.443H82.5059C83.1123 136.425 83.7188 137.349 84.3541 138.245C84.4408 138.36 84.5274 138.476 84.614 138.591C86.4334 141.133 88.3683 143.385 90.4187 145.262C91.2851 146.042 92.1514 146.764 93.0467 147.399C95.126 148.93 97.263 150.114 99.4867 150.894C99.4867 150.894 99.4867 150.894 99.5156 150.894C100.266 151.154 101.017 151.385 101.768 151.558L101.797 151.587Z" fill="#EFF2F8"/>
<path d="M105.233 151.962V135.443H94.8945C97.8691 145.522 101.537 151.413 105.233 151.962Z" fill="#EFF2F8"/>
<path d="M91.1418 119.068C91.4305 120.83 91.7193 122.533 92.0659 124.208C92.1236 124.497 92.1814 124.757 92.2392 125.017C92.6146 126.836 92.99 128.627 93.3943 130.331C93.712 131.746 94.0874 133.074 94.434 134.374C94.434 134.374 94.434 134.374 94.434 134.403H105.235V116.007H90.6797C90.8241 117.046 90.9685 118.028 91.1418 119.039V119.068Z" fill="#EFF2F8"/>
<path d="M97.2917 114.997C94.837 114.42 92.4689 113.64 90.1875 112.629C90.303 113.409 90.3608 114.218 90.4763 114.997H97.2917Z" fill="#EFF2F8"/>
<path d="M93.9706 39.3629C95.0969 38.9875 96.2521 38.6987 97.4072 38.4388C97.5516 38.4099 97.6672 38.3521 97.8115 38.3232H90.4763C90.3608 39.1319 90.2741 39.9982 90.1875 40.8357C91.3427 40.3159 92.5267 39.8538 93.7107 39.4495C93.7974 39.4495 93.8551 39.3918 93.9418 39.3629H93.9706Z" fill="#EFF2F8"/>
<path d="M105.235 18.9155H94.4344C94.3477 19.2332 94.2611 19.5797 94.1745 19.9263C93.9145 20.9082 93.6258 21.9189 93.3947 22.9586C92.8172 25.4133 92.2685 28.0413 91.7775 30.7559C91.4021 32.8929 91.0267 35.0589 90.709 37.3114H105.264V18.9155H105.235Z" fill="#EFF2F8"/>
<path d="M97.5807 10.4254C96.6566 12.5625 95.7613 15.046 94.9238 17.8762H105.234V1.35742C104.974 1.3863 104.685 1.50182 104.425 1.61733C104.252 1.70397 104.078 1.76173 103.905 1.87724C103.674 2.02164 103.414 2.13715 103.183 2.31043C101.248 3.63886 99.3423 6.44012 97.6096 10.4543L97.5807 10.4254Z" fill="#EFF2F8"/>
<path d="M175.527 47.2757C174.227 44.1857 172.697 41.1823 171.022 38.3232H156.322C158.835 44.099 160.827 50.2791 162.127 56.7191H178.819C178.415 55.2463 177.953 53.8024 177.462 52.3584C177.404 52.1851 177.346 51.983 177.26 51.8097C177.173 51.5787 177.086 51.3477 177 51.1166C176.538 49.8171 176.047 48.5464 175.527 47.2757Z" fill="#EFF2F8"/>
<path d="M140.525 57.7588C140.728 58.1342 140.901 58.5096 141.103 58.8851C141.392 59.4338 141.652 60.0113 141.94 60.5889C142.143 61.0221 142.316 61.4264 142.489 61.8596C142.431 61.1954 142.374 60.5023 142.316 59.8092C142.258 59.1161 142.2 58.423 142.114 57.7588H140.525Z" fill="#EFF2F8"/>
<path d="M140.609 95.5608H142.111C142.255 94.3479 142.342 93.0773 142.458 91.8066C142.458 91.7488 142.487 91.6911 142.487 91.6333C142.487 91.6333 142.487 91.6911 142.458 91.6911C141.88 93.0195 141.302 94.2902 140.609 95.5608Z" fill="#EFF2F8"/>
<path d="M139.166 38.3232C139.397 39.103 139.599 39.9405 139.801 40.7491C139.946 41.2978 140.09 41.8465 140.206 42.4241C140.379 43.1171 140.523 43.7814 140.697 44.4745C141.188 46.6115 141.621 48.7774 142.025 50.9722C142.112 51.5209 142.227 52.0696 142.314 52.6183C142.516 53.7735 142.718 54.9286 142.891 56.1127C142.92 56.3148 142.949 56.517 142.978 56.7191H161.056C160.739 55.2174 160.392 53.7157 160.017 52.2429C159.959 52.0407 159.901 51.8386 159.872 51.6364C159.555 50.4524 159.208 49.2684 158.833 48.0843C158.659 47.5067 158.486 46.958 158.284 46.3805C157.937 45.3408 157.591 44.3301 157.215 43.3193C156.955 42.5684 156.667 41.8465 156.349 41.0956C155.974 40.1715 155.598 39.2185 155.194 38.3232H139.166Z" fill="#EFF2F8"/>
<path d="M154.674 37.3127C154.587 37.1106 154.472 36.9373 154.385 36.764C153.519 34.9158 152.566 33.0964 151.584 31.3637C150.66 29.7465 149.678 28.187 148.638 26.6564C147.858 25.5013 147.05 24.3461 146.212 23.2198C146.097 23.0465 145.981 22.9021 145.837 22.7578C145.75 22.6422 145.664 22.5556 145.606 22.469C144.653 21.256 143.7 20.072 142.718 18.9746H131.195C131.773 19.9854 132.322 21.025 132.87 22.0935C132.928 22.2091 132.986 22.3246 133.044 22.4112C133.072 22.469 133.13 22.5267 133.159 22.6134C133.159 22.6134 133.159 22.6134 133.159 22.6422C133.159 22.6422 133.159 22.7 133.188 22.7C133.448 23.1909 133.679 23.7396 133.91 24.2595C134.747 26.0211 135.556 27.8404 136.278 29.7465C136.278 29.8042 136.307 29.862 136.336 29.9197C137.26 32.3167 138.126 34.8003 138.906 37.3705H154.703L154.674 37.3127Z" fill="#EFF2F8"/>
<path d="M136.481 33.4716C136.25 32.7785 135.99 32.0854 135.73 31.3923C135.384 30.4682 135.037 29.6018 134.691 28.7065C134.46 28.129 134.229 27.5225 133.969 26.9449C133.565 26.0208 133.131 25.0967 132.698 24.2014C132.467 23.7105 132.236 23.2195 132.005 22.7286C131.572 21.8333 131.081 20.9959 130.619 20.1584C130.388 19.7252 130.157 19.292 129.926 18.8877H118.316C118.461 19.4364 118.605 20.014 118.721 20.5627C118.807 20.9381 118.894 21.2846 119.01 21.6601C119.067 21.8333 119.096 22.0066 119.154 22.1799C119.183 22.3243 119.241 22.4687 119.269 22.6131C119.327 22.873 119.385 23.1618 119.443 23.4217C119.5 23.6816 119.558 23.9415 119.616 24.2014C120.309 27.2048 120.916 30.4393 121.464 33.7604C121.666 34.9155 121.869 36.0418 122.042 37.2258H137.752C137.348 35.8974 136.914 34.6556 136.481 33.3849V33.4716Z" fill="#EFF2F8"/>
<path d="M132.468 47.6223C135.385 50.2502 137.898 53.3403 139.919 56.7191H141.97C141.739 55.073 141.508 53.4847 141.248 51.8963C140.41 47.1602 139.37 42.5973 138.129 38.3232H122.188C122.303 39.1896 122.39 40.1426 122.505 41.0379C126.144 42.7128 129.465 44.9076 132.411 47.5356C132.411 47.5356 132.468 47.5934 132.497 47.6223H132.468Z" fill="#EFF2F8"/>
<path d="M132.584 105.727C132.584 105.727 132.439 105.871 132.352 105.929C129.407 108.557 126.086 110.752 122.476 112.427C122.36 113.293 122.274 114.159 122.158 114.997H138.099C139.341 110.723 140.381 106.189 141.218 101.424C141.478 99.8355 141.709 98.2183 141.94 96.6011H140.005C140.005 96.6011 139.832 96.8899 139.745 97.0054C137.782 100.24 135.385 103.185 132.584 105.727Z" fill="#EFF2F8"/>
<path d="M132.034 130.532C132.236 130.157 132.41 129.724 132.612 129.348C133.074 128.366 133.536 127.385 133.998 126.374C134.229 125.854 134.431 125.334 134.662 124.785C135.067 123.832 135.442 122.851 135.817 121.84C136.02 121.291 136.222 120.742 136.395 120.194C136.857 118.836 137.348 117.479 137.781 116.064H122.071C121.811 117.854 121.522 119.587 121.205 121.291C120.772 123.688 120.338 126.027 119.847 128.222C119.674 129.06 119.472 129.868 119.299 130.677C119.27 130.85 119.212 131.023 119.154 131.197C119.068 131.543 118.952 131.89 118.894 132.236C118.692 132.987 118.519 133.738 118.346 134.46H129.955C130.677 133.218 131.37 131.919 132.063 130.561L132.034 130.532Z" fill="#EFF2F8"/>
<path d="M131.17 134.432H142.722C143.184 133.912 143.617 133.334 144.079 132.815C144.801 131.948 145.552 131.111 146.245 130.187C146.447 129.898 146.649 129.609 146.851 129.32C147.602 128.31 148.324 127.299 148.988 126.259C149.277 125.826 149.537 125.393 149.797 124.988C150.548 123.804 151.299 122.592 151.992 121.35C152.107 121.148 152.194 120.945 152.28 120.772C153.118 119.242 153.927 117.711 154.677 116.094H138.881C138.534 117.22 138.188 118.317 137.812 119.415C137.754 119.617 137.697 119.819 137.639 119.992C137.639 120.05 137.581 120.108 137.552 120.195C136.975 121.841 136.368 123.429 135.733 125.017C135.588 125.393 135.415 125.768 135.271 126.144C134.607 127.703 133.942 129.205 133.22 130.649C133.191 130.707 133.163 130.764 133.134 130.822C133.047 130.995 132.96 131.169 132.845 131.342C132.354 132.324 131.834 133.277 131.314 134.201C131.257 134.287 131.228 134.374 131.17 134.461V134.432Z" fill="#EFF2F8"/>
<path d="M155.165 114.997C155.743 113.669 156.291 112.34 156.811 110.983C156.984 110.492 157.158 110.03 157.331 109.539C157.649 108.701 157.937 107.864 158.226 106.997C158.457 106.362 158.659 105.698 158.833 105.063C159.092 104.196 159.352 103.301 159.612 102.406C159.786 101.799 159.959 101.164 160.103 100.529C160.421 99.2291 160.739 97.9295 161.027 96.6011H142.949V96.6588C142.516 99.8066 141.996 102.897 141.39 105.9C141.39 105.9 141.39 105.9 141.39 105.929C141.39 105.958 141.39 105.987 141.39 106.016C141.361 106.16 141.303 106.304 141.274 106.449C140.697 109.163 140.061 111.82 139.31 114.419C139.253 114.593 139.224 114.795 139.166 114.968H155.194L155.165 114.997Z" fill="#EFF2F8"/>
<path d="M145.059 81.9295C145.001 82.3916 144.914 82.8536 144.857 83.3157C144.712 84.1243 144.568 84.9329 144.366 85.7127C144.221 86.348 144.077 86.9833 143.904 87.6187C143.875 88.1674 143.788 88.6872 143.759 89.2359C143.644 90.7953 143.499 92.3548 143.326 93.9143C143.268 94.463 143.239 95.0406 143.182 95.5893H161.318C162.271 90.7376 162.819 85.7127 163.05 80.6011C163.079 79.4748 163.137 78.3485 163.137 77.1934H145.463C145.463 78.1464 145.405 79.0994 145.319 80.0524C145.261 80.6877 145.174 81.323 145.088 81.9584L145.059 81.9295Z" fill="#EFF2F8"/>
<path d="M144.829 70.0901C144.915 70.6099 145.002 71.1297 145.06 71.6496C145.118 72.1983 145.204 72.747 145.262 73.2957C145.349 74.2487 145.406 75.1728 145.406 76.1547H163.08C163.08 75.0284 163.023 73.9021 162.994 72.7758C162.763 67.6354 162.214 62.6393 161.261 57.7588H143.125C143.443 60.3001 143.674 62.957 143.847 65.6139C143.847 65.7005 143.847 65.816 143.847 65.9027C144.251 67.2888 144.54 68.675 144.8 70.0901H144.829Z" fill="#EFF2F8"/>
<path d="M145.923 21.1114C146.298 21.5734 146.645 21.9489 146.991 22.4109C148.782 24.7501 150.37 27.2915 151.872 29.8617C152.305 30.6126 152.767 31.3345 153.2 32.1143C153.605 32.8651 154.009 33.616 154.384 34.3668C154.731 35.0599 155.049 35.7241 155.395 36.4172C155.54 36.706 155.684 36.9948 155.828 37.2547H170.354C169.257 35.4642 168.044 33.7315 166.802 32.0565C164.521 28.9376 162.008 25.963 159.236 23.2195C159.034 23.0174 158.832 22.8441 158.63 22.6708C157.301 21.3713 155.944 20.0717 154.5 18.8877H144.104C144.71 19.5808 145.288 20.3316 145.894 21.0825L145.923 21.1114Z" fill="#EFF2F8"/>
<path d="M122.477 3.29242C122.477 3.29242 122.621 3.35018 122.679 3.37906C123.112 3.55233 123.574 3.75448 124.007 3.92776C124.701 4.21655 125.394 4.53421 126.087 4.88076C126.173 4.93852 126.289 4.9674 126.376 5.02516C127.126 5.3717 127.848 5.74713 128.599 6.15144C128.888 6.32471 129.177 6.49798 129.437 6.67126C129.639 6.81565 129.841 6.93117 130.072 7.04668C130.361 7.21996 130.65 7.42211 130.938 7.62426C131.747 8.11521 132.527 8.63503 133.306 9.18373C133.682 9.44364 134.057 9.73243 134.433 10.0212C135.155 10.541 135.848 11.0609 136.541 11.6384C136.916 11.9561 137.292 12.2738 137.696 12.6203C138.303 13.1401 138.909 13.66 139.487 14.2087C140.035 14.7285 140.584 15.2483 141.133 15.797C141.306 15.9703 141.479 16.1147 141.652 16.288C141.826 16.4612 141.999 16.6634 142.143 16.8367C142.49 17.1832 142.837 17.5297 143.183 17.8763H153.06C152.858 17.7319 152.655 17.5875 152.453 17.4431C148.959 14.6996 145.233 12.2738 141.306 10.1656C139.313 9.09709 137.321 8.11521 135.212 7.21996C132.18 5.94928 129.09 4.88076 125.942 4.01439C124.498 3.61009 123.026 3.23466 121.553 2.91699C121.842 3.03251 122.13 3.14802 122.448 3.29242H122.477Z" fill="#EFF2F8"/>
<path d="M119.184 4.7654C119.502 4.99643 119.819 5.28522 120.137 5.51625C121.032 6.20935 121.899 7.01796 122.765 7.85545C122.909 7.99984 123.054 8.11536 123.198 8.25975C123.574 8.63518 123.949 9.03949 124.324 9.44379C124.498 9.64594 124.671 9.81922 124.844 9.99249C125.22 10.3968 125.566 10.83 125.913 11.2632C126.028 11.4076 126.173 11.552 126.288 11.6964C126.346 11.783 126.404 11.8407 126.461 11.9274C126.866 12.4472 127.299 12.9959 127.703 13.5735C127.761 13.6601 127.848 13.7468 127.905 13.8623C127.963 13.9489 128.021 14.0067 128.05 14.0933C128.57 14.873 129.118 15.6816 129.667 16.4903C129.783 16.6924 129.927 16.8946 130.042 17.0967C130.216 17.3566 130.389 17.6165 130.562 17.8764H141.565C141.334 17.6165 141.074 17.3855 140.814 17.1545C140.439 16.779 140.035 16.3747 139.659 15.9993C137.869 14.2377 135.992 12.6205 134.057 11.1476C132.266 9.79034 130.447 8.57742 128.541 7.5089C128.367 7.42226 128.194 7.30675 128.021 7.19123C127.905 7.13347 127.761 7.07572 127.645 7.01796C126.548 6.4115 125.422 5.8628 124.324 5.34298C123.805 5.11195 123.256 4.93867 122.736 4.70764C120.195 3.668 117.653 2.80163 115.025 2.25293C115.776 2.59948 116.527 3.03266 117.249 3.46585C117.913 3.87015 118.549 4.27446 119.184 4.73652V4.7654Z" fill="#EFF2F8"/>
<path d="M110.606 2.42559C110.606 2.42559 110.722 2.5411 110.78 2.59886C111.213 3.06092 111.617 3.58075 112.05 4.15833C112.108 4.24496 112.195 4.36048 112.252 4.44711C112.657 5.02469 113.032 5.60227 113.436 6.29537C113.436 6.32425 113.465 6.35313 113.494 6.38201C113.494 6.38201 113.523 6.43976 113.552 6.46864C114.332 7.85483 115.083 9.47206 115.805 11.2626C115.805 11.3203 115.862 11.4069 115.891 11.4647C116.642 13.3418 117.335 15.45 117.999 17.7314V17.7892C117.999 17.7892 117.999 17.7892 117.999 17.8181H129.118C128.569 16.9517 128.02 16.1142 127.472 15.3345C126.807 14.3815 126.143 13.4862 125.45 12.6199C125.363 12.5043 125.248 12.3888 125.161 12.2733C122.533 9.03887 119.703 6.43976 116.7 4.59151C115.169 3.6385 113.581 2.85877 111.964 2.31007C111.53 2.1368 111.097 2.05016 110.664 1.93465C110.404 1.84801 110.115 1.76137 109.855 1.70361C110.087 1.93464 110.318 2.16568 110.549 2.39671L110.606 2.42559Z" fill="#EFF2F8"/>
<path d="M116.613 17.8762C116.237 16.6055 115.833 15.4215 115.457 14.2952C115.428 14.1797 115.371 14.0642 115.342 13.9486C114.822 12.5047 114.302 11.1763 113.754 9.96335C111.819 5.63151 109.71 2.80137 107.573 1.76173C107.14 1.55957 106.736 1.41518 106.303 1.35742V17.8762H116.641H116.613Z" fill="#EFF2F8"/>
<path d="M120.828 37.3123C120.828 37.1391 120.771 36.9658 120.742 36.7925V36.7348V36.5615C120.742 36.5615 120.684 36.2727 120.655 36.1283C120.337 34.0779 119.991 32.0564 119.616 30.1215C119.442 29.1396 119.24 28.2155 119.038 27.2913C118.749 25.8474 118.431 24.3746 118.114 22.9884C117.796 21.5733 117.45 20.216 117.074 18.9453H106.273V37.3412H120.857L120.828 37.3123Z" fill="#EFF2F8"/>
<path d="M120.943 40.3448C120.943 40.3448 121.145 40.4025 121.26 40.4603C121.174 39.7672 121.116 39.0163 121 38.3232H114.416C114.416 38.3232 114.647 38.381 114.763 38.4099C116.9 38.9008 118.979 39.5362 120.943 40.3448Z" fill="#EFF2F8"/>
<path d="M115.053 114.967C115.053 114.967 114.996 114.967 114.967 114.967H121.003C121.118 114.332 121.176 113.639 121.262 112.975C120.714 113.206 120.136 113.379 119.587 113.581C118.115 114.101 116.613 114.592 115.053 114.938V114.967Z" fill="#EFF2F8"/>
<path d="M106.273 134.432H117.074C117.45 133.132 117.796 131.804 118.114 130.389C118.114 130.389 118.114 130.36 118.114 130.331C118.72 127.819 119.269 125.133 119.789 122.332C119.818 122.13 119.847 121.927 119.904 121.725C120.251 119.877 120.569 117.971 120.857 116.036H106.302C106.302 116.036 106.36 116.036 106.389 116.036H106.302V134.432H106.273Z" fill="#EFF2F8"/>
<path d="M114.36 141.941C115.139 140.035 115.89 137.869 116.612 135.443H106.273V151.962C107.284 151.818 108.324 151.24 109.306 150.287C109.335 150.258 109.363 150.229 109.392 150.2C109.45 150.143 109.479 150.085 109.537 150.056C110.634 148.959 111.674 147.399 112.713 145.435C113.262 144.367 113.811 143.241 114.331 141.941H114.36Z" fill="#EFF2F8"/>
<path d="M116.094 149.074C120.454 146.533 124.498 142.461 128.05 137.118C128.31 136.743 128.569 136.339 128.858 135.934C128.974 135.761 129.089 135.617 129.176 135.443H118.058C117.798 136.367 117.509 137.205 117.22 138.071C116.065 141.595 114.823 144.598 113.495 146.966C113.408 147.139 113.292 147.284 113.206 147.428C113.177 147.486 113.119 147.544 113.09 147.63C113.004 147.775 112.917 147.861 112.859 147.977C112.137 149.132 111.386 150.085 110.607 150.865C110.376 151.096 110.174 151.385 109.943 151.558C109.943 151.558 109.914 151.587 109.885 151.616C110.318 151.529 110.751 151.385 111.184 151.269C111.3 151.24 111.386 151.211 111.502 151.182C111.791 151.096 112.08 150.98 112.339 150.894C112.599 150.807 112.859 150.72 113.09 150.605C114.101 150.201 115.112 149.681 116.094 149.103V149.074Z" fill="#EFF2F8"/>
<path d="M123.4 148.381C124.035 148.092 124.699 147.804 125.335 147.515C125.71 147.341 126.057 147.139 126.432 146.966C126.952 146.706 127.501 146.446 128.02 146.129C128.367 145.955 128.685 145.724 129.002 145.522C129.522 145.204 130.042 144.887 130.562 144.569L134.634 141.681C134.634 141.681 134.749 141.595 134.836 141.537C135.442 141.075 136.02 140.613 136.598 140.122C137.291 139.544 137.984 138.938 138.677 138.302C138.763 138.216 138.85 138.129 138.966 138.042C139.861 137.205 140.727 136.339 141.565 135.443H130.562C130.417 135.703 130.244 135.905 130.1 136.165C129.898 136.512 129.667 136.858 129.464 137.176C129.147 137.667 128.829 138.129 128.54 138.562C128.483 138.649 128.425 138.736 128.367 138.822C128.223 139.053 128.049 139.226 127.905 139.429C127.385 140.18 126.836 140.901 126.288 141.566C126.201 141.652 126.143 141.768 126.057 141.883C125.97 141.999 125.855 142.114 125.768 142.23C125.161 142.952 124.584 143.616 123.949 144.28C123.804 144.425 123.66 144.598 123.515 144.742C122.765 145.522 121.985 146.273 121.205 146.937C120.974 147.139 120.714 147.284 120.483 147.486C119.212 148.526 117.884 149.421 116.556 150.172C116.036 150.46 115.516 150.807 114.996 151.067C117.855 150.46 120.656 149.536 123.4 148.352V148.381Z" fill="#EFF2F8"/>
<path d="M143.183 135.443C142.519 136.165 141.826 136.858 141.133 137.523C140.931 137.725 140.757 137.927 140.555 138.129C138.274 140.353 135.877 142.345 133.335 144.136C131.776 145.233 130.216 146.273 128.599 147.168C127.791 147.601 126.982 148.006 126.173 148.381C125.625 148.641 125.047 148.901 124.498 149.132C124.21 149.276 123.892 149.421 123.603 149.536C123.314 149.652 123.054 149.767 122.766 149.883C122.361 150.056 121.957 150.229 121.553 150.403C126.231 149.421 130.794 147.977 135.241 146.1C136.916 145.378 138.562 144.569 140.18 143.76C140.642 143.529 141.104 143.298 141.566 143.039C143.125 142.201 144.656 141.306 146.158 140.353C146.273 140.266 146.418 140.208 146.533 140.122C147.255 139.66 147.948 139.169 148.67 138.707C150.172 137.667 151.673 136.599 153.117 135.443H143.212H143.183Z" fill="#EFF2F8"/>
<path d="M155.858 116.036C154.616 118.693 153.287 121.263 151.815 123.746C150.717 125.566 149.562 127.327 148.32 129.031C147.887 129.638 147.454 130.273 147.021 130.851C146.645 131.342 146.241 131.804 145.837 132.295C145.259 132.988 144.71 133.71 144.133 134.403H154.529C156.146 133.045 157.735 131.601 159.237 130.071C160.218 129.089 161.171 128.049 162.124 127.01C162.182 126.923 162.269 126.865 162.327 126.779C162.413 126.663 162.5 126.577 162.586 126.461C162.702 126.317 162.817 126.172 162.933 126.028C164.088 124.699 165.157 123.342 166.225 121.956C166.572 121.494 166.918 121.003 167.265 120.512C168.333 119.039 169.373 117.537 170.326 116.007H155.829L155.858 116.036Z" fill="#EFF2F8"/>
<path d="M162.011 97.0054C161.52 99.3446 160.914 101.684 160.249 103.936C159.499 106.478 158.69 108.961 157.737 111.416C157.275 112.629 156.813 113.813 156.293 114.997H170.992C172.667 112.138 174.198 109.135 175.497 106.044C175.96 104.976 176.364 103.85 176.768 102.752C177.519 100.731 178.212 98.6804 178.79 96.6011H162.098C162.098 96.6011 162.04 96.861 162.011 97.0054Z" fill="#EFF2F8"/>
<path d="M164.09 77.1655C164.09 79.3026 163.974 81.4396 163.83 83.5478C163.772 84.2409 163.714 84.9051 163.657 85.5982C163.483 87.5331 163.281 89.468 163.021 91.374C162.819 92.789 162.588 94.1752 162.328 95.5614H179.107C179.771 92.9623 180.291 90.3343 180.666 87.6775C181.157 84.212 181.475 80.7176 181.504 77.1944H164.119L164.09 77.1655Z" fill="#EFF2F8"/>
<path d="M164.087 76.1547H181.473C181.473 73.6422 181.27 71.1586 181.01 68.7039C180.606 65.0074 180 61.3687 179.076 57.7588H162.297C162.297 57.7588 162.297 57.8454 162.297 57.8743C162.499 59.0006 162.701 60.1557 162.874 61.3109C163.625 66.1626 164.03 71.1297 164.058 76.1836L164.087 76.1547Z" fill="#EFF2F8"/>
<path d="M182.545 76.5292C182.487 69.9737 181.679 63.5626 180.033 57.3247C180.033 57.3247 180.004 57.0648 179.975 56.9782C179.051 53.5705 177.896 50.1916 176.51 46.8706C175.181 43.7227 173.593 40.6616 171.889 37.7159C171.86 37.6004 171.802 37.4849 171.687 37.3983C168.481 31.9979 164.583 27.0018 160.049 22.5256C158.518 20.9372 156.93 19.4933 155.284 18.1071C155.226 17.9916 155.11 17.905 154.995 17.8472C149.161 12.9955 142.721 9.03911 135.675 6.06458C126.664 2.25256 117.077 0.231032 107.171 0.028879H106.363C106.189 0 106.016 0 105.843 0C105.641 0 105.496 0 105.323 0.028879H104.514C94.6377 0.231032 85.021 2.25256 75.9819 6.06458C68.9643 9.03911 62.5243 12.9955 56.6907 17.8472C56.5752 17.905 56.4597 17.9916 56.4019 18.1071C54.7558 19.4933 53.1675 20.9372 51.6369 22.5256C47.1029 27.0018 43.2043 31.9979 39.9987 37.3983C39.8832 37.4849 39.8254 37.6004 39.7965 37.7159C38.0349 40.6616 36.5043 43.7227 35.1759 46.8706C33.7897 50.1916 32.6346 53.5705 31.7104 56.9782C31.6527 57.0648 31.5949 57.1515 31.5949 57.2959C29.9777 63.5626 29.1691 69.9737 29.1691 76.5292C29.1113 76.6159 29.1113 76.6736 29.1113 76.7314C29.1113 76.7892 29.1113 76.8469 29.1691 76.9335C29.1691 79.3016 29.2557 81.6408 29.4868 84.0089L30.4686 83.8067H30.4975L30.5553 83.7779C30.382 82.0162 30.2954 80.2546 30.2376 78.4641C30.2376 78.031 30.2087 77.5978 30.2087 77.1646H47.6227C47.6227 82.1895 48.0559 87.1567 48.7779 91.9506C48.9512 93.1635 49.1533 94.3764 49.3844 95.5605H32.6057C32.3747 94.7519 32.2303 93.9144 32.057 93.0769C31.8837 92.326 31.6816 91.5752 31.5372 90.8243H31.4505L30.4686 91.0842C30.7863 92.7592 31.1617 94.4631 31.5949 96.1381C31.5949 96.3113 31.6527 96.398 31.7104 96.4846C32.6346 99.8923 33.7897 103.271 35.1759 106.592C36.5043 109.74 38.0349 112.801 39.7965 115.747C39.8254 115.862 39.8832 115.978 39.9987 116.065C43.2043 121.436 47.1029 126.461 51.6369 130.937C53.1675 132.497 54.7558 133.969 56.4019 135.356C56.4597 135.471 56.5752 135.558 56.6907 135.587C62.5243 140.467 68.9643 144.424 75.9819 147.398C85.021 151.21 94.5799 153.232 104.485 153.405H105.323C105.496 153.463 105.641 153.463 105.843 153.463C106.016 153.463 106.189 153.463 106.363 153.405H107.2C117.077 153.232 126.664 151.21 135.675 147.398C142.721 144.424 149.161 140.467 154.995 135.587C155.11 135.558 155.226 135.471 155.284 135.356C156.93 133.969 158.518 132.497 160.049 130.937C164.583 126.461 168.481 121.436 171.687 116.065C171.802 115.978 171.86 115.862 171.889 115.747C173.593 112.801 175.181 109.74 176.51 106.592C177.896 103.271 179.051 99.8923 179.975 96.4846C180.004 96.398 180.033 96.3113 180.033 96.1669C181.679 89.9002 182.487 83.4891 182.545 76.9335C182.574 76.8469 182.574 76.7892 182.574 76.7314C182.574 76.6736 182.574 76.6159 182.545 76.5292ZM173.419 42.712C174.17 44.2137 174.863 45.7154 175.528 47.2749C176.047 48.5455 176.538 49.8162 177 51.1158C177.087 51.3468 177.174 51.5778 177.232 51.8089C177.289 51.9821 177.347 52.1843 177.434 52.3576C177.925 53.8015 178.387 55.2455 178.791 56.7183H162.099C160.799 50.2783 158.807 44.0982 156.294 38.3224H171.023C171.86 39.7663 172.669 41.2103 173.419 42.712ZM136.31 29.8608C136.31 29.8608 136.281 29.7453 136.252 29.6876C135.53 27.7816 134.722 25.9622 133.884 24.2006C133.624 23.6807 133.393 23.132 133.133 22.6411C133.133 22.6411 133.133 22.6122 133.133 22.5833C133.133 22.5833 133.133 22.5833 133.133 22.5545C133.104 22.4967 133.076 22.439 133.018 22.3523C132.96 22.2368 132.902 22.1213 132.845 22.0346C132.296 20.9661 131.747 19.8976 131.17 18.9157H142.721C143.703 20.0131 144.656 21.1972 145.609 22.4101C145.696 22.5256 145.782 22.6122 145.84 22.6989C145.984 22.8433 146.1 22.9877 146.216 23.1609C147.053 24.2872 147.862 25.4135 148.641 26.5975C149.652 28.1281 150.663 29.6876 151.587 31.3048C152.569 33.0664 153.522 34.8858 154.388 36.734C154.475 36.9073 154.59 37.0806 154.677 37.2827H138.851C138.101 34.7125 137.234 32.2289 136.31 29.832V29.8608ZM137.783 37.3116H122.044C121.871 36.1276 121.668 35.0013 121.466 33.8461C120.918 30.4962 120.311 27.2906 119.618 24.2872C119.56 24.0273 119.502 23.7674 119.445 23.5075C119.387 23.2476 119.329 22.9588 119.271 22.6989C119.243 22.5256 119.185 22.4101 119.156 22.2657C119.098 22.0924 119.069 21.9191 119.012 21.7747C118.925 21.3993 118.838 21.0239 118.723 20.6485C118.578 20.0709 118.434 19.4933 118.318 18.9735H129.928C130.159 19.3778 130.39 19.8398 130.621 20.2442C131.083 21.0816 131.545 21.9191 132.007 22.8144C132.238 23.2764 132.469 23.7963 132.7 24.2872C133.133 25.1825 133.567 26.0777 133.971 27.0307C134.231 27.6083 134.462 28.1859 134.693 28.7923C135.039 29.6587 135.415 30.5539 135.732 31.4781C135.992 32.1712 136.223 32.8643 136.483 33.5574C136.628 33.9905 136.801 34.3948 136.945 34.828C137.234 35.6655 137.523 36.5319 137.783 37.3983V37.3116ZM155.197 38.3224C155.515 39.0444 155.832 39.7663 156.092 40.5172C156.179 40.7193 156.237 40.9215 156.323 41.0948C156.641 41.8167 156.93 42.5676 157.19 43.3184C157.218 43.4051 157.247 43.4917 157.276 43.5784C157.623 44.4158 157.911 45.2822 158.171 46.1486C158.171 46.2352 158.229 46.3219 158.258 46.3796C158.46 46.9572 158.633 47.5059 158.807 48.0835C158.864 48.2567 158.922 48.4011 158.951 48.5744C159.211 49.3253 159.413 50.0761 159.615 50.827C159.702 51.0869 159.76 51.3757 159.818 51.6356C159.875 51.8377 159.933 52.0399 159.962 52.242C160.049 52.5886 160.135 52.9063 160.222 53.2528C160.395 53.917 160.568 54.5812 160.684 55.2454C160.828 55.7364 160.915 56.2273 161.03 56.7183H142.923C142.923 56.5161 142.866 56.314 142.837 56.1118C142.663 54.9278 142.461 53.7726 142.259 52.6175C142.172 52.0688 142.057 51.5201 141.97 50.9714C141.595 48.7766 141.133 46.6106 140.642 44.4736C140.497 43.7805 140.324 43.1163 140.18 42.4232C140.064 41.8745 139.92 41.3258 139.775 40.7482C139.573 39.9396 139.371 39.1021 139.111 38.3224H155.168H155.197ZM158.662 22.6989C158.864 22.901 159.096 23.0743 159.269 23.2476C162.041 26.0199 164.554 28.9945 166.835 32.0845C168.077 33.7884 169.29 35.5211 170.387 37.3116H155.861C155.717 37.0228 155.572 36.734 155.428 36.4741C155.081 35.781 154.764 35.0879 154.417 34.4237C154.042 33.6729 153.637 32.922 153.233 32.1712C152.829 31.3914 152.338 30.6695 151.905 29.9186C150.403 27.3195 148.815 24.807 147.024 22.4678C146.678 22.0058 146.331 21.6303 145.956 21.1683C145.349 20.4174 144.772 19.6955 144.165 18.9735H154.562C156.005 20.1575 157.363 21.4282 158.691 22.7566L158.662 22.6989ZM121.582 2.91678C123.055 3.23444 124.527 3.60987 125.971 4.01418C129.119 4.88054 132.209 5.94907 135.242 7.21974C137.321 8.11499 139.342 9.09687 141.335 10.1654C145.263 12.2447 148.988 14.6705 152.482 17.4429C152.684 17.5873 152.887 17.7317 153.089 17.8761H143.154C142.837 17.5007 142.49 17.1541 142.144 16.8076C141.97 16.6343 141.826 16.4321 141.653 16.2589C141.479 16.0856 141.306 15.9412 141.133 15.7679C140.584 15.2192 140.035 14.6994 139.487 14.1796C138.909 13.6309 138.303 13.111 137.696 12.5912C137.321 12.2736 136.945 11.927 136.541 11.6093C135.848 11.0606 135.155 10.5119 134.433 9.99212C134.057 9.70333 133.682 9.44342 133.307 9.15463C132.527 8.60593 131.718 8.11499 130.939 7.59517C130.65 7.42189 130.361 7.21974 130.072 7.04647C129.87 6.90207 129.668 6.78656 129.437 6.64216C129.148 6.46889 128.859 6.26673 128.599 6.12234C127.877 5.71803 127.127 5.34261 126.376 4.99606C126.289 4.9383 126.174 4.90942 126.087 4.85167C125.394 4.534 124.701 4.21633 124.008 3.89866C123.574 3.72539 123.112 3.52323 122.679 3.34996C122.593 3.32108 122.535 3.2922 122.477 3.26332C122.159 3.11893 121.842 3.00341 121.495 2.8879H121.582V2.91678ZM115.026 2.25256C117.654 2.80126 120.224 3.66763 122.737 4.70727C123.257 4.90942 123.805 5.0827 124.325 5.34261C125.452 5.83355 126.549 6.41113 127.646 7.01759C127.762 7.07535 127.906 7.1331 128.022 7.19086C128.195 7.2775 128.368 7.39301 128.542 7.50853C130.448 8.60593 132.296 9.78997 134.057 11.1473C135.992 12.6201 137.869 14.2373 139.66 15.9989C140.035 16.3744 140.44 16.7498 140.815 17.1541C141.075 17.3851 141.306 17.6162 141.566 17.8761L130.534 17.905C130.361 17.6162 130.217 17.3563 130.043 17.0963C129.928 16.8942 129.783 16.692 129.668 16.4899C129.148 15.6813 128.599 14.8727 128.051 14.0929C127.993 14.0063 127.935 13.9485 127.906 13.8619C127.848 13.7753 127.762 13.6886 127.704 13.5731C127.3 13.0244 126.895 12.4757 126.462 11.927C126.405 11.8404 126.347 11.7826 126.289 11.696C126.174 11.5516 126.029 11.4072 125.914 11.2628C125.567 10.8296 125.192 10.3964 124.845 9.99212C124.672 9.78997 124.499 9.61669 124.325 9.44342C123.95 9.03911 123.574 8.63481 123.199 8.25938C123.055 8.11499 122.91 7.99947 122.766 7.85508C121.899 7.01759 121.033 6.20898 120.138 5.51588C119.82 5.25597 119.502 4.99606 119.185 4.76503C118.549 4.30296 117.885 3.86978 117.25 3.49435C116.499 3.03229 115.748 2.62799 114.968 2.25256C114.968 2.25256 114.997 2.25256 115.026 2.25256ZM110.723 1.99265C111.156 2.10816 111.59 2.22368 112.023 2.36807C113.64 2.91677 115.228 3.69651 116.759 4.64951C119.762 6.49777 122.593 9.09687 125.221 12.3313C125.307 12.4468 125.423 12.5623 125.509 12.6779C126.202 13.5442 126.867 14.4395 127.531 15.3925C128.08 16.2011 128.657 17.0097 129.177 17.8761L118.059 17.905V17.8472C118.059 17.8472 118.059 17.8183 118.03 17.7894C117.365 15.4791 116.672 13.371 115.921 11.4938C115.921 11.4072 115.864 11.3494 115.835 11.2917C115.113 9.50118 114.362 7.88396 113.582 6.49777C113.582 6.46889 113.525 6.44001 113.525 6.41113C113.525 6.38225 113.496 6.35337 113.467 6.32449C113.091 5.66028 112.687 5.05382 112.283 4.47624C112.225 4.3896 112.138 4.27409 112.081 4.18745C111.676 3.60987 111.243 3.09005 110.81 2.62799C110.752 2.57023 110.694 2.51247 110.637 2.45471C110.406 2.22368 110.146 1.99265 109.944 1.76162C110.232 1.81937 110.492 1.93489 110.781 2.02153L110.723 1.99265ZM106.247 1.35731H106.276C106.709 1.41507 107.113 1.55946 107.547 1.76162C109.684 2.83014 111.792 5.6314 113.727 9.96324C114.275 11.1762 114.795 12.5046 115.315 13.9485C115.373 14.0641 115.402 14.1796 115.431 14.2951C115.835 15.4214 116.239 16.5765 116.615 17.8761L106.247 17.905V1.35731ZM106.247 18.9157H117.077C117.452 20.1864 117.799 21.5437 118.116 22.9588C118.434 24.3161 118.723 25.7889 119.04 27.2617C119.243 28.2147 119.445 29.1389 119.618 30.0919C119.993 32.0556 120.34 34.0483 120.658 36.0987L120.715 36.5319V36.7052L120.744 36.7629C120.802 36.9362 120.831 37.1095 120.86 37.3116H106.247V18.9157ZM103.677 1.96377C103.677 1.96377 103.821 1.90601 103.879 1.84825C104.052 1.76162 104.226 1.67498 104.399 1.58834C104.485 1.55946 104.601 1.47283 104.688 1.44395C104.861 1.38619 105.034 1.35731 105.207 1.32843V17.8472H94.8687C95.7062 15.0171 96.6015 12.5335 97.5256 10.3964C99.2872 6.38225 101.164 3.58099 103.099 2.25256C103.272 2.13704 103.446 2.02153 103.619 1.93489L103.677 1.96377ZM56.9795 37.3116C57.4993 36.1853 58.0769 35.0591 58.6545 33.9617C59.0299 33.2397 59.4631 32.5755 59.8385 31.8535C60.1851 31.247 60.5028 30.6406 60.8493 30.063C61.9756 28.157 63.1596 26.3087 64.4303 24.5471C64.7768 24.0851 65.0945 23.5941 65.4411 23.1609C65.5277 23.0454 65.6432 22.9299 65.7299 22.7855C66.7695 21.4282 67.838 20.0998 68.9643 18.8868H80.5159C80.3715 19.1179 80.256 19.3489 80.1116 19.6088C79.9094 19.9554 79.7073 20.3308 79.5051 20.6773C79.1874 21.2838 78.8409 21.8903 78.5521 22.5256C78.5521 22.5256 78.5521 22.5833 78.5232 22.5833C78.1767 23.2187 77.8879 23.9118 77.5702 24.6338C76.7905 26.2799 76.0685 27.9837 75.3754 29.7453C75.3754 29.8031 75.3465 29.832 75.3177 29.8897C74.8845 31.0449 74.4224 32.2578 74.0181 33.4418C73.7004 34.3948 73.4117 35.3478 73.1229 36.3297C73.0362 36.6474 72.9207 36.9651 72.8052 37.2827H56.9506L56.9795 37.3116ZM72.5453 38.3224C72.4298 38.6689 72.3431 39.0444 72.2565 39.4198C71.5923 41.759 71.0147 44.127 70.4949 46.5818C70.4371 46.8128 70.3794 47.0438 70.3216 47.2749C70.2638 47.5059 70.235 47.7369 70.2061 47.968C69.6574 50.7403 69.1664 53.5705 68.7621 56.4295C68.7621 56.5161 68.7333 56.6316 68.7044 56.7183H50.5973C50.7128 56.2273 50.7994 55.7364 50.9438 55.2454C51.0593 54.5812 51.2326 53.917 51.4059 53.2528C51.4636 52.964 51.5503 52.6752 51.6369 52.4153C51.7236 52.0976 51.7813 51.8089 51.868 51.4912C51.9257 51.2602 51.9835 51.058 52.0412 50.827C52.2434 50.0761 52.4455 49.3253 52.7054 48.5744C52.7343 48.4589 52.7921 48.3434 52.821 48.2279C53.0231 47.5636 53.2253 46.8994 53.4563 46.2063C53.4563 46.2063 53.4563 46.1486 53.4563 46.1197C53.7162 45.2533 54.005 44.387 54.3515 43.5495C54.3515 43.4917 54.4093 43.4051 54.4382 43.3473C54.5826 42.8853 54.7847 42.3943 54.9869 41.9323C55.0158 41.8456 55.0446 41.759 55.0735 41.6723C55.3045 40.9792 55.5933 40.2862 55.9399 39.5931C56.0843 39.1599 56.2576 38.7267 56.4597 38.2935H72.5164L72.5453 38.3224ZM76.0974 30.9582C76.9926 28.5613 77.9745 26.3087 78.9853 24.1717C79.8517 22.3234 80.7758 20.5618 81.7577 18.9157H93.367C93.2804 19.2911 93.1649 19.7532 93.0493 20.1575C93.0493 20.1575 93.0493 20.1864 93.0493 20.2153C92.9916 20.4174 92.9627 20.5907 92.905 20.7929C92.7606 21.3993 92.5873 22.0058 92.414 22.67C92.0386 24.2583 91.6632 25.9333 91.3166 27.666C90.7102 30.7272 90.1326 33.9328 89.6416 37.3116H73.9026C74.5957 35.1168 75.3177 33.0087 76.0974 30.9582ZM90.6813 37.3116C90.9989 35.0591 91.3744 32.8931 91.7498 30.7561C92.2407 28.0415 92.7894 25.4135 93.367 22.9588C93.6269 21.8903 93.9157 20.9084 94.1756 19.9265C94.2623 19.6088 94.3489 19.2334 94.4355 18.9157H105.236V37.3116H90.6813ZM101.8 1.73274C101.655 1.87713 101.511 2.02153 101.366 2.13704C101.222 2.28144 101.049 2.42583 100.904 2.57023C100.529 2.94565 100.182 3.37884 99.8359 3.8409C99.7781 3.92754 99.7204 4.01418 99.6338 4.10081C99.2872 4.59175 98.9118 5.11158 98.5941 5.71803C98.4497 5.92019 98.3342 6.12234 98.1898 6.35337C98.1898 6.38225 98.1609 6.41113 98.132 6.44001C97.7855 7.04647 97.4389 7.71068 97.1213 8.40378C96.2549 10.1943 95.4174 12.2736 94.6377 14.6128C94.2911 15.6524 93.9735 16.692 93.6269 17.8472L82.5085 17.8761C84.6456 14.4106 86.9559 11.4361 89.4106 8.98136C92.1252 6.29561 95.0131 4.27409 98.0165 2.97453C99.2583 2.42583 100.529 1.99265 101.8 1.70386V1.73274ZM94.6088 2.77238C94.6088 2.77238 94.6666 2.77238 94.7243 2.77238C95.3597 2.59911 96.0239 2.42583 96.6592 2.28144C93.8291 3.63875 91.0856 5.71803 88.4576 8.31714C87.158 9.61669 85.8585 11.0318 84.6456 12.649C84.5878 12.7356 84.5301 12.7934 84.4723 12.88C83.3171 14.4395 82.1909 16.1145 81.1223 17.9338H70.0906C70.6393 17.3274 71.2169 16.7787 71.7944 16.2011C72.1699 15.8257 72.5453 15.4214 72.9496 15.0748C73.2961 14.7571 73.6427 14.4684 73.9892 14.1507C76.7616 11.6671 79.6784 9.53006 82.7973 7.71068C83.0861 7.53741 83.3749 7.36414 83.6637 7.19086C84.5878 6.67104 85.5119 6.20898 86.4361 5.77579C89.1218 4.50512 91.8364 3.52323 94.6088 2.77238ZM58.5967 17.8761C58.7989 17.7317 59.0011 17.5873 59.2032 17.4429C64.4881 13.2843 70.235 9.84773 76.4439 7.21974C79.3318 6.00682 82.2775 4.99606 85.252 4.12969C86.8404 3.66763 88.4287 3.26332 90.0459 2.91678C90.0748 2.91678 90.1037 2.91678 90.1326 2.91678C89.6128 3.09005 89.1507 3.32108 88.6597 3.52323C87.0136 4.18745 85.3675 4.9383 83.7214 5.83355C83.5193 5.94907 83.2883 6.0357 83.0861 6.15122C82.2197 6.64216 81.3534 7.16198 80.5159 7.71068C78.7254 8.86584 76.9638 10.1654 75.2599 11.5516C74.5379 12.1292 73.8448 12.7356 73.1517 13.3421C71.7944 14.555 70.466 15.8257 69.1953 17.183C68.9643 17.414 68.7333 17.645 68.5311 17.8761H68.5022L58.5967 17.905V17.8761ZM41.7892 36.5896C42.2801 35.8099 42.7711 35.0302 43.2909 34.2793C44.7348 32.1712 46.2943 30.1496 47.9404 28.1859C49.3555 26.482 50.8283 24.8359 52.4166 23.2476C52.6766 22.9877 52.9654 22.7566 53.2541 22.4967C54.5248 21.2549 55.7955 20.042 57.1528 18.9157H67.5203C66.5385 20.0709 65.5855 21.226 64.6613 22.439C63.535 23.9407 62.4954 25.5001 61.4846 27.0596C61.1959 27.4928 60.9359 27.926 60.6472 28.3591C59.0877 30.9005 57.6437 33.5574 56.3442 36.3009C56.1709 36.6474 55.9976 36.9651 55.8244 37.3116H41.2983C41.4426 37.0517 41.6159 36.8207 41.7892 36.5896ZM32.8945 56.7183C32.9811 56.3717 33.0966 56.0252 33.2121 55.6786C33.2699 55.5054 33.3277 55.3321 33.3565 55.1877C34.1651 52.502 35.0604 49.874 36.1578 47.2749C36.2733 47.0149 36.4177 46.755 36.5332 46.4951C36.591 46.3796 36.6487 46.2641 36.7065 46.1197C37.4573 44.4158 38.2948 42.7409 39.1612 41.0948C39.6522 40.1706 40.1431 39.2176 40.6629 38.3224H55.3912C55.3912 38.3224 55.3623 38.3801 55.3623 38.409C52.821 44.1559 50.8861 50.3071 49.5865 56.7183H32.8945ZM47.9404 68.7608C47.9404 69.0785 47.9404 69.425 47.8827 69.7427C47.7671 71.3888 47.6516 73.0349 47.6516 74.7099C47.6516 75.2008 47.6516 75.6629 47.6516 76.1538H30.2376C30.2665 73.9013 30.4109 71.6776 30.613 69.4539C30.8729 66.9125 31.1906 64.4001 31.6816 61.9165C31.826 61.2234 31.9992 60.5014 32.1725 59.8083C32.3169 59.1152 32.4613 58.451 32.6346 57.7579L49.4132 57.729C48.8357 60.7902 48.4314 63.9091 48.1426 67.0281C48.0848 67.6056 47.9982 68.1832 47.9693 68.7608H47.9404ZM38.266 110.606C37.5151 109.105 36.822 107.574 36.1578 106.044C35.9268 105.466 35.7246 104.859 35.4647 104.253C34.916 102.896 34.4251 101.51 33.963 100.123C33.5876 98.9682 33.2121 97.7842 32.8945 96.6001H49.5865C49.7887 97.6398 50.0486 98.6794 50.3085 99.719C51.5792 105.033 53.2541 110.144 55.3912 114.996L40.6629 115.025C39.7965 113.552 39.0168 112.079 38.266 110.606ZM74.0759 119.934C74.1336 120.079 74.1914 120.223 74.2491 120.368C74.8267 121.956 75.4043 123.544 76.0396 125.075C76.1552 125.364 76.2707 125.652 76.4151 125.941C77.1082 127.587 77.8301 129.204 78.6099 130.764C78.6099 130.764 78.6099 130.822 78.6387 130.851C78.9275 131.457 79.2452 132.035 79.5629 132.641C79.8228 133.161 80.1116 133.652 80.4292 134.143C80.487 134.229 80.5448 134.316 80.5736 134.432H69.022C68.1557 133.479 67.376 132.468 66.5673 131.457C66.2208 131.024 65.8454 130.62 65.4988 130.157C64.4014 128.714 63.3907 127.212 62.3799 125.681C62.12 125.306 61.8889 124.902 61.629 124.497C60.676 122.938 59.7519 121.378 58.8855 119.761C58.8855 119.732 58.8567 119.703 58.8278 119.674C58.1924 118.49 57.586 117.277 57.0084 116.036H72.863C73.0362 116.642 73.2384 117.22 73.4405 117.826C73.6716 118.548 73.8737 119.27 74.1047 119.934H74.0759ZM73.9026 116.036H89.6416C90.1615 119.472 90.7102 122.736 91.3455 125.826C91.6054 127.01 91.8653 128.165 92.1252 129.32C92.2119 129.753 92.3274 130.215 92.414 130.62C92.5295 131.082 92.645 131.486 92.7317 131.919C92.8183 132.323 92.9338 132.728 93.0493 133.132C93.1649 133.565 93.2804 133.998 93.367 134.432H81.7577C81.2956 133.623 80.8624 132.785 80.4292 131.948C79.0431 129.349 77.7435 126.519 76.5595 123.515C76.3573 123.024 76.184 122.533 76.0108 122.071C75.722 121.321 75.4332 120.599 75.1733 119.848C74.7401 118.606 74.3069 117.335 73.9026 116.036ZM56.4886 115.025C56.2287 114.418 55.9399 113.783 55.7377 113.177C55.5933 112.917 55.4778 112.686 55.4201 112.426C55.3334 112.224 55.2757 112.021 55.189 111.819C54.8136 110.895 54.4671 110 54.1494 109.076C54.1205 108.989 54.0628 108.874 54.0339 108.787C53.8895 108.498 53.8028 108.209 53.7162 107.921C53.6296 107.69 53.5718 107.43 53.4852 107.199C53.2253 106.448 52.9654 105.697 52.7632 104.917C52.7054 104.744 52.6477 104.571 52.5899 104.397C52.4455 103.964 52.3011 103.531 52.2145 103.098C52.1567 102.953 52.1279 102.78 52.099 102.607C51.868 101.885 51.6947 101.134 51.5214 100.383C51.4636 100.152 51.4059 99.9501 51.3481 99.719C51.2037 99.2281 51.0882 98.7372 51.0016 98.2173C50.8572 97.6975 50.7417 97.1777 50.6262 96.629H68.7333C68.7333 96.629 68.7621 96.86 68.791 96.9756C69.1953 99.8346 69.6574 102.607 70.2061 105.322C70.2638 105.553 70.2927 105.813 70.3505 106.044C70.4082 106.275 70.466 106.506 70.5238 106.766C71.0725 109.307 71.6789 111.79 72.372 114.216C72.4586 114.476 72.5164 114.765 72.603 115.025H56.5463H56.4886ZM52.4166 130.1C50.0197 127.703 47.8249 125.161 45.7745 122.505C44.1861 120.396 42.6844 118.259 41.2983 116.036H55.8244C56.0554 116.527 56.2864 116.989 56.5175 117.451C56.6041 117.595 56.6619 117.74 56.7485 117.884C59.0011 122.505 61.629 126.865 64.6613 130.851C65.0368 131.37 65.4411 131.832 65.8454 132.323C65.8454 132.352 65.9031 132.381 65.932 132.41C66.4518 133.074 66.9716 133.767 67.5203 134.403H57.1239C55.5067 133.016 53.9184 131.601 52.4166 130.071V130.1ZM76.4439 146.128C75.3465 145.665 74.3069 145.146 73.2673 144.626C72.7474 144.366 72.2276 144.164 71.7078 143.904C71.4768 143.788 71.2746 143.673 71.0436 143.557C69.8884 142.951 68.7333 142.316 67.607 141.651C67.2027 141.42 66.7984 141.16 66.3941 140.9C65.4411 140.323 64.4881 139.688 63.5639 139.081C63.1307 138.792 62.7264 138.503 62.2933 138.215C61.167 137.406 60.0407 136.569 58.9433 135.702C58.8278 135.616 58.7123 135.529 58.5967 135.442H68.4734C69.9751 137.088 71.5345 138.59 73.1517 140.005C76.2707 142.778 79.5918 145.203 83.0861 147.167C83.4327 147.369 83.8081 147.543 84.1546 147.716C84.4145 147.86 84.7033 147.976 84.9632 148.12C85.2231 148.236 85.4831 148.351 85.743 148.467C86.7249 148.929 87.6779 149.42 88.6886 149.795C89.1796 149.997 89.6416 150.228 90.1326 150.402H90.1614C85.4831 149.449 80.8913 148.005 76.4439 146.128ZM93.4536 150.228C93.4536 150.228 93.367 150.228 93.3381 150.199C93.136 150.171 92.9627 150.084 92.7606 150.026C92.645 149.997 92.5295 149.968 92.4429 149.94C91.5765 149.651 90.7102 149.333 89.8727 148.987C89.6416 148.9 89.4395 148.842 89.2084 148.756C88.2554 148.38 87.3313 147.976 86.4072 147.543C85.4831 147.109 84.5878 146.647 83.6637 146.128C82.4508 145.463 81.2667 144.712 80.0827 143.962C78.3788 142.806 76.7039 141.507 75.0866 140.121C73.9026 139.11 72.7474 138.041 71.6212 136.944C71.1302 136.453 70.6104 135.962 70.1195 135.442H81.1512C81.2667 135.644 81.3822 135.847 81.4978 136.02C81.7288 136.424 81.9887 136.8 82.2197 137.204C82.4796 137.608 82.7684 137.984 83.0283 138.359C83.2305 138.648 83.4327 138.937 83.6059 139.197C84.2413 140.092 84.9055 140.958 85.5697 141.796C85.5986 141.853 85.6275 141.882 85.6852 141.94C85.9162 142.229 86.1473 142.46 86.3783 142.72C88.4287 145.146 90.5946 147.138 92.8472 148.756C94.089 149.651 95.3597 150.459 96.6592 151.066H96.6881C95.6196 150.864 94.5222 150.575 93.4536 150.228ZM100.962 151.384C100.471 151.239 100.009 151.095 99.5471 150.921C99.5471 150.921 99.5471 150.921 99.5182 150.921C97.2946 150.142 95.1286 148.958 93.0782 147.427C92.183 146.763 91.2877 146.07 90.4502 145.29C88.3998 143.413 86.4649 141.16 84.6456 138.619C84.5589 138.503 84.4723 138.388 84.3857 138.272C83.7503 137.377 83.1439 136.424 82.5374 135.471H93.6558C94.4933 138.388 95.4174 140.929 96.3704 143.153C96.948 144.51 97.5545 145.81 98.1898 146.907C98.1898 146.936 98.1898 146.965 98.1898 146.965C98.392 147.34 98.623 147.687 98.854 148.034C99.2006 148.582 99.576 149.131 99.9514 149.593C100.442 150.199 100.933 150.777 101.395 151.239C101.54 151.355 101.655 151.499 101.8 151.615V151.643C101.511 151.586 101.222 151.499 100.933 151.412L100.962 151.384ZM105.236 151.961C101.54 151.412 97.8721 145.521 94.8976 135.442H105.236V151.961ZM105.236 134.432H94.4355C94.4355 134.432 94.4355 134.432 94.4355 134.403C94.089 133.074 93.6847 131.775 93.367 130.331C92.9627 128.656 92.5873 126.836 92.2407 125.017C92.183 124.728 92.1252 124.468 92.0675 124.208C91.7209 122.533 91.4321 120.83 91.1433 119.068C90.9701 118.057 90.8257 117.075 90.6813 116.036H105.236V134.432ZM105.612 116.007C104.312 116.007 103.041 115.92 101.771 115.776C101.598 115.776 101.424 115.718 101.251 115.689C99.9803 115.516 98.7385 115.314 97.4967 115.054C97.4389 115.054 97.4101 115.054 97.3523 115.054H90.4791C90.3636 114.245 90.3058 113.437 90.1903 112.657C89.8438 112.512 89.5261 112.339 89.1796 112.166C89.2951 113.119 89.4106 114.072 89.5261 115.025L73.5849 115.054C73.2095 113.696 72.8341 112.368 72.4875 110.982C71.3612 106.448 70.4082 101.654 69.744 96.629H72.2565C72.0543 96.2825 71.8233 95.9359 71.6212 95.5894H69.5708C69.3397 93.6833 69.1953 91.6907 69.022 89.6981C69.022 89.6403 68.9932 89.6114 68.9932 89.5537C68.9932 89.5248 68.9932 89.4959 68.9643 89.467C68.7621 88.8606 68.56 88.2541 68.3867 87.6188C68.1557 86.839 67.9535 86.0593 67.7803 85.2507C67.7514 85.1063 67.6936 84.9619 67.6647 84.8175C67.7225 85.8283 67.7514 86.839 67.838 87.8498C68.0113 90.4489 68.2423 93.048 68.56 95.5894H50.3951C49.24 89.6692 48.6335 83.4891 48.6046 77.1935H66.8561C66.8561 77.1935 66.8273 76.9047 66.8273 76.7603C66.8273 76.5581 66.8561 76.3848 66.8561 76.1827H48.6046C48.6335 69.916 49.24 63.7647 50.3951 57.7868L68.56 57.7579C68.2423 60.2993 68.0402 62.8695 67.838 65.4397C67.8091 65.9884 67.7803 66.5371 67.7514 67.0858C67.7514 67.6056 67.6647 68.1255 67.6647 68.6742V68.7319C67.7225 68.4431 67.8091 68.1543 67.8669 67.8656C68.0113 67.2302 68.1846 66.5949 68.3578 65.9595C68.56 65.2953 68.7621 64.6311 68.9932 63.9958C69.1664 61.9165 69.3108 59.8372 69.5708 57.7868L71.7367 57.7579C71.8522 57.5269 71.9966 57.3247 72.141 57.0937C72.2276 56.9782 72.2854 56.8627 72.3431 56.7472H69.744C70.5526 50.6826 71.7656 44.9357 73.2673 39.5642C73.3828 39.1599 73.4694 38.7556 73.5849 38.3513H89.5261C89.3817 39.3043 89.2951 40.3728 89.1796 41.3547C89.4972 41.1814 89.8438 41.0081 90.1903 40.8637C90.277 40.0262 90.3636 39.1599 90.4791 38.3513H97.8433C99.0562 38.0913 100.269 37.8892 101.511 37.7448C101.655 37.7448 101.8 37.687 101.944 37.687C103.157 37.5426 104.37 37.5138 105.612 37.4849C105.785 37.4849 105.958 37.4849 106.132 37.4849C106.334 37.4849 106.536 37.5138 106.738 37.5138C107.951 37.5138 109.135 37.5715 110.319 37.7159C110.406 37.7159 110.521 37.7448 110.608 37.7737C111.878 37.9181 113.178 38.1202 114.42 38.3801H121.004C121.12 39.0732 121.177 39.8241 121.264 40.5172C121.697 40.6905 122.073 40.8926 122.477 41.0948C122.361 40.1995 122.275 39.2465 122.159 38.3801H138.101C139.342 42.6542 140.382 47.2171 141.219 51.9532C141.508 53.5416 141.739 55.1588 141.97 56.776H139.891C140.035 57.0071 140.18 57.2381 140.324 57.498C140.382 57.5846 140.44 57.7002 140.526 57.7868H142.115C142.201 58.4799 142.259 59.173 142.317 59.8661C142.403 60.5592 142.461 61.2523 142.519 61.9454C142.577 62.1186 142.635 62.2919 142.692 62.4652C143.125 63.6203 143.559 64.7755 143.876 65.9595C143.876 65.8729 143.876 65.7574 143.876 65.6708C143.674 63.0139 143.472 60.3859 143.125 57.7868H161.29C162.243 62.6962 162.792 67.6923 163.023 72.8327C163.052 73.959 163.11 75.0853 163.11 76.2116H145.436C145.436 76.4137 145.465 76.587 145.465 76.7892C145.465 76.9336 145.436 77.0779 145.436 77.2223H163.11C163.11 78.3775 163.052 79.5038 163.023 80.6301C162.792 85.7416 162.243 90.7666 161.29 95.6182H143.125C143.212 95.0695 143.241 94.5208 143.299 93.9433C143.472 92.3838 143.616 90.8532 143.732 89.2649C143.761 88.745 143.819 88.2541 143.847 87.7343C143.847 87.7343 143.847 87.7054 143.847 87.6765C143.472 89.0338 143.01 90.3623 142.49 91.6329C142.49 91.6329 142.461 91.7773 142.461 91.8351C142.346 93.1058 142.288 94.3764 142.115 95.5894H140.613C140.526 95.7338 140.44 95.8782 140.353 96.0225C140.238 96.2247 140.122 96.4268 140.007 96.629H141.97C141.739 98.2462 141.508 99.8635 141.219 101.452C140.382 106.217 139.342 110.751 138.101 115.025L122.159 115.054C122.275 114.187 122.361 113.321 122.477 112.455C122.073 112.657 121.697 112.859 121.293 113.032C121.293 113.032 121.293 113.032 121.264 113.032C121.177 113.696 121.12 114.39 121.004 115.025L114.911 115.054C114.853 115.054 114.795 115.054 114.737 115.083C113.698 115.314 112.629 115.487 111.532 115.631C111.156 115.689 110.81 115.747 110.434 115.805C109.453 115.92 108.471 115.949 107.489 115.978C107.113 115.978 106.738 116.036 106.363 116.036C106.334 116.036 106.305 116.036 106.276 116.036H120.86L120.34 119.241C120.196 120.079 120.051 120.916 119.907 121.725C119.878 121.927 119.849 122.129 119.791 122.331C119.271 125.133 118.723 127.818 118.116 130.331C118.116 130.331 118.116 130.36 118.116 130.389C117.799 131.804 117.452 133.132 117.077 134.432H106.247V116.036H106.132C105.958 116.036 105.785 116.007 105.583 116.007H105.612ZM131.285 134.143C131.834 133.219 132.325 132.266 132.816 131.284C132.902 131.11 132.989 130.937 133.104 130.764C133.133 130.706 133.162 130.648 133.191 130.591C133.913 129.147 134.577 127.616 135.242 126.086C135.386 125.71 135.559 125.335 135.704 124.959C136.339 123.4 136.945 121.783 137.523 120.136C137.523 120.079 137.581 120.021 137.61 119.934C137.667 119.732 137.725 119.53 137.783 119.357C138.158 118.259 138.505 117.162 138.851 116.036H154.677C153.926 117.624 153.118 119.155 152.28 120.714C152.165 120.916 152.078 121.118 151.991 121.292C151.558 122.071 151.125 122.822 150.663 123.573C150.374 124.035 150.085 124.468 149.797 124.93C149.537 125.364 149.277 125.797 148.988 126.201C148.295 127.241 147.573 128.28 146.851 129.262C146.649 129.551 146.447 129.84 146.244 130.1C145.551 131.053 144.8 131.89 144.078 132.757C143.616 133.305 143.183 133.883 142.721 134.403H131.17C131.17 134.403 131.285 134.201 131.314 134.114L131.285 134.143ZM129.928 134.432H118.318C118.492 133.71 118.665 132.959 118.867 132.208C118.954 131.861 119.04 131.515 119.127 131.168C119.185 130.995 119.214 130.822 119.271 130.62C119.445 129.84 119.647 129.002 119.82 128.194C120.311 125.97 120.744 123.66 121.177 121.263C121.466 119.559 121.784 117.826 122.044 116.036H137.783C137.523 116.902 137.234 117.768 136.945 118.606C136.772 119.126 136.57 119.646 136.397 120.165C136.195 120.714 135.992 121.263 135.819 121.811C135.444 122.822 135.068 123.804 134.664 124.757C134.433 125.277 134.231 125.826 134 126.345C133.567 127.356 133.104 128.367 132.614 129.32C132.411 129.724 132.238 130.129 132.036 130.504C131.343 131.861 130.65 133.161 129.928 134.403V134.432ZM139.14 115.025C139.198 114.823 139.256 114.649 139.285 114.447C140.035 111.848 140.671 109.191 141.248 106.477C141.277 106.332 141.306 106.188 141.335 106.044C141.364 106.044 141.364 105.986 141.364 105.928C141.999 102.925 142.519 99.8346 142.923 96.6868V96.629H161.03C160.915 97.1777 160.799 97.6975 160.655 98.2173C160.568 98.7372 160.453 99.2281 160.308 99.719C160.251 100.008 160.164 100.268 160.077 100.557C159.933 101.192 159.76 101.827 159.586 102.434C159.529 102.665 159.471 102.896 159.413 103.098C159.327 103.531 159.182 103.964 159.038 104.397C158.98 104.628 158.893 104.86 158.807 105.091C158.633 105.726 158.402 106.39 158.2 107.025C158.085 107.314 158.027 107.632 157.911 107.921C157.825 108.209 157.738 108.498 157.594 108.787C157.507 109.047 157.392 109.307 157.305 109.567C157.132 110.058 156.958 110.549 156.785 111.011C156.265 112.368 155.717 113.725 155.139 115.054H139.082L139.14 115.025ZM109.395 150.199C109.395 150.199 109.337 150.257 109.308 150.286C108.297 151.239 107.287 151.817 106.276 151.961H106.247V135.442H116.615C115.893 137.868 115.142 140.034 114.362 141.94C113.813 143.24 113.265 144.395 112.716 145.434C111.676 147.398 110.608 148.958 109.539 150.055C109.481 150.113 109.453 150.171 109.395 150.199ZM112.312 150.864C112.023 150.979 111.763 151.066 111.474 151.152C111.387 151.181 111.272 151.21 111.156 151.239C110.723 151.384 110.29 151.499 109.857 151.615C109.857 151.615 109.886 151.557 109.915 151.557C110.146 151.355 110.348 151.095 110.579 150.864C111.33 150.084 112.081 149.131 112.831 147.976C112.918 147.86 113.005 147.745 113.062 147.629C113.091 147.571 113.149 147.514 113.178 147.427C113.265 147.283 113.351 147.109 113.467 146.965C114.795 144.626 116.037 141.622 117.192 138.099C117.481 137.262 117.741 136.395 118.03 135.471H129.148C129.033 135.644 128.917 135.789 128.83 135.962C128.57 136.366 128.311 136.771 128.022 137.146C124.47 142.489 120.427 146.561 116.066 149.102C115.084 149.68 114.073 150.199 113.062 150.604C112.803 150.69 112.543 150.777 112.283 150.893L112.312 150.864ZM114.997 151.066C115.517 150.806 116.037 150.488 116.557 150.171C117.885 149.42 119.214 148.524 120.484 147.485C120.715 147.283 120.975 147.138 121.206 146.936C121.986 146.272 122.766 145.521 123.517 144.712C123.661 144.568 123.805 144.424 123.95 144.25C124.556 143.586 125.163 142.922 125.769 142.2C125.856 142.084 125.971 141.969 126.058 141.853C126.145 141.767 126.202 141.651 126.289 141.536C126.838 140.843 127.386 140.121 127.906 139.399C128.051 139.197 128.224 139.023 128.368 138.792C128.426 138.706 128.484 138.619 128.542 138.532C128.83 138.099 129.148 137.637 129.466 137.146C129.668 136.829 129.87 136.482 130.101 136.135C130.245 135.904 130.39 135.673 130.534 135.413H141.566C140.729 136.309 139.862 137.175 138.967 138.013C138.88 138.099 138.794 138.186 138.678 138.272C137.985 138.908 137.321 139.514 136.599 140.092C136.021 140.583 135.415 141.045 134.837 141.507C134.779 141.536 134.751 141.594 134.693 141.622H134.635L130.563 144.539C130.043 144.857 129.523 145.175 129.004 145.492C128.686 145.694 128.339 145.897 128.022 146.099C127.502 146.387 126.953 146.647 126.433 146.907C126.058 147.081 125.711 147.283 125.336 147.456C124.701 147.745 124.036 148.062 123.401 148.351C120.658 149.535 117.827 150.459 114.968 151.066H114.997ZM148.641 138.706C147.919 139.197 147.226 139.688 146.504 140.121C146.389 140.207 146.244 140.265 146.129 140.352C144.627 141.305 143.097 142.2 141.537 143.037C141.075 143.297 140.613 143.528 140.151 143.759C139.487 144.106 138.823 144.481 138.158 144.799C137.205 145.261 136.223 145.694 135.242 146.128C130.794 148.005 126.202 149.449 121.524 150.431H121.553C121.957 150.257 122.361 150.084 122.766 149.911C123.055 149.795 123.315 149.68 123.603 149.564C123.921 149.42 124.21 149.275 124.499 149.16C125.047 148.9 125.625 148.669 126.174 148.38C126.982 148.005 127.791 147.6 128.599 147.167C130.217 146.243 131.805 145.232 133.335 144.135C135.848 142.344 138.274 140.381 140.555 138.128C140.757 137.926 140.931 137.724 141.133 137.522C141.826 136.829 142.49 136.164 143.154 135.442H153.089C151.645 136.597 150.143 137.666 148.641 138.706ZM168.626 118.75C168.192 119.357 167.759 119.963 167.326 120.541C166.979 121.032 166.633 121.523 166.286 121.985C165.247 123.371 164.149 124.728 162.994 126.057C162.879 126.201 162.763 126.345 162.648 126.49C162.561 126.605 162.474 126.692 162.388 126.808C162.33 126.894 162.243 126.952 162.186 127.039C161.233 128.078 160.28 129.089 159.298 130.1C157.796 131.63 156.208 133.045 154.59 134.432H144.165C144.743 133.738 145.291 133.016 145.869 132.323C146.273 131.832 146.678 131.37 147.053 130.851C147.515 130.273 147.919 129.638 148.353 129.031C149.565 127.327 150.75 125.566 151.847 123.746C153.32 121.263 154.648 118.693 155.89 116.036H170.416C169.839 116.96 169.261 117.855 168.654 118.75H168.626ZM176.769 102.751C176.365 103.849 175.961 104.946 175.528 106.044C174.863 107.574 174.17 109.105 173.419 110.606C172.669 112.079 171.889 113.552 171.023 114.996L156.294 115.025C156.814 113.812 157.276 112.628 157.738 111.415C158.691 108.989 159.529 106.477 160.251 103.935C160.915 101.654 161.492 99.3436 162.012 97.0044C162.041 96.86 162.07 96.7445 162.099 96.6001H178.791C178.213 98.6794 177.52 100.73 176.769 102.751ZM180.639 87.6765C180.235 90.3334 179.744 92.9903 179.08 95.5605H162.301C162.561 94.1743 162.792 92.7881 162.994 91.373C163.283 89.467 163.485 87.5321 163.658 85.5972C163.716 84.9041 163.774 84.2399 163.832 83.5468C163.976 81.4387 164.063 79.3016 164.063 77.1646H181.477C181.448 80.7167 181.159 84.2111 180.639 87.6765ZM164.063 76.1538C164.063 71.1 163.63 66.1328 162.879 61.2812C162.705 60.126 162.532 58.9997 162.33 57.8734C162.33 57.8446 162.33 57.8157 162.33 57.7579L179.109 57.729C180.033 61.3678 180.639 65.0065 181.044 68.7031C181.303 71.1578 181.477 73.6414 181.506 76.1538H164.092H164.063Z" fill="#C4C7CB"/>
<path d="M106.245 81.3533C108.765 81.3533 110.807 79.3104 110.807 76.7904C110.807 74.2704 108.765 72.2275 106.245 72.2275C103.725 72.2275 101.682 74.2704 101.682 76.7904C101.682 79.3104 103.725 81.3533 106.245 81.3533Z" fill="#EFF2F8"/>
<path d="M223.929 72.515C219.944 72.515 216.19 71.8219 212.666 70.4069C209.172 68.9918 206.082 67.028 203.396 64.5445C200.71 62.032 198.631 59.1152 197.13 55.7941C195.628 52.473 194.877 48.9209 194.877 45.1089C194.877 41.2969 195.628 37.7159 197.13 34.3948C198.66 31.0449 200.739 28.1281 203.396 25.6445C206.082 23.132 209.143 21.1394 212.638 19.7532C216.132 18.3381 219.886 17.645 223.871 17.645C227.135 17.645 230.225 18.1071 233.142 19.0312C236.087 19.9553 238.629 21.1683 240.708 22.67L236.203 31.478C234.759 30.3518 233.026 29.4565 230.976 28.8212C228.925 28.1858 226.759 27.8682 224.536 27.8682C221.908 27.8682 219.453 28.3014 217.229 29.1966C215.006 30.063 213.071 31.3048 211.396 32.8642C209.75 34.4237 208.479 36.2431 207.555 38.3512C206.631 40.4594 206.169 42.712 206.169 45.1378C206.169 47.5636 206.631 49.8451 207.555 51.9243C208.479 54.0325 209.75 55.8519 211.396 57.4113C213.071 58.9708 215.006 60.1837 217.229 61.079C219.482 61.9453 221.908 62.4074 224.536 62.4074C226.788 62.4074 228.925 62.0897 230.976 61.4544C233.026 60.8191 234.759 59.9238 236.203 58.7975L240.708 67.6056C238.686 69.0496 236.232 70.2625 233.286 71.1866C230.369 72.1396 227.221 72.6017 223.929 72.6017V72.515ZM273.919 72.515C270.222 72.515 266.757 71.8219 263.522 70.4069C260.288 68.9918 257.458 67.028 255.032 64.5445C252.606 62.032 250.671 59.1152 249.285 55.7941C247.928 52.4442 247.234 48.8921 247.234 45.08C247.234 41.268 247.928 37.7159 249.285 34.3948C250.671 31.0449 252.577 28.1281 255.032 25.6445C257.458 23.132 260.317 21.1394 263.522 19.7532C266.757 18.3381 270.222 17.645 273.919 17.645C277.615 17.645 281.081 18.3381 284.315 19.7532C287.55 21.1683 290.38 23.132 292.805 25.6445C295.231 28.157 297.137 31.0737 298.524 34.3948C299.91 37.7159 300.603 41.268 300.603 45.08C300.603 48.8921 299.91 52.4442 298.524 55.7941C297.166 59.1152 295.26 62.032 292.805 64.5445C290.38 67.0569 287.521 68.9918 284.315 70.4069C281.081 71.8219 277.615 72.515 273.919 72.515ZM273.89 62.494C276.142 62.494 278.222 62.0609 280.099 61.2234C281.976 60.357 283.622 59.173 285.008 57.5846C286.394 56.0252 287.492 54.1769 288.243 52.0687C289.022 49.9317 289.398 47.5925 289.398 45.0512C289.398 42.5098 289.022 40.1706 288.243 38.0624C287.463 35.9254 286.394 34.0771 285.008 32.5177C283.622 30.9582 281.976 29.7453 280.099 28.8789C278.222 28.0126 276.142 27.6083 273.89 27.6083C271.637 27.6083 269.616 28.0414 267.71 28.8789C265.833 29.7453 264.186 30.9293 262.8 32.5177C261.414 34.0771 260.317 35.9254 259.566 38.0624C258.815 40.1706 258.44 42.5098 258.44 45.0512C258.44 47.5925 258.815 49.9317 259.566 52.0687C260.346 54.1769 261.414 56.0252 262.8 57.5846C264.186 59.1441 265.833 60.357 267.71 61.2234C269.616 62.0897 271.666 62.494 273.89 62.494ZM313.281 71.5909V18.4248H324.081L346.52 54.2058V18.4248H356.743V71.5909H345.943L323.504 35.8099V71.5909H313.281ZM223.929 136.424C219.944 136.424 216.19 135.731 212.666 134.316C209.172 132.901 206.082 130.937 203.396 128.454C200.71 125.941 198.631 123.024 197.13 119.703C195.628 116.382 194.877 112.83 194.877 109.018C194.877 105.206 195.628 101.625 197.13 98.304C198.66 94.954 200.739 92.0372 203.396 89.5536C206.082 87.0412 209.143 85.0485 212.638 83.6623C216.132 82.2473 219.886 81.5542 223.871 81.5542C227.135 81.5542 230.225 82.0162 233.142 82.9403C236.087 83.8645 238.629 85.0774 240.708 86.5791L236.203 95.3872C234.759 94.2609 233.026 93.3657 230.976 92.7303C228.925 92.095 226.759 91.7773 224.536 91.7773C221.908 91.7773 219.453 92.2105 217.229 93.1057C215.006 93.9721 213.071 95.2139 211.396 96.7734C209.75 98.3328 208.479 100.152 207.555 102.26C206.631 104.369 206.169 106.621 206.169 109.047C206.169 111.473 206.631 113.754 207.555 115.833C208.479 117.942 209.75 119.761 211.396 121.32C213.071 122.88 215.006 124.093 217.229 124.988C219.482 125.854 221.908 126.317 224.536 126.317C226.788 126.317 228.925 125.999 230.976 125.364C233.026 124.728 234.759 123.833 236.203 122.707L240.708 131.515C238.686 132.959 236.232 134.172 233.286 135.096C230.369 136.049 227.221 136.511 223.929 136.511V136.424ZM250.931 135.5V82.3339H280.59V91.5463H261.674V104.34H280.07V113.552H261.674V126.345H280.59V135.558H250.931V135.5ZM295.405 135.5V82.3339H313.512C317.15 82.3339 320.298 82.9692 322.955 84.2688C325.641 85.5395 327.72 87.3588 329.164 89.7847C330.637 92.1816 331.388 95.0406 331.388 98.4195C331.388 101.076 330.926 103.502 329.973 105.639C329.02 107.776 327.662 109.567 325.901 111.011C324.139 112.484 322.002 113.552 319.49 114.274L336.904 135.5H323.071L308.054 115.574H305.628V135.5H295.405ZM305.628 106.881H310.017C312.154 106.881 313.974 106.563 315.447 105.957C316.919 105.35 318.075 104.455 318.854 103.271C319.663 102.058 320.067 100.614 320.067 98.9393C320.067 96.3979 319.201 94.4631 317.439 93.1057C315.707 91.7196 313.223 91.0553 310.046 91.0553H305.657V106.91L305.628 106.881ZM350.621 135.5V91.5463H336.817V82.3339H374.129V91.5463H360.844V135.5H350.621ZM405.318 136.424C401.621 136.424 398.156 135.731 394.921 134.316C391.687 132.901 388.857 130.937 386.431 128.454C384.005 125.941 382.07 123.024 380.684 119.703C379.327 116.353 378.634 112.801 378.634 108.989C378.634 105.177 379.327 101.625 380.684 98.304C382.07 94.954 383.976 92.0372 386.431 89.5536C388.857 87.0412 391.716 85.0485 394.921 83.6623C398.127 82.2761 401.621 81.5542 405.318 81.5542C409.014 81.5542 412.48 82.2473 415.714 83.6623C418.949 85.0774 421.779 87.0412 424.205 89.5536C426.631 92.0661 428.537 94.9829 429.923 98.304C431.309 101.625 432.002 105.177 432.002 108.989C432.002 112.801 431.309 116.353 429.923 119.703C428.565 123.024 426.659 125.941 424.205 128.454C421.779 130.966 418.92 132.901 415.714 134.316C412.48 135.731 409.014 136.424 405.318 136.424ZM405.289 126.403C407.542 126.403 409.621 125.97 411.498 125.133C413.375 124.266 415.021 123.082 416.407 121.494C417.794 119.934 418.891 118.086 419.642 115.978C420.422 113.841 420.797 111.502 420.797 108.96C420.797 106.419 420.422 104.08 419.642 101.972C418.862 99.8345 417.794 97.9863 416.407 96.4268C415.021 94.8674 413.375 93.6544 411.498 92.7881C409.621 91.9217 407.542 91.5174 405.289 91.5174C403.036 91.5174 401.015 91.9506 399.109 92.7881C397.232 93.6544 395.586 94.8385 394.2 96.4268C392.813 97.9863 391.716 99.8345 390.965 101.972C390.214 104.08 389.839 106.419 389.839 108.96C389.839 111.502 390.214 113.841 390.965 115.978C391.745 118.086 392.813 119.934 394.2 121.494C395.586 123.053 397.232 124.266 399.109 125.133C401.015 125.999 403.065 126.403 405.289 126.403Z" fill="#EFF2F8"/>
<path d="M0.028879 95.2142C-0.028879 94.5789 0.317669 93.9435 0.866369 93.6547L4.44736 91.7776C4.44736 91.7776 4.64951 91.691 4.73615 91.6621L30.4096 86.0307C31.3048 85.8286 32.1423 85.482 32.922 84.9622L39.3909 80.6303C40.1129 80.1394 41.1236 80.3127 41.6146 81.0346C42.1344 81.7855 41.9323 82.7963 41.1814 83.3161L34.3082 87.9078C33.5574 88.4277 32.691 88.7742 31.7957 88.9764L6.26674 94.5789C5.94907 94.6366 5.6314 94.7521 5.31373 94.9254L2.31032 96.4849C1.29955 97.0047 0.115516 96.3405 0 95.2142H0.028879Z" fill="#EFF2F8"/>
<path fill-rule="evenodd" clip-rule="evenodd" d="M59.6639 65.2388C59.5484 66.7116 59.3462 68.1267 59.0574 69.5706C58.7398 71.159 58.1622 73.5848 56.8626 76.2128C56.6894 76.5304 56.545 76.877 56.3139 77.2235C55.7941 78.1765 55.1588 79.1295 54.4079 80.0826C52.5019 82.4795 50.6825 83.6347 48.9209 84.0101C48.5744 84.0967 48.2567 84.1256 47.939 84.1834C47.1882 84.2411 46.4085 84.1834 45.6865 84.0101C45.3111 83.9523 44.9934 83.8079 44.7046 83.6924C43.5494 83.1148 43.0007 82.0752 42.6542 81.1511H42.6831L42.5676 80.8912C42.3943 80.4869 42.1921 80.2269 41.9322 79.9093C41.499 79.3028 40.9792 78.6386 40.9215 77.3968C40.8926 77.3679 40.8926 77.3102 40.8926 77.2235C40.8926 76.9347 40.9215 76.6171 40.9503 76.2705V76.2128C41.3546 73.3538 43.174 70.9568 46.8128 68.531C47.1882 68.2711 47.6214 68.04 48.0834 67.8668C48.4011 67.6646 48.7477 67.5491 49.0942 67.4336C51.8377 66.4517 55.4187 65.9319 57.6424 65.6142C58.7687 65.4987 59.5195 65.3543 59.6928 65.2676L59.6639 65.2388Z" fill="#00B89C"/>
<path d="M106.272 40.3149C86.201 40.3149 69.8555 56.6604 69.8555 76.7313C69.8555 96.8022 86.201 113.148 106.272 113.148C126.343 113.148 142.688 96.8022 142.688 76.7313C142.688 56.6604 126.343 40.3149 106.272 40.3149ZM106.387 108.267C89.0022 108.267 74.9093 94.1742 74.9093 76.7891C74.9093 59.4039 89.0022 45.311 106.387 45.311C123.772 45.311 137.865 59.4039 137.865 76.7891C137.865 94.1742 123.772 108.267 106.387 108.267Z" fill="#EFF2F8"/>
</svg>
