<svg width="38" height="38" viewBox="0 0 38 38" fill="none" xmlns="http://www.w3.org/2000/svg">
<circle cx="19" cy="19" r="18" stroke="#00B89C" stroke-width="2" stroke-dasharray="4.8 4.8"/>
<path d="M10 15L15.4499 18.6333C16.7329 19.4886 17.3745 19.9163 18.0678 20.0825C18.6806 20.2293 19.3194 20.2293 19.9322 20.0825C20.6255 19.9163 21.2671 19.4886 22.5501 18.6333L28 15M13.2 26H24.8C25.9201 26 26.4802 26 26.908 25.782C27.2843 25.5903 27.5903 25.2843 27.782 24.908C28 24.4802 28 23.9201 28 22.8V15.2C28 14.0799 28 13.5198 27.782 13.092C27.5903 12.7157 27.2843 12.4097 26.908 12.218C26.4802 12 25.9201 12 24.8 12H13.2C12.0799 12 11.5198 12 11.092 12.218C10.7157 12.4097 10.4097 12.7157 10.218 13.092C10 13.5198 10 14.0799 10 15.2V22.8C10 23.9201 10 24.4802 10.218 24.908C10.4097 25.2843 10.7157 25.5903 11.092 25.782C11.5198 26 12.0799 26 13.2 26Z" stroke="#00B89C" stroke-width="1.5" stroke-linecap="round" stroke-linejoin="round"/>
</svg>
