<svg width="21" height="15" viewBox="0 0 21 15" fill="none" xmlns="http://www.w3.org/2000/svg">
<path d="M7.52914 13.186C7.28938 13.4098 7.10383 13.5597 6.91421 13.6691C5.98601 14.205 4.84242 14.205 3.91421 13.6691C3.57217 13.4717 3.24338 13.1429 2.58579 12.4853C1.9282 11.8277 1.5994 11.4989 1.40192 11.1569C0.866025 10.2287 0.866025 9.08506 1.40192 8.15685C1.5994 7.81481 1.9282 7.48602 2.58579 6.82843L5.41421 4C6.0718 3.34241 6.4006 3.01362 6.74264 2.81614C7.67084 2.28024 8.81444 2.28024 9.74264 2.81614C10.0847 3.01362 10.4135 3.34241 11.0711 4C11.7287 4.65759 12.0575 4.98638 12.2549 5.32843C12.7908 6.25663 12.7908 7.40022 12.2549 8.32843C12.1455 8.51805 11.9956 8.7036 11.7718 8.94335M8.95614 6.12772C8.7323 6.36747 8.58247 6.55302 8.47299 6.74264C7.93709 7.67084 7.93709 8.81444 8.47299 9.74264C8.67047 10.0847 8.99926 10.4135 9.65685 11.0711C10.3144 11.7287 10.6432 12.0575 10.9853 12.2549C11.9135 12.7908 13.0571 12.7908 13.9853 12.2549C14.3273 12.0575 14.6561 11.7287 15.3137 11.0711L18.1421 8.24264C18.7997 7.58505 19.1285 7.25626 19.326 6.91421C19.8619 5.98601 19.8619 4.84242 19.326 3.91421C19.1285 3.57217 18.7997 3.24338 18.1421 2.58579C17.4845 1.9282 17.1558 1.5994 16.8137 1.40192C15.8855 0.866025 14.7419 0.866026 13.8137 1.40192C13.6241 1.5114 13.4385 1.66124 13.1988 1.88508" stroke="#ECF1FA" stroke-width="1.5" stroke-linecap="square" stroke-linejoin="bevel"/>
</svg>
