<svg width="124" height="124" viewBox="0 0 124 124" fill="none" xmlns="http://www.w3.org/2000/svg">
<g clip-path="url(#clip0_179_11519)">
<path fill-rule="evenodd" clip-rule="evenodd" d="M84.5716 53.1442C85.9152 46.4266 87.2563 39.7217 88.0485 33.1959C93.8367 35.7202 99.4533 38.6209 104.862 41.8794C113.777 47.2424 129.517 57.3856 140.986 75.7777C152.455 94.1698 150.404 107.165 144.485 117.033C139.964 124.569 132.794 125.145 127.21 125.286C125.542 125.327 123.979 125.838 122.31 126.384C118.394 127.664 113.893 129.135 106.072 125.189C73.454 108.729 79.0343 80.8291 84.5716 53.1442ZM90.306 36.2595L90.2188 36.0561L90.3023 36.27L90.306 36.2595ZM128.388 125.117L127.173 125.213L128.418 125.188L128.388 125.117Z" fill="#00B89C"/>
<path fill-rule="evenodd" clip-rule="evenodd" d="M38.8666 102.544C36.2512 103.379 33.6986 104.195 31.2263 104.952C34.0578 110.596 37.256 116.049 40.8003 121.275C46.6344 129.888 57.6084 145.061 76.5899 155.526C95.5716 165.99 108.438 163.244 117.974 156.803C125.256 151.884 125.446 144.694 125.287 139.111C125.238 137.442 125.665 135.854 126.12 134.158C127.188 130.18 128.415 125.606 124.054 118.008C103.352 81.9406 67.3815 93.433 38.8666 102.544ZM34.4049 107.041L34.1989 106.965L34.415 107.036L34.4049 107.041ZM125.181 140.295L125.212 139.063L125.254 140.322L125.181 140.295Z" fill="#BFFF60"/>
</g>
<defs>
<clipPath id="clip0_179_11519">
<path d="M0 0H124V96C124 111.464 111.464 124 96 124H0V0Z" fill="white"/>
</clipPath>
</defs>
</svg>
