<svg width="32" height="32" viewBox="0 0 32 32" fill="none" xmlns="http://www.w3.org/2000/svg">
<circle cx="16" cy="16" r="15" stroke="#FBFDFF" stroke-width="1.2"/>
<path d="M12.7571 11.4324C12.7569 11.7964 12.6121 12.1453 12.3547 12.4025C12.0972 12.6597 11.7481 12.8041 11.3842 12.8039C11.0203 12.8038 10.6713 12.659 10.4141 12.4016C10.1569 12.1441 10.0125 11.795 10.0127 11.4311C10.0129 11.0671 10.1576 10.7182 10.4151 10.461C10.6725 10.2038 11.0216 10.0594 11.3856 10.0596C11.7495 10.0598 12.0984 10.2045 12.3556 10.462C12.6129 10.7194 12.7573 11.0685 12.7571 11.4324ZM12.7982 13.82H10.0539V22.4099H12.7982V13.82ZM17.1343 13.82H14.4037V22.4099H17.1069V17.9023C17.1069 15.3912 20.3796 15.1579 20.3796 17.9023V22.4099H23.0896V16.9692C23.0896 12.736 18.2458 12.8938 17.1069 14.9727L17.1343 13.82Z" fill="#FBFDFF"/>
</svg>
