<svg width="20" height="20" viewBox="0 0 20 20" fill="none" xmlns="http://www.w3.org/2000/svg">
<circle cx="10" cy="10" r="9.1579" stroke="#FBFDFF" stroke-width="1.68421" stroke-dasharray="4.04 4.04"/>
<path d="M5.5 8L8.22496 9.81664C8.86647 10.2443 9.18723 10.4582 9.53392 10.5412C9.8403 10.6147 10.1597 10.6147 10.4661 10.5412C10.8128 10.4582 11.1335 10.2443 11.775 9.81664L14.5 8M7.1 13.5H12.9C13.4601 13.5 13.7401 13.5 13.954 13.391C14.1422 13.2951 14.2951 13.1422 14.391 12.954C14.5 12.7401 14.5 12.4601 14.5 11.9V8.1C14.5 7.53995 14.5 7.25992 14.391 7.04601C14.2951 6.85785 14.1422 6.70487 13.954 6.60899C13.7401 6.5 13.4601 6.5 12.9 6.5H7.1C6.53995 6.5 6.25992 6.5 6.04601 6.60899C5.85785 6.70487 5.70487 6.85785 5.60899 7.04601C5.5 7.25992 5.5 7.53995 5.5 8.1V11.9C5.5 12.4601 5.5 12.7401 5.60899 12.954C5.70487 13.1422 5.85785 13.2951 6.04601 13.391C6.25992 13.5 6.53995 13.5 7.1 13.5Z" stroke="#FBFDFF" stroke-linecap="round" stroke-linejoin="round"/>
</svg>
