<svg width="158" height="158" viewBox="0 0 158 158" fill="none" xmlns="http://www.w3.org/2000/svg">
<circle cx="79" cy="79" r="75" stroke="#FBFDFF" stroke-opacity="0.6" stroke-width="8" stroke-dasharray="22.17 22.17"/>
<path d="M82.2257 110.332L57.8042 114.199C52.7336 115.003 50.1983 115.404 48.1053 114.724C46.2643 114.126 44.6598 112.96 43.522 111.394C42.2284 109.614 41.8269 107.078 41.0238 102.008L35.5746 67.6033C34.7715 62.5327 34.37 59.9974 35.05 57.9044C35.6482 56.0633 36.8139 54.4589 38.38 53.321C40.1605 52.0275 42.6958 51.6259 47.7664 50.8228L100.278 42.5057C105.349 41.7026 107.884 41.3011 109.977 41.9811C111.818 42.5793 113.423 43.745 114.561 45.3111C115.854 47.0915 116.256 49.6268 117.059 54.6974L119.783 71.8997M115.323 55.2614L94.8487 74.1482C89.6539 78.9402 87.0564 81.3362 84.0367 82.5856C81.368 83.6897 78.4763 84.1477 75.5971 83.9223C72.3391 83.6672 69.1284 82.1911 62.707 79.239L36.1695 67.0387M107.278 80.841L115.14 89.1476L126.481 90.6255L121.011 100.669L123.11 111.912L111.867 109.813L101.823 115.284L100.345 103.943L92.0386 96.0807L102.368 91.1704L107.278 80.841Z" stroke="#FBFDFF" stroke-width="4.82153" stroke-linecap="round" stroke-linejoin="round"/>
</svg>
