<svg width="125" height="125" viewBox="0 0 125 125" fill="none" xmlns="http://www.w3.org/2000/svg">
<circle cx="62.5" cy="62.5" r="58.5" stroke="#FBFDFF" stroke-opacity="0.6" stroke-width="6.24" stroke-dasharray="17.29 17.29"/>
<path d="M41.8967 59.7273L43.0152 52.6654L85.3871 59.3764L84.2686 66.4384M32.5222 51.0037L55.2385 72.0355C57.2645 73.9044 58.2775 74.8388 59.4552 75.3261C60.496 75.7566 61.6237 75.9353 62.7466 75.8474C64.0172 75.7479 65.2694 75.1722 67.7738 74.0209L95.8774 61.0379M61.5089 34.1261L38.9921 43.744C36.8689 44.6509 35.8072 45.1044 34.977 45.8132C34.2422 46.4406 33.6422 47.2103 33.2132 48.0761C32.7285 49.0542 32.5479 50.1944 32.1867 52.4748L28.6194 74.9983C27.9929 78.9534 27.6797 80.9309 28.2102 82.5635C28.6768 83.9995 29.586 85.251 30.8076 86.1385C32.1963 87.1475 34.1738 87.4607 38.1289 88.0871L79.0883 94.5744C83.0434 95.2008 85.0209 95.5141 86.6535 94.9836C88.0895 94.517 89.341 93.6078 90.2285 92.3862C91.2375 90.9975 91.5507 89.0199 92.1771 85.0649L95.7445 62.5414C96.1057 60.2609 96.2862 59.1207 96.1275 58.0407C95.987 57.0848 95.6542 56.1673 95.1493 55.3435C94.5787 54.4129 93.7092 53.6535 91.9701 52.1349L73.5275 36.0297C71.5648 34.3158 70.5835 33.4588 69.4564 33.0068C68.4599 32.6072 67.3861 32.4371 66.3148 32.5093C65.1033 32.5908 63.9051 33.1026 61.5089 34.1261Z" stroke="url(#paint0_linear_179_11409)" stroke-width="3.9" stroke-linecap="round" stroke-linejoin="round"/>
<defs>
<linearGradient id="paint0_linear_179_11409" x1="67.9136" y1="32.5811" x2="58.6086" y2="91.3308" gradientUnits="userSpaceOnUse">
<stop stop-color="#FBFDFF"/>
<stop offset="1" stop-color="#115B76"/>
</linearGradient>
</defs>
</svg>
