<svg width="158" height="158" viewBox="0 0 158 158" fill="none" xmlns="http://www.w3.org/2000/svg">
<circle cx="79" cy="79" r="75" stroke="#FBFDFF" stroke-opacity="0.6" stroke-width="8" stroke-dasharray="22.17 22.17"/>
<path d="M51.557 74.6249L52.991 65.5711L107.314 74.175L105.88 83.2288M39.5385 63.4407L68.6619 90.4046C71.2593 92.8006 72.558 93.9986 74.0679 94.6232C75.4022 95.1753 76.8481 95.4043 78.2877 95.2916C79.9167 95.1641 81.522 94.426 84.7328 92.9499L120.763 76.3051M76.7009 41.8028L47.8332 54.1334C45.1111 55.2961 43.75 55.8775 42.6857 56.7863C41.7436 57.5906 40.9744 58.5775 40.4243 59.6874C39.8029 60.9414 39.5714 62.4032 39.1083 65.3268L34.5348 94.2031C33.7317 99.2737 33.3301 101.809 34.0102 103.902C34.6084 105.743 35.7741 107.347 37.3402 108.485C39.1206 109.779 41.6559 110.18 46.7265 110.984L99.2386 119.301C104.309 120.104 106.845 120.505 108.938 119.825C110.779 119.227 112.383 118.061 113.521 116.495C114.814 114.715 115.216 112.18 116.019 107.109L120.593 78.2326C121.056 75.309 121.287 73.8472 121.084 72.4626C120.904 71.237 120.477 70.0607 119.83 69.0046C119.098 67.8115 117.983 66.838 115.754 64.8909L92.1093 44.2433C89.593 42.0459 88.3349 40.9473 86.89 40.3678C85.6124 39.8555 84.2357 39.6374 82.8623 39.7299C81.309 39.8345 79.773 40.4906 76.7009 41.8028Z" stroke="#FBFDFF" stroke-width="5" stroke-linecap="round" stroke-linejoin="round"/>
</svg>
