<svg width="130" height="28" viewBox="0 0 130 28" fill="none" xmlns="http://www.w3.org/2000/svg">
<path d="M24.0414 20.3148C24.5414 20.6148 25.0414 20.5148 25.3414 20.4148C25.6414 20.3148 26.2414 19.8148 26.6414 19.2158C26.8414 19.0158 28.3414 17.2158 26.5414 15.3158L20.4414 9.21583C20.9414 9.21583 21.3414 7.91583 20.6414 7.11583L14.7414 1.21583C13.8414 0.415827 13.3414 0.0158273 12.6414 0.0158273H11.7414C11.2414 -0.0851727 11.0414 0.314827 11.0414 0.714827V5.51483C11.0414 6.01483 11.0414 6.41483 11.4414 6.71483H0.741421C0.441421 6.71483 0.141421 6.81483 0.0414214 7.11483C-0.0585786 7.51483 0.0414214 7.71483 0.141421 7.91483L7.44142 18.1148H12.7414L16.5414 15.3148L16.8414 15.7148C16.8414 15.7148 2.84142 26.0148 2.94142 26.0148C2.64142 26.2148 2.54142 26.7148 2.64142 26.9138C2.74142 27.1148 2.94142 27.5148 3.24142 27.5148H10.9414C11.6414 27.5148 12.3414 27.0148 12.3414 26.2148V24.0148C12.3414 23.2148 12.3414 23.2148 13.3414 23.2148C13.3414 23.2148 14.0414 23.2148 14.9414 23.2148C14.4414 23.5148 13.6414 23.9138 13.6414 23.9138C13.6414 23.9138 13.5414 24.1138 13.5414 24.2148C13.4414 24.4138 13.2414 25.2148 13.2414 25.2148C13.2414 25.2148 13.1414 25.4138 13.1414 25.5148C13.1414 25.6148 13.1414 25.8148 13.1414 25.8148H26.8414V24.8148H14.4414C14.4414 24.8148 14.6414 24.5148 14.6414 24.4148C14.7414 24.4148 16.5414 23.4148 17.1414 23.1148C17.5414 23.1148 17.8414 23.1148 17.8414 23.1148C19.3414 23.1148 20.2414 22.7158 21.0414 21.5148C21.0414 21.5148 22.5414 18.7148 22.6414 18.6148C22.8414 18.4148 23.1414 18.0148 23.9414 18.1148C24.4414 18.2158 24.9414 18.6148 25.0414 19.1148C25.1414 19.6148 24.9414 19.8148 24.8414 19.8148C24.8414 20.0148 24.3414 20.2148 24.0414 20.3148Z" fill="#171717"/>
<path d="M12.9416 0.914845C13.6416 1.11484 17.5416 5.21484 17.5416 5.21484C19.3416 7.01484 20.4416 7.81484 19.7416 8.41484C18.8416 7.61484 17.3416 6.61484 15.1416 6.61484H13.0416C12.4416 6.61484 12.1416 6.31484 12.1416 5.71484V0.714844C12.1416 0.714844 12.5416 0.814845 12.9416 0.914845ZM1.1416 7.71484L7.9416 17.2148H12.3416L16.6416 14.0148L18.1416 15.9138L3.7416 26.6148H10.2416C10.9416 26.6148 11.3416 26.4148 11.3416 25.7158V23.6148C11.3416 22.5148 11.9416 22.4148 13.0416 22.4148H15.1416H17.7416C18.4416 22.4148 19.4416 22.2158 19.8416 21.8148C20.2416 21.4148 21.2416 19.4148 21.6416 18.7148C21.8416 18.3148 22.2416 17.5148 23.7416 17.5148C24.8416 17.5148 25.6416 18.5148 25.7416 19.0148C26.2416 18.5148 26.9416 17.3148 25.8416 16.1148L18.9416 9.41484C17.5416 8.11484 15.4416 7.91484 14.5416 7.91484C14.6416 7.71484 1.1416 7.71484 1.1416 7.71484Z" fill="#171717"/>
<path d="M25.6412 17.715C25.8621 17.715 26.0412 17.536 26.0412 17.315C26.0412 17.0941 25.8621 16.915 25.6412 16.915C25.4203 16.915 25.2412 17.0941 25.2412 17.315C25.2412 17.536 25.4203 17.715 25.6412 17.715Z" fill="#171717"/>
<path d="M29.8418 10.5147H34.2418H38.2418C40.8418 10.5147 40.2418 12.4147 39.8418 12.9147C38.6418 14.2147 37.5418 14.6147 36.6418 15.2147V11.3147H32.2418V23.3147H36.6418V19.4147C37.0418 19.2157 39.7418 17.8147 40.8418 17.1147C41.2418 16.9147 43.1418 15.7147 44.2418 13.8147C45.0418 12.3147 44.8418 10.4147 44.2418 9.21475C43.6418 8.01475 41.9418 6.61475 39.6418 6.61475H32.2418C31.3418 6.61475 30.7418 7.01475 30.5418 7.91475C30.4418 8.01475 29.8418 10.5147 29.8418 10.5147Z" fill="#171717"/>
<path d="M101.242 11.4147C101.141 9.81475 100.742 8.91475 99.5416 8.01475C98.6416 7.31475 97.0416 6.71475 95.2416 6.71475H85.6416H79.4416C77.9416 6.71475 76.0416 7.01475 75.1416 8.51475C74.3416 10.0147 74.4416 11.8147 75.6416 13.2147C75.6416 13.2147 80.0416 18.1147 80.0416 18.2147C80.5416 18.9137 80.2416 19.5147 79.5416 19.5147H72.7416V6.71475H68.3416V12.5147L63.5416 6.61475H42.6416C44.4416 7.31475 45.4416 8.91475 45.5416 10.4147H45.9416H46.4416V23.3147H56.9416L57.9416 19.5147H50.8416V16.9147H55.8416L56.7416 13.1147H50.8416V10.6147H59.3416V23.3147H63.7416V13.1147L68.4416 18.4147V23.3147H80.5416C82.2416 23.3147 84.2416 23.0147 85.1416 21.5147C86.0416 20.1147 85.6416 18.4137 84.5416 16.8147L80.1416 11.8147C79.7416 11.2147 79.6416 10.5147 80.7416 10.5147H93.4416C96.1406 10.5147 96.2416 11.9147 96.3406 12.5147C96.6406 14.9147 96.2406 16.7147 95.9416 17.5147C95.3416 19.3147 94.3416 19.8147 93.7416 19.8147C93.1406 19.8147 92.1406 19.4147 91.5416 17.5147C91.2416 16.5147 90.6416 13.2147 91.4416 11.3147H86.1416C85.9416 15.9147 86.8416 18.1147 87.6416 19.5147C89.1416 22.2147 91.1416 23.7147 93.7416 23.7147C96.7416 23.7147 98.3416 22.2147 99.9416 19.5147C100.642 18.1147 101.542 15.4147 101.242 11.4147Z" fill="#171717"/>
<path d="M99.1416 6.71484C100.943 7.51484 101.842 8.71484 102.142 10.5148H103.542V22.7148C103.542 24.6138 103.942 25.5148 104.242 26.2148L108.442 23.6138C108.042 22.7148 107.942 21.7148 107.942 21.1138V16.9138H113.042L114.142 13.1138H107.942V10.4138H118.542V23.3148H122.942V10.5148H128.641L128.041 7.81484C127.841 7.01484 127.141 6.71484 126.241 6.71484H118.941H99.1416Z" fill="#171717"/>
<path d="M122.742 24.9146H107.542V25.9146H122.742V24.9146Z" fill="#171717"/>
<path d="M26.8418 24.9146H102.742V25.9146L26.8418 26.0146V24.9146Z" fill="#171717"/>
<path d="M129.942 23.7149C129.942 25.0149 128.841 26.1139 127.542 26.1139C126.243 26.1139 125.142 25.0139 125.142 23.7149C125.142 22.4139 126.243 21.3149 127.542 21.3149C128.841 21.3149 129.942 22.4149 129.942 23.7149ZM125.642 23.7149C125.642 24.7149 126.443 25.5149 127.443 25.5149C128.443 25.5149 129.243 24.7149 129.243 23.7149C129.243 22.7149 128.443 21.9139 127.443 21.9139C126.443 21.9139 125.642 22.7149 125.642 23.7149ZM127.042 23.6149V23.0149H127.642C127.943 23.0149 127.943 23.2149 127.943 23.3149C127.943 23.5149 127.842 23.6149 127.543 23.6149H127.042ZM126.642 24.8149H127.042V24.0149H127.542C127.842 24.0149 127.842 24.1149 127.842 24.4139C127.842 24.6139 127.842 24.7149 127.943 24.8139H128.443V24.7139C128.342 24.7139 128.342 24.6129 128.342 24.3139C128.342 23.9139 128.242 23.8139 128.042 23.8139C128.242 23.7139 128.342 23.5139 128.342 23.3139C128.342 23.1139 128.242 22.7139 127.642 22.7139H126.542V24.8139L126.642 24.8149Z" fill="#171717"/>
</svg>
