<svg width="125" height="125" viewBox="0 0 125 125" fill="none" xmlns="http://www.w3.org/2000/svg">
<circle cx="62.5" cy="62.5" r="58.5" stroke="#FBFDFF" stroke-opacity="0.6" stroke-width="6.24" stroke-dasharray="17.29 17.29"/>
<g clip-path="url(#clip0_179_11414)">
<path d="M44.236 62.3853L39.3582 64.4758C36.3269 65.7749 34.8112 66.4245 33.7853 67.2284C32.8829 67.9356 32.24 68.7224 31.9487 69.4761C31.6177 70.3329 31.9565 71.1235 32.6342 72.7048L36.0223 80.6105C36.7 82.1918 37.0389 82.9825 37.8876 83.3336C38.6342 83.6425 39.6474 83.7196 40.7818 83.5538C42.0715 83.3654 43.5872 82.7158 46.6185 81.4167L51.4963 79.3262C54.4782 78.0483 55.9692 77.4093 57.4339 77.0111C58.7317 76.6583 60.0097 76.4451 61.2095 76.3814C62.5636 76.3095 63.7742 76.498 66.1953 76.8748L84.2212 79.6807C87.2119 80.1462 88.7074 80.379 89.7703 80.0144C90.6907 79.6987 91.515 79.145 91.969 78.5374C92.4932 77.8357 92.0815 76.8749 91.258 74.9534L74.8246 36.6085C74.0011 34.6869 73.5894 33.7262 72.7197 33.6219C71.9666 33.5316 70.9972 33.7466 70.1338 34.1953C69.1367 34.7135 68.274 35.9569 66.5484 38.4437L56.1485 53.432C54.7516 55.4451 54.0532 56.4517 53.0672 57.3826C52.1936 58.2075 51.158 58.986 50.0074 59.6824C48.7089 60.4684 47.2179 61.1074 44.236 62.3853Z" stroke="url(#paint0_linear_179_11414)" stroke-width="3.9" stroke-linecap="round" stroke-linejoin="round"/>
</g>
<defs>
<linearGradient id="paint0_linear_179_11414" x1="48.8604" y1="43.2955" x2="68.5091" y2="89.1431" gradientUnits="userSpaceOnUse">
<stop stop-color="#FBFDFF"/>
<stop offset="1" stop-color="#115B76"/>
</linearGradient>
<clipPath id="clip0_179_11414">
<rect width="85.8" height="85.8" fill="white" transform="translate(2.44043 43.2578) rotate(-23.1983)"/>
</clipPath>
</defs>
</svg>
