<svg width="158" height="158" viewBox="0 0 158 158" fill="none" xmlns="http://www.w3.org/2000/svg">
<circle cx="79" cy="79" r="75" stroke="#FBFDFF" stroke-opacity="0.6" stroke-width="8" stroke-dasharray="22.17 22.17"/>
<g clip-path="url(#clip0_179_11431)">
<path d="M55.4157 78.7855L49.1621 81.4655C45.2758 83.1311 43.3327 83.9639 42.0174 84.9945C40.8604 85.9012 40.0362 86.9099 39.6628 87.8761C39.2384 88.9746 39.6728 89.9882 40.5416 92.0155L44.8854 102.151C45.7542 104.178 46.1886 105.192 47.2768 105.642C48.234 106.038 49.5329 106.137 50.9873 105.925C52.6407 105.683 54.5839 104.85 58.4702 103.185L64.7238 100.505C68.5468 98.8661 70.4583 98.0469 72.3361 97.5364C74 97.0841 75.6384 96.8108 77.1766 96.7292C78.9127 96.637 80.4647 96.8786 83.5687 97.3617L106.679 100.959C110.513 101.556 112.43 101.854 113.793 101.387C114.973 100.982 116.03 100.272 116.612 99.4932C117.284 98.5936 116.756 97.3618 115.7 94.8983L94.6319 45.7382C93.5762 43.2747 93.0483 42.0429 91.9333 41.9092C90.9678 41.7935 89.7249 42.0691 88.618 42.6444C87.3397 43.3088 86.2336 44.9029 84.0214 48.0911L70.6881 67.3068C68.8973 69.8877 68.0019 71.1782 66.7378 72.3717C65.6178 73.4293 64.29 74.4273 62.815 75.3201C61.1502 76.3279 59.2387 77.1471 55.4157 78.7855Z" stroke="#FBFDFF" stroke-width="5" stroke-linecap="round" stroke-linejoin="round"/>
</g>
<defs>
<clipPath id="clip0_179_11431">
<rect width="110" height="110" fill="white" transform="translate(2 54.3306) rotate(-23.1983)"/>
</clipPath>
</defs>
</svg>
