<svg width="125" height="125" viewBox="0 0 125 125" fill="none" xmlns="http://www.w3.org/2000/svg">
<circle cx="62.5" cy="62.5" r="58.5" stroke="#FBFDFF" stroke-opacity="0.6" stroke-width="6.24" stroke-dasharray="17.29 17.29"/>
<g clip-path="url(#clip0_179_11419)">
<path d="M53.3523 96.2966L87.956 90.816C91.9111 90.1895 93.8886 89.8763 95.2773 88.8673C96.4989 87.9798 97.4081 86.7284 97.8747 85.2924C98.4052 83.6598 98.092 81.6823 97.4655 77.7272L96.5707 72.0776C95.9443 68.1225 95.6311 66.145 94.6221 64.7563C93.7346 63.5347 92.4832 62.6255 91.0471 62.1589C89.4146 61.6284 87.4371 61.9416 83.482 62.5681L82.9765 62.6481M56.8669 49.9277L63.621 40.6315C65.9747 37.3919 67.1516 35.7721 68.681 34.9927C70.0264 34.3073 71.5542 34.0653 73.0456 34.3015C74.741 34.57 76.3608 35.7469 79.6004 38.1006L84.228 41.4627C87.4676 43.8164 89.0874 44.9933 89.8667 46.5227C90.5522 47.8681 90.7942 49.3959 90.558 50.8873C90.2895 52.5827 89.1126 54.2025 86.7589 57.4421L82.9765 62.6481M56.8669 49.9277L55.6684 42.3603C55.0419 38.4052 54.7287 36.4277 53.7198 35.0389C52.8322 33.8174 51.5808 32.9081 50.1448 32.4416C48.5122 31.9111 46.5347 32.2243 42.5796 32.8507L36.93 33.7455C32.9749 34.372 30.9974 34.6852 29.6087 35.6942C28.3871 36.5817 27.4779 37.8331 27.0113 39.2691C26.4808 40.9017 26.794 42.8792 27.4205 46.8343L33.9078 87.7937C34.5342 91.7488 34.8474 93.7264 35.8564 95.1151C36.7439 96.3366 37.9954 97.2459 39.4314 97.7125C41.064 98.2429 43.0415 97.9297 46.9966 97.3033L52.6461 96.4085C56.6012 95.7821 58.5788 95.4689 59.9675 94.4599C61.189 93.5724 62.0983 92.3209 62.5649 90.8849C62.5907 90.8054 62.6145 90.7252 62.6364 90.6439M56.8669 49.9277L62.1557 83.3197C62.7516 87.0823 63.0641 89.0552 62.6364 90.6439M82.9765 62.6481L62.6364 90.6439M47.5843 82.7319L47.6197 82.7264" stroke="url(#paint0_linear_179_11419)" stroke-width="3.9" stroke-linecap="round" stroke-linejoin="round"/>
</g>
<defs>
<linearGradient id="paint0_linear_179_11419" x1="57.4097" y1="30.5019" x2="67.4763" y2="94.0596" gradientUnits="userSpaceOnUse">
<stop stop-color="#FBFDFF"/>
<stop offset="1" stop-color="#115B76"/>
</linearGradient>
<clipPath id="clip0_179_11419">
<rect width="85.8" height="85.8" fill="white" transform="translate(13.3604 26.6201) rotate(-9)"/>
</clipPath>
</defs>
</svg>
