<svg width="125" height="125" viewBox="0 0 125 125" fill="none" xmlns="http://www.w3.org/2000/svg">
<circle cx="62.5" cy="62.5" r="58.5" stroke="#FBFDFF" stroke-opacity="0.6" stroke-width="6.24" stroke-dasharray="17.29 17.29"/>
<path d="M50.8329 98.6702L52.7589 98.3652L52.1488 94.5132L50.2228 94.8182L50.8329 98.6702ZM42.9627 97.1534L43.5652 95.2988L42.9627 97.1534ZM39.3877 94.556L37.8101 95.7022L39.3877 94.556ZM81.9239 27.4084L81.3213 29.263L81.9239 27.4084ZM85.4989 30.0058L87.0765 28.8597L85.4989 30.0058ZM33.1399 35.1351L34.2861 36.7127L33.1399 35.1351ZM30.5425 38.7101L28.688 38.1075L30.5425 38.7101ZM85.9689 40.457L86.274 42.383L90.1259 41.7729L89.8209 39.8469L85.9689 40.457ZM45.218 44.937L43.292 45.2421L43.9021 49.094L45.8281 48.789L45.218 44.937ZM67.014 45.4335L68.94 45.1284L68.3299 41.2764L66.4039 41.5815L67.014 45.4335ZM64.5767 94.1372L62.632 93.9934L65.2493 95.9676L64.5767 94.1372ZM69.2505 77.4214L70.8281 78.5676L69.2505 77.4214ZM66.5832 81.4284L64.8376 80.5593L66.5832 81.4284ZM64.9431 89.1825L66.8878 89.3263L66.8878 89.3263L64.9431 89.1825ZM65.4947 84.4006L67.3887 84.8644L65.4947 84.4006ZM79.6916 84.4574L81.2692 85.6036L79.6916 84.4574ZM76.4968 88.4743L75.1458 87.0681L76.4968 88.4743ZM69.0738 92.4845L69.7465 94.3148L69.7465 94.3148L69.0738 92.4845ZM73.8096 90.5058L74.7942 92.189L73.8096 90.5058ZM94.9914 63.3991L93.4138 62.2529L94.9914 63.3991ZM84.8118 56.0031L83.2342 54.8569L84.8118 56.0031ZM49.692 73.1849L47.7661 73.4899L48.3761 77.3419L50.3021 77.0369L49.692 73.1849ZM53.8331 76.4776L55.7591 76.1726L55.149 72.3206L53.223 72.6256L53.8331 76.4776ZM47.455 59.061L45.529 59.366L46.1391 63.218L48.0651 62.9129L47.455 59.061ZM62.1891 60.6759L64.1151 60.3709L63.505 56.5189L61.579 56.8239L62.1891 60.6759ZM40.7663 35.1125L74.6638 29.7436L74.0537 25.8916L40.1562 31.2605L40.7663 35.1125ZM39.365 86.9296L32.8777 45.9702L29.0257 46.5803L35.5131 87.5397L39.365 86.9296ZM50.2228 94.8182C48.2135 95.1365 46.8221 95.3553 45.7271 95.4382C44.6549 95.5194 44.0392 95.4528 43.5652 95.2988L42.3601 99.008C43.5187 99.3844 44.708 99.4265 46.0215 99.3271C47.3122 99.2294 48.8871 98.9784 50.8329 98.6702L50.2228 94.8182ZM35.5131 87.5397C35.8212 89.4855 36.0692 91.0609 36.3751 92.3186C36.6865 93.5985 37.094 94.7166 37.8101 95.7022L40.9652 93.4098C40.6723 93.0067 40.4188 92.4416 40.1647 91.3968C39.9051 90.3299 39.6833 88.9389 39.365 86.9296L35.5131 87.5397ZM43.5652 95.2988C42.5209 94.9595 41.6107 94.2982 40.9652 93.4098L37.8101 95.7022C38.9396 97.2569 40.5324 98.4141 42.3601 99.008L43.5652 95.2988ZM74.6638 29.7436C76.6731 29.4254 78.0645 29.2065 79.1595 29.1237C80.2316 29.0425 80.8474 29.109 81.3213 29.263L82.5265 25.5539C81.3679 25.1774 80.1785 25.1353 78.8651 25.2348C77.5744 25.3325 75.9994 25.5835 74.0537 25.8916L74.6638 29.7436ZM89.3735 37.0221C89.0653 35.0764 88.8173 33.501 88.5114 32.2433C88.2001 30.9633 87.7925 29.8452 87.0765 28.8597L83.9213 31.152C84.2142 31.5552 84.4678 32.1202 84.7219 33.165C84.9814 34.232 85.2033 35.6229 85.5215 37.6322L89.3735 37.0221ZM81.3213 29.263C82.3657 29.6023 83.2758 30.2636 83.9213 31.152L87.0765 28.8597C85.9469 27.3049 84.3541 26.1477 82.5265 25.5539L81.3213 29.263ZM40.1562 31.2605C38.2105 31.5686 36.6351 31.8166 35.3773 32.1226C34.0974 32.4339 32.9793 32.8414 31.9937 33.5575L34.2861 36.7127C34.6893 36.4197 35.2543 36.1662 36.2991 35.9121C37.3661 35.6525 38.757 35.4307 40.7663 35.1125L40.1562 31.2605ZM32.8777 45.9702C32.5595 43.9609 32.3406 42.5695 32.2577 41.4745C32.1766 40.4023 32.2431 39.7866 32.3971 39.3127L28.688 38.1075C28.3115 39.2661 28.2694 40.4554 28.3689 41.7689C28.4666 43.0596 28.7175 44.6345 29.0257 46.5803L32.8777 45.9702ZM31.9937 33.5575C30.439 34.6871 29.2818 36.2798 28.688 38.1075L32.3971 39.3127C32.7364 38.2683 33.3977 37.3581 34.2861 36.7127L31.9937 33.5575ZM85.5215 37.6322L85.9689 40.457L89.8209 39.8469L89.3735 37.0221L85.5215 37.6322ZM45.8281 48.789L67.014 45.4335L66.4039 41.5815L45.218 44.937L45.8281 48.789ZM93.4138 62.2529L78.1141 83.3112L81.2692 85.6036L96.569 64.5452L93.4138 62.2529ZM70.8281 78.5676L86.3893 57.1493L83.2342 54.8569L67.6729 76.2752L70.8281 78.5676ZM68.4012 90.6542L63.904 92.3069L65.2493 95.9676L69.7465 94.3148L68.4012 90.6542ZM66.5214 94.2811L66.8878 89.3263L62.9984 89.0387L62.632 93.9934L66.5214 94.2811ZM67.6729 76.2752C66.286 78.1841 65.4581 79.3132 64.8376 80.5593L68.3288 82.2976C68.7711 81.4093 69.3671 80.5784 70.8281 78.5676L67.6729 76.2752ZM66.8878 89.3263C67.0711 86.8475 67.1527 85.8282 67.3887 84.8644L63.6006 83.9368C63.2695 85.2888 63.1724 86.6855 62.9984 89.0387L66.8878 89.3263ZM64.8376 80.5593C64.3016 81.6359 63.8867 82.7686 63.6006 83.9368L67.3887 84.8644C67.6061 83.9767 67.9214 83.1158 68.3288 82.2976L64.8376 80.5593ZM78.1141 83.3112C76.5548 85.4573 75.9077 86.3361 75.1458 87.0681L77.8478 89.8805C78.9167 88.8534 79.7892 87.6406 81.2692 85.6036L78.1141 83.3112ZM69.7465 94.3148C72.1099 93.4462 73.5146 92.9375 74.7942 92.189L72.8251 88.8226C71.9131 89.3561 70.8911 89.7391 68.4012 90.6542L69.7465 94.3148ZM75.1458 87.0681C74.444 87.7424 73.665 88.3313 72.8251 88.8226L74.7942 92.189C75.8994 91.5425 76.9244 90.7676 77.8478 89.8805L75.1458 87.0681ZM92.4534 56.1888C94.3932 57.5982 94.8232 60.3131 93.4138 62.2529L96.569 64.5452C99.2444 60.8629 98.4281 55.709 94.7458 53.0337L92.4534 56.1888ZM94.7458 53.0337C91.0634 50.3583 85.9095 51.1746 83.2342 54.8569L86.3893 57.1493C87.7987 55.2095 90.5136 54.7795 92.4534 56.1888L94.7458 53.0337ZM50.3021 77.0369L53.8331 76.4776L53.223 72.6256L49.692 73.1849L50.3021 77.0369ZM48.0651 62.9129L62.1891 60.6759L61.579 56.8239L47.455 59.061L48.0651 62.9129Z" fill="url(#paint0_linear_179_11404)"/>
<defs>
<linearGradient id="paint0_linear_179_11404" x1="59.9855" y1="30.0941" x2="70.0521" y2="93.6519" gradientUnits="userSpaceOnUse">
<stop stop-color="#FBFDFF"/>
<stop offset="1" stop-color="#115B76"/>
</linearGradient>
</defs>
</svg>
