<svg width="158" height="158" viewBox="0 0 158 158" fill="none" xmlns="http://www.w3.org/2000/svg">
<circle cx="79" cy="79" r="75" stroke="#FBFDFF" stroke-opacity="0.6" stroke-width="8" stroke-dasharray="22.17 22.17"/>
<g clip-path="url(#clip0_179_11434)">
<path d="M67.2718 122.329L111.635 115.303C116.706 114.499 119.241 114.098 121.022 112.804C122.588 111.666 123.754 110.062 124.352 108.221C125.032 106.128 124.63 103.593 123.827 98.522L122.68 91.279C121.877 86.2084 121.475 83.6731 120.182 81.8927C119.044 80.3266 117.44 79.1609 115.598 78.5627C113.505 77.8826 110.97 78.2842 105.9 79.0873L105.252 79.1899M71.7777 62.8816L80.4368 50.9634C83.4544 46.8101 84.9631 44.7334 86.924 43.7343C88.6488 42.8555 90.6076 42.5452 92.5196 42.848C94.6932 43.1923 96.7699 44.7011 100.923 47.7187L106.856 52.0291C111.009 55.0467 113.086 56.5555 114.085 58.5163C114.964 60.2412 115.274 62.1999 114.971 64.1119C114.627 66.2855 113.118 68.3622 110.101 72.5155L105.252 79.1899M71.7777 62.8816L70.2411 53.1799C69.438 48.1092 69.0364 45.5739 67.7428 43.7935C66.605 42.2274 65.0006 41.0617 63.1595 40.4635C61.0665 39.7835 58.5312 40.185 53.4606 40.9881L46.2175 42.1353C41.1469 42.9384 38.6116 43.34 36.8312 44.6335C35.2651 45.7714 34.0994 47.3758 33.5012 49.2169C32.8212 51.3099 33.2227 53.8452 34.0258 58.9158L42.3429 111.428C43.146 116.498 43.5476 119.034 44.8411 120.814C45.979 122.38 47.5834 123.546 49.4245 124.144C51.5175 124.824 54.0528 124.423 59.1234 123.62L66.3664 122.472C71.437 121.669 73.9723 121.268 75.7528 119.974C77.3189 118.836 78.4846 117.232 79.0828 115.391C79.1158 115.289 79.1464 115.186 79.1744 115.082M71.7777 62.8816L78.5582 105.692C79.3222 110.516 79.7228 113.045 79.1744 115.082M105.252 79.1899L79.1744 115.082M59.8769 104.938L59.9222 104.931" stroke="#FBFDFF" stroke-width="5" stroke-linecap="round" stroke-linejoin="round"/>
</g>
<defs>
<clipPath id="clip0_179_11434">
<rect width="110" height="110" fill="white" transform="translate(16 33) rotate(-9)"/>
</clipPath>
</defs>
</svg>
