<svg width="158" height="158" viewBox="0 0 158 158" fill="none" xmlns="http://www.w3.org/2000/svg">
<circle cx="79" cy="79" r="75" stroke="#FBFDFF" stroke-opacity="0.6" stroke-width="8" stroke-dasharray="22.17 22.17"/>
<path d="M64.0418 125.372L66.511 124.981L65.7289 120.043L63.2596 120.434L64.0418 125.372ZM53.9518 123.427L54.7243 121.05L54.7243 121.05L53.9518 123.427ZM49.3685 120.097L47.3459 121.567L49.3685 120.097ZM103.902 34.0108L103.13 36.3884L103.13 36.3884L103.902 34.0108ZM108.485 37.3408L110.508 35.8713L108.485 37.3408ZM41.3585 43.9167L42.828 45.9393L42.828 45.9393L41.3585 43.9167ZM38.0286 48.5001L35.6509 47.7275L38.0286 48.5001ZM109.088 50.7397L109.479 53.209L114.418 52.4268L114.026 49.9576L109.088 50.7397ZM56.8433 56.4833L54.3741 56.8744L55.1562 61.8129L57.6255 61.4218L56.8433 56.4833ZM84.7869 57.1198L87.2561 56.7287L86.4739 51.7903L84.0047 52.1814L84.7869 57.1198ZM81.6621 119.561L79.1689 119.376L82.5244 121.907L81.6621 119.561ZM87.6541 98.13L89.6767 99.5994L89.6767 99.5994L87.6541 98.13ZM84.2345 103.267L81.9966 102.153L84.2345 103.267ZM82.1318 113.208L84.625 113.393L84.625 113.393L82.1318 113.208ZM82.839 107.078L85.2672 107.672L85.2672 107.672L82.839 107.078ZM101.04 107.15L103.063 108.62L103.063 108.62L101.04 107.15ZM96.9442 112.3L95.2122 110.498L95.2122 110.498L96.9442 112.3ZM87.4277 117.442L88.29 119.788L88.29 119.788L87.4277 117.442ZM93.4992 114.905L94.7615 117.063L93.4992 114.905ZM120.655 80.1526L118.633 78.6832L120.655 80.1526ZM107.604 70.6706L105.582 69.2012L105.582 69.2012L107.604 70.6706ZM62.5792 92.6986L60.11 93.0897L60.8922 98.0281L63.3614 97.637L62.5792 92.6986ZM67.8883 96.92L70.3575 96.5289L69.5753 91.5905L67.1061 91.9816L67.8883 96.92ZM59.7113 74.5909L57.242 74.982L58.0242 79.9205L60.4934 79.5294L59.7113 74.5909ZM78.601 76.6614L81.0703 76.2703L80.2881 71.3319L77.8189 71.723L78.601 76.6614ZM51.136 43.8877L94.5943 37.0046L93.8121 32.0662L50.3538 38.9493L51.136 43.8877ZM49.3395 110.32L41.0224 57.8079L36.0839 58.5901L44.401 111.102L49.3395 110.32ZM63.2596 120.434C60.6836 120.842 58.8998 121.122 57.496 121.228C56.1213 121.332 55.332 121.247 54.7243 121.05L53.1793 125.805C54.6646 126.288 56.1894 126.342 57.8734 126.214C59.5281 126.089 61.5473 125.767 64.0418 125.372L63.2596 120.434ZM44.401 111.102C44.7961 113.597 45.1141 115.616 45.5063 117.229C45.9054 118.87 46.4279 120.303 47.3459 121.567L51.391 118.628C51.0155 118.111 50.6904 117.387 50.3646 116.047C50.0319 114.679 49.7475 112.896 49.3395 110.32L44.401 111.102ZM54.7243 121.05C53.3854 120.615 52.2185 119.767 51.391 118.628L47.3459 121.567C48.7941 123.56 50.8361 125.044 53.1793 125.805L54.7243 121.05ZM94.5943 37.0046C97.1703 36.5966 98.9541 36.3161 100.358 36.2098C101.733 36.1057 102.522 36.191 103.13 36.3884L104.675 31.6332C103.189 31.1505 101.664 31.0966 99.9805 31.224C98.3258 31.3493 96.3066 31.6711 93.8121 32.0662L94.5943 37.0046ZM113.453 46.336C113.058 43.8415 112.74 41.8218 112.348 40.2093C111.948 38.5684 111.426 37.1349 110.508 35.8713L106.463 38.8103C106.838 39.3271 107.163 40.0515 107.489 41.391C107.822 42.7589 108.106 44.5422 108.514 47.1182L113.453 46.336ZM103.13 36.3884C104.469 36.8235 105.635 37.6713 106.463 38.8103L110.508 35.8713C109.06 33.8781 107.018 32.3945 104.675 31.6332L103.13 36.3884ZM50.3538 38.9493C47.8592 39.3444 45.8395 39.6623 44.227 40.0545C42.5861 40.4537 41.1526 40.9762 39.8891 41.8942L42.828 45.9393C43.3449 45.5637 44.0693 45.2387 45.4088 44.9129C46.7767 44.5801 48.5599 44.2957 51.136 43.8877L50.3538 38.9493ZM41.0224 57.8079C40.6144 55.2319 40.3338 53.448 40.2275 52.0442C40.1235 50.6696 40.2088 49.8802 40.4062 49.2726L35.6509 47.7275C35.1683 49.2129 35.1143 50.7377 35.2418 52.4216C35.3671 54.0764 35.6888 56.0955 36.0839 58.5901L41.0224 57.8079ZM39.8891 41.8942C37.8959 43.3423 36.4123 45.3843 35.6509 47.7275L40.4062 49.2726C40.8413 47.9336 41.689 46.7668 42.828 45.9393L39.8891 41.8942ZM108.514 47.1182L109.088 50.7397L114.026 49.9576L113.453 46.336L108.514 47.1182ZM57.6255 61.4218L84.7869 57.1198L84.0047 52.1814L56.8433 56.4833L57.6255 61.4218ZM118.633 78.6832L99.0177 105.681L103.063 108.62L122.678 81.6221L118.633 78.6832ZM89.6767 99.5994L109.627 72.1401L105.582 69.2012L85.6316 96.6605L89.6767 99.5994ZM86.5653 115.095L80.7997 117.214L82.5244 121.907L88.29 119.788L86.5653 115.095ZM84.1553 119.745L84.625 113.393L79.6386 113.024L79.1689 119.376L84.1553 119.745ZM85.6316 96.6605C83.8535 99.1078 82.792 100.555 81.9966 102.153L86.4725 104.381C87.0395 103.243 87.8036 102.177 89.6767 99.5994L85.6316 96.6605ZM84.625 113.393C84.86 110.215 84.9646 108.908 85.2672 107.672L80.4107 106.483C79.9862 108.216 79.8618 110.007 79.6386 113.024L84.625 113.393ZM81.9966 102.153C81.3094 103.533 80.7775 104.985 80.4107 106.483L85.2672 107.672C85.546 106.534 85.9502 105.43 86.4725 104.381L81.9966 102.153ZM99.0177 105.681C97.0187 108.432 96.189 109.559 95.2122 110.498L98.6763 114.103C100.047 112.786 101.165 111.232 103.063 108.62L99.0177 105.681ZM88.29 119.788C91.32 118.675 93.121 118.022 94.7615 117.063L92.2369 112.747C91.0677 113.431 89.7575 113.922 86.5653 115.095L88.29 119.788ZM95.2122 110.498C94.3125 111.362 93.3138 112.117 92.2369 112.747L94.7615 117.063C96.1784 116.234 97.4925 115.24 98.6763 114.103L95.2122 110.498ZM117.401 70.9087C119.888 72.7156 120.44 76.1963 118.633 78.6832L122.678 81.6221C126.108 76.9012 125.061 70.2936 120.34 66.8637L117.401 70.9087ZM120.34 66.8637C115.619 63.4337 109.012 64.4803 105.582 69.2012L109.627 72.1401C111.434 69.6532 114.915 69.1019 117.401 70.9087L120.34 66.8637ZM63.3614 97.637L67.8883 96.92L67.1061 91.9816L62.5792 92.6986L63.3614 97.637ZM60.4934 79.5294L78.601 76.6614L77.8189 71.723L59.7113 74.5909L60.4934 79.5294Z" fill="#FBFDFF"/>
</svg>
