<svg width="206" height="65" viewBox="0 0 206 65" fill="none" xmlns="http://www.w3.org/2000/svg">
<path d="M16.7188 4.75H10.4531V24H6.73438V4.75H0.484375V1.59375H16.7188V4.75ZM23.7344 24.375C21.2031 24.375 19.1927 23.6302 17.7031 22.1406C16.2135 20.651 15.4688 18.6458 15.4688 16.125C15.4792 13.5729 16.2708 11.5208 17.8438 9.96875C19.4167 8.40625 21.4583 7.625 23.9688 7.625C26.4896 7.625 28.4792 8.39062 29.9375 9.92188C31.3958 11.4531 32.125 13.4323 32.125 15.8594C32.125 18.3385 31.3542 20.3802 29.8125 21.9844C28.2812 23.5781 26.2552 24.375 23.7344 24.375ZM23.875 21.4219C25.3125 21.4219 26.4271 20.9323 27.2188 19.9531C28.0104 18.9635 28.4062 17.6302 28.4062 15.9531C28.4062 14.3385 28.0052 13.0417 27.2031 12.0625C26.4115 11.0729 25.3021 10.5781 23.875 10.5781C22.4479 10.5781 21.3073 11.0885 20.4531 12.1094C19.599 13.1198 19.1719 14.4323 19.1719 16.0469C19.1719 17.724 19.5938 19.0417 20.4375 20C21.2812 20.9479 22.4271 21.4219 23.875 21.4219ZM50.3281 23.0781C50.3281 25.776 49.5938 27.8594 48.125 29.3281C46.6667 30.7969 44.6406 31.5312 42.0469 31.5312C40.3906 31.5312 38.9479 31.2344 37.7188 30.6406C36.4896 30.0573 35.4583 29.2188 34.625 28.125L37.2656 26.1562C37.8698 27 38.5521 27.6302 39.3125 28.0469C40.0833 28.4635 41.0104 28.6719 42.0938 28.6719C43.5417 28.6719 44.6667 28.2552 45.4688 27.4219C46.2812 26.5885 46.6875 25.349 46.6875 23.7031V21.8594H46.625C46.0417 22.6823 45.3281 23.3073 44.4844 23.7344C43.651 24.1615 42.6146 24.375 41.375 24.375C39.2917 24.375 37.6198 23.6771 36.3594 22.2812C35.099 20.875 34.4688 18.9167 34.4688 16.4062C34.4688 13.6562 35.1875 11.5052 36.625 9.95312C38.0729 8.40104 39.8854 7.625 42.0625 7.625C43.0104 7.625 43.8854 7.80208 44.6875 8.15625C45.4896 8.51042 46.1354 9.02083 46.625 9.6875H46.6875V8H50.3281V23.0781ZM46.7188 16.5625V14.7031C46.7188 13.5573 46.3333 12.5833 45.5625 11.7812C44.7917 10.9792 43.7969 10.5781 42.5781 10.5781C41.224 10.5781 40.151 11.0677 39.3594 12.0469C38.5677 13.026 38.1719 14.4219 38.1719 16.2344C38.1719 17.849 38.5365 19.1198 39.2656 20.0469C40.0052 20.9635 41.026 21.4219 42.3281 21.4219C43.6302 21.4219 44.6875 20.974 45.5 20.0781C46.3125 19.1823 46.7188 18.0104 46.7188 16.5625ZM68.4062 16.8906H57.3594C57.3906 18.4323 57.8073 19.5938 58.6094 20.375C59.4219 21.1458 60.4167 21.5312 61.5938 21.5312C62.4271 21.5312 63.1667 21.3385 63.8125 20.9531C64.4583 20.5573 65.0052 19.974 65.4531 19.2031L68.25 20.7188C67.5208 21.8854 66.5885 22.7865 65.4531 23.4219C64.3281 24.0573 63 24.375 61.4688 24.375C59.1146 24.375 57.2292 23.6667 55.8125 22.25C54.3958 20.8333 53.6875 18.7969 53.6875 16.1406C53.6875 13.6094 54.4115 11.5573 55.8594 9.98438C57.3177 8.41146 59.1406 7.625 61.3281 7.625C63.5781 7.625 65.3177 8.29688 66.5469 9.64062C67.7865 10.9844 68.4062 12.9323 68.4062 15.4844V16.8906ZM64.8906 14.2969C64.8906 13.0469 64.5781 12.0781 63.9531 11.3906C63.3281 10.7031 62.474 10.3594 61.3906 10.3594C60.2552 10.3594 59.3333 10.7396 58.625 11.5C57.9167 12.25 57.4896 13.1823 57.3438 14.2969H64.8906ZM81.125 22.9219C80.6458 23.3802 80.0885 23.7344 79.4531 23.9844C78.8177 24.2344 78.1042 24.3594 77.3125 24.3594C75.7917 24.3594 74.6406 23.9792 73.8594 23.2188C73.0885 22.4479 72.7031 21.3229 72.7031 19.8438V10.8438H70.0156V8H72.7031V4.07812L76.3281 3.4375V8H80.4062V10.8438H76.3281V19.7188C76.3281 20.3542 76.4531 20.8229 76.7031 21.125C76.9635 21.4271 77.3542 21.5781 77.875 21.5781C78.1458 21.5781 78.4115 21.526 78.6719 21.4219C78.9323 21.3177 79.2083 21.1146 79.5 20.8125L81.125 22.9219ZM98.1562 24H94.5312V14.625C94.5312 13.2812 94.2656 12.2708 93.7344 11.5938C93.2135 10.9167 92.4323 10.5781 91.3906 10.5781C90.2552 10.5781 89.3333 10.9844 88.625 11.7969C87.9271 12.6094 87.5781 13.6406 87.5781 14.8906V24H83.9375V0.3125H87.5781V10.1562H87.6406C88.2031 9.35417 88.9323 8.73438 89.8281 8.29688C90.724 7.84896 91.6927 7.625 92.7344 7.625C94.4531 7.625 95.7865 8.17708 96.7344 9.28125C97.6823 10.375 98.1562 11.9948 98.1562 14.1406V24ZM115.938 16.8906H104.891C104.922 18.4323 105.339 19.5938 106.141 20.375C106.953 21.1458 107.948 21.5312 109.125 21.5312C109.958 21.5312 110.698 21.3385 111.344 20.9531C111.99 20.5573 112.536 19.974 112.984 19.2031L115.781 20.7188C115.052 21.8854 114.12 22.7865 112.984 23.4219C111.859 24.0573 110.531 24.375 109 24.375C106.646 24.375 104.76 23.6667 103.344 22.25C101.927 20.8333 101.219 18.7969 101.219 16.1406C101.219 13.6094 101.943 11.5573 103.391 9.98438C104.849 8.41146 106.672 7.625 108.859 7.625C111.109 7.625 112.849 8.29688 114.078 9.64062C115.318 10.9844 115.938 12.9323 115.938 15.4844V16.8906ZM112.422 14.2969C112.422 13.0469 112.109 12.0781 111.484 11.3906C110.859 10.7031 110.005 10.3594 108.922 10.3594C107.786 10.3594 106.865 10.7396 106.156 11.5C105.448 12.25 105.021 13.1823 104.875 14.2969H112.422ZM128.375 11.2656C128.083 11.151 127.781 11.0625 127.469 11C127.167 10.9271 126.844 10.8906 126.5 10.8906C125.427 10.8906 124.557 11.3698 123.891 12.3281C123.224 13.2865 122.891 14.5365 122.891 16.0781V24H119.25V8H122.891V10.8906H122.953C123.328 9.86979 123.88 9.08854 124.609 8.54688C125.339 7.99479 126.182 7.71875 127.141 7.71875C127.547 7.71875 127.922 7.75 128.266 7.8125C128.609 7.875 128.979 7.99479 129.375 8.17188L128.375 11.2656ZM151.625 4.78125H143.25V11.4688H150.969V14.6406H143.25V24H139.531V1.59375H151.625V4.78125ZM162.141 24.375C159.609 24.375 157.599 23.6302 156.109 22.1406C154.62 20.651 153.875 18.6458 153.875 16.125C153.885 13.5729 154.677 11.5208 156.25 9.96875C157.823 8.40625 159.865 7.625 162.375 7.625C164.896 7.625 166.885 8.39062 168.344 9.92188C169.802 11.4531 170.531 13.4323 170.531 15.8594C170.531 18.3385 169.76 20.3802 168.219 21.9844C166.688 23.5781 164.661 24.375 162.141 24.375ZM162.281 21.4219C163.719 21.4219 164.833 20.9323 165.625 19.9531C166.417 18.9635 166.812 17.6302 166.812 15.9531C166.812 14.3385 166.411 13.0417 165.609 12.0625C164.818 11.0729 163.708 10.5781 162.281 10.5781C160.854 10.5781 159.714 11.0885 158.859 12.1094C158.005 13.1198 157.578 14.4323 157.578 16.0469C157.578 17.724 158 19.0417 158.844 20C159.688 20.9479 160.833 21.4219 162.281 21.4219ZM183.031 11.2656C182.74 11.151 182.438 11.0625 182.125 11C181.823 10.9271 181.5 10.8906 181.156 10.8906C180.083 10.8906 179.214 11.3698 178.547 12.3281C177.88 13.2865 177.547 14.5365 177.547 16.0781V24H173.906V8H177.547V10.8906H177.609C177.984 9.86979 178.536 9.08854 179.266 8.54688C179.995 7.99479 180.839 7.71875 181.797 7.71875C182.203 7.71875 182.578 7.75 182.922 7.8125C183.266 7.875 183.635 7.99479 184.031 8.17188L183.031 11.2656ZM206 24H202.484V22.0156H202.422C201.859 22.7865 201.172 23.375 200.359 23.7812C199.547 24.1771 198.641 24.375 197.641 24.375C196.161 24.375 194.948 23.9531 194 23.1094C193.062 22.2656 192.594 21.1615 192.594 19.7969C192.594 18.3281 193.062 17.151 194 16.2656C194.948 15.3698 196.302 14.8229 198.062 14.625L202.5 14.125V13.3594C202.5 12.3698 202.224 11.6302 201.672 11.1406C201.12 10.6406 200.396 10.3906 199.5 10.3906C198.615 10.3906 197.87 10.5885 197.266 10.9844C196.661 11.3802 196.161 11.9479 195.766 12.6875L193.047 11.2969C193.589 10.224 194.443 9.34375 195.609 8.65625C196.776 7.96875 198.161 7.625 199.766 7.625C201.786 7.625 203.328 8.15625 204.391 9.21875C205.464 10.2708 206 11.8021 206 13.8125V24ZM202.5 17.5V16.625L198.641 17.0469C197.755 17.1406 197.109 17.3854 196.703 17.7812C196.297 18.1771 196.094 18.7083 196.094 19.375C196.094 20.0521 196.323 20.6042 196.781 21.0312C197.25 21.4479 197.854 21.6562 198.594 21.6562C199.76 21.6562 200.703 21.2656 201.422 20.4844C202.141 19.6927 202.5 18.6979 202.5 17.5Z" fill="url(#paint0_linear_571_6924)"/>
<path d="M10.875 64V41.5938H18.1562C20.4062 41.5938 22.1406 42.0781 23.3594 43.0469C24.5781 44.0052 25.1875 45.375 25.1875 47.1562C25.1875 48.3125 24.8542 49.3281 24.1875 50.2031C23.5312 51.0781 22.6927 51.6927 21.6719 52.0469V52.1094C23.026 52.3698 24.0938 52.9844 24.875 53.9531C25.6562 54.9219 26.0469 56.0885 26.0469 57.4531C26.0469 59.4323 25.3438 61.0208 23.9375 62.2188C22.5417 63.4062 20.6771 64 18.3438 64H10.875ZM14.5938 44.625V51H17.2031C18.4531 51 19.4427 50.7135 20.1719 50.1406C20.9115 49.5573 21.2812 48.7083 21.2812 47.5938C21.2812 46.625 20.974 45.8906 20.3594 45.3906C19.7552 44.8802 18.875 44.625 17.7188 44.625H14.5938ZM14.5938 54V60.9688H17.8125C19.2083 60.9688 20.276 60.651 21.0156 60.0156C21.7656 59.3802 22.1406 58.5104 22.1406 57.4062C22.1406 56.3021 21.7448 55.4583 20.9531 54.875C20.1615 54.2917 19.0104 54 17.5 54H14.5938ZM43.1875 56.8906H32.1406C32.1719 58.4323 32.5885 59.5938 33.3906 60.375C34.2031 61.1458 35.1979 61.5312 36.375 61.5312C37.2083 61.5312 37.9479 61.3385 38.5938 60.9531C39.2396 60.5573 39.7865 59.974 40.2344 59.2031L43.0312 60.7188C42.3021 61.8854 41.3698 62.7865 40.2344 63.4219C39.1094 64.0573 37.7812 64.375 36.25 64.375C33.8958 64.375 32.0104 63.6667 30.5938 62.25C29.1771 60.8333 28.4688 58.7969 28.4688 56.1406C28.4688 53.6094 29.1927 51.5573 30.6406 49.9844C32.099 48.4115 33.9219 47.625 36.1094 47.625C38.3594 47.625 40.099 48.2969 41.3281 49.6406C42.5677 50.9844 43.1875 52.9323 43.1875 55.4844V56.8906ZM39.6719 54.2969C39.6719 53.0469 39.3594 52.0781 38.7344 51.3906C38.1094 50.7031 37.2552 50.3594 36.1719 50.3594C35.0365 50.3594 34.1146 50.7396 33.4062 51.5C32.6979 52.25 32.2708 53.1823 32.125 54.2969H39.6719ZM55.9062 62.9219C55.4271 63.3802 54.8698 63.7344 54.2344 63.9844C53.599 64.2344 52.8854 64.3594 52.0938 64.3594C50.5729 64.3594 49.4219 63.9792 48.6406 63.2188C47.8698 62.4479 47.4844 61.3229 47.4844 59.8438V50.8438H44.7969V48H47.4844V44.0781L51.1094 43.4375V48H55.1875V50.8438H51.1094V59.7188C51.1094 60.3542 51.2344 60.8229 51.4844 61.125C51.7448 61.4271 52.1354 61.5781 52.6562 61.5781C52.9271 61.5781 53.1927 61.526 53.4531 61.4219C53.7135 61.3177 53.9896 61.1146 54.2812 60.8125L55.9062 62.9219ZM68.125 62.9219C67.6458 63.3802 67.0885 63.7344 66.4531 63.9844C65.8177 64.2344 65.1042 64.3594 64.3125 64.3594C62.7917 64.3594 61.6406 63.9792 60.8594 63.2188C60.0885 62.4479 59.7031 61.3229 59.7031 59.8438V50.8438H57.0156V48H59.7031V44.0781L63.3281 43.4375V48H67.4062V50.8438H63.3281V59.7188C63.3281 60.3542 63.4531 60.8229 63.7031 61.125C63.9635 61.4271 64.3542 61.5781 64.875 61.5781C65.1458 61.5781 65.4115 61.526 65.6719 61.4219C65.9323 61.3177 66.2083 61.1146 66.5 60.8125L68.125 62.9219ZM84.625 56.8906H73.5781C73.6094 58.4323 74.026 59.5938 74.8281 60.375C75.6406 61.1458 76.6354 61.5312 77.8125 61.5312C78.6458 61.5312 79.3854 61.3385 80.0312 60.9531C80.6771 60.5573 81.224 59.974 81.6719 59.2031L84.4688 60.7188C83.7396 61.8854 82.8073 62.7865 81.6719 63.4219C80.5469 64.0573 79.2188 64.375 77.6875 64.375C75.3333 64.375 73.4479 63.6667 72.0312 62.25C70.6146 60.8333 69.9062 58.7969 69.9062 56.1406C69.9062 53.6094 70.6302 51.5573 72.0781 49.9844C73.5365 48.4115 75.3594 47.625 77.5469 47.625C79.7969 47.625 81.5365 48.2969 82.7656 49.6406C84.0052 50.9844 84.625 52.9323 84.625 55.4844V56.8906ZM81.1094 54.2969C81.1094 53.0469 80.7969 52.0781 80.1719 51.3906C79.5469 50.7031 78.6927 50.3594 77.6094 50.3594C76.474 50.3594 75.5521 50.7396 74.8438 51.5C74.1354 52.25 73.7083 53.1823 73.5625 54.2969H81.1094ZM97.0625 51.2656C96.7708 51.151 96.4688 51.0625 96.1562 51C95.8542 50.9271 95.5312 50.8906 95.1875 50.8906C94.1146 50.8906 93.2448 51.3698 92.5781 52.3281C91.9115 53.2865 91.5781 54.5365 91.5781 56.0781V64H87.9375V48H91.5781V50.8906H91.6406C92.0156 49.8698 92.5677 49.0885 93.2969 48.5469C94.026 47.9948 94.8698 47.7188 95.8281 47.7188C96.2344 47.7188 96.6094 47.75 96.9531 47.8125C97.2969 47.875 97.6667 47.9948 98.0625 48.1719L97.0625 51.2656ZM120.312 44.7812H111.938V51.4688H119.656V54.6406H111.938V64H108.219V41.5938H120.312V44.7812ZM137.562 64H133.922V61.8281H133.859C133.339 62.6094 132.635 63.2292 131.75 63.6875C130.875 64.1458 129.953 64.375 128.984 64.375C127.109 64.375 125.693 63.8229 124.734 62.7188C123.776 61.6042 123.297 59.9792 123.297 57.8438V48H126.906V57.3594C126.906 58.7135 127.167 59.7292 127.688 60.4062C128.208 61.0833 129.021 61.4219 130.125 61.4219C131.24 61.4219 132.151 61.0156 132.859 60.2031C133.568 59.3906 133.922 58.3646 133.922 57.125V48H137.562V64ZM151.375 62.9219C150.896 63.3802 150.339 63.7344 149.703 63.9844C149.068 64.2344 148.354 64.3594 147.562 64.3594C146.042 64.3594 144.891 63.9792 144.109 63.2188C143.339 62.4479 142.953 61.3229 142.953 59.8438V50.8438H140.266V48H142.953V44.0781L146.578 43.4375V48H150.656V50.8438H146.578V59.7188C146.578 60.3542 146.703 60.8229 146.953 61.125C147.214 61.4271 147.604 61.5781 148.125 61.5781C148.396 61.5781 148.661 61.526 148.922 61.4219C149.182 61.3177 149.458 61.1146 149.75 60.8125L151.375 62.9219ZM168.156 64H164.516V61.8281H164.453C163.932 62.6094 163.229 63.2292 162.344 63.6875C161.469 64.1458 160.547 64.375 159.578 64.375C157.703 64.375 156.286 63.8229 155.328 62.7188C154.37 61.6042 153.891 59.9792 153.891 57.8438V48H157.5V57.3594C157.5 58.7135 157.76 59.7292 158.281 60.4062C158.802 61.0833 159.615 61.4219 160.719 61.4219C161.833 61.4219 162.745 61.0156 163.453 60.2031C164.161 59.3906 164.516 58.3646 164.516 57.125V48H168.156V64ZM181.688 51.2656C181.396 51.151 181.094 51.0625 180.781 51C180.479 50.9271 180.156 50.8906 179.812 50.8906C178.74 50.8906 177.87 51.3698 177.203 52.3281C176.536 53.2865 176.203 54.5365 176.203 56.0781V64H172.562V48H176.203V50.8906H176.266C176.641 49.8698 177.193 49.0885 177.922 48.5469C178.651 47.9948 179.495 47.7188 180.453 47.7188C180.859 47.7188 181.234 47.75 181.578 47.8125C181.922 47.875 182.292 47.9948 182.688 48.1719L181.688 51.2656ZM198.625 56.8906H187.578C187.609 58.4323 188.026 59.5938 188.828 60.375C189.641 61.1458 190.635 61.5312 191.812 61.5312C192.646 61.5312 193.385 61.3385 194.031 60.9531C194.677 60.5573 195.224 59.974 195.672 59.2031L198.469 60.7188C197.74 61.8854 196.807 62.7865 195.672 63.4219C194.547 64.0573 193.219 64.375 191.688 64.375C189.333 64.375 187.448 63.6667 186.031 62.25C184.615 60.8333 183.906 58.7969 183.906 56.1406C183.906 53.6094 184.63 51.5573 186.078 49.9844C187.536 48.4115 189.359 47.625 191.547 47.625C193.797 47.625 195.536 48.2969 196.766 49.6406C198.005 50.9844 198.625 52.9323 198.625 55.4844V56.8906ZM195.109 54.2969C195.109 53.0469 194.797 52.0781 194.172 51.3906C193.547 50.7031 192.693 50.3594 191.609 50.3594C190.474 50.3594 189.552 50.7396 188.844 51.5C188.135 52.25 187.708 53.1823 187.562 54.2969H195.109Z" fill="#00B89C"/>
<defs>
<linearGradient id="paint0_linear_571_6924" x1="63.0185" y1="30.4554" x2="-15.6976" y2="33.0434" gradientUnits="userSpaceOnUse">
<stop stop-color="#EFF2F8"/>
<stop offset="1" stop-color="#171717"/>
</linearGradient>
</defs>
</svg>
